<?xml version="1.0" encoding="utf-8"?>
<!DOCTYPE svg PUBLIC "-//W3C//DTD SVG 1.1//EN" "http://www.w3.org/Graphics/SVG/1.1/DTD/svg11.dtd">
<svg version="1.1" xmlns="http://www.w3.org/2000/svg" width="1280px" height="854px" viewBox="0 0 1280 854" preserveAspectRatio="xMidYMid meet">
 <g fill="#000000">
  <path d="M623.5 852.3 c-1.1 -0.3 -6.9 -2.1 -13 -4 -50.6 -16.1 -101.1 -48.2 -134 -85.3 -37 -41.5 -58.4 -86.8 -69.7 -147 l-2.3 -12.5 -0.3 -149.7 -0.2 -149.8 48.7 -0.1 c26.9 0 48.2 -0.3 47.6 -0.6 -0.7 -0.2 -1.3 -0.9 -1.3 -1.5 0 -1.7 5.9 -0.3 13.3 3 6.7 3.1 6.7 3.1 6.7 7.1 l0 4.1 -51.5 0 -51.5 0 0 137.8 c0 117 0.2 139.2 1.5 147.7 7.8 52.3 25 94.4 54.4 133 8.9 11.7 33 36.2 45.1 45.9 26.3 20.9 61.3 40 92.8 50.5 17.4 5.9 17.8 5.9 30.7 1.6 34.1 -11.4 63.8 -26.7 91.3 -46.9 12.6 -9.4 40 -36.4 49 -48.3 29.1 -38.6 47.4 -83.3 53.2 -130.3 0.6 -5.5 1 -57.9 1 -150.7 l0 -142.3 -58.4 0 -58.4 0 -0.7 -6.5 c-0.8 -6.8 -0.1 -9.3 1.6 -6.2 0.9 1.6 5.2 1.7 64.4 1.7 l63.5 0 0 148.4 c0 97 -0.4 152 -1.1 158.7 -4.9 48.9 -24.2 97.4 -54.7 137.9 -9.8 13 -32.4 36.3 -45.2 46.4 -28.3 22.4 -61.3 40.1 -98.8 53 -15.5 5.3 -19 6 -23.7 4.9z"/>
  <path d="M616.1 796.4 c-20.9 -6.2 -43.4 -16.3 -62.1 -27.9 -30.7 -19.1 -58.4 -46.8 -75.8 -75.6 -14.6 -24.4 -25.1 -53.2 -30.1 -82.9 -2 -11.7 -2.1 -15.9 -2.1 -87.6 l0 -75.4 180 0 180 0 0 71.8 c0 75.6 -0.4 85.5 -4.6 106.2 -14.8 73.8 -64.7 132.4 -138.6 162.6 -14.6 6 -31.4 11.4 -35.2 11.3 -1.7 0 -6.9 -1.1 -11.5 -2.5z m21 -15.8 c35.2 -11.5 68.9 -31.7 93.3 -56 32.9 -32.7 54.3 -77.7 59.5 -124.8 0.7 -5.9 1.1 -35.2 1.1 -74.3 l0 -64.5 -86.7 0 c-47.8 0 -122.2 0.3 -165.5 0.7 l-78.8 0.6 0 62.1 c0 66.8 0.3 70.7 5.6 94.3 5 22.6 16.6 51 27.9 68.5 23.7 36.5 60.7 67.5 101.5 84.9 10.9 4.6 29.1 10.8 32.1 10.8 1.5 0.1 6 -1 10 -2.3z"/>
  <path d="M443 427.1 c0 -3.4 1.9 -13.6 3.6 -19.3 0.4 -1.3 1.6 -1.8 4.4 -1.8 3.7 0 3.8 0 4.5 4.7 0.7 5 5.7 11.3 9 11.3 2.2 0 7.5 -5.4 7.5 -7.5 0 -1 -3.3 -5.2 -7.4 -9.4 -9.6 -9.9 -10.9 -12.6 -10.4 -21.1 0.4 -7.9 3.1 -12.7 8.9 -15.9 3.3 -1.9 5.3 -2.1 18.8 -2 l15.1 0.1 -0.1 3.7 c0 2 -1 7 -2.3 11.1 l-2.2 7.5 -3.9 0 c-3.8 0 -4 -0.2 -4.6 -3.7 -0.7 -4.6 -3.2 -8.4 -6.1 -9.4 -1.7 -0.5 -2.7 0 -4.5 2 -1.3 1.5 -2.3 3 -2.3 3.4 0 0.5 3.4 4.1 7.6 8.2 9 8.9 10.4 11.3 10.4 18 0 4.8 0.1 5 2.8 5 1.5 0 3.7 0.3 4.8 0.6 1.8 0.5 2.2 0 2.8 -3.1 0.7 -3.5 0.8 -3.6 4.9 -3.3 l4.2 0.3 0.7 5 c0.5 3.8 1.4 5.7 3.8 7.8 3.8 3.4 5 3.4 8.9 0.1 4.8 -4 4.1 -6.3 -3.9 -14.1 -3.9 -3.7 -7.9 -8.6 -9 -10.8 -4.7 -9.8 -0.4 -23.3 8.6 -27.1 2.3 -1 7.7 -1.3 17.8 -1.3 l14.6 0.1 0 3.6 c0 2 -0.9 7.1 -2.1 11.4 l-2.1 7.8 -3.9 0 c-3.4 0 -3.9 -0.3 -4.4 -2.7 -1.2 -5.8 -2.1 -7.7 -4.5 -9.5 -3 -2.2 -5.2 -1.7 -7.6 2 l-1.7 2.6 7.5 7 c8.5 8 10.6 11.5 11.5 18.7 l0.6 4.9 4.3 0 c6.1 0 8.4 2.5 8.4 9 0 6.8 -3 10 -9.2 10 -4.6 0 -8.8 -2.2 -8.8 -4.6 0 -1 -1.1 -0.7 -4.2 1.3 -3.6 2.4 -5.4 2.8 -12.8 3.1 -4.8 0.2 -10.3 -0.1 -12.3 -0.6 -2 -0.6 -3.7 -0.6 -3.7 -0.2 0 0.5 -4.3 0.9 -9.4 0.9 -7.7 0 -9.9 -0.3 -11.7 -1.8 -2.2 -1.8 -2.4 -1.8 -6.3 0 -4.5 2.1 -16.7 2.6 -22.3 1 -2 -0.6 -3.5 -0.6 -3.8 0 -0.4 0.5 -2.4 0.9 -4.6 0.9 -3.9 0 -3.9 0 -3.9 -3.9z"/>
  <path d="M766.9 429.1 c-4.5 -1.5 -8.8 -5.3 -11 -9.8 -1.8 -3.8 -2.1 -5.8 -1.7 -14.7 0.3 -9.1 0.7 -10.9 3.7 -17 4 -8.2 12.7 -17.3 19.6 -20.6 4.2 -2 6.5 -2.4 14.5 -2.4 11.1 0 16 1.9 20.7 8.1 2.7 3.5 2.8 4 2.8 15.7 0 11.7 -0.1 12.4 -3.3 18.8 -3.8 7.8 -12.3 16.7 -19 19.9 -3.7 1.9 -6.7 2.4 -14.2 2.6 -5.2 0.1 -10.7 -0.1 -12.1 -0.6z m14 -9.7 c5.9 -3.5 12.6 -16.8 15.5 -30.6 1.6 -7.8 1.4 -10 -1.2 -13 -2.4 -2.9 -5.3 -2.1 -9.8 2.6 -4.5 4.8 -9.2 15.4 -12 27.2 -1.6 7.2 -0.8 12.5 2.4 14.4 2.2 1.2 2 1.3 5.1 -0.6z"/>
  <path d="M652.8 428.3 l-14.8 -0.4 0 -3.8 c0 -3.6 0.3 -4 3 -4.6 3.3 -0.7 5 -3 5 -6.9 0 -2.5 -0.2 -2.6 -5.9 -2.6 -5.7 0 -6.1 0.2 -9 3.9 -3.4 4.3 -3.9 6.1 -1.5 6.1 1.2 0 1.4 0.9 1.2 3.8 l-0.3 3.7 -35.2 0.3 -35.3 0.2 0 -4.5 c0 -3.1 0.4 -4.5 1.3 -4.5 2.9 0 4.7 -4.2 9.7 -23 2.9 -10.7 5.5 -20.1 5.7 -20.8 0.3 -0.7 -0.7 -1.4 -2.6 -1.8 -2.8 -0.6 -3.1 -1 -3.1 -4.5 l0 -3.9 16.5 0 16.5 0 0 4 c0 3.3 -0.4 4 -1.9 4 -4.5 0 -5.9 3 -11.5 24 -3 11.3 -5.2 20.9 -4.9 21.3 0.2 0.4 2.1 0.5 4.1 0.1 6.5 -1.2 12.2 -4.5 15.5 -9 2.9 -3.9 3.6 -4.3 7.6 -4.4 l4.3 0 -0.4 4 c-0.2 2.2 -0.3 4 -0.2 4 0 0 8.6 -11 19 -24.5 l18.8 -24.5 4.2 0 4.1 0 0.7 25.8 c0.4 14.1 1 26.5 1.2 27.5 0.3 0.9 1.2 1.7 1.9 1.7 1.1 0 19.5 -22.1 35.8 -42.7 0.7 -1 0.2 -1 -2.4 -0.1 -3.9 1.3 -9.6 5.2 -12.2 8.5 -1.4 1.8 -2.9 2.3 -6.3 2.3 -4.3 0 -4.4 -0.1 -4.3 -3.2 0 -1.8 1.3 -6.4 2.8 -10.3 l2.9 -7 23.1 -0.3 23.1 -0.2 0 3.9 c0 3.6 -1.5 5.8 -18 26.2 -9.9 12.2 -17.8 22.5 -17.5 22.7 0.2 0.3 2.6 -0.1 5.2 -0.9 3.3 -0.9 6.3 -2.8 10.2 -6.6 4.7 -4.5 6.1 -5.3 9.3 -5.3 3.7 0 3.8 0.1 3.8 3.4 0 1.9 -0.5 4.7 -1 6.2 -0.6 1.5 -0.8 2.9 -0.5 3.2 1.7 1.7 4.2 -4.7 9.4 -23.7 l5.8 -21.2 -2.8 -0.6 c-2.6 -0.5 -2.9 -1 -2.9 -4.4 l0 -3.9 15.5 0 15.5 0 0 3.8 c0 3 -0.5 4 -2.8 5.3 -2.5 1.4 -3.3 3.4 -8.5 22.5 -3.2 11.5 -5.7 21.2 -5.7 21.6 0 0.4 1 0.8 2.3 1 1.8 0.2 2.3 1 2.5 4.6 l0.3 4.2 -15.5 0 c-15.5 0 -15.6 0 -15.7 -2.2 -0.1 -2.1 -0.2 -2 -1.1 0.5 l-1 2.7 -24.1 -0.2 c-13.3 -0.1 -30.8 -0.4 -38.9 -0.5z m-6.8 -31 l0 -3.7 -2.5 3.4 c-1.4 1.9 -2.5 3.5 -2.5 3.7 0 0.2 1.1 0.3 2.5 0.3 2.2 0 2.5 -0.4 2.5 -3.7z"/>
  <path d="M534.6 312.8 c-0.3 -1.3 -0.6 -3.8 -0.6 -5.7 l0 -3.4 4.3 0.5 c6.4 0.7 9.7 3.3 9.7 7.4 l0 3.4 -6.4 0 c-5.8 0 -6.4 -0.2 -7 -2.2z"/>
  <path d="M565.7 314.3 c-0.4 -0.3 -0.7 -2.1 -0.7 -4 0 -3.1 0.2 -3.3 3.4 -3.3 5.4 0 6.6 0.8 6.6 4.6 0 3.3 -0.1 3.4 -4.3 3.4 -2.4 0 -4.7 -0.3 -5 -0.7z"/>
  <path d="M598 313.3 c0 -1 0.3 -4.2 0.6 -7 l0.7 -5.3 14.6 0 c13 0 15 0.2 18.1 2.1 4.7 2.8 6 4.7 6 8.6 l0 3.3 -20 0 c-18.4 0 -20 -0.1 -20 -1.7z"/>
  <path d="M658 309.5 l0 -4.5 3.8 0 c4.7 0 6.2 1.4 6.2 5.7 0 3.3 0 3.3 -5 3.3 l-5 0 0 -4.5z"/>
  <path d="M688 310 c0 -3.9 0.1 -4 3.4 -4 5.4 0 6.6 0.8 6.6 4.6 l0 3.4 -5 0 -5 0 0 -4z"/>
 </g>
 <g fill="#000000">
  <path d="M503 340.1 c0 -1.7 1.4 -5 3 -7.5 4.3 -6.4 8.2 -17 6.7 -18.5 -0.8 -0.8 -0.5 -1.1 1.2 -1.1 4 0 1.7 -2.4 -5.5 -5.5 -3.8 -1.6 -7.5 -3.6 -8.2 -4.2 -0.7 -0.7 -2.1 -1.3 -3.1 -1.3 -2.2 0 -10.1 -4.1 -14.8 -7.7 l-3.4 -2.6 5.8 -2.2 c8.8 -3.4 21.5 -10 24.7 -13.1 l2.8 -2.7 -4.6 -2.5 c-2.5 -1.4 -4.6 -2.9 -4.6 -3.3 0 -0.4 3 -1.7 6.8 -3 7.8 -2.5 17.3 -7.1 19 -9.1 1 -1.2 -0.8 -2 -10.6 -4.7 -22.8 -6.2 -41.6 -15.5 -47.7 -23.5 -1.9 -2.6 -3.7 -3.7 -6.3 -4.1 -19.8 -3.1 -29.5 -8.6 -36.1 -20.4 -3.5 -6.1 -5.6 -7.9 -2.6 -2.2 l1.6 3.1 -5.3 0 c-7.2 0 -14.3 -3.5 -19.9 -9.7 -3.8 -4.4 -5 -5.1 -9.3 -5.7 -6.9 -0.9 -15.3 -5 -20.6 -10 -4 -3.9 -5.5 -4.6 -13.7 -6.4 -12.4 -2.8 -23.5 -7.6 -29.8 -12.8 -4.5 -3.6 -6.8 -4.6 -15.7 -6.8 -22.4 -5.3 -37 -12.6 -47.8 -23.8 -4.2 -4.3 -8 -7.8 -8.5 -7.8 -0.5 0 0.6 1.6 2.5 3.5 4.2 4.3 3 4.5 -8 1.4 -9.2 -2.5 -17 -6.6 -23.6 -12.2 -4.4 -3.9 -5.8 -4.5 -14.3 -6.1 -17.2 -3.2 -30.8 -9.7 -41.7 -19.8 -6.4 -6.1 -6.6 -6.1 -19.2 -9.4 -22.3 -5.7 -40.1 -14.9 -51.3 -26.5 -3.8 -4 -6.5 -5.9 -8.1 -5.9 -3.7 0 -25.4 -5.5 -35.3 -9 -17.7 -6.3 -29.7 -13.7 -51.6 -32.2 l-4.4 -3.8 222 0 c148.8 0 224.8 0.3 230.5 1 30.8 3.9 59.3 14 82.1 29.2 9.1 6 19.7 16 41.4 38.9 34 36 76.3 38.1 121.5 6 4.9 -3.4 16.5 -13.3 25.7 -21.9 9.3 -8.5 20.6 -18.4 25.3 -21.8 21.1 -15.7 47.6 -25.6 79 -29.4 6.9 -0.8 68.6 -1.1 229 -1 120.7 0 219.6 0.2 219.8 0.5 0.5 0.5 -10 8.7 -18.3 14.2 -19 12.7 -45.8 23.8 -75 31.3 -2.5 0.6 -7 3.5 -12.1 7.7 -15.4 12.8 -32.3 21.2 -52.6 26.2 -9.1 2.3 -11.3 3.2 -14.5 6.2 -10.4 9.9 -29.9 19 -52.3 24.4 -6 1.5 -8.2 2.6 -11.5 5.7 -8.2 7.9 -18.8 13.2 -32.6 16.3 -6.8 1.5 -8.3 2.2 -12.7 6.5 -10.1 9.7 -25.4 14.8 -45.5 15.2 -5.6 0.1 -7.9 0.3 -5.2 0.5 8.2 0.6 8.4 0.8 2.9 6.5 -6.3 6.5 -16.5 13.2 -25.1 16.4 -7.7 3 -21.1 5.4 -29.5 5.4 -3.1 0 -5.9 0.3 -6.1 0.8 -0.3 0.4 2 0.6 5.1 0.4 l5.7 -0.3 -3 2.6 c-4.7 3.9 -16.9 8.6 -28.7 10.9 -5.8 1.2 -11 2.5 -11.5 2.9 -0.7 0.8 2 0.4 7 -1 3 -0.8 0.3 3.2 -4.4 6.7 -5.7 4.1 -15.1 7 -27.9 8.4 -6 0.7 -11.3 1.6 -11.6 1.9 -0.4 0.4 1.6 0.4 4.5 0 3.1 -0.3 5.1 -0.2 5.1 0.4 0 1.7 -7.7 6.2 -12.7 7.5 -2.9 0.7 -6.8 2.9 -9.8 5.4 -17 14.1 -39 24.6 -58 27.7 l-7 1.1 -2.4 5 c-2.4 5 -12.9 16.4 -20.5 22.2 -3.8 3 -3.8 3.1 -2.3 5.5 2.2 3.3 5.7 12.5 5.9 15.5 0.2 1.5 0.9 2.4 2 2.4 1.4 0 1.6 0.6 1.1 3.3 -1.4 7.6 -6.4 13.3 -18.2 20.9 -6 3.8 -8.5 4.8 -11.8 4.8 -4.1 0 -4.3 -0.2 -4.3 -2.9 0 -1.6 1.1 -5.3 2.4 -8.2 2.4 -5.4 3 -7.6 2.7 -11.4 -0.2 -1.5 -0.6 -1.2 -2.1 1.6 -4.3 8.1 -21.9 19.9 -29.6 19.9 -3.2 0 -3.4 -0.2 -3.4 -3.4 0 -1.9 1.1 -5.4 2.5 -7.7 1.4 -2.5 2.5 -6 2.4 -7.9 l0 -3.5 -1.6 3 c-3.7 7 -9.5 11.2 -20.7 15 -4.1 1.4 -9.3 2.5 -11.5 2.5 -3.9 0 -4.1 -0.1 -4.1 -3.1 0 -1.7 1.1 -4.5 2.5 -6.3 4 -5.3 5 -9.2 3.1 -12.1 -2.1 -3.1 -2 -3.5 0.4 -3.5 3 0 1.4 -2.7 -3.5 -5.5 -3.8 -2.3 -5.2 -2.5 -15.7 -2.5 l-11.6 0 -0.4 4 c-0.3 3.3 0 4 1.4 4 1.4 0 1.6 0.6 1.1 3.3 -2.3 12.4 -18.3 25.5 -32.5 26.5 l-5.8 0.4 0 -2.9 c0 -1.6 1.6 -5.8 3.5 -9.3 3.3 -6.3 4.5 -12 2.5 -12 -0.5 0 -1 0.9 -1 2 0 2.9 -4.2 9.2 -8.7 12.9 -5.1 4.2 -15.3 9.1 -19.2 9.1 -2.8 0 -3.1 -0.3 -3.1 -3.2 0 -1.8 0.9 -5.8 2.1 -8.8 2.5 -6.6 2.7 -11.1 0.5 -14.2 l-1.6 -2.2 0 2.7 c0 4.3 -3.4 10 -8.7 14.7 -6.5 5.7 -19.7 12 -25.1 12 -4 0 -4.2 -0.2 -4.2 -2.9z m40 -30.1 c-3.4 -2.6 -6.3 -3.3 -5.6 -1.3 0.3 0.8 0.6 1.9 0.6 2.4 0 0.5 1.7 0.9 3.8 0.9 l3.7 0 -2.5 -2z m121 -0.5 c-0.7 -0.8 -1.6 -1.5 -2.1 -1.5 -0.5 0 -0.9 0.7 -0.9 1.5 0 0.9 0.9 1.5 2.1 1.5 1.8 0 1.9 -0.2 0.9 -1.5z m30 0.5 c-1.9 -1.3 -3 -1.3 -3 0 0 0.6 1 1 2.3 1 1.8 0 1.9 -0.2 0.7 -1z m-169.2 -18.5 c3.9 -0.8 10.1 -2.7 13.9 -4.2 l6.8 -2.8 -4 -0.3 c-2.2 -0.1 -7.8 -0.7 -12.4 -1.2 l-8.4 -1 -4.1 3.4 c-2.3 1.8 -5.7 4.3 -7.6 5.5 l-3.5 2.1 6.2 0 c3.4 0 9.3 -0.7 13.1 -1.5z m139.8 -3.3 c5 -1.7 10.7 -4 12.5 -5.1 l3.4 -2.1 -11.5 0 c-6.3 0 -14.6 -0.5 -18.4 -1 l-6.8 -1 -4.4 4 c-2.4 2.2 -5.9 4.8 -7.8 5.7 -5.9 2.8 -3.1 3.6 10.8 3.1 11.2 -0.4 14.4 -0.9 22.2 -3.6z m-92.2 -23.3 c16.1 -5.3 25.8 -10.1 31.8 -15.9 l5.1 -4.9 -2.5 -3.3 c-3.7 -4.9 -9.3 -6.6 -16 -4.9 -7.9 2 -16.3 6.1 -25.6 12.5 -4.5 3.1 -13.6 8.8 -20.2 12.5 l-12 6.9 8.7 0.7 c4.9 0.3 9.9 0.7 11.3 0.9 3.6 0.4 6.1 -0.2 19.4 -4.5z m128.9 -4.7 c16.9 -8.1 29.7 -17.7 32.9 -24.8 1 -2 0.8 -2.8 -1.3 -5 -7.1 -7.8 -15.3 -5.8 -29.9 7.2 -7 6.2 -18.8 14.3 -33 22.5 -5 2.8 -9 5.4 -9 5.7 0 0.2 6.7 0.3 14.8 0 l14.9 -0.5 10.6 -5.1z m71 -28.9 c-3.5 -0.2 -9.1 -0.2 -12.5 0 -3.5 0.2 -0.7 0.3 6.2 0.3 6.9 0 9.7 -0.1 6.3 -0.3z m-253.5 -3 c-3.8 -0.2 -9.8 -0.2 -13.5 0 -3.8 0.2 -0.7 0.3 6.7 0.3 7.4 0 10.5 -0.1 6.8 -0.3z m107.3 -2.3 c7.5 -2.3 13.8 -6 10.3 -6 -1.2 0 -4.2 -1.1 -6.7 -2.5 -4.4 -2.3 -4.9 -2.4 -8.8 -1 -2.3 0.8 -6.3 1.5 -9 1.5 -2.9 0 -4.9 0.5 -4.9 1.1 0 0.6 -0.9 2.4 -2 3.9 l-2 2.9 4.2 0.9 c6.9 1.6 12.2 1.3 18.9 -0.8z m-45.9 -3.5 c2.7 -0.9 5 -2.1 5.3 -2.5 0.3 -0.5 -1.5 -1.8 -4.1 -2.9 l-4.6 -2.1 -9.1 4.4 c-5.1 2.4 -9.9 4.6 -10.7 5 -3.5 1.5 18.8 -0.3 23.2 -1.9z m88.5 -1.1 c4.3 -2.5 7.5 -5.6 3.5 -3.5 -1.1 0.6 -3 1.1 -4.1 1.1 -1.1 0 -3.5 1.4 -5.3 3.1 -3.1 2.9 -3.2 3 -0.8 2.4 1.4 -0.4 4.4 -1.8 6.7 -3.1z m128.3 -5.3 c5.9 -0.6 0.4 -0.8 -18 -0.8 -15.4 0.1 -23.2 0.3 -18.5 0.7 11.4 0.9 26.6 0.9 36.5 0.1z m-281.7 -0.8 c-3.4 -0.2 -9.3 -0.2 -13 0 -3.7 0.2 -0.9 0.3 6.2 0.3 7.2 0 10.2 -0.1 6.8 -0.3z m150.7 -10.6 l6.5 -2.4 -4.5 -0.8 c-2.5 -0.4 -5.8 -1.5 -7.5 -2.3 -1.6 -0.9 -3.2 -1.5 -3.5 -1.4 -0.3 0.1 -4.3 1.7 -8.9 3.6 -7.9 3.3 -8.2 3.5 -6 4.7 5.9 3.2 12.8 2.8 23.9 -1.4z m-52.1 -2.2 l4.5 -1.9 -5 -1.6 c-4.2 -1.4 -5.3 -1.5 -8.1 -0.3 -1.8 0.7 -4.1 1.3 -5.1 1.3 -1 0 -2.9 1.2 -4.3 2.6 l-2.4 2.6 8 -0.4 c4.4 -0.3 10 -1.3 12.4 -2.3z m188.4 0.8 c-3.4 -0.2 -9.3 -0.2 -13 0 -3.7 0.2 -0.9 0.3 6.2 0.3 7.2 0 10.2 -0.1 6.8 -0.3z m-250.8 -5.3 c0.4 -0.7 -16.7 -0.9 -50.7 -0.8 -28.2 0.1 -48.1 0.4 -44.3 0.8 12 1.1 94.3 1.1 95 0z m194 -11.2 c6.1 -2 18.2 -7.7 31 -14.5 6.2 -3.3 8 -3.7 15.7 -4.1 6.6 -0.3 9.4 -0.1 11.9 1.2 2.8 1.4 9.2 1.6 53.8 1.6 50.3 0 50.6 -0.1 48.1 -2 -6.7 -5.2 -8.5 -5.4 -53.7 -5.8 l-42.3 -0.3 0 -3.8 c0 -2.9 0.7 -4.4 3.3 -7 l3.4 -3.2 43.9 0.3 44 0.3 6.4 3.2 c3.6 1.7 6.6 3.1 6.7 2.9 0.9 -0.9 -5.5 -11.1 -8.5 -13.6 -6.2 -5.1 -11 -6.2 -29.3 -6.7 l-16.6 -0.5 -15.3 6.6 c-16.5 7.1 -23 8.4 -23 4.7 0 -1.1 -1 -2.7 -2.2 -3.5 -1.9 -1.4 -6.3 -1.6 -28 -1.6 l-25.8 0 0 -3.6 c0 -2.3 0.9 -4.7 2.8 -7 l2.7 -3.4 37.5 0 c20.6 0 38.1 -0.4 38.8 -0.9 3.7 -2.3 -5 -13.7 -12.4 -16.3 -3.1 -1 -23.2 -1.3 -94.9 -1.6 l-90.9 -0.2 3.8 3.9 c4.5 4.6 11.5 8.6 20 11.3 5.1 1.7 9.8 2.1 27.9 2.5 l21.7 0.5 0 3.2 c0 2.8 -0.8 3.6 -6.9 7.3 -3.7 2.3 -8.3 5.7 -10 7.5 l-3.2 3.3 2.5 2.2 c4.2 3.6 3.6 7.7 -2 12.6 -3.1 2.7 -4.2 4.3 -3.5 5 0.6 0.6 4.9 1.3 9.6 1.5 l8.5 0.5 0 3.1 c0 1.7 -0.7 4 -1.5 5 -2.3 3 -1.8 5.2 1.6 7.7 7.2 5.1 13 5.5 24.4 1.7z m-97.7 -1.5 c3.1 -1.5 5.7 -3.3 5.9 -3.9 0.6 -1.9 -3.3 -2.2 -9.4 -0.8 -3.2 0.8 -7.1 1.4 -8.8 1.4 -2.3 0 -3.4 0.7 -4.7 2.9 -0.9 1.6 -1.3 3.3 -1 3.6 1.5 1.6 12.7 -0.4 18 -3.2z m40.5 0 c2.6 -1.3 4.7 -2.6 4.7 -2.9 0 -0.4 -1.2 -1.8 -2.7 -3.3 l-2.8 -2.6 -5.5 1.8 c-4.1 1.4 -6.1 2.7 -7.8 5.2 -2.8 4.3 -2.8 4.3 0.6 4.7 4.2 0.6 8.2 -0.3 13.5 -2.9z m-86.8 -0.4 c7.4 -2.8 8.1 -3.4 6.5 -5.3 -0.9 -1.2 -2.3 -1.5 -4.9 -1.1 -6.7 1.1 -7.6 1.5 -12.1 5.6 l-4.5 4.1 5 -0.7 c2.7 -0.4 7.2 -1.5 10 -2.6z m261.5 2.1 c3 -0.4 -12.9 -0.7 -35.5 -0.7 -23.4 0.1 -35.4 0.4 -28 0.7 19.4 0.9 57.2 0.9 63.5 0z m-318.6 -5.5 c-0.5 -1.3 -8.6 -1.5 -64.8 -1.4 -35.2 0.1 -63.2 0.4 -62.1 0.6 5.9 1.2 37.4 2 79.7 2.2 42.1 0.1 47.7 -0.1 47.2 -1.4z m95 -14.7 c5.5 -1.8 16.7 -8.5 18.1 -10.9 1.3 -2 -0.5 -2.2 -4.7 -0.6 -2.3 1 -7.8 2.2 -12.3 2.9 l-8 1.1 -3.8 5.4 -3.8 5.3 4.3 -0.6 c2.4 -0.4 7 -1.5 10.2 -2.6z m36.6 -0.4 c4.3 -1.4 14.6 -8.1 13.8 -9 -0.2 -0.2 -2 0.1 -3.9 0.6 -1.8 0.6 -4.7 1 -6.3 1 -2.1 0 -4.3 1.4 -8.2 5 -5.8 5.5 -5.5 5.6 4.6 2.4z m-77.3 -0.1 c2.9 -0.9 6.8 -2.9 8.6 -4.4 l3.2 -2.8 -39.5 0.2 c-38.6 0.2 -38.8 0.2 -8.6 0.4 l30.8 0.3 -0.4 4 c-0.2 2.2 -0.2 4 0.1 4 0.2 0 2.8 -0.8 5.8 -1.7z m-135.9 -2.3 l42.4 0 -3 -2.5 -3 -2.5 -73.9 0.2 -73.8 0.3 9.5 1.9 c12.9 2.5 28.7 3.5 45.5 3 7.7 -0.2 33 -0.4 56.3 -0.4z m165.8 -17.5 c2.8 -0.3 7.7 -1.2 11 -2.1 6.3 -1.6 19.4 -7.3 19.4 -8.4 0 -0.3 -2 -1.6 -4.4 -2.9 -4 -2 -4.9 -2.1 -9.3 -1 -2.6 0.7 -6.7 2.1 -9.1 3.1 -4.1 1.7 -8.7 1.8 -72.5 1.9 -48.1 0 -67.5 0.3 -65.7 1.1 1.7 0.7 22.2 0.9 62.3 0.6 l59.7 -0.5 0 3 c0 1.7 -0.8 3.9 -1.7 5 -1.7 1.8 -1.7 1.9 1.7 1.3 1.9 -0.3 5.8 -0.8 8.6 -1.1z m-162.1 -5 l-4 -2.4 -77.5 0 c-69.6 0.1 -76.8 0.3 -70.5 1.5 13.1 2.7 25 3.1 90.5 3.3 l65.5 0.1 -4 -2.5z m219.5 0.4 c2 -0.5 4.4 -1.5 5.5 -2.3 1.8 -1.4 1.5 -1.5 -4.6 -1.6 -6.2 0 -6.7 0.2 -8.8 3.1 l-2.3 3.1 3.3 -0.7 c1.9 -0.4 5 -1.1 6.9 -1.6z m285 -2.2 l7.5 -2.5 -25.2 -0.1 c-13.9 -0.1 -25.3 0.2 -25.3 0.7 0 0.4 0.7 1.8 1.6 3.1 1.7 2.3 1.8 2.3 17.8 1.9 13.8 -0.4 17.2 -0.9 23.6 -3.1z m-550.5 -22.2 l-6 -3.4 -78 0 c-68.1 0.1 -77.4 0.3 -73 1.5 5.2 1.4 26 4.2 35.5 4.7 3 0.2 33 0.4 66.5 0.5 l61 0.2 -6 -3.5z m580 0.6 c4.4 -0.7 10.5 -1.8 13.5 -2.5 4.8 -1.2 -4.6 -1.4 -69.7 -1.5 l-75.3 -0.1 0 3.1 0 3.1 61.8 -0.5 c39 -0.3 64.6 -0.9 69.7 -1.6z m-363.7 -3.2 c-1.2 -2.2 -2.7 -4.4 -3.3 -4.8 -0.5 -0.5 -6.2 -1.3 -12.5 -1.9 -10.5 -1 -12.1 -1.4 -20.5 -5.6 -11.3 -5.6 -21.9 -14.1 -41.5 -33.2 -8.5 -8.3 -18.9 -17.7 -23 -20.9 -20.3 -15.6 -44.3 -26.1 -74.6 -32.7 -9.7 -2.1 -11.8 -2.2 -106.4 -2.5 -96.5 -0.3 -96.5 -0.3 -94 1.7 1.4 1.1 5 3 8 4.2 l5.5 2.3 103.5 0.5 103.5 0.5 6.5 2.6 c10.1 4.1 18.8 8.6 27.8 14.6 7.6 5.1 8.2 5.8 8.2 8.9 l0 3.4 -95.2 0.1 -95.3 0.1 4.5 2.1 c4.5 2.2 4.6 2.2 101.5 2.7 l97 0.5 4.5 2.7 c6.6 3.8 11.3 7.8 16.4 13.8 3.7 4.3 4.6 6.1 4.6 9.2 l0 3.8 -80.7 0 c-44.3 0 -80.4 0.3 -80.1 0.6 0.3 0.3 3 1.3 5.9 2.2 4.8 1.4 14.9 1.6 88.6 1.9 l83.3 0.4 7 4.8 c3.8 2.7 8.4 5.4 10 6.1 2.5 1 3 1.8 3 4.6 l0 3.4 -75.2 0.1 c-42.6 0.1 -73.6 0.5 -71.3 1 2.2 0.4 40.4 0.8 84.8 0.8 54.6 0.1 81.5 0.4 82.8 1.2 2.1 1.1 15.4 4.7 17.7 4.8 0.9 0.1 0.6 -1.1 -1 -4z m-254.8 -17.7 c-1.4 -0.9 -4.6 -3.6 -7.1 -6 l-4.6 -4.2 -88.9 0.2 -88.9 0.3 9.5 3.2 c21.4 7.1 34.7 8 118.5 8.1 60.5 0.1 63.9 0 61.5 -1.6z m668 -0.6 c13.3 -1.9 24.9 -4.7 31.1 -7.5 4.4 -2 4.3 -2 -83.9 -2 l-88.3 -0.1 -6.7 5.6 c-3.7 3.2 -6.9 5.9 -7.2 6.1 -0.3 0.3 31.9 0.3 71.5 0 60.1 -0.4 73.9 -0.7 83.5 -2.1z m-346.8 -2.3 l5.8 -2.3 74.9 0 c78.2 0 84.2 -0.3 93.1 -4.4 3.2 -1.5 -2.7 -1.6 -75.8 -1.2 l-79.3 0.5 0.3 -3.6 c0.3 -3.4 1.2 -4.2 14.6 -13.9 l14.3 -10.3 87.7 -0.3 87.7 -0.3 6.5 -2.3 c14.3 -5 15.3 -4.8 -37.7 -5.5 -26.8 -0.4 -66.7 -0.7 -88.6 -0.7 l-39.8 0 0.3 -3.6 c0.3 -3.5 0.8 -3.9 11.8 -10.5 6.3 -3.8 15.1 -8.3 19.5 -10 l7.9 -3.1 98.1 -0.1 98 -0.2 5.5 -2.3 c3 -1.2 6.6 -3.1 8 -4.2 2.5 -1.9 2.1 -2 -92.1 -2 -103.8 0 -101.7 -0.1 -121.4 6.1 -21.5 6.8 -38 17 -58.5 36.3 -13.6 12.8 -28 24.6 -41.6 34.1 -11.1 7.8 -10.9 8.6 0.8 3.8z m-390.9 -34.8 l-6.8 -6.4 -89 0 c-87.2 0 -88.9 0 -85.5 1.8 8.2 4.4 24.1 8.3 40.6 10 4.4 0.5 39.3 0.9 77.7 1 l69.7 0.1 -6.7 -6.5z m802.6 4.6 c11.5 -1.9 25.6 -5.7 31.4 -8.5 l5.2 -2.4 -89.6 -0.1 -89.7 -0.1 -1.6 2.5 c-0.9 1.4 -3.9 4.3 -6.8 6.5 l-5.1 4.1 74.4 -0.4 c53 -0.3 76.5 -0.7 81.8 -1.6z m-878.6 -43.6 l-7.6 -7.5 -95.6 0 c-84.3 0.1 -95.4 0.2 -93.7 1.5 4.6 3.5 21.3 8.3 36.1 10.5 14.9 2.3 30.8 2.7 99.8 2.9 l68.7 0.1 -7.7 -7.5z m959.7 5.6 c13.1 -1.7 27.8 -5 35 -7.8 14.1 -5.6 18.7 -5.3 -85.7 -5.3 l-96.1 0 -7.6 7.6 -7.5 7.6 76.7 -0.5 c47.8 -0.3 79.9 -0.9 85.2 -1.6z"/>
 </g>
 <g fill="#e7e7e7">
  <path d="M563.2 760.1 c-28.9 -17.5 -55 -42.6 -72.7 -69.9 -11.3 -17.5 -22.9 -45.9 -27.9 -68.5 -5.4 -23.8 -5.6 -27.2 -5.6 -97.4 l0 -65.3 49.8 0 c27.5 0 53.3 -0.3 57.5 -0.6 l7.7 -0.7 0.2 153.9 c0.2 84.6 0.3 154 0.3 154 0 0.1 -4.2 -2.4 -9.3 -5.5z"/>
  <path d="M682 762.7 c0 -1.4 0.7 -2.7 1.5 -3.1 1.3 -0.5 1.5 -18.2 1.5 -151.1 l0 -150.5 54.5 0 54.5 0 0 67.5 c0 71 -0.3 78.5 -4.6 98.7 -11.7 55.7 -45.4 103.2 -95.6 134.5 -11 6.9 -11.8 7.2 -11.8 4z"/>
  <path d="M888.3 361.2 c-12.4 -4.4 -20.6 -16.1 -20.6 -29.3 0 -6 0.5 -8 3.4 -13.7 9.6 -18.7 33.7 -22.8 48.8 -8.1 6.9 6.6 8.6 11 8.6 21.9 0 8 -0.4 10.2 -2.3 13.8 -7.3 13.8 -23.8 20.4 -37.9 15.4z m18.6 -2.8 c6.1 -1.8 12.3 -6.9 15.4 -12.8 1.8 -3.4 2.2 -5.8 2.2 -13.6 0 -8.6 -0.3 -10 -2.7 -14.2 -3.6 -6.1 -9.1 -10.5 -15.2 -12.3 -6.3 -1.9 -9.9 -1.9 -16.3 0 -19.6 5.8 -25.2 33.7 -9.5 47.6 7.4 6.4 16.2 8.3 26.1 5.3z"/>
  <path d="M887 332 l0 -17 10 0 c10.5 0 15.1 1.3 16.4 4.5 2.1 5.6 -1.2 11.8 -7.2 13.2 l-3.2 0.8 3.3 5 c7.5 11.1 7.2 10.5 4.9 10.5 -1.4 0 -3.4 -2.3 -6.8 -8 -4.9 -8 -4.9 -8 -9.1 -8 l-4.3 0 0 8 c0 7.3 -0.2 8 -2 8 -1.9 0 -2 -0.7 -2 -17z m21.4 -3.6 c0.9 -0.8 1.6 -3.1 1.6 -4.9 0 -5 -2.8 -6.5 -11.7 -6.5 l-7.3 0 0 6.5 0 6.5 7.9 0 c5.9 0 8.4 -0.4 9.5 -1.6z"/>
 </g>
 <g fill="#fefdfa">
  <path d="M615 836.5 c-37.3 -10.9 -77.2 -32.8 -107.8 -59 -51.5 -44.2 -81.9 -100.9 -92.7 -173 -1.3 -8.5 -1.5 -31 -1.5 -150.7 l0 -140.8 52.1 -0.2 c40.4 -0.2 52.3 0 52.6 0.9 0.7 1.8 -5.3 16.9 -8.7 21.9 -1.6 2.4 -2.4 4.4 -1.8 4.4 2.7 0 17.7 -8.2 22.1 -12 4.9 -4.4 8.7 -10.4 8.7 -14 0 -1.6 0.6 -2 3.4 -2 4.2 0 5.4 1.5 6.2 7.1 0.5 3.3 0 6.3 -1.9 11.9 -1.4 4.1 -2.4 7.6 -2.3 7.7 0.1 0.1 2.8 -1.1 6.1 -2.7 10.8 -5.2 17.4 -12.3 18.9 -20.2 0.8 -4.4 3.2 -5 6.2 -1.7 3.1 3.4 2.3 10.4 -1.9 18.4 l-3.6 6.7 3.1 -0.6 c12 -2.4 28.8 -17 28.8 -25.1 0 -1.3 2.4 -1.5 17.5 -1.5 l17.5 0 0.6 2.6 c1.1 4.4 -0.3 10.6 -3.5 15.1 -1.7 2.4 -2.6 4.3 -2 4.3 0.6 0 4.4 -1.1 8.5 -2.5 12.1 -4.1 18.4 -9 20.9 -16.2 2.6 -7.7 8.1 -3.8 7.9 5.7 0 3.1 -0.9 6.3 -2.7 9.5 -1.5 2.6 -2.6 5 -2.4 5.2 0.2 0.2 3.7 -1.3 7.8 -3.4 9 -4.5 18.6 -13.4 19.5 -18.1 0.6 -2.8 1 -3.3 3.3 -3 5.6 0.7 6.4 10 1.7 20.4 -1.4 3 -2 5.4 -1.4 5.4 1.4 0 10 -5.3 16.1 -9.9 5.2 -3.8 10.7 -11.3 10.7 -14.3 0 -1.7 2.5 -1.8 58.5 -1.8 l58.5 0 0 145.3 c0 94.9 -0.4 148.2 -1 153.7 -5.8 47 -24.1 91.7 -53.2 130.3 -9 11.9 -36.4 38.9 -49 48.3 -21.6 15.9 -44.1 28.5 -69.3 38.8 -12.6 5.1 -34.9 12.6 -37.4 12.6 -0.9 -0.1 -6.8 -1.6 -13.1 -3.5z m20.8 -43.1 c8.6 -2.4 32.6 -12.1 42.5 -17.1 38.3 -19.2 70.5 -47.9 91.4 -81.6 17.3 -28 29.2 -63.3 32.3 -96.2 0.6 -6.3 1 -40.2 1 -79.7 l0 -68.8 -177 0 -177 0 0 72.4 c0 68.7 0.1 73 2.1 84.6 8.4 49.5 29.4 90.8 63.3 124.5 19.7 19.6 38.9 33.3 64.6 46.1 17.4 8.7 46.3 19 49.8 17.9 0.7 -0.3 3.8 -1.2 7 -2.1z m-186.7 -367 c1.5 -1.4 2.2 -1.4 7 0 10.2 3.1 19.2 1.3 25.1 -5 3.3 -3.6 4.8 -7.4 4.8 -12.5 0 -5.6 -1.7 -8.3 -10.4 -16.9 -6.7 -6.6 -7.6 -7.8 -7.6 -11.1 0 -5.4 3.1 -8.9 8.1 -8.9 6.7 0 9.6 2.7 10.9 10 0.3 1.9 1 3.4 1.5 3.3 1.1 -0.2 5.8 -15.4 5 -16.2 -0.3 -0.2 -1.6 0.2 -3 0.9 -2 1 -3.3 1.1 -6.4 0.2 -13.2 -4 -25.3 2.1 -26.8 13.6 -0.7 5.3 1.4 9.1 10.2 18.2 8.1 8.4 9.1 10.5 7.5 15.5 -1.6 4.9 -5.3 7.5 -10.7 7.5 -6.1 0 -10.8 -4.5 -11.8 -11.3 -0.7 -4.8 -2 -6.1 -2.9 -2.9 -0.9 2.9 -3.6 15.3 -3.6 16.3 0 1.3 1.1 1.1 3.1 -0.7z m45.3 -0.5 c3.6 -2.9 3.3 -7.7 -0.6 -9.9 -2.5 -1.3 -3.1 -1.3 -5.5 0 -3.8 2.1 -4.5 8.1 -1.1 10.4 3 2.1 4 2 7.2 -0.5z m8 0.5 c1.1 -1.5 1.7 -1.5 6.6 0 14.6 4.4 26.6 -0.9 29.9 -13 2 -7.3 -1.2 -13.7 -11.4 -22.7 -5.8 -5.2 -6.5 -6.2 -6.5 -9.6 0 -8.6 9.9 -12.4 16.1 -6.2 1.6 1.7 2.9 4 2.9 5.4 0 3.1 0.9 5.7 2 5.7 1 0 5.4 -16 4.6 -16.8 -0.3 -0.3 -1.7 0.1 -3.1 0.8 -2 1 -3.3 1.1 -6.4 0.2 -5.2 -1.6 -12.4 -1.5 -16.4 0.2 -4.3 1.7 -8.4 6.7 -9.7 11.7 -1.7 6.2 0.1 10.1 9.1 19.3 8.6 8.7 9.4 10.1 8.5 15.1 -1.5 8 -12.4 11.4 -18.6 5.8 -2.3 -2.1 -3.3 -4 -3.8 -7.7 -1.1 -7.8 -2.8 -6.7 -5.1 3.4 -1.2 5 -2.1 9.3 -2.1 9.6 0 1.1 2.4 0.2 3.4 -1.2z m48.1 -0.9 c3 -2.9 3.2 -5.8 0.5 -8.5 -4 -4 -10 -1.2 -10 4.5 0 2.4 0.7 3.9 2.2 4.9 3.1 2.2 4.5 2 7.3 -0.9z m239.9 -1.4 c6.5 -3.2 15 -12.1 18.8 -19.9 3 -6 3.3 -7.5 3.3 -15.8 0 -8.4 -0.2 -9.3 -2.8 -12.7 -4.2 -5.5 -9.9 -8.1 -17.7 -8 -8.5 0 -14.7 2.9 -22.1 10.4 -14.5 14.7 -17.3 36.3 -5.8 44.8 1.7 1.3 4.3 2.7 5.8 3.2 4.5 1.5 15.5 0.4 20.5 -2z m-75.1 -4.8 c4 -10.2 4 -10.3 3 -10.3 -0.5 0 -3.4 2.4 -6.4 5.3 -3.3 3.2 -7 5.7 -9.4 6.4 -5.5 1.6 -17.5 2.8 -17.5 1.7 0 -0.5 9.2 -12.3 20.5 -26.2 11.3 -14 20.5 -25.8 20.5 -26.3 0 -0.6 -8.2 -0.8 -20.1 -0.7 l-20.1 0.3 -2.8 7 c-1.6 3.9 -2.4 7.2 -1.8 7.4 0.5 0.2 2.8 -1.5 5 -3.7 5.4 -5.5 10 -7.5 18.3 -8 6.8 -0.4 6.9 -0.4 5.4 1.4 -10.6 12.4 -39.9 49.8 -39.9 50.9 0 1.3 3.2 1.5 21.3 1.5 l21.4 0 2.6 -6.7z m-105.4 2 c0.6 -2.1 1.7 -5.9 2.5 -8.5 1.8 -6.2 0.3 -6.3 -4.1 -0.4 -3.9 5.3 -10.3 8.5 -18.7 9.3 -9.7 0.9 -9.7 1.3 -2.6 -25.3 6.2 -23.5 7.5 -26.4 12.1 -26.4 1 0 1.9 -0.4 1.9 -1 0 -0.6 -5.2 -1 -13.5 -1 -12.7 0 -17.2 1 -10.5 2.4 4.2 0.8 4 2.7 -2.6 27.3 -5.4 20 -7.2 24.3 -10.1 24.3 -0.7 0 -1.3 0.7 -1.3 1.5 0 1.3 3.2 1.5 23 1.5 l22.9 0 1 -3.7z m17.5 2.8 c0.3 -0.5 -0.5 -1.2 -1.9 -1.5 -3.6 -0.9 -3.2 -4 1.5 -10.3 l4.1 -5.3 8.9 0 9 0 0 5.6 c0 6.8 -1.1 9 -5 9.9 -6.6 1.4 -2.4 2.5 10 2.5 8 0 13 -0.4 13 -1 0 -0.5 -0.6 -1 -1.4 -1 -4 0 -4.3 -2 -5.1 -29.5 -0.5 -19 -1.1 -26.5 -1.9 -26.5 -0.6 0 -10.6 12.2 -22.1 27.1 -11.5 14.9 -21.9 27.6 -23.2 28.2 -1.3 0.5 -2.3 1.4 -2.3 1.9 0 1.1 15.7 1 16.4 -0.1z m118.4 -0.3 c-0.3 -0.7 -1.5 -1.5 -2.9 -1.8 -3.4 -0.9 -3.1 -3.4 3.7 -28.2 5.3 -19.3 6.1 -21.3 8.6 -22.7 1.5 -0.9 2.8 -1.9 2.8 -2.3 0 -0.5 -5.6 -0.8 -12.5 -0.8 -11.9 0 -16.1 1 -9.5 2.4 2.4 0.4 3 1.1 3 3 0 3.6 -11.6 45.4 -13 47.1 -0.7 0.8 -2.1 1.5 -3.1 1.5 -1.1 0 -1.9 0.7 -1.9 1.5 0 1.3 2.1 1.5 12.6 1.5 9.5 0 12.5 -0.3 12.2 -1.2z"/>
  <path d="M620.5 785.4 c-17.1 -5.2 -45.3 -17.1 -49.7 -21.1 -1.7 -1.5 -1.8 -8.5 -1.8 -154 l0 -152.3 59.5 0 59.5 0 0 151.9 0 151.9 -3.4 2.2 c-10.8 6.6 -34.9 17 -49.1 21 -8.1 2.3 -8.4 2.3 -15 0.4z"/>
  <path d="M772.1 422.1 c-4.4 -4.4 -3.7 -15.8 2 -31.4 4.7 -13.2 9.7 -19.2 17.1 -20.3 2.7 -0.5 4.1 -0.1 6.2 1.7 3.7 3.2 4.3 8.5 2.1 19 -2.9 14.4 -9.5 27.7 -15.6 31.3 -3.8 2.2 -9.4 2.1 -11.8 -0.3z"/>
  <path d="M640.5 394 c4.2 -5.5 7.8 -10 8 -10 0.3 0 0.5 4.5 0.5 10 l0 10 -8 0 -8.1 0 7.6 -10z"/>
  <path d="M584 312.4 c0 -1.5 -4.5 -3.4 -8.3 -3.5 -1.8 0 -4.1 -0.4 -5.2 -0.9 -1.8 -0.7 -1.6 -1 1.9 -2.5 4 -1.7 10.6 -2.3 12.5 -1.1 1.4 0.9 1.4 5.6 0.1 7.6 -0.5 0.8 -1 1 -1 0.4z"/>
  <path d="M705.8 310.4 c-0.8 -0.8 -4 -1.9 -7.2 -2.3 -3.1 -0.4 -5.9 -1 -6.2 -1.3 -0.9 -1 10.4 -4.8 14.1 -4.8 4.2 0 4.9 1.1 3.5 5.5 -1.4 4.3 -2.2 4.8 -4.2 2.9z"/>
  <path d="M516.6 307.9 l-5 -3.1 2.8 -1.5 c1.5 -0.8 4.6 -1.5 6.9 -1.6 3.3 -0.2 4.2 0.2 4.5 1.6 0.5 2.4 -1.7 7.7 -3.2 7.7 -0.6 0 -3.3 -1.4 -6 -3.1z"/>
  <path d="M551.5 308.9 c-1.9 -1.3 -4.1 -1.8 -6 -1.6 -1.6 0.3 -3.9 0.1 -5 -0.3 -1.5 -0.5 -0.7 -1.3 4.7 -3.9 3.6 -1.8 7.6 -3.1 8.9 -2.9 2.1 0.3 2.4 0.8 2.2 4.7 -0.3 5.7 -1.2 6.5 -4.8 4z"/>
  <path d="M640.3 307.7 c-2.9 -1.8 -5.3 -3.5 -5.3 -3.9 0 -1.1 6.1 -2.8 10.1 -2.8 3.3 0 3.9 0.3 3.9 2 0 1.8 -2.6 8.2 -3.3 7.9 -0.1 0 -2.6 -1.5 -5.4 -3.2z"/>
  <path d="M677.7 309.2 c-2.3 -2.5 -6.2 -3.5 -8.6 -2.2 -1.4 0.7 -2.2 0.6 -3.1 -0.5 -1 -1.3 -0.2 -2 5.3 -4.6 7.7 -3.5 10.7 -3.3 10.7 0.9 -0.1 1.5 -0.6 4 -1.3 5.5 -1.2 2.9 -1.2 2.9 -3 0.9z"/>
  <path d="M501.6 295.8 c-7.4 -0.9 -12.3 -2.7 -7.4 -2.8 3.2 0 13.4 -5.7 19.7 -10.9 l4.6 -3.8 10.5 1.4 c5.8 0.8 15.1 1.3 20.8 1.1 11.6 -0.4 11.6 -0.2 0.7 5.4 -16.1 8.3 -32.9 11.5 -48.9 9.6z"/>
  <path d="M625.5 294.6 c-0.5 -0.3 -3.2 -0.7 -6 -1.1 l-4.9 -0.7 9.1 -4.7 c5.1 -2.6 11.3 -6.7 13.8 -9 2.6 -2.3 5.2 -4 5.9 -3.8 6.6 2.6 38.9 3.3 46.5 1.1 4.3 -1.3 1.8 1.8 -5.5 6.8 -4.2 2.9 -10.6 6 -16.4 7.9 -8.9 3 -10.6 3.3 -25.5 3.5 -8.8 0.2 -16.4 0.2 -17 0z"/>
  <path d="M537 271.5 c-8.5 -0.7 -15.9 -1.4 -16.5 -1.4 -0.5 -0.1 4.4 -3 11 -6.4 6.6 -3.5 16.2 -9 21.3 -12.3 20.2 -12.9 24.2 -15.1 30.9 -17.2 12.1 -3.9 21.8 -2.5 26.2 3.6 3.6 5.1 2.8 8.8 -2.8 14.3 -5.9 5.7 -15.6 10.5 -32.2 16 -14.8 4.9 -17.8 5.1 -37.9 3.4z"/>
  <path d="M647 268.8 c0.3 -0.3 7.7 -4.7 16.5 -9.8 19.9 -11.5 28.7 -17.5 36.7 -24.6 14.9 -13.3 27.2 -15.9 35.3 -7.4 8.5 8.8 -2.5 21.9 -29.5 35.3 l-12.5 6.2 -23.5 0.4 c-12.9 0.1 -23.3 0.1 -23 -0.1z"/>
  <path d="M747.6 231.4 c-2 -2 -3.6 -3.7 -3.4 -3.8 0.2 0 13.8 0.1 30.3 0.4 l30 0.5 -7 2.2 c-10.8 3.4 -17.7 4.3 -32.5 4.3 l-13.7 0 -3.7 -3.6z"/>
  <path d="M492.3 231 c-2.3 -0.5 -7.4 -1.9 -11.5 -3.2 l-7.3 -2.3 10.5 -0.2 c5.8 -0.2 19.6 -0.4 30.7 -0.5 l20.2 -0.3 -3.6 3.8 -3.7 3.7 -15.6 -0.1 c-8.5 -0.1 -17.4 -0.5 -19.7 -0.9z"/>
  <path d="M606.5 230.3 c-1.1 -0.2 -4.1 -1.1 -6.6 -1.9 l-4.5 -1.4 4.3 -4.5 c2.4 -2.5 4.3 -5.2 4.3 -6 0 -1.1 1.2 -1.5 5 -1.5 2.7 0 7.9 -1.1 11.7 -2.5 5.5 -2 7 -2.2 7.8 -1.2 2.4 3.1 7 5.1 13.3 5.6 l6.7 0.6 -6.3 4.7 c-8 6 -16.7 8.8 -26.6 8.7 -3.9 -0.1 -8 -0.3 -9.1 -0.6z"/>
  <path d="M649 229 l-4.5 -0.6 3.2 -0.7 c1.8 -0.5 5.9 -3.3 9.3 -6.3 3.3 -3 7 -5.4 8.2 -5.4 1.1 0 6.4 -2 11.6 -4.5 5.2 -2.5 9.7 -4.3 10 -4 0.8 0.8 -4.8 8.2 -9.5 12.6 -7.5 6.9 -17.7 10.1 -28.3 8.9z"/>
  <path d="M548.3 227.3 c-2.4 -0.2 -4.3 -0.8 -4.3 -1.2 0 -0.4 5.6 -3.1 12.4 -6 6.8 -2.9 14 -6.4 15.9 -7.7 l3.6 -2.4 6.3 3 c3.5 1.7 7.5 3 9.1 3 3.5 0 3.4 1.1 -0.3 4.8 -4.8 4.9 -10.8 6.4 -25.5 6.7 -7.1 0.1 -14.9 0.1 -17.2 -0.2z"/>
  <path d="M756.3 219.3 c-5.1 -0.2 -9.3 -0.6 -9.3 -0.9 0 -0.3 0.7 -1.8 1.5 -3.4 l1.6 -3 39.9 0 c22 0 40 0.2 40 0.5 0 1.1 -8 3.7 -15.9 5.1 -8.8 1.5 -40.6 2.5 -57.8 1.7z"/>
  <path d="M487 218.4 c-11.2 -0.7 -31.9 -3.5 -35.8 -4.9 -3.2 -1.2 2.8 -1.4 46.6 -1.7 27.6 -0.2 50.2 -0.1 50.2 0.2 0 0.3 -1.6 1.8 -3.5 3.3 l-3.5 2.8 -23.8 0.3 c-13 0.2 -26.6 0.2 -30.2 0z"/>
  <path d="M644.9 211.1 c-3.9 -0.8 -12.9 -5.7 -12.9 -7 0 -0.5 3.5 -2.1 7.8 -3.6 4.2 -1.5 10.1 -4 13.1 -5.6 5.4 -2.9 5.5 -2.9 7.5 -1 3.5 3.1 6.3 4.2 13.4 4.8 9.5 0.8 10.3 1.5 5.1 4.5 -10.5 6.1 -25.7 9.6 -34 7.9z"/>
  <path d="M593.1 207.9 c-3.5 -0.4 -6.6 -1 -6.9 -1.3 -0.9 -0.9 9.2 -9.5 11.3 -9.6 1.1 0 4 -0.9 6.4 -2.1 4.3 -1.9 4.7 -1.9 8.5 -0.3 2.3 0.9 6.1 1.9 8.6 2.3 2.5 0.3 4.5 1.2 4.5 1.8 0 2 -6.7 6.3 -12 7.8 -7.2 2 -13.1 2.4 -20.4 1.4z"/>
  <path d="M560.5 205.3 c0.9 -1.5 2.8 -4.3 4.3 -6.1 l2.7 -3.3 5 1.6 c2.8 0.8 6.1 1.5 7.5 1.5 l2.5 0 -2.5 2 c-2.3 1.7 -11.5 5 -18.3 6.5 l-2.9 0.6 1.7 -2.8z"/>
  <path d="M768.8 206.3 c-6.5 -0.2 -11.8 -0.6 -11.8 -0.9 0 -0.3 0.6 -1.7 1.4 -3.2 l1.4 -2.7 48.3 0.4 c43.4 0.3 47.9 0.5 43.9 1.7 -11.9 3.7 -49.5 5.9 -83.2 4.7z"/>
  <path d="M451 200.9 c-11.6 -1 -25.9 -3.4 -32 -5.3 -4 -1.2 3.9 -1.4 68.3 -1.5 40 -0.1 72.7 0.3 72.7 0.7 0 0.4 -1.5 2.2 -3.3 4 l-3.3 3.2 -46.4 -0.1 c-25.6 -0.1 -50.8 -0.5 -56 -1z"/>
  <path d="M724.9 191.5 c-9.6 -3.1 -13.1 -9.4 -9 -16.1 l1.9 -3.2 -8.3 -0.4 c-13.2 -0.7 -15.1 -4.4 -6.4 -12.2 l5.1 -4.6 -2.6 -2.1 c-3.5 -2.8 -3.5 -7.4 0.1 -11.3 1.5 -1.6 6 -5 10.1 -7.6 l7.4 -4.8 -21.9 -0.5 c-18 -0.4 -22.8 -0.8 -27.8 -2.4 -11.9 -3.9 -18.9 -8.7 -25.1 -17.4 l-3.2 -4.4 96.2 0.5 c75.2 0.4 96.9 0.8 100 1.8 6 2.1 12.1 8.8 13.6 15.2 2 8.3 3.7 8 -39.9 8 l-37.6 0 -2.7 3.4 c-1.6 1.9 -2.8 3.7 -2.8 4 0 0.4 11.6 0.6 25.8 0.6 21.7 0 26.1 0.2 28 1.6 1.2 0.8 2.2 2.4 2.2 3.5 0 1 0.4 1.9 0.8 1.9 0.4 0 7.7 -3 16.1 -6.6 l15.4 -6.6 19.6 0.4 c15 0.4 20.7 0.9 24.2 2.2 10.8 4 16.9 13.2 17.6 26.4 0.3 6.5 0.2 7.4 -0.9 5.8 -3.7 -5.4 -6.5 -7.8 -12.6 -10.8 l-6.7 -3.3 -40.9 -0.3 -40.9 -0.3 -3.3 3.2 c-1.9 1.8 -3.4 3.6 -3.4 4 0 0.5 19 0.9 42.3 1.1 38.3 0.3 42.7 0.5 47.1 2.2 4.6 1.8 12.6 8.5 12.6 10.6 0 0.7 -19.1 1 -55.3 1 -49.2 0 -55.8 -0.2 -58.7 -1.6 -5 -2.6 -13.4 -1.4 -21.7 3 -29.6 15.8 -43 19.8 -54.4 16.1z"/>
  <path d="M625.5 191.4 c-1.1 -0.3 -3.1 -0.7 -4.3 -1 -2.3 -0.5 -2.3 -0.5 1 -2.7 1.8 -1.3 4.2 -3.7 5.3 -5.4 1.4 -2.3 2.8 -3.2 4.7 -3.3 1.5 0 6.1 -0.7 10.2 -1.6 6.5 -1.5 8.2 -1.5 13.5 -0.3 3.4 0.7 6.1 1.6 6.1 2 0 1.5 -8.5 8.3 -12.9 10.2 -4.5 2 -18.7 3.3 -23.6 2.1z"/>
  <path d="M669.7 190.6 c-2.6 -0.7 -5 -1.5 -5.2 -1.8 -0.3 -0.3 1.2 -2.3 3.3 -4.4 2.1 -2.1 4.3 -4.6 4.8 -5.5 0.5 -0.9 4.1 -2.8 7.9 -4.2 3.9 -1.3 7.8 -2.8 8.8 -3.2 1.3 -0.5 1.7 -0.2 1.7 1.4 0 1.3 1.5 3 4.3 4.8 2.3 1.5 4.4 2.8 4.6 3 0.3 0.2 -0.6 1.5 -2 2.9 -6.1 6.6 -18.7 9.7 -28.2 7z"/>
  <path d="M574 190.7 c0 -0.4 2.1 -1.8 4.8 -3.3 2.6 -1.5 7.1 -4.7 10 -7 4.8 -3.9 5.9 -4.3 12.8 -4.9 6 -0.6 7.8 -0.4 9.2 0.8 0.9 0.8 3.3 1.7 5.2 1.9 l3.5 0.3 -4.8 3.7 c-8 6.1 -14.4 8 -28.4 8.6 -6.8 0.2 -12.3 0.2 -12.3 -0.1z"/>
  <path d="M791.3 190.1 l-18.3 -0.6 4.8 -3 4.7 -3 50.9 -0.3 c30.6 -0.1 51.3 0.1 51.9 0.7 1.2 1.2 -1.7 2.7 -9.5 4.7 -5 1.3 -12.4 1.7 -36.3 1.9 -16.5 0.1 -38.2 -0.1 -48.2 -0.4z"/>
  <path d="M431.7 184.9 c-18.3 -1 -35.7 -3.3 -43.4 -5.8 -5.8 -1.9 -5.4 -1.9 76.9 -2 64.2 -0.1 82.7 0.2 82.5 1.1 -0.1 0.7 2.5 2.7 5.8 4.5 l6 3.2 -56.5 -0.1 c-31.1 0 -63.2 -0.5 -71.3 -0.9z"/>
  <path d="M562.5 179.4 l-5 -3.4 8.8 0 c7.1 0 8.7 0.3 8.7 1.5 0 1.3 -5.5 5.6 -7 5.4 -0.3 0 -2.7 -1.6 -5.5 -3.5z"/>
  <path d="M618.7 172.2 l-2.7 -0.7 3.3 -2.6 c1.8 -1.5 4.8 -4.9 6.7 -7.6 l3.4 -5 8.1 -1.1 c4.5 -0.7 10.9 -2.3 14.2 -3.6 l6.1 -2.4 3.7 2.5 3.7 2.5 -2.9 3 c-4.5 4.8 -13.5 10.5 -20.2 12.8 -6.5 2.2 -18.8 3.3 -23.4 2.2z"/>
  <path d="M586 171.6 c0 -0.4 0.9 -2.5 2 -4.6 l2 -4 -29.9 0 c-27.1 0 -30.5 -0.2 -36.4 -2 -3.5 -1.1 -7 -2.7 -7.7 -3.5 -1.1 -1.3 4.5 -1.5 48.9 -1.5 l50.1 0 0 2.2 c0 3.3 -6.8 9.1 -13.3 11.1 -6.3 2 -15.7 3.4 -15.7 2.3z"/>
  <path d="M659.8 171.3 c-3.4 -0.5 -3.6 -1.6 -0.5 -3 1.3 -0.6 5.1 -3.6 8.4 -6.7 4.7 -4.3 6.8 -5.6 9.2 -5.6 1.7 0 6 -1 9.6 -2.2 l6.6 -2.1 2.2 2.1 2.1 2.2 -3.4 3.5 c-9.2 9.5 -21.6 13.7 -34.2 11.8z"/>
  <path d="M378 167 c-6.3 -0.5 -15.8 -1.7 -21 -2.8 -9.7 -2 -20 -5.7 -20 -7.3 0 -0.5 35.9 -0.9 82.6 -0.9 l82.6 0 3.2 2.7 c1.7 1.4 5.8 3.9 9.1 5.4 l6 2.8 -47 0.1 c-25.8 0 -55.3 0.2 -65.5 0.4 -10.2 0.3 -23.7 0.1 -30 -0.4z"/>
  <path d="M931.2 160.3 c0.3 -3.4 0.6 -3.8 3.2 -4.1 3.9 -0.5 9.6 0.7 9.6 1.9 0 1.1 -9.6 5.9 -11.8 5.9 -0.9 0 -1.2 -1.2 -1 -3.7z"/>
  <path d="M611.5 148.8 c0.4 -1.3 1.8 -3.4 3.1 -4.8 l2.3 -2.5 -59.1 0.3 c-44.9 0.3 -60.1 0.1 -63.2 -0.8 -5.7 -1.7 -12.6 -5 -12.6 -6.1 0 -0.5 32.5 -1 74.3 -1.1 l74.2 -0.3 6 -2.3 c9.9 -3.9 15 -4 22.6 -0.3 3.5 1.7 7 3.1 7.8 3.1 1.1 0 1 0.5 -0.4 2.1 -2.6 2.8 -16.8 9.6 -24 11.4 -6.6 1.7 -20.6 3.5 -27.3 3.5 -4 0 -4.3 -0.2 -3.7 -2.2z"/>
  <path d="M328 146 c-15.9 -1.5 -31.1 -5.1 -35.6 -8.5 -1.7 -1.3 9.3 -1.4 85.1 -1.5 l87 0 10 5.1 c5.5 2.8 10.2 5.3 10.4 5.5 0.8 0.7 -148.3 0.1 -156.9 -0.6z"/>
  <path d="M668.7 145.6 c0.4 -0.7 2.7 -3.4 4.9 -6 l4.2 -4.6 11.6 0 11.7 0 -1.5 2.8 c-2.8 5.3 -13.5 9.2 -25.7 9.2 -4.8 0 -5.8 -0.3 -5.2 -1.4z"/>
  <path d="M927.3 144.9 c-1.2 -1.6 -5.3 -9.5 -5.3 -10.4 0 -0.3 15.6 -0.5 34.6 -0.5 23.2 0 34.3 0.3 33.9 1 -1 1.6 -9.3 5.6 -17 8 -6 2 -9.8 2.4 -26 2.8 -15.3 0.3 -19.3 0.1 -20.2 -0.9z"/>
  <path d="M296 123.3 c-20.2 -1.1 -41.2 -5.2 -49.4 -9.6 l-4.1 -2.2 87 -0.3 87 -0.2 13 6.5 12.9 6.5 -70.4 -0.2 c-38.8 -0.1 -73 -0.3 -76 -0.5z"/>
  <path d="M866 120.3 c0 -1.6 -0.9 -4.3 -2 -6 l-2 -3.3 87.2 0 c79.1 0 87 0.1 85 1.6 -3.3 2.3 -12.4 5.2 -21.6 6.9 -14.9 2.7 -34.7 3.5 -90.8 3.5 l-55.8 0 0 -2.7z"/>
  <path d="M626.3 120 c-4 -1 -8.1 -2.4 -9.2 -2.9 -1.3 -0.8 -27.9 -1.1 -82.4 -1.1 -50.2 0 -82.4 -0.4 -85.8 -1 -5.8 -1.1 -13.9 -4.6 -13.9 -6.1 0 -0.5 32.9 -0.9 80.8 -0.9 l80.7 0 -5.3 -3 c-2.9 -1.6 -7.5 -4.5 -10.2 -6.4 l-5 -3.6 -79.3 0 c-75 0 -84.7 -0.3 -94.5 -3 -4.1 -1 -10.2 -5.3 -10.2 -7.1 0 -0.5 33.9 -0.9 83.5 -0.9 45.9 0 83.5 -0.4 83.5 -0.8 0 -1.1 -8.3 -10.7 -11.9 -13.8 -1.6 -1.3 -5.6 -4 -8.7 -5.9 l-5.8 -3.5 -95.3 0 c-93.6 0 -95.3 0 -100.7 -2.1 -3 -1.1 -7 -3.4 -8.8 -5.2 l-3.3 -3.2 98.4 -0.5 98.5 -0.5 -8.5 -5.6 c-9.1 -6.2 -17.7 -10.7 -27.9 -14.8 l-6.5 -2.6 -103.5 -0.5 -103.5 -0.5 -5.6 -2.3 c-5.5 -2.2 -14.9 -9.4 -14.9 -11.3 0 -0.6 37.8 -0.8 101.8 -0.6 99.9 0.3 101.9 0.4 111.6 2.5 30.3 6.6 54.3 17.1 74.6 32.7 4.1 3.2 14.5 12.6 23 20.9 19.7 19.2 30.2 27.6 41.6 33.2 8.4 4.3 9.9 4.7 20.8 5.6 l11.8 1.1 4.2 6.6 c2.3 3.6 4.6 7.2 5 7.9 1.1 1.9 -10.6 1.4 -19.1 -0.8z"/>
  <path d="M241 100.9 c-22.5 -1.4 -43 -5.9 -52.7 -11.6 -9.7 -5.6 -15.1 -5.3 89.4 -5.3 l95.9 0 3 3.1 c3 3.3 15.5 11.9 17.2 11.9 0.5 0 1.5 0.7 2.2 1.5 1.1 1.3 -6.8 1.5 -70.6 1.4 -39.6 -0.1 -77.5 -0.5 -84.4 -1z"/>
  <path d="M687 101.3 c-1.9 -0.2 -4.1 -0.6 -4.8 -0.8 -0.8 -0.3 4.4 -4.4 11.5 -9.1 15.4 -10.3 31.9 -23.5 46.8 -37.6 10.8 -10.1 18.9 -16.7 27.1 -22 13.6 -8.8 36.1 -17.2 52.4 -19.7 5.3 -0.9 35.8 -1.2 105.4 -1.1 53.9 0 98.2 0.3 98.5 0.5 0.2 0.3 -0.1 1.6 -0.7 3 -1.5 3.2 -7.2 6.9 -14.7 9.5 -5.9 2 -7.6 2 -102.6 2 l-96.7 -0.1 -7.8 3 c-6.8 2.6 -28.1 14.5 -30.8 17.2 -0.6 0.5 13.6 0.9 37 0.9 21 0 62.5 0.3 92.3 0.7 l54.1 0.6 -2.2 2.5 c-2.7 2.9 -9.2 6.3 -16.8 8.8 -5.1 1.7 -11.6 1.9 -93.5 2.4 l-88 0.5 -12 8.6 c-6.6 4.8 -13.1 9.6 -14.5 10.7 l-2.5 2 74 -0.5 c40.7 -0.3 78.5 -0.2 84 0.2 9.7 0.7 9.9 0.8 7.6 2.4 -4.5 3 -13.3 6.2 -20.8 7.7 -6.1 1.1 -21.7 1.4 -82.4 1.4 l-74.9 0 -6 2.4 c-5.2 2.1 -8.5 3.1 -14 4 -0.8 0.1 -3.1 0.1 -5 -0.1z"/>
  <path d="M886.8 98.1 c4 -2.2 10 -6.2 13.2 -9 l5.8 -5.1 95.9 0 95.8 0.1 -2.5 2.1 c-6.6 5.5 -22 10.5 -42 13.4 -9.8 1.4 -23.4 1.7 -92.5 2.1 l-81 0.3 7.3 -3.9z"/>
  <path d="M173 68.3 c-9.9 -0.9 -20.4 -2.6 -28 -4.4 -9.4 -2.3 -23.5 -8.6 -26.4 -11.8 l-1.9 -2.1 95.8 0 95.8 0 6.6 6.3 c3.7 3.4 9.3 7.7 12.6 9.4 l6 3.2 -78.5 -0.1 c-43.2 -0.1 -80.1 -0.3 -82 -0.5z"/>
  <path d="M948.5 67.1 c5.6 -2.6 15.9 -10.4 18.6 -14 l2.3 -3.1 96 0 95.9 0 -2.3 2.5 c-5.2 5.5 -21.4 11.3 -41.1 14.6 -5.4 0.9 -30.1 1.3 -90.4 1.6 -81.7 0.3 -82.9 0.3 -79 -1.6z"/>
  <path d="M97 30.3 c-18.2 -0.8 -36.5 -3.8 -49.2 -7.9 -7.7 -2.5 -19.8 -9.5 -19.8 -11.4 0 -0.7 33.2 -1 101.9 -1 l101.8 0 6.9 6.8 c3.8 3.8 9.8 8.5 13.4 10.5 l6.5 3.7 -77.5 -0.2 c-42.6 -0.1 -80.4 -0.3 -84 -0.5z"/>
  <path d="M1021 30.6 c0 -0.3 2.4 -1.8 5.3 -3.2 2.8 -1.5 8.5 -6 12.6 -10 l7.3 -7.4 101.4 0 c65.4 0 101.5 0.3 101.9 1 0.8 1.3 -7.2 6.8 -14.2 9.8 -6.7 2.8 -23.1 6.6 -35.8 8.3 -9.3 1.2 -178.5 2.6 -178.5 1.5z"/>
 </g>
</svg>