<?xml version="1.0" encoding="utf-8"?>
<!DOCTYPE svg PUBLIC "-//W3C//DTD SVG 1.1//EN" "http://www.w3.org/Graphics/SVG/1.1/DTD/svg11.dtd">
<svg version="1.1" xmlns="http://www.w3.org/2000/svg" width="1200px" height="527px" viewBox="0 0 1200 527" preserveAspectRatio="xMidYMid meet">
 <g fill="#ffffff">
  <path d="M0 149.4 l0 -149.6 77.3 0.5 c83.8 0.5 85.1 0.6 101.7 6.3 18.2 6.3 31.6 17.5 38.9 32.6 5.9 12.1 7.5 19.8 7.5 35.8 0 16 -1.4 22.1 -8.1 35.9 -3.7 7.9 -5.9 10.8 -12.7 17.6 -4.4 4.4 -10 8.9 -12.3 9.9 -2.4 1.1 -4.3 2.2 -4.3 2.5 0 0.3 3.4 1.7 7.6 3 24.5 7.7 39.7 29 42.3 58.8 4.7 53.4 -25.2 89.1 -79.4 95.3 -5.3 0.6 -39.6 1 -83.7 1 l-74.8 0 0 -149.6z m138 89.6 c19.7 -3.1 28.3 -14 28.3 -36 0.1 -8.7 -0.3 -11.4 -2.2 -15.6 -2.7 -6.3 -7 -10.6 -13.6 -13.6 -4.9 -2.3 -5.7 -2.3 -43.7 -2.6 l-38.8 -0.3 0 34.6 0 34.5 31.8 0 c17.4 0 34.6 -0.5 38.2 -1z m5.2 -121.3 c11 -5.4 15.3 -13.8 15.3 -30.2 0 -12.1 -1.7 -18.6 -6 -22.9 -5.6 -5.7 -7.5 -5.9 -47.7 -6.3 l-36.8 -0.4 0 31.6 0 31.6 34.8 -0.3 34.7 -0.3 5.7 -2.8z"/>
  <path d="M287 149.4 l0 -149.6 70.8 0.5 c58.4 0.4 72.5 0.7 81.1 2.1 41.2 6.4 63.1 23.6 71.8 56.5 3.4 12.9 4.4 43.4 1.9 57.8 -5.8 33.8 -26.4 59.3 -58.8 72.9 -16.3 6.9 -32.5 10.1 -57 11.1 l-14.7 0.6 -0.5 -2.4 c-0.3 -1.3 -2.6 -12.3 -5.1 -24.4 -2.4 -12.1 -4.7 -22.9 -5 -24.1 -0.5 -2 -0.1 -2.1 13.8 -2.7 22.2 -1 34.3 -4.9 45.2 -14.9 10.3 -9.4 14.5 -20.2 14.5 -37 0 -23.6 -6.4 -33.5 -23.5 -36.7 -3.4 -0.6 -18.4 -1.1 -35.7 -1.1 l-29.8 0 0 120.5 0 120.5 -34.5 0 -34.5 0 0 -149.6z"/>
  <path d="M561 149.5 l0 -149.5 102.5 0 102.5 0 0 30 0 30 -69 0 -69 0 0 29 0 29 58 0 58 0 0 28 0 28 -58 0 -58 0 0 32 0 32 72 0 72 0 0 30.5 0 30.5 -105.5 0 -105.5 0 0 -149.5z"/>
  <path d="M830 149.4 l0 -149.6 72.8 0.5 c74.5 0.5 79 0.7 94.8 4.7 16.7 4.3 27.5 10.2 38.4 21 12.9 12.7 19.7 29.4 22 53.5 2.4 26 -3.1 47.8 -17.3 69 -5.1 7.6 -17.7 20 -25 24.5 -3.7 2.3 -5.6 4 -5.3 5.1 0.2 0.9 12.4 21.8 27.2 46.5 14.7 24.7 30.7 51.5 35.5 59.7 l8.8 14.7 -39 -0.2 -39.1 -0.3 -27.4 -54.2 -27.5 -54.3 -26 0 -25.9 0 0 54.5 0 54.5 -33.5 0 -33.5 0 0 -149.6z m138.7 -17.3 c13.8 -6.2 19.9 -20.1 19.2 -43.3 -0.4 -9.9 -0.7 -12 -3.2 -17 -3 -6.2 -6 -8.9 -12.9 -11.5 -3.7 -1.4 -9.6 -1.7 -39.5 -2.1 l-35.3 -0.4 0 38.7 0 38.6 33.3 -0.3 c32.4 -0.3 33.3 -0.4 38.4 -2.7z"/>
  <path d="M1148.2 253.9 c-14.1 -1.8 -21.7 -6.2 -26.1 -15 -4.3 -8.6 -5.4 -15.4 -4.9 -29.4 0.6 -14.6 3 -21.9 9.2 -28.1 6.1 -6.1 13.5 -8.6 27.4 -9.2 16.7 -0.7 28.8 2.4 34.9 9 6.2 6.7 10 22.1 8.9 37 -1 14.6 -5.7 25.4 -13 29.9 -7.8 4.8 -24.2 7.5 -36.4 5.8z"/>
  <path d="M1149.2 131.9 c-14.5 -1.9 -22 -6.7 -26.5 -16.6 -6.6 -15 -5.6 -40.3 2.3 -53.1 5.1 -8.3 18.9 -12.8 37.3 -12 11.8 0.5 18.6 2.4 25.3 7 7 4.8 11.4 17.5 11.5 32.9 0.1 18.1 -4 29.9 -12.3 35.5 -7.8 5.2 -24.7 8.1 -37.6 6.3z"/>
 </g>
 <g fill="#e3e3e3">
  <path d="M122.5 522.7 c-16 -6.4 -22.1 -23.1 -13.7 -38 5.7 -10.2 17.6 -16 37 -18 l11.2 -1.1 0 -5.2 c0 -9.3 -5.4 -12.9 -18.3 -12.2 -6.4 0.3 -12.2 2.3 -19.8 6.5 -0.3 0.2 -2.7 -2.9 -5.4 -6.8 l-4.9 -7.2 2.5 -2 c4.1 -3.4 14.2 -7.5 22.9 -9.3 16 -3.2 31.8 0 39.7 8.2 6.9 7.1 7.4 10.2 8.3 45.9 0.4 17.1 1.2 32.5 1.8 34.3 l1.1 3.2 -12.4 0 c-13.6 0 -13.5 0 -13.5 -6.8 l0 -3.6 -4.2 4.1 c-6 5.9 -12.6 8.6 -21.8 9 -4.4 0.1 -8.8 -0.2 -10.5 -1z m24.1 -18.2 c2.7 -0.8 6.1 -2.6 7.7 -4 2.6 -2.4 2.7 -3.1 2.7 -11.5 l0 -9 -6.3 0 c-13.7 0 -21.6 4.8 -22.5 13.8 -0.5 5.9 0.9 8.9 5.1 10.7 4.2 1.8 7.2 1.8 13.3 0z"/>
  <path d="M411.1 522.3 c-5.7 -2 -12.3 -8.7 -14.6 -14.6 -2.5 -6.7 -1.7 -17 1.8 -23 6.4 -10.9 19.2 -16.7 40 -18.3 l8.7 -0.7 0 -3.9 c0 -10.5 -5.2 -14.3 -18.5 -13.6 -6.4 0.4 -9.1 1.1 -13.5 3.4 -3 1.6 -5.8 3 -6.1 3.2 -0.4 0.2 -3 -3 -5.8 -7 l-5 -7.3 5.2 -3.3 c20.2 -12.7 51.8 -11.7 61.8 2.1 5.3 7.4 5.9 11.3 5.9 41.6 0 24.4 0.5 31.5 2.6 38.4 0.5 1.6 -0.3 1.7 -11.8 1.5 l-12.3 -0.3 -0.3 -3.5 c-0.5 -6 -1 -6.3 -4.3 -2.6 -7 8.1 -23.2 11.8 -33.8 7.9z m28.1 -18.9 c7.1 -3.6 7.8 -4.8 7.8 -14.7 l0 -8.9 -8.2 0.4 c-14.1 0.6 -21 5.6 -21 15.4 0 5 2.6 8.9 6.6 9.8 3.6 0.8 11.4 -0.2 14.8 -2z"/>
  <path d="M205 476.5 l0 -45.5 12 0 12 0 0 5.5 c0 3 0.3 5.5 0.6 5.5 0.4 0 2.4 -1.6 4.5 -3.5 17.1 -15.5 45.9 -12.5 50.8 5.2 0.7 2.3 1.1 18 1.1 40.6 l0 36.7 -12 0 -12 0 0 -30.1 c0 -33.9 -0.5 -38 -5.4 -41.1 -6.3 -3.9 -19.9 -0.3 -25.5 6.8 -2 2.6 -2.1 3.8 -2.1 34 l0 31.4 -12 0 -12 0 0 -45.5z"/>
  <path d="M335.5 520.6 c-16.9 -5.4 -28.4 -19.5 -30.8 -37.8 -3.3 -25 8.8 -46.2 30.8 -53.8 11.3 -3.9 30.8 -2.4 41.7 3.1 l3.7 1.9 -3.5 7.7 c-1.9 4.2 -3.7 7.9 -3.9 8.2 -0.3 0.2 -3.2 -0.4 -6.6 -1.4 -8.4 -2.6 -17.3 -2.5 -22.4 0.1 -5.2 2.7 -10 9.9 -11.6 17.2 -1.6 7.8 -0.6 19.6 2.1 26.1 5.7 13.2 21.6 18 34 10.3 l4.8 -3 3.5 7.7 3.4 7.6 -2.6 1.8 c-5.7 3.8 -14.7 5.7 -27 5.6 -6.4 0 -13.4 -0.6 -15.6 -1.3z"/>
  <path d="M0 459.1 l0 -62.1 26.8 0 c28.5 0 33.8 0.6 43.1 5.3 9.9 4.9 15.7 15.9 14.9 28.1 -0.8 12.3 -7.7 20.8 -20.3 25.1 -1.6 0.6 -1.1 1 2.6 2.1 27.1 8.1 30.6 44.2 5.7 57 -9.4 4.8 -15.4 5.6 -45 6.1 l-27.8 0.5 0 -62.1z m54.7 40.8 c6.9 -3.5 8.8 -6.6 8.8 -14.7 0 -8.2 -2.2 -12.5 -8 -15.5 -3.4 -1.8 -6.1 -2.2 -17.2 -2.5 l-13.3 -0.4 0 18.2 0 18.3 12.5 -0.5 c10.4 -0.5 13.3 -1 17.2 -2.9z m-3.1 -53.7 c5.5 -2.8 7.8 -7.6 7.2 -14.9 -0.9 -10.7 -6.5 -14.4 -23 -15.1 l-10.8 -0.5 0 16.8 0 16.8 11.3 -0.5 c8.8 -0.4 12.1 -0.9 15.3 -2.6z"/>
 </g>
</svg>