<?xml version="1.0" encoding="utf-8"?>
<!DOCTYPE svg PUBLIC "-//W3C//DTD SVG 1.1//EN" "http://www.w3.org/Graphics/SVG/1.1/DTD/svg11.dtd">
<svg version="1.1" xmlns="http://www.w3.org/2000/svg" width="720px" height="405px" viewBox="0 0 720 405" preserveAspectRatio="xMidYMid meet">
 <g fill="#ffffff">
  <path d="M83.30 375.80 c-1.85 -0.70 -3.90 -1.65 -4.50 -2.15 -2.65 -2.20 -5.30 -4.90 -5.30 -5.45 0 -0.65 1.55 -1.20 3.55 -1.20 6.10 -0.05 13.70 -5.90 16.65 -12.90 1 -2.25 1.05 -3.50 1.20 -36.40 0.15 -32.45 0.10 -34.10 -0.75 -34.30 -1.35 -0.35 -14.55 -10.40 -18.40 -14 -4.35 -4.05 -10.75 -11.65 -13.65 -16.15 -1.20 -1.90 -2.85 -4.40 -3.60 -5.50 -1.35 -1.95 -6.45 -13.10 -8.20 -17.80 -1.05 -2.85 -2.10 -3.90 -6.65 -6.20 -3.30 -1.70 -3.95 -1.85 -7.75 -1.85 -4.20 0 -7.20 0.85 -9 2.45 -1.10 1 -1.75 0.50 -2.40 -1.75 -1.20 -4.45 0.15 -14.25 2.35 -16.70 0.70 -0.80 0.70 -1 -0.10 -2.20 -1.75 -2.70 -2.75 -6.75 -2.75 -11.15 0 -4.15 0.70 -8.05 1.40 -8.05 0.20 0 1.40 0.55 2.75 1.20 4.50 2.30 11.20 2.20 16.20 -0.30 3.30 -1.65 5.40 -4.20 6.90 -8.40 0.70 -2.05 1.50 -3.95 1.70 -4.25 0.25 -0.25 1.30 -2.50 2.40 -5 6.15 -13.95 22.45 -32 36.70 -40.65 l3.20 -1.95 0 -30.45 c0 -16.75 -0.20 -31.70 -0.40 -33.25 -0.55 -3.95 -3.85 -9.55 -7.20 -12.25 -3.10 -2.50 -7.40 -4.25 -11.25 -4.60 -3.70 -0.30 -3.80 -1.20 -0.55 -4.10 4.45 -3.95 6.20 -4.50 13.65 -4.50 6.15 0 6.75 0.10 9.35 1.40 3 1.45 8.35 6.30 8.90 8.05 0.20 0.70 1.45 1.60 3.45 2.50 3.75 1.70 6.50 4 7.95 6.75 1.10 2.05 1.10 2.30 1.25 30.20 0.10 26.45 0.20 28.15 1 27.85 3.75 -1.60 12.65 -3.85 26.75 -6.75 1.30 -0.25 6.15 -0.85 10.75 -1.30 12.40 -1.20 34.70 -0.45 41.50 1.35 1.15 0.35 2.25 0.45 2.40 0.30 0.20 -0.15 -0.15 -1.05 -0.70 -1.95 -0.55 -0.90 -1.50 -2.90 -2.15 -4.40 -1.25 -3 -7.30 -13.20 -9.40 -15.95 -0.70 -0.95 -3.75 -4.20 -6.80 -7.25 -7.55 -7.65 -13.75 -11 -21.35 -11.65 -9.25 -0.80 -18 4 -21.50 11.75 -3.65 8 -0.55 16.55 6.95 19.40 2.50 1 2.85 2.20 0.65 2.20 -1.50 0 -2.65 -0.45 -9.90 -3.85 -15 -7.05 -18.15 -26.85 -6.40 -39.95 3.35 -3.75 10.25 -8.40 14.70 -9.95 6.50 -2.25 11.20 -2.90 19.10 -2.60 5.55 0.15 8.35 0.50 12.10 1.50 12.05 3.20 26.55 13.55 36.95 26.45 6.70 8.35 15.15 21.45 17.25 26.90 0.50 1.25 1.60 3.50 2.50 5.10 1.55 2.70 2.60 5.15 5.45 12.80 1.15 3.10 1.50 3.60 2.55 3.60 2.30 0 17.65 8.85 25.45 14.75 6.95 5.20 14.40 10.15 17.15 11.35 1.30 0.55 3.95 1.15 5.90 1.25 4.30 0.35 5.80 -0.35 9.60 -4.20 1.45 -1.50 2.85 -2.65 3.15 -2.55 0.90 0.30 2.95 6.90 2.95 9.45 0 7.05 -5.85 13.45 -12.25 13.45 -1.45 0 -1.55 0.10 -1.35 1.75 0.50 4.30 -3.45 11 -7.85 13.20 -3.25 1.65 -9.05 2.50 -11.90 1.75 -1.10 -0.30 -1.60 -1.85 -0.75 -2.40 0.20 -0.15 1.05 -1.55 1.90 -3.15 1.20 -2.40 1.45 -3.50 1.45 -6.40 0 -3.15 -0.20 -3.80 -1.85 -6.55 -2.50 -4.10 -5.30 -7.15 -10.10 -11.15 -4.55 -3.75 -16.20 -12.55 -16.60 -12.55 -0.20 0 -0.15 0.40 0.05 0.90 0.90 2.20 2.35 8.25 4.50 18.85 2.40 11.80 2.70 13.55 4 23.05 0.85 6.50 2.05 10.10 4.60 14.35 2.85 4.80 4.05 6.20 6.85 8.05 4.40 2.95 4.75 4.05 1.70 5.60 -1.65 0.80 -7.40 6.10 -7.40 6.80 0 0.20 -0.70 1.50 -1.50 2.85 -2.20 3.55 -3.40 7.50 -4.25 13.75 -0.85 6.60 -1.40 9.65 -3 17.30 -0.70 3.15 -1.80 9.20 -2.50 13.45 -0.70 4.25 -1.50 8.10 -1.75 8.60 -1.25 2.30 -0.30 1.95 5.05 -1.90 6 -4.25 11.95 -9.25 15.50 -12.95 7.45 -7.80 8.60 -12.60 4.65 -20 -0.95 -1.75 -1.70 -3.50 -1.70 -3.90 0 -1.15 3.95 -1.45 7.95 -0.60 7.45 1.55 13.05 7.80 13.05 14.65 l0 2.15 2.10 0 c4.35 0 8 2.85 10.30 8 1 2.30 1.15 3.30 0.95 6 -0.15 1.80 -0.75 4.55 -1.35 6.10 -1.35 3.40 -1.65 3.35 -5.40 -0.65 -2.25 -2.45 -3.05 -3 -5.30 -3.50 -5.45 -1.20 -11.85 1.65 -23.85 10.65 -4.05 3 -8.90 6.45 -10.75 7.65 -4.45 2.85 -15.75 8.80 -18.95 10.05 -1.50 0.55 -2.15 1 -1.60 1.10 0.45 0.10 0.85 0.25 0.85 0.40 0 0.70 -4.20 10.60 -4.80 11.20 -0.35 0.45 -1.35 2.30 -2.15 4.10 -3.10 6.85 -10.30 18.30 -16.70 26.65 -14.20 18.55 -29.40 29.20 -46.75 32.70 -9.15 1.85 -23.05 -1.30 -31.60 -7.15 -3.25 -2.20 -8.55 -7.80 -10.10 -10.65 -1.90 -3.40 -3.40 -9.35 -3.40 -13.15 0.05 -10.70 6.50 -19.45 17.30 -23.40 6 -2.20 6.70 -2.30 6.70 -1.15 0 0.65 -0.55 1.15 -1.65 1.50 -2.60 0.90 -5.20 3.35 -6.60 6.40 -4.75 9.95 3.20 22.10 15.80 24.10 6.20 1 12.75 -0.85 19.50 -5.60 7.55 -5.30 18.65 -18.75 23.45 -28.40 1.15 -2.30 2.70 -4.95 3.40 -5.90 l1.25 -1.70 -2.20 0.35 c-16.90 2.80 -45.55 2.20 -60.20 -1.20 -10.80 -2.50 -17.35 -4.30 -19.10 -5.25 l-2.15 -1.20 0 28.90 c0 31.95 0.05 31.60 -3.25 35.40 -1.65 1.95 -4.80 3.85 -7.35 4.45 -0.90 0.20 -1.80 1.05 -2.65 2.45 -0.65 1.20 -2.45 3.20 -3.85 4.50 -6.25 5.45 -13.20 7.05 -20.10 4.55z m106.45 -88.50 c4.40 -0.40 10.45 -1 13.40 -1.35 4.95 -0.60 5.35 -0.70 5.35 -1.70 0 -0.60 0.80 -4.10 1.80 -7.80 0.95 -3.70 2 -7.50 2.25 -8.45 0.25 -0.95 1.10 -5.90 1.95 -11 0.80 -5.10 1.75 -10.70 2.05 -12.50 0.25 -1.80 0.70 -4.25 1 -5.50 0.70 -3.60 1.50 -11.40 1.50 -15.45 0 -3.50 0.10 -3.75 1.55 -5 3.90 -3.25 7.05 -6.40 7.75 -7.80 0.45 -0.80 0.95 -1.60 1.10 -1.75 0.15 -0.15 0.60 -1.10 0.95 -2.15 0.55 -1.50 0.55 -2.25 0.05 -3.75 -1 -3.20 -4.45 -7.50 -8.05 -10.15 l-3.40 -2.55 0 -4.30 c0 -4.75 -1.20 -17.75 -1.95 -21.20 -0.25 -1.20 -0.95 -5.20 -1.55 -8.90 -0.60 -3.70 -1.50 -8.90 -2.05 -11.50 -0.90 -4.65 -1.25 -6.05 -3.40 -13.25 -0.60 -1.90 -1.30 -4.30 -1.55 -5.30 l-0.50 -1.75 -4.60 -0.60 c-15.10 -1.95 -17.75 -2.15 -27.65 -2.15 -10.80 0 -21.55 1.05 -27 2.70 -1.35 0.40 -5.40 1.55 -9 2.60 -4.10 1.15 -8.55 2.90 -12.10 4.65 l-5.60 2.85 -0.15 3.25 c-0.10 1.80 -0.10 33.70 0 70.90 0.10 59.95 0.20 67.60 0.85 67.60 0.45 0 2 0.65 3.55 1.45 1.50 0.85 5.60 2.45 9.10 3.60 3.50 1.10 6.45 2.20 6.60 2.40 0.60 0.85 18.35 3.85 25 4.20 7.20 0.40 15.45 0.25 22.75 -0.35z m-95.75 -82.80 l-0.25 -45.25 -1.05 1.75 c-0.60 0.95 -1.70 3 -2.50 4.50 -0.80 1.50 -1.60 2.85 -1.75 3 -0.70 0.55 -1.90 3.50 -3.40 8.20 -0.85 2.70 -1.90 5.55 -2.30 6.35 -0.40 0.75 -0.75 2.25 -0.75 3.35 0 2.40 -0.60 3.15 -3.75 4.65 -5.25 2.50 -9.85 9 -9.85 13.85 0 1.35 0.45 3.45 1 4.75 1.20 2.70 6.35 7.95 8.70 8.80 2.90 1.10 3.15 1.35 3.75 4.10 1.10 5.10 5.50 16.95 7.25 19.60 0.95 1.45 2.15 3.40 2.65 4.35 0.80 1.55 2.35 3.70 2.45 3.40 0.05 -0.10 -0.05 -20.50 -0.20 -45.40z"/>
  <path d="M450 359.05 c0 -1.70 1.10 -2.55 3.35 -2.55 3.65 -0.05 3.65 0 3.65 -25.50 0 -24.20 -0.10 -25.15 -2.55 -26.30 -0.65 -0.30 -1.85 -0.75 -2.70 -1 -1.20 -0.40 -1.55 -0.80 -1.65 -2.10 -0.15 -1.35 0 -1.60 0.90 -1.60 0.60 0 3.75 -0.25 7.05 -0.55 6.95 -0.65 7.75 -0.35 7.30 2.40 -0.35 1.95 0.50 2.20 1.95 0.55 1.75 -1.95 6.85 -3.90 10.30 -3.90 5.90 0 12.20 4.35 15 10.35 0.65 1.30 1.30 2.55 1.50 2.70 0.40 0.25 1.20 4.15 1.60 7.35 0.20 2 -1.05 9.65 -1.70 10.30 -0.30 0.30 -0.50 0.80 -0.50 1.15 0 1 -4.45 7.10 -6.15 8.35 -5.50 4.10 -12.15 5.30 -18.15 3.30 -1.60 -0.55 -3.10 -1 -3.30 -1 -0.50 0 0.15 13.65 0.70 14.30 0.25 0.35 1.65 0.75 3.15 0.95 3.05 0.35 4.40 1.30 4.15 2.95 -0.15 1.05 -0.35 1.05 -12 1.20 l-11.90 0.10 0 -1.45z m29.05 -23.40 c2.85 -2.65 3.80 -4.25 4.75 -7.90 0.80 -2.90 0.90 -10.65 0.25 -12.35 -0.25 -0.65 -0.60 -1.75 -0.75 -2.45 -0.40 -1.75 -4 -5.80 -6.30 -6.95 -2.65 -1.35 -6.40 -0.40 -9.35 2.50 l-1.65 1.55 0 10.80 0 10.75 3.25 3.20 c2.90 2.85 3.45 3.20 5.30 3.20 1.70 0 2.35 -0.35 4.50 -2.35z"/>
  <path d="M374.25 342.40 c-9 -2.95 -14.25 -10.95 -14.25 -21.55 0 -6.85 2.15 -12.10 6.60 -16.55 5.55 -5.50 13 -7.25 20.15 -4.80 1.60 0.55 3 1 3.10 1 0.05 0 0.15 -3.80 0.15 -8.45 l0 -8.45 -1.50 -1.30 c-0.95 -0.75 -2.40 -1.35 -3.90 -1.55 -1.30 -0.15 -2.70 -0.50 -3.10 -0.70 -1 -0.55 -1.20 -2.25 -0.40 -2.90 0.35 -0.30 4.40 -0.70 9.05 -0.90 l8.35 -0.40 0 28.95 0 28.90 1.15 1.65 c0.90 1.30 1.55 1.70 3.35 1.90 3.35 0.45 3.60 0.60 3.40 2.10 -0.20 1.65 -1.20 1.90 -9.65 2.45 -4.75 0.30 -5.60 0.25 -6.20 -0.50 -0.35 -0.45 -0.55 -1.25 -0.40 -1.80 0.35 -1.35 -0.45 -1.25 -2.20 0.20 -3.25 2.75 -9.75 4.05 -13.70 2.70z m9.40 -6.60 c1 -0.40 2.65 -1.30 3.60 -2 l1.75 -1.35 0 -11.35 c0 -12.80 -0.15 -13.40 -3.85 -15.75 -2.75 -1.75 -3.85 -2 -5.75 -1.20 -4.20 1.75 -6.15 4.60 -7.90 11.40 -2.20 8.40 0.55 16.65 6.50 19.80 2.45 1.30 3.05 1.35 5.65 0.45z"/>
  <path d="M423.95 342.25 c-10 -2.75 -16.10 -13.75 -14.20 -25.70 1.20 -7.20 5.20 -13.10 10.95 -16.05 3.10 -1.55 3.95 -1.75 8.10 -1.90 4.35 -0.20 4.95 -0.10 7.80 1.25 3.45 1.65 5.80 3.75 7.20 6.55 0.55 1 1.10 1.95 1.25 2.10 0.55 0.45 1.05 3.25 1.30 7.15 l0.25 3.85 -13.80 0 -13.80 0 0 2.85 c0 6.10 2.90 11.75 7.20 14 1.70 0.90 7.95 1.20 10.45 0.50 1.70 -0.45 5.15 -3.55 6.15 -5.45 0.40 -0.75 1.15 -1.40 1.65 -1.40 0.85 0 2.55 1.45 2.55 2.20 0 0.90 -4.40 6 -6.20 7.25 -4.85 3.30 -11.15 4.35 -16.85 2.80z m11.55 -30.35 c0 -2.45 -1.60 -5.55 -3.55 -7.05 -3.35 -2.45 -8.60 0 -10.40 4.90 -1.70 4.50 -2.05 4.25 6.45 4.25 l7.50 0 0 -2.10z"/>
  <path d="M513.15 342.15 c-2.30 -0.80 -5 -3.55 -6.40 -6.50 -0.75 -1.50 -0.85 -3.55 -0.80 -14.25 0.05 -8.35 -0.10 -13.10 -0.50 -14.40 -0.35 -1.10 -0.65 -2 -0.65 -2 -4.80 -1.50 -5.55 -1.90 -5.70 -3.15 -0.20 -1.60 -0.15 -1.60 8.30 -2.40 4.70 -0.45 6.35 -0.40 6.75 0 0.45 0.45 0.65 5.35 0.70 17.30 0.10 18.55 0.05 18.40 3.50 20 3.50 1.65 9.20 0 11.80 -3.45 l1.35 -1.75 0 -12.10 0 -12.10 -1.30 -1.70 c-1.05 -1.40 -1.55 -1.65 -3.25 -1.65 -2.65 0 -3.95 -0.75 -3.95 -2.25 0 -1.50 0.20 -1.55 8.65 -2.25 5.40 -0.50 7 -0.50 7.60 0 0.65 0.55 0.75 3.25 0.75 18.25 0 19.75 -0.20 18.80 3.80 19.65 1.75 0.35 1.95 0.55 1.95 1.85 0 1.45 -0.05 1.50 -3.75 2.15 -2.05 0.35 -5.20 0.55 -7 0.50 l-3.25 -0.15 -0.15 -2.60 -0.15 -2.60 -2.70 2.15 c-4.80 3.95 -10.65 5.25 -15.60 3.45z"/>
  <path d="M562.85 342.45 c-3.40 -0.80 -4.70 -1.80 -6.05 -4.65 l-1.30 -2.75 0 -15.25 0 -15.30 -3.50 0 c-3.75 0 -3.80 -0.05 -3.55 -3 0.15 -1.60 0.75 -1.95 3.10 -1.65 1.05 0.15 2.40 0.15 3.05 0 1.15 -0.30 1.15 -0.40 0.95 -6.15 -0.15 -5.20 -0.05 -5.95 0.75 -6.55 0.95 -0.70 6.05 -0.90 7.05 -0.25 0.40 0.25 0.65 2.40 0.75 6.60 l0.15 6.25 5.25 0.10 c2.90 0.05 5.55 0.10 5.90 0.15 0.40 0 0.60 0.80 0.60 2.25 l0 2.25 -5.75 0 c-4.25 0 -5.75 0.15 -5.75 0.65 -0.25 9.15 0.15 26.85 0.65 28.40 0.85 2.70 3 3.60 8.15 3.35 3.95 -0.15 3.95 -0.15 4.10 1.15 0.25 1.95 -1.45 2.85 -7.90 4.25 -3.60 0.80 -3.95 0.80 -6.65 0.15z"/>
  <path d="M588.30 342.50 c-6.40 -2.05 -9.15 -9.25 -6.10 -15.85 1.65 -3.50 4.85 -5.55 12.55 -8.05 3.30 -1.10 6.90 -2.40 8 -2.90 l2 -0.95 0 -4.25 c-0.05 -2.80 -0.25 -4.25 -0.65 -4.40 -0.35 -0.10 -0.60 -0.45 -0.60 -0.80 0 -0.35 -0.65 -1.10 -1.50 -1.70 -1.80 -1.35 -6.25 -1.50 -8.60 -0.30 -1.25 0.65 -1.45 1 -1.20 2.10 1 4.40 0.95 4.85 -0.70 6.50 -3.20 3.25 -8.50 1.35 -8.50 -3 0 -3.75 2.80 -6.95 7.85 -8.95 2.45 -1 3.75 -1.20 8.65 -1.20 4.95 0 6.05 0.15 7.75 1.10 2.30 1.20 3.60 2.60 5.15 5.30 1.05 1.85 1.10 2.45 1.10 16.05 0 13.65 0.05 14.20 1.05 15.10 0.55 0.50 2.05 1.05 3.35 1.20 2.20 0.25 2.35 0.35 2.50 1.80 0.15 1.50 0 1.65 -2.15 2.45 -1.70 0.70 -3.05 0.80 -5.55 0.60 -3.70 -0.35 -5.75 -1.50 -6.70 -3.85 -0.75 -1.80 -1.15 -1.85 -2.15 -0.35 -0.40 0.65 -2.20 1.90 -4.05 2.80 -2.55 1.30 -4 1.70 -6.65 1.85 -1.85 0.10 -4.05 -0.05 -4.85 -0.30z m11.60 -7.80 c1.45 -0.70 2.80 -1.65 3.05 -2.10 0.70 -1.45 1.15 -11.60 0.50 -11.60 -1.25 0 -7.80 3.70 -9.55 5.40 -3.35 3.20 -3.50 5.80 -0.50 8.50 1.65 1.45 3.30 1.40 6.50 -0.20z"/>
  <path d="M635.40 342.30 c-2.95 -0.80 -3.80 -1.50 -5.10 -4.30 -0.95 -2.10 -1.05 -3.40 -1.30 -17.75 l-0.25 -15.50 -3.50 -0.25 -3.50 -0.25 -0.15 -2.10 c-0.20 -2.40 -0.40 -2.30 4.55 -2.15 l2.85 0.05 0 -6.20 c0 -4.75 0.15 -6.35 0.70 -6.80 0.45 -0.35 2.05 -0.55 4.15 -0.45 l3.40 0.15 0.25 6.50 0.25 6.50 5.75 0.25 5.75 0.25 0.15 2.15 0.15 2.10 -4.90 0.10 c-2.70 0.05 -5.35 0.10 -5.90 0.10 -0.95 0.05 -1 0.45 -1.15 12 -0.10 9.50 0.05 12.55 0.65 15 1.20 4.65 1.85 5.05 7.50 4.95 l4.75 -0.05 0 1.65 c0 1.50 -0.20 1.70 -2.60 2.70 -2.45 1 -7.60 2.10 -9.40 2 -0.40 0 -1.80 -0.30 -3.10 -0.65z"/>
  <path d="M654.35 341.65 c-0.20 -0.15 -0.35 -0.95 -0.35 -1.75 0 -1.25 0.20 -1.40 1.50 -1.40 0.85 0 2.20 -0.35 3 -0.75 l1.50 -0.80 0 -15.20 0 -15.20 -1.60 -1.20 c-0.90 -0.70 -2.50 -1.40 -3.50 -1.55 -1.45 -0.25 -1.95 -0.65 -2.20 -1.60 -0.20 -0.70 -0.15 -1.45 0.10 -1.70 0.60 -0.50 14.45 -1.70 15.15 -1.25 0.40 0.20 0.55 6.15 0.55 18.20 l0 17.90 1.20 1.10 c0.70 0.65 2 1.30 2.90 1.50 1.45 0.30 1.65 0.55 1.80 2.20 l0.15 1.85 -9.95 0 c-5.45 0 -10.10 -0.15 -10.25 -0.35z"/>
  <path d="M660.70 288.10 c-2.85 -2.40 -3.30 -4.40 -1.85 -7.45 0.90 -1.95 3.25 -3.65 5.05 -3.65 0.60 0 1.70 0.40 2.40 0.85 1.50 1 3.70 4.25 3.70 5.50 0 1.45 -1.85 4.10 -3.60 5.15 -2.20 1.35 -3.85 1.25 -5.70 -0.40z"/>
  <path d="M373.65 234.30 c-10.10 -3.20 -15.95 -15.95 -12.85 -27.95 1.15 -4.45 2.45 -6.70 5.90 -10.10 4.05 -4.05 8.10 -5.75 13.75 -5.75 2.20 0 4.65 0.30 5.60 0.70 0.95 0.35 2.20 0.85 2.85 1 l1.10 0.35 0 -8.50 0 -8.50 -1.30 -1.20 c-0.90 -0.85 -2.35 -1.40 -4.60 -1.75 -3.75 -0.65 -4.65 -1.45 -3.60 -3.10 0.50 -0.80 5.80 -1.40 13.65 -1.45 l4.35 -0.05 0 28.75 0 28.75 1.15 1.75 c0.90 1.45 1.50 1.80 3.45 2.05 2.65 0.35 3.65 1.15 3.20 2.60 -0.25 0.80 -1.15 1.05 -5.70 1.50 -9.45 1.05 -11 0.70 -10.30 -2.10 0.40 -1.60 -0.15 -1.65 -1.75 -0.10 -3.40 3.15 -10.15 4.55 -14.90 3.10z m11.10 -6.95 c0.55 -0.25 1.75 -1 2.65 -1.70 l1.60 -1.20 0 -11.25 c0 -7.35 -0.20 -11.65 -0.55 -12.35 -0.85 -1.60 -3.05 -3.85 -3.80 -3.85 -0.35 0 -0.65 -0.20 -0.65 -0.50 0 -0.25 -0.75 -0.60 -1.70 -0.75 -2.75 -0.55 -7.05 2.30 -9.10 6.05 -1.35 2.35 -2.80 9.90 -2.50 12.70 1.05 9.95 7.70 16 14.05 12.85z"/>
  <path d="M424.40 234.25 c-1.30 -0.35 -3.35 -1.15 -4.60 -1.75 -2.45 -1.15 -6.65 -5.50 -7.10 -7.35 -0.20 -0.65 -0.50 -1.15 -0.70 -1.15 -0.65 0 -1.55 -2.95 -2.20 -7.40 -1.55 -10.20 2.65 -19.55 10.85 -24.15 3.35 -1.90 3.55 -1.95 8.40 -1.95 4.25 0 5.30 0.15 7.65 1.30 3.10 1.45 5.75 3.90 7.10 6.60 0.50 1 1.10 1.95 1.25 2.10 0.55 0.45 1.05 3.25 1.30 7.15 l0.25 3.85 -13.80 0 -13.80 0 0 3.15 c0 6.10 3 11.60 7.50 13.75 1.85 0.90 7.65 1.15 10.15 0.45 1.70 -0.45 5.15 -3.55 6.15 -5.45 0.85 -1.65 2.20 -1.80 3.45 -0.40 0.90 1 0.85 1.10 -0.95 3.75 -4.65 6.70 -12.95 9.70 -20.90 7.50z m11.10 -30.60 c-0.40 -3 -1.50 -5.15 -3.50 -6.85 -1.90 -1.60 -3.65 -1.65 -6 -0.25 -2.40 1.50 -3.85 3.30 -4.75 5.90 -1.25 3.75 -1.60 3.55 6.90 3.55 l7.65 0 -0.30 -2.35z"/>
  <path d="M451.50 233.25 c-1.05 -1.25 -0.10 -2.70 2 -3.05 3.95 -0.65 3.75 0.20 3.75 -16.70 l0 -15.10 -1.40 -1.20 c-0.75 -0.65 -2.05 -1.20 -2.80 -1.20 -1.95 0 -3.20 -1.05 -2.95 -2.55 0.15 -1.05 0.50 -1.25 2.90 -1.55 1.50 -0.20 5 -0.40 7.75 -0.50 l5 -0.15 0.25 18 c0.15 9.90 0.45 18.35 0.65 18.80 0.25 0.45 1.65 1.20 3.15 1.70 2.20 0.70 2.70 1.05 2.70 1.95 0 2.15 -0.70 2.30 -10.80 2.30 -7.75 0 -9.70 -0.15 -10.20 -0.75z"/>
  <path d="M457.80 179.80 c-2 -2.05 -2.60 -4.15 -1.80 -6.55 0.65 -1.95 3.30 -4.25 4.85 -4.25 3.35 0 6.15 2.75 6.15 6.05 0 3.25 -3.05 6.45 -6.20 6.45 -0.80 0 -1.95 -0.65 -3 -1.70z"/>
  <path d="M382.85 126.70 c-4.70 -1.05 -9.10 -3.20 -12.25 -6 -12.85 -11.40 -14.10 -33.20 -2.70 -46.95 2.80 -3.35 7.35 -6.80 10.45 -7.80 1.05 -0.30 2.15 -0.75 2.40 -0.95 0.30 -0.20 2.30 -0.65 4.45 -1 5.20 -0.80 10.40 -0.05 15.10 2.25 l3.35 1.65 1.20 -1.45 c1.40 -1.65 3.85 -2 4.35 -0.65 0.15 0.45 0.30 5.45 0.30 11.20 0 9.55 -0.05 10.40 -0.90 10.60 -1.35 0.40 -3.10 -0.45 -3.10 -1.50 0 -0.50 -0.25 -1.15 -0.50 -1.40 -0.30 -0.30 -0.85 -1.80 -1.25 -3.35 -2.65 -10.25 -9.95 -14.80 -19.25 -12.05 -5.10 1.50 -7.20 3.50 -10.20 9.65 -2.15 4.45 -2.80 7.35 -3.15 14.30 -0.60 12.15 4 22.40 12.10 26.65 2.25 1.20 3.05 1.35 7.75 1.35 4.70 0 5.50 -0.15 7.75 -1.35 3.10 -1.60 6.30 -5.05 8.60 -9.15 1.20 -2.20 2.20 -2.35 3.85 -0.75 0.95 0.90 0.95 1 0.15 1.90 -0.45 0.50 -0.85 1.20 -0.85 1.55 0 1 -3.35 5.50 -5.85 7.90 -4.85 4.65 -14.40 7 -21.80 5.35z"/>
  <path d="M423.05 126.30 c-2.20 -0.80 -5.35 -3.45 -6.40 -5.45 -1.10 -2.15 -1.10 -7.55 0.05 -9.80 2.15 -4.15 4.60 -5.85 11.55 -8.05 2.75 -0.90 5.25 -1.80 5.50 -2 0.30 -0.25 1.80 -0.80 3.40 -1.25 l2.85 -0.80 0 -3.20 c0 -4.05 -1.35 -7.40 -3.45 -8.45 -0.90 -0.50 -2.80 -0.80 -4.70 -0.80 -4.15 0 -4.65 0.50 -4.40 5 0.15 3.20 0.05 3.40 -1.45 4.65 -1.10 0.95 -2.15 1.35 -3.50 1.35 -1.60 0 -2.20 -0.30 -3.45 -1.85 -1.85 -2.25 -1.95 -3.55 -0.30 -6.10 1.45 -2.35 3.50 -4 7.20 -5.75 2.45 -1.15 3.35 -1.30 8.15 -1.30 4.80 0 5.75 0.15 7.85 1.25 1.35 0.65 3.20 2.10 4.15 3.20 2.60 3.05 3.05 6.20 2.80 20.55 l-0.15 12.10 1.20 0.95 c0.75 0.60 1.95 0.95 3.30 0.95 1.70 0 2.25 0.20 2.50 0.95 0.50 1.60 -0.30 2.50 -2.90 3.30 -5.20 1.55 -9.80 0.35 -11.85 -3.10 l-1.05 -1.85 -1.50 1.60 c-3.40 3.65 -10.90 5.55 -15.40 3.90z m10.85 -7.10 c1 -0.40 2.60 -1.45 3.50 -2.30 l1.60 -1.60 0 -5.15 c0 -2.85 -0.15 -5.15 -0.30 -5.15 -0.95 0 -4.20 1.20 -4.20 1.60 0 0.20 -0.20 0.40 -0.50 0.40 -0.25 0 -1.60 0.70 -3 1.55 -1.85 1.15 -2.90 2.25 -3.80 4 -1.20 2.40 -1.20 2.55 -0.40 4.25 0.85 1.75 2.70 3.15 4.35 3.20 0.50 0 1.70 -0.35 2.75 -0.80z"/>
  <path d="M549.95 126.25 c-9.30 -2.55 -14.90 -10.60 -14.90 -21.50 -0.05 -4.90 0.95 -8.60 3.35 -12.65 2.45 -4.15 4.75 -6.25 8.80 -8.15 2.70 -1.30 3.60 -1.45 7.85 -1.45 4.20 0 5.10 0.15 7.25 1.30 4.15 2.20 5.50 3.55 7.40 7.20 1.65 3.30 1.80 3.90 1.80 8.05 l0 4.45 -13.55 0 -13.60 0 0.35 4 c0.50 6.30 2.80 10.45 7 12.60 1.60 0.85 2.95 1.10 6.05 1.10 4.80 0.05 6.40 -0.75 9.70 -4.95 l2.20 -2.75 1.55 0.95 c0.85 0.55 1.60 1.20 1.65 1.40 0.20 0.65 -5.10 6.60 -6.95 7.90 -4.20 2.85 -10.90 3.90 -15.95 2.50z m11.55 -29.40 c0 -2.45 -1.60 -5.80 -3.60 -7.65 -1.80 -1.60 -2.25 -1.80 -4.05 -1.55 -3.30 0.45 -6.60 4.20 -7.60 8.80 l-0.35 1.55 7.80 0 7.80 0 0 -1.15z"/>
  <path d="M619.50 126 c-2.55 -1.20 -4.75 -3.15 -5.80 -5.10 -0.90 -1.80 -0.90 -7.80 0.05 -10.05 1.30 -3.15 4.85 -5.65 11 -7.65 3.05 -1.05 5.60 -2.05 5.65 -2.25 0.10 -0.25 0.50 -0.45 0.90 -0.45 0.45 0 1.85 -0.35 3.25 -0.80 l2.45 -0.80 0 -2.85 c0 -3.90 -1.05 -7 -2.80 -8.40 -1.20 -0.95 -2.05 -1.15 -4.70 -1.15 -2.20 0 -3.65 0.25 -4.40 0.80 -1.05 0.75 -1.15 1.05 -0.80 4.15 0.30 3.35 0.30 3.40 -1.30 4.70 -2.30 1.95 -4.95 1.85 -6.70 -0.20 -1.75 -2.10 -2.05 -3.65 -1.10 -5.65 0.80 -1.75 4.90 -5.80 5.80 -5.80 0.30 0 1.50 -0.45 2.60 -1 1.70 -0.80 3.10 -1 7.50 -1 4.75 0 5.75 0.15 7.80 1.20 3 1.55 4.75 3.40 6.05 6.45 1 2.25 1.05 3.40 1.05 16.10 0 15.45 -0.20 14.75 4.05 15.15 2.75 0.25 3.20 0.60 2.75 2.35 -0.40 1.60 -4.80 2.95 -8.60 2.65 -2.65 -0.25 -6.20 -2.25 -6.20 -3.55 0 -0.35 -0.20 -0.95 -0.50 -1.35 -0.35 -0.60 -0.75 -0.40 -2.15 1.05 -3.55 3.65 -11.60 5.40 -15.85 3.45z m11.40 -6.80 c1 -0.40 2.60 -1.45 3.50 -2.30 l1.60 -1.60 0 -5.40 0 -5.40 -2.10 0.90 c-2.20 0.90 -4.30 2.05 -7.05 3.85 -2.30 1.50 -5 7.25 -3.40 7.25 0.25 0 0.65 0.45 0.80 1 0.35 1.10 2.45 2.45 3.90 2.50 0.50 0 1.70 -0.35 2.75 -0.80z"/>
  <path d="M459.70 125.60 c-0.80 -0.55 -1.15 -1.85 -0.70 -2.60 0.35 -0.55 1.05 -0.80 3.25 -0.95 0.30 -0.05 1.15 -0.60 1.90 -1.30 l1.35 -1.30 0 -13.90 c0 -11.75 -0.10 -14 -0.75 -14.55 -0.40 -0.35 -0.75 -0.90 -0.75 -1.25 0 -0.70 -1.65 -1.60 -3.85 -2 -1.65 -0.35 -2.40 -1.50 -1.90 -2.85 0.30 -0.80 1.90 -1.05 10.35 -1.70 l4.35 -0.35 0.55 1.40 c0.30 0.75 0.40 2.15 0.20 3.05 -0.40 2.20 0.10 2.15 2.40 -0.20 2.90 -3 6.55 -4.60 10.45 -4.60 5.15 0 8.50 1.60 11 5.25 l1.20 1.70 1.75 -1.70 c0.95 -0.90 3.20 -2.50 4.90 -3.45 2.90 -1.65 3.55 -1.80 7.15 -1.80 3.50 0 4.20 0.15 6.30 1.45 2.45 1.50 3.10 2.35 4.75 5.65 0.80 1.65 0.90 3.35 0.90 15.85 l0 13.95 1.55 1.30 c0.90 0.75 2.15 1.30 3 1.30 1.70 0 2.65 1.65 1.85 3.15 -0.40 0.75 -1.40 0.85 -9.90 0.85 -5.15 0 -9.75 -0.15 -10.20 -0.30 -0.45 -0.20 -0.80 -0.90 -0.80 -1.75 0 -1.25 0.25 -1.45 1.90 -1.75 1 -0.20 2.35 -0.70 3 -1.10 1.10 -0.70 1.10 -0.75 1.10 -14.35 0 -13.35 0 -13.65 -1.15 -15.30 -0.60 -0.95 -2 -2.10 -3.10 -2.60 -1.75 -0.85 -2.25 -0.90 -4.90 -0.30 -2.40 0.50 -3.45 1.05 -5.20 2.70 l-2.15 2.10 0 13.55 0 13.55 1.40 0.75 c0.75 0.35 2.10 0.85 3 1.05 1.35 0.25 1.60 0.55 1.60 1.75 0 0.80 -0.35 1.50 -0.80 1.70 -0.45 0.15 -4.75 0.30 -9.65 0.30 -9.60 0 -11 -0.30 -10.35 -2.40 0.25 -0.70 0.95 -1.15 2.15 -1.40 3.70 -0.70 3.65 -0.40 3.65 -14.70 l0 -12.80 -1.35 -2.70 c-1.20 -2.35 -1.70 -2.80 -3.60 -3.40 -1.95 -0.65 -2.50 -0.65 -4.90 0.10 -1.55 0.50 -3.60 1.65 -4.70 2.65 l-1.95 1.80 0.10 13.70 0.15 13.75 2.75 1.10 c2.45 1 2.75 1.25 2.75 2.60 l0 1.45 -9.75 0.10 c-5.35 0.10 -10 0 -10.30 -0.25z"/>
  <path d="M577.65 125.65 c-0.35 -0.10 -0.65 -0.90 -0.65 -1.65 0 -1.30 0.20 -1.50 1.90 -1.80 1 -0.15 2.35 -0.65 3 -1 l1.10 -0.70 0 -14.90 c0 -16.85 0.05 -16.60 -4 -17.75 -1.75 -0.50 -2.30 -0.90 -2.40 -1.80 -0.10 -0.65 0 -1.35 0.25 -1.60 0.60 -0.60 12.40 -1.60 14 -1.20 1.20 0.30 1.25 0.45 1.05 2.75 -0.15 1.35 -0.15 2.60 -0.05 2.70 0.15 0.15 0.90 -0.55 1.75 -1.45 2.20 -2.50 6.25 -4.55 9.30 -4.70 2.05 -0.05 2.80 0.15 4.05 1.25 3.10 2.60 3.80 5.60 2 8.50 -1.25 2.10 -2.35 2.70 -4.70 2.70 -2.65 0 -4.25 -1.80 -4.25 -4.75 0 -1.25 -0.25 -2.25 -0.50 -2.25 -1.25 0 -5.50 2.60 -6.45 3.95 -1 1.40 -1.05 2.05 -1.05 14.75 l0 13.30 1.20 0.75 c0.65 0.45 2.05 0.95 3.10 1.10 2.60 0.40 3.70 1 3.70 2.05 0 1.95 -0.85 2.10 -11.45 2.05 -5.70 0 -10.60 -0.15 -10.90 -0.30z"/>
 </g>
 <g fill="#000000">
  <path d="M87.85 376.65 c0.90 -0.10 2.50 -0.10 3.50 0 1.05 0.10 0.35 0.20 -1.60 0.20 -1.90 0 -2.75 -0.10 -1.90 -0.20z"/>
  <path d="M82.25 375.45 c-1.35 -0.55 -3.40 -1.75 -4.50 -2.75 l-2 -1.75 2 1.35 c1.10 0.70 3.20 1.85 4.65 2.45 1.40 0.65 2.60 1.30 2.60 1.45 0 0.35 0.25 0.45 -2.75 -0.75z"/>
  <path d="M104.25 370 c1.05 -1.10 2.05 -2 2.20 -2 0.15 0 -0.65 0.90 -1.70 2 -1.05 1.10 -2.05 2 -2.20 2 -0.15 0 0.65 -0.90 1.70 -2z"/>
  <path d="M156.10 367.75 c-1.95 -0.30 -3.75 -0.75 -4 -1 -0.20 -0.20 0.65 -0.15 1.90 0.05 2.75 0.55 15.30 0.60 18.75 0.10 3.35 -0.50 1.35 0.30 -2.55 1.05 -3.75 0.70 -9.30 0.60 -14.10 -0.20z"/>
  <path d="M75.90 367.15 c0.60 -0.10 1.50 -0.10 2 0 0.45 0.15 -0.05 0.25 -1.15 0.20 -1.10 0 -1.50 -0.10 -0.85 -0.20z"/>
  <path d="M149.25 366 c-0.65 -0.25 -0.70 -0.45 -0.25 -0.45 0.40 0 1.20 0.20 1.75 0.45 0.65 0.25 0.70 0.45 0.25 0.45 -0.40 0 -1.20 -0.20 -1.75 -0.45z"/>
  <path d="M84.55 364.80 c0.10 -0.10 1.55 -1.20 3.20 -2.50 l3 -2.35 -2.65 2.50 c-1.45 1.40 -2.90 2.55 -3.20 2.55 -0.30 0 -0.45 -0.10 -0.35 -0.20z"/>
  <path d="M140.70 362.20 c-1.60 -0.95 -3.30 -2.10 -3.70 -2.50 -0.40 -0.45 0.90 0.25 2.95 1.50 2 1.20 3.80 2.35 3.95 2.50 0.65 0.70 -0.40 0.20 -3.20 -1.50z"/>
  <path d="M116.05 360.75 c0.75 -0.85 1.80 -2.30 2.40 -3.25 0.55 -0.95 1.05 -1.50 1.05 -1.20 0 0.75 -2.60 4.25 -3.80 5.20 -0.50 0.40 -0.35 0.05 0.35 -0.75z"/>
  <path d="M472.75 360.10 c0.30 -0.20 0.55 -0.80 0.50 -1.35 0 -0.80 -0.45 -1.05 -2.35 -1.25 -1.35 -0.15 -2.70 -0.60 -3 -0.95 -0.55 -0.55 -0.20 -0.60 1.80 -0.30 3.30 0.45 3.75 0.70 4.10 2.05 0.35 1.30 -0.05 2.20 -0.95 2.20 -0.40 0 -0.40 -0.15 -0.10 -0.40z"/>
  <path d="M91.80 357.70 c0.55 -0.80 1.45 -2.45 1.95 -3.70 0.95 -2.15 1 -4 1.15 -36.35 0.10 -29.35 0.05 -34.15 -0.55 -34.15 -0.40 0 -1.25 -0.45 -1.90 -1.05 l-1.20 -1 1.40 0.85 c0.75 0.45 1.45 0.75 1.50 0.65 0.10 -0.10 0.05 -6.85 -0.10 -14.95 l-0.30 -14.75 -1.75 -2.60 c-4.60 -6.85 -6.35 -10.25 -8.65 -16.85 -1.30 -3.90 -2.70 -8.25 -3 -9.75 -0.60 -2.75 -0.85 -3 -3.75 -4.10 -2.35 -0.85 -7.50 -6.10 -8.75 -8.85 -1.65 -3.65 -1.50 -9 0.30 -12.75 1.80 -3.60 5.35 -7.25 8.60 -8.80 3.15 -1.50 3.75 -2.25 3.75 -4.65 0 -1.10 0.35 -2.60 0.75 -3.35 0.40 -0.80 1.45 -3.65 2.30 -6.35 1.50 -4.70 2.70 -7.65 3.40 -8.20 0.15 -0.15 1.05 -1.70 2 -3.50 6.25 -11.80 14.65 -20.60 27.75 -29.10 1.10 -0.70 2.30 -1.35 2.65 -1.35 0.30 -0.05 3.25 -1.40 6.50 -3 3.25 -1.65 7.70 -3.45 9.90 -4.05 2.20 -0.60 5.70 -1.60 7.75 -2.20 5.85 -1.80 7.60 -2.25 10 -2.50 1.25 -0.15 4.30 -0.55 6.75 -0.85 9.70 -1.30 30.30 -0.55 43.75 1.55 3.15 0.45 3.95 0.05 3.15 -1.60 -0.30 -0.65 -1.40 -3.70 -2.45 -6.85 -1.05 -3.10 -2.20 -5.95 -2.55 -6.30 -0.50 -0.50 -0.45 -0.70 0.30 -0.90 0.70 -0.15 1.30 0.65 2.95 4.15 1.15 2.45 2.50 6.05 3.10 8.10 2.20 7.85 4.10 14.75 4.80 17.15 0.95 3.35 2.40 10.55 3.70 18.75 0.60 3.70 1.30 7.70 1.55 8.90 0.60 2.80 1.95 16.10 2.15 21.55 l0.20 4.20 3.20 2.45 c4.95 3.65 8.40 9.15 8.40 13.30 0 1.75 -0.95 5.10 -1.55 5.60 -0.15 0.15 -0.65 0.95 -1.10 1.75 -0.70 1.40 -3.80 4.55 -7.75 7.85 -0.95 0.75 -1.50 1.60 -1.35 2.05 0.35 0.80 -1.05 15.40 -1.75 18.50 -0.25 1.15 -0.70 3.55 -1 5.35 -0.25 1.80 -1.20 7.40 -2 12.50 -0.85 5.10 -1.70 10.05 -1.95 11 -0.30 0.95 -1.15 4.25 -1.95 7.25 -0.80 3.05 -1.60 6 -1.80 6.65 -0.50 1.50 0.25 1.45 8.10 -0.40 6.40 -1.55 7.75 -1.95 11.35 -3.50 1.10 -0.50 4.65 -1.95 7.85 -3.25 3.20 -1.30 5.90 -2.50 6 -2.70 0.10 -0.20 1.15 -0.90 2.40 -1.60 1.95 -1.05 2.25 -1.45 2.60 -3.40 0.20 -1.25 0.60 -2.45 0.90 -2.75 0.75 -0.75 0.60 1.05 -0.25 3.45 -0.90 2.50 -0.90 2.40 0.10 2.05 0.70 -0.30 0.70 -0.15 -0.15 0.75 -0.50 0.60 -2.40 1.75 -4.20 2.60 -1.80 0.80 -4.20 1.90 -5.35 2.40 -1.15 0.50 -2.20 1.15 -2.40 1.40 -0.15 0.30 -3.80 1.65 -8.10 3.05 -4.30 1.40 -8.05 2.70 -8.35 2.95 -1.30 1.05 -18.10 3.55 -30.05 4.45 -10 0.70 -27.40 0.30 -35 -0.85 -10.15 -1.55 -15.85 -2.75 -15.40 -3.25 0.25 -0.25 0.10 -0.30 -0.30 -0.05 -0.35 0.20 -0.80 0.15 -1 -0.15 -0.15 -0.30 -2.80 -1.30 -5.85 -2.30 -3.10 -1 -6.85 -2.50 -8.45 -3.35 -1.55 -0.85 -2.95 -1.40 -3.10 -1.25 -0.15 0.15 -0.10 0.90 0.10 1.65 0.20 0.75 0.30 4.85 0.25 9.05 l-0.05 7.60 2.15 1 c1.20 0.55 1.80 1 1.40 1 -0.40 0 -1.70 -0.55 -2.85 -1.20 l-2.10 -1.20 -0.15 1.30 c-0.10 0.75 -0.10 -35.50 0 -80.50 0.10 -55.70 -0.05 -81.90 -0.40 -81.90 -0.80 0 -7.50 4.45 -11.25 7.50 -3.70 3 -11.55 10.80 -12.45 12.35 -0.40 0.65 -0.50 28.85 -0.40 96.95 0.15 86.65 0.10 96.35 -0.65 99.45 -0.75 3.40 -2.65 7.35 -3.85 8.05 -0.35 0.20 -0.15 -0.30 0.40 -1.10z"/>
  <path d="M133.20 356.40 l-1.45 -1.65 1.65 1.45 c0.85 0.85 1.60 1.55 1.60 1.65 0 0.40 -0.40 0.05 -1.80 -1.45z"/>
  <path d="M450.85 357.15 c0.45 -0.35 1.55 -0.65 2.35 -0.65 1.80 0 2.40 -0.35 3.20 -1.75 0.30 -0.55 0.60 -0.70 0.60 -0.35 0 1.35 -2.50 3 -4.80 3.20 -1.90 0.15 -2.10 0.05 -1.35 -0.45z"/>
  <path d="M465.70 354.95 c-0.80 -0.90 -1 -2 -1.15 -7.55 -0.10 -3.85 0.05 -6.70 0.35 -7 0.30 -0.30 1.15 -0.10 2.40 0.60 1.10 0.60 1.50 0.90 0.95 0.70 -2.90 -0.95 -2.70 -1.40 -2.40 6.15 0.15 3.80 0.50 7.20 0.80 7.55 0.80 1 0.05 0.70 -0.95 -0.45z"/>
  <path d="M130.65 353.40 c-1.05 -1.20 -3.20 -4.50 -2.35 -3.65 0.85 0.85 3.80 4.75 3.60 4.75 -0.15 0 -0.70 -0.50 -1.25 -1.10z"/>
  <path d="M206.90 346.25 c2.70 -3 5.80 -6.40 6.85 -7.50 l1.85 -2 -1.50 2 c-0.80 1.10 -3.90 4.50 -6.85 7.50 l-5.35 5.50 5 -5.50z"/>
  <path d="M120.25 325 c0 -13.90 0.05 -19.55 0.10 -12.60 0.10 6.90 0.10 18.30 0 25.25 -0.05 6.90 -0.10 1.25 -0.10 -12.65z"/>
  <path d="M154.50 344.95 c0 -0.25 -0.20 -0.35 -0.50 -0.20 -0.25 0.15 -0.50 0.05 -0.50 -0.20 0 -0.30 0.35 -0.55 0.75 -0.55 0.40 0 0.75 0.15 0.75 0.40 0 0.45 6.45 0.40 9.50 -0.10 2.15 -0.30 2.20 -0.30 1 0.40 -1.50 0.90 -11 1.15 -11 0.25z"/>
  <path d="M125.30 341.45 c-0.40 -1.95 -0.30 -7.80 0.10 -9.35 0.20 -0.65 0.35 1.55 0.35 4.85 0 3.35 -0.05 6.05 -0.05 6.05 -0.05 0 -0.20 -0.70 -0.40 -1.55z"/>
  <path d="M171.30 341.85 c1.10 -0.60 3.10 -1.85 4.50 -2.80 1.35 -0.95 2 -1.20 1.45 -0.65 -1.15 1.20 -6.70 4.60 -7.45 4.60 -0.30 -0.05 0.35 -0.55 1.50 -1.15z"/>
  <path d="M375.75 342.75 c1.15 -0.40 7.45 -0.60 6.50 -0.20 -0.55 0.20 -2.35 0.40 -4 0.40 -1.65 -0.05 -2.75 -0.10 -2.50 -0.20z"/>
  <path d="M425.25 342.55 c-0.55 -0.20 0.90 -0.30 3.25 -0.20 5.50 0.30 6.25 0.55 1.50 0.60 -2.05 0 -4.20 -0.20 -4.75 -0.40z"/>
  <path d="M470.75 342.55 c-0.55 -0.25 0.80 -0.30 3 -0.20 5.20 0.30 5.95 0.55 1.50 0.60 -1.90 0 -3.95 -0.20 -4.50 -0.40z"/>
  <path d="M514.25 342.50 c-0.60 -0.30 0.45 -0.35 2.75 -0.15 2.05 0.15 3.85 0.35 3.95 0.45 0.45 0.40 -5.75 0.10 -6.70 -0.30z"/>
  <path d="M565.15 342.65 c0.45 -0.10 1.25 -0.10 1.75 0 0.45 0.15 0.05 0.25 -0.90 0.25 -0.95 0 -1.35 -0.10 -0.85 -0.25z"/>
  <path d="M587.85 342.30 c-2.45 -0.90 -5.80 -3.70 -5.85 -4.95 0 -0.20 0.70 0.40 1.55 1.40 2.20 2.45 4 3.30 8.15 3.75 3.55 0.35 3.55 0.35 0.80 0.40 -1.50 0.05 -3.60 -0.25 -4.65 -0.60z"/>
  <path d="M638.15 342.65 c0.45 -0.10 1.25 -0.10 1.75 0 0.45 0.15 0.05 0.25 -0.90 0.25 -0.95 0 -1.35 -0.10 -0.85 -0.25z"/>
  <path d="M390.50 341.25 c-0.35 -0.40 -0.50 -1.20 -0.35 -1.75 0.35 -1.30 -0.55 -1.25 -2.10 0.10 -1.05 0.95 -1 0.85 0.15 -0.50 1.95 -2.10 3.05 -2.15 2.60 -0.05 -0.15 0.90 -0.05 1.90 0.25 2.25 0.30 0.40 0.45 0.70 0.30 0.70 -0.10 0 -0.50 -0.35 -0.85 -0.75z"/>
  <path d="M394.40 341.65 c0.90 -0.10 2.25 -0.10 3 0 0.75 0.10 0 0.20 -1.65 0.20 -1.65 0 -2.25 -0.10 -1.35 -0.20z"/>
  <path d="M510.35 340.40 c-0.90 -0.90 -1.05 -1.15 -0.35 -0.60 0.70 0.60 1.70 1.30 2.25 1.60 0.55 0.30 0.70 0.60 0.35 0.60 -0.35 0 -1.35 -0.75 -2.25 -1.60z"/>
  <path d="M632.40 340.90 c-0.65 -0.65 -0.85 -0.90 -0.40 -0.60 0.40 0.30 1.20 0.80 1.75 1.10 0.55 0.30 0.75 0.60 0.40 0.60 -0.35 0 -1.10 -0.50 -1.75 -1.10z"/>
  <path d="M654.25 341.55 c-0.15 -0.30 1.95 -0.45 5.10 -0.45 3 0 7.05 -0.15 9.05 -0.30 2 -0.15 3.60 -0.05 3.60 0.20 0 0.25 0.60 0.55 1.40 0.65 0.75 0.10 -3.20 0.25 -8.75 0.30 -5.70 0 -10.20 -0.15 -10.40 -0.40z"/>
  <path d="M144.30 338.75 c-3.05 -3.10 -4.55 -5.85 -5.25 -9.50 -0.85 -4.60 0.90 -10.30 4 -13 0.90 -0.75 0.85 -0.60 -0.25 0.75 -5.30 6.45 -4.45 15 2.10 21.65 1.55 1.55 2.65 2.85 2.45 2.85 -0.15 0 -1.55 -1.25 -3.05 -2.75z"/>
  <path d="M558.95 340.90 c-0.85 -0.75 -2.15 -2.40 -1.90 -2.40 0.10 0 0.85 0.70 1.60 1.50 1.50 1.55 1.60 2 0.30 0.90z"/>
  <path d="M405.70 340.65 c0.15 -0.30 0.10 -1.15 -0.20 -1.90 -0.40 -1 -0.35 -1.30 0.10 -1.15 0.90 0.30 1.10 2.40 0.35 3.10 -0.45 0.40 -0.50 0.40 -0.25 -0.05z"/>
  <path d="M576.35 340 c0.30 -0.40 0.65 -1.30 0.80 -2 l0.20 -1.25 0.10 1.30 c0 0.75 -0.35 1.65 -0.80 2 -0.80 0.60 -0.85 0.60 -0.30 -0.05z"/>
  <path d="M366.25 337.65 c-2.40 -2.45 -4.15 -5.15 -3.30 -5.15 0.25 0 0.65 0.50 0.85 1.10 0.15 0.60 1.45 2.30 2.85 3.75 3.10 3.30 2.80 3.50 -0.40 0.30z"/>
  <path d="M443.15 336.55 c1.85 -2.05 3.35 -3.95 3.35 -4.35 0 -0.35 -0.50 -1 -1.10 -1.40 -0.60 -0.45 -0.90 -0.80 -0.60 -0.80 0.60 0 2.20 1.60 2.20 2.20 0 0.75 -4.50 6.15 -5.85 7.05 -0.80 0.55 0.10 -0.65 2 -2.70z"/>
  <path d="M488 337.35 c1.50 -1.55 2.80 -2.85 2.90 -2.85 0.55 0 -2.40 3.30 -3.95 4.45 -1.25 0.90 -0.95 0.50 1.05 -1.60z"/>
  <path d="M415.75 337.40 l-2 -2.15 2.15 2 c1.95 1.80 2.35 2.25 1.95 2.25 -0.10 0 -1.05 -0.95 -2.10 -2.10z"/>
  <path d="M467.75 336.30 l-3.25 -3.20 0 -12.30 0 -12.30 1.80 -1.60 c3.45 -3.15 8.60 -4.25 12.05 -2.50 2.40 1.25 6.05 5.25 6.45 7.05 0.15 0.70 0.50 1.80 0.75 2.45 0.70 1.75 0.55 12.50 -0.25 15.35 -0.95 3.65 -1.90 5.25 -4.75 7.90 -2.50 2.35 -2.50 2.35 -6 2.35 l-3.55 0 -3.25 -3.20z"/>
  <path d="M615 336.95 c-1.20 -1.05 -1.30 -1.20 -0.30 -0.50 0.85 0.65 2.20 1.05 3.35 1.05 2.45 0 2.95 0.80 0.55 0.90 -1.45 0.10 -2.25 -0.20 -3.60 -1.45z"/>
  <path d="M671.30 338.10 c-0.15 -0.25 0.40 -0.30 1.25 -0.20 0.80 0.10 1.45 0.30 1.45 0.40 0 0.40 -2.45 0.20 -2.70 -0.20z"/>
  <path d="M376.45 336.85 c-5.45 -2.90 -8.75 -12.05 -7.15 -19.85 1.70 -8.10 3 -10.70 6.65 -13.25 1.80 -1.25 2.60 -1.50 5.20 -1.50 2.55 0 3.50 0.25 5.25 1.40 4.05 2.60 4.10 2.85 4.10 17.45 l0 12.85 -1.75 1.35 c-3.80 2.90 -8.60 3.50 -12.30 1.55z"/>
  <path d="M431.40 337.65 c0.60 -0.10 1.50 -0.10 2 0 0.45 0.15 -0.05 0.25 -1.15 0.20 -1.10 0 -1.50 -0.10 -0.85 -0.20z"/>
  <path d="M507.30 336.75 c-1.25 -1.90 -1.35 -3.05 -1.45 -16.75 -0.05 -7 -0.30 -13.20 -0.55 -13.75 -0.45 -0.90 -0.40 -0.95 0.35 -0.30 0.75 0.60 0.85 2.10 0.85 13.75 0 11.60 0.10 13.35 0.95 15.70 1.10 2.90 1.05 3.20 -0.15 1.35z"/>
  <path d="M519.05 337.55 c-0.50 -0.30 0.05 -0.40 1.50 -0.20 1.20 0.15 2.30 0.35 2.40 0.45 0.50 0.45 -3.25 0.15 -3.90 -0.25z"/>
  <path d="M594.20 337.55 c-5.45 -1.35 -6.35 -8.45 -1.65 -12.90 2.05 -1.90 8 -4.95 10.65 -5.45 2.05 -0.35 3 0.30 2.55 1.80 -0.15 0.45 -0.35 3.30 -0.45 6.35 -0.10 3.05 -0.45 6 -0.75 6.55 -0.60 1.15 -5 3.40 -7.30 3.75 -0.80 0.15 -2.20 0.10 -3.05 -0.10z"/>
  <path d="M183.25 332.60 c2.75 -2.80 5.05 -5.10 5.15 -5.10 0.45 0 -5.25 6.05 -7.55 7.95 -1.50 1.30 -0.50 0.10 2.40 -2.85z"/>
  <path d="M399.40 335.75 c-1.25 -1.70 -1.10 -2.15 0.15 -0.55 0.60 0.75 1 1.45 0.90 1.55 -0.10 0.05 -0.60 -0.35 -1.05 -1z"/>
  <path d="M216.95 334.50 c0.90 -1.25 2.25 -3.05 3.10 -4 l1.55 -1.75 -1.55 2.25 c-0.90 1.25 -2.25 3.05 -3.10 4 l-1.55 1.75 1.55 -2.25z"/>
  <path d="M555.80 335.75 c-0.15 -0.45 -0.25 -7.75 -0.20 -16.15 l0.10 -15.35 0.30 16 c0.15 8.80 0.20 16.05 0.20 16.15 -0.05 0.10 -0.20 -0.20 -0.40 -0.65z"/>
  <path d="M629.40 336.40 c-0.30 -0.45 -0.60 -31.90 -0.25 -31.90 0.20 0 0.35 0.15 0.35 0.40 0.15 8.05 0.20 31.60 0.15 31.60 -0.10 0 -0.20 -0.05 -0.25 -0.10z"/>
  <path d="M639.60 336.15 c-1.05 -0.40 -2.10 -3 -2.05 -5 0 -1.85 0.05 -1.85 0.75 0.85 0.40 1.50 1.10 3.10 1.55 3.60 0.85 0.95 0.80 1 -0.25 0.55z"/>
  <path d="M423.05 334.40 c-0.90 -0.85 -1.85 -2.05 -2.15 -2.60 -0.30 -0.60 -0.45 -0.95 -0.30 -0.80 4.25 4.55 5.70 6.55 2.45 3.40z"/>
  <path d="M660.20 322.25 c0 -7.70 0.10 -10.80 0.15 -6.85 0.10 3.95 0.10 10.25 0 14 -0.05 3.75 -0.15 0.55 -0.15 -7.15z"/>
  <path d="M564.60 333.75 c-0.40 -0.90 -0.55 -5.35 -0.50 -14.65 l0.10 -13.35 0.30 13.50 c0.15 7.45 0.50 14 0.70 14.65 0.55 1.50 0.10 1.40 -0.60 -0.15z"/>
  <path d="M539.60 317.45 c-0.10 -15.10 -0.20 -17.40 -0.85 -17.65 -0.45 -0.15 -2.85 -0.20 -5.40 -0.05 l-4.60 0.20 4.95 -0.55 c4.05 -0.40 5.05 -0.35 5.60 0.20 0.60 0.60 0.70 3.70 0.55 17.90 l-0.10 17.25 -0.15 -17.30z"/>
  <path d="M514.35 330.65 c-0.15 -1.30 -0.10 -2.75 0.10 -3.25 0.20 -0.50 0.35 0.50 0.45 2.35 0.10 3.80 -0.15 4.25 -0.55 0.90z"/>
  <path d="M411.20 330.70 c-1.50 -3.40 -2.10 -9.85 -1.45 -14.15 0.60 -3.60 2.35 -8.25 3.30 -8.85 0.40 -0.25 -0.80 2.75 -2.15 5.45 -0.25 0.50 -0.45 3.65 -0.50 7 0 4.85 0.20 6.70 1 9.10 1.20 3.40 1.05 4.35 -0.20 1.45z"/>
  <path d="M493.30 329.25 c1 -2.70 1.20 -4.25 1.20 -8.70 0 -2.95 -0.25 -6.10 -0.55 -7 -0.50 -1.45 -0.35 -2.60 0.30 -1.95 0.25 0.25 1.15 4.60 1.45 7.30 0.20 2 -1.05 9.65 -1.70 10.30 -0.30 0.30 -0.50 0.90 -0.50 1.35 0 0.45 -0.30 1.10 -0.70 1.40 -0.45 0.40 -0.30 -0.55 0.50 -2.70z"/>
  <path d="M221.80 327.90 c1.50 -2.55 5.35 -8.40 5.55 -8.40 0.10 0 -0.25 0.85 -0.90 1.90 -1.60 2.70 -4.60 7.10 -4.80 7.10 -0.10 0 -0.05 -0.30 0.15 -0.60z"/>
  <path d="M582.95 325.15 c0.65 -1.30 4.25 -3.85 6.85 -4.95 3.15 -1.30 2.35 -0.45 -1.15 1.25 -1.85 0.90 -4 2.35 -4.85 3.25 -1 1.10 -1.30 1.20 -0.85 0.45z"/>
  <path d="M418.65 322.50 c0 -1.50 0.10 -2.15 0.20 -1.35 0.10 0.75 0.10 1.95 0 2.75 -0.10 0.75 -0.20 0.10 -0.20 -1.40z"/>
  <path d="M130.30 321.85 c1 -1.30 2.55 -2.85 3.40 -3.40 l1.55 -1.05 -1.60 1.45 c-0.90 0.75 -2.45 2.30 -3.45 3.40 l-1.80 2 1.90 -2.40z"/>
  <path d="M514.35 323.05 c-0.35 -1.40 -0.10 -16 0.30 -16.40 0.20 -0.15 0.35 3.65 0.35 8.50 0 4.90 -0.10 8.85 -0.20 8.85 -0.10 0 -0.30 -0.45 -0.45 -0.95z"/>
  <path d="M194 319.50 c1.10 -1.65 2.15 -3 2.30 -3 0.10 0 -0.70 1.35 -1.80 3 -1.10 1.65 -2.15 3 -2.30 3 -0.10 0 0.70 -1.35 1.80 -3z"/>
  <path d="M360.10 318 c0 -0.95 0.10 -1.35 0.25 -0.85 0.10 0.45 0.10 1.25 0 1.75 -0.15 0.45 -0.25 0.05 -0.25 -0.90z"/>
  <path d="M445.40 314.90 c-0.15 -2.55 -0.40 -5.05 -0.65 -5.50 -0.20 -0.50 -0.15 -0.90 0.15 -0.90 0.65 0 1.15 2.45 1.45 7.15 0.15 2.25 0.05 3.85 -0.25 3.85 -0.25 0 -0.60 -2.10 -0.70 -4.60z"/>
  <path d="M228.70 316.65 c1.25 -2.45 4.45 -7.45 4.10 -6.50 -0.40 1.25 -4.30 7.85 -4.60 7.85 -0.10 0 0.10 -0.60 0.50 -1.35z"/>
  <path d="M136.75 316.25 c1.30 -1.05 5.70 -3 6.05 -2.60 0.05 0.05 -1.60 0.95 -3.70 2 -3.25 1.55 -3.60 1.70 -2.35 0.60z"/>
  <path d="M601.45 316.25 c0.90 -0.40 1.80 -0.75 2 -0.75 0.65 0.05 -2.25 1.45 -2.95 1.45 -0.40 0 0 -0.30 0.95 -0.70z"/>
  <path d="M418.90 315.45 c-0.65 -0.40 -0.10 -3.90 1.20 -7.35 1 -2.65 2.95 -4.45 6.55 -6 1.75 -0.75 3.85 -0.80 3.85 -0.05 0 0.25 0.20 0.40 0.45 0.25 0.80 -0.50 3.80 1.95 4.85 3.95 1.10 2.05 2.15 9.25 1.35 9.25 -4.05 0.25 -17.90 0.15 -18.25 -0.05z"/>
  <path d="M144.90 314.90 c0.40 -0.50 1.10 -1 1.65 -1.15 0.50 -0.20 0.95 -0.65 0.95 -1.05 0 -0.40 0.60 -0.95 1.30 -1.20 1.75 -0.70 1.80 -0.65 1.60 0.55 -0.10 0.80 -0.75 1.25 -2.30 1.70 -1.15 0.35 -2.50 0.95 -3 1.35 -0.75 0.60 -0.80 0.55 -0.20 -0.20z"/>
  <path d="M604.40 314.90 c0.35 -0.35 0.65 -1.85 0.65 -3.35 l0.10 -2.80 0.35 2.50 c0.35 2.55 -0.10 4.25 -1.10 4.25 -0.45 0 -0.45 -0.15 0 -0.60z"/>
  <path d="M584.30 312.05 c-1.15 -1.20 -1.35 -1.75 -1.15 -3.60 l0.20 -2.20 0.05 2.30 c0.10 2.25 1.20 3.90 3.10 4.60 0.65 0.25 0.65 0.30 -0.05 0.30 -0.40 0.05 -1.40 -0.60 -2.15 -1.40z"/>
  <path d="M200.05 309.40 c0.85 -1.75 2.15 -3.90 2.85 -4.85 l1.25 -1.70 -1.95 0.35 c-1.05 0.15 -3.30 0.40 -4.95 0.55 -2.90 0.20 -2.85 0.20 0.85 -0.45 2.10 -0.40 4.05 -0.85 4.30 -1 0.25 -0.15 4.60 -1.05 9.65 -2 5.90 -1.05 10.20 -2.15 12.05 -3 1.55 -0.70 3.05 -1.30 3.30 -1.30 0.35 0 7.65 -2.30 11.85 -3.75 0.80 -0.30 0.85 -0.25 0.25 0.20 -0.65 0.45 -0.65 0.55 0.15 0.55 0.45 0 0.85 0.20 0.85 0.50 0 0.25 -0.30 0.35 -0.65 0.20 -0.70 -0.25 -5.40 1.55 -5.85 2.30 -0.45 0.75 -15.25 4.70 -20 5.30 -0.95 0.15 -1.90 0.55 -2.10 0.95 -0.25 0.40 -1.65 0.80 -3.30 1 -5 0.55 -4.85 0.45 -7.35 5 -2.70 4.95 -3.50 5.70 -1.20 1.15z"/>
  <path d="M591.65 311.45 c0.40 -0.70 0.85 -1.95 1 -2.75 l0.20 -1.45 0.05 1.50 c0.05 0.85 -0.35 2.05 -0.95 2.75 l-1.05 1.25 0.75 -1.30z"/>
  <path d="M362 310.90 c0 -0.75 1.70 -3.90 2.10 -3.90 0.25 0 0.10 0.60 -0.30 1.40 -1.05 1.85 -1.80 2.90 -1.80 2.50z"/>
  <path d="M613.10 309.15 c-0.05 -0.85 -0.25 -2 -0.40 -2.50 -0.25 -0.70 -0.20 -0.75 0.25 -0.35 0.35 0.35 0.55 1.40 0.40 2.50 -0.15 1.75 -0.20 1.75 -0.25 0.35z"/>
  <path d="M530.05 305.50 c-0.90 -1.25 -1.45 -1.50 -3.10 -1.50 -2.80 0 -3.95 -0.75 -3.90 -2.40 0.05 -1 0.10 -1.10 0.30 -0.35 0.35 1.45 1.60 2.25 3.65 2.25 1.35 0 2.15 0.35 3.25 1.50 0.80 0.80 1.30 1.60 1.20 1.75 -0.15 0.15 -0.75 -0.45 -1.40 -1.25z"/>
  <path d="M658.25 305.25 c-0.80 -0.65 -2.05 -1.30 -2.75 -1.40 l-1.25 -0.20 1.25 -0.10 c0.80 0 2 0.55 3 1.45 2.10 1.75 1.90 2 -0.25 0.25z"/>
  <path d="M366.75 304 c1.05 -1.10 2.05 -2 2.20 -2 0.15 0 -0.65 0.90 -1.70 2 -1.05 1.10 -2.05 2 -2.20 2 -0.15 0 0.65 -0.90 1.70 -2z"/>
  <path d="M488.25 303.40 l-2.50 -2.65 2.65 2.50 c2.40 2.30 2.85 2.75 2.45 2.75 -0.05 0 -1.25 -1.20 -2.60 -2.60z"/>
  <path d="M583.50 305.90 c0 -0.60 3.10 -3.90 4.20 -4.45 0.55 -0.30 0.35 0.05 -0.55 0.75 -0.85 0.75 -2.05 1.95 -2.60 2.70 -0.55 0.75 -1.05 1.20 -1.05 1z"/>
  <path d="M454.70 304.80 c-0.55 -0.40 -1.55 -0.80 -2.20 -0.95 l-1.25 -0.20 1.25 -0.05 c0.70 -0.05 1.80 0.35 2.50 0.90 1.45 1.10 1.20 1.35 -0.30 0.30z"/>
  <path d="M168.10 304.65 c3.50 -0.10 9.35 -0.10 13 0 3.65 0.05 0.80 0.15 -6.35 0.15 -7.15 0 -10.15 -0.10 -6.65 -0.15z"/>
  <path d="M235 304.85 c0 -0.60 2.60 -5.85 3.05 -6.15 0.65 -0.40 -1.50 4.95 -2.35 5.80 -0.40 0.40 -0.70 0.55 -0.70 0.35z"/>
  <path d="M415 304.85 c0 -0.10 0.75 -0.80 1.65 -1.65 l1.60 -1.45 -1.45 1.65 c-1.40 1.50 -1.80 1.85 -1.80 1.45z"/>
  <path d="M502.50 304.20 c-1.60 -0.60 -1.65 -0.65 -0.45 -0.65 0.75 -0.05 1.60 0.30 1.95 0.70 0.35 0.40 0.55 0.70 0.45 0.70 -0.10 -0.05 -1 -0.35 -1.95 -0.75z"/>
  <path d="M464.50 302.90 c0.20 -3.30 0.15 -3.40 -2.10 -3.50 l-2.15 -0.05 1.90 -0.20 c2.55 -0.30 3.55 0.55 3.15 2.75 -0.25 1.55 -0.15 1.70 0.85 1.45 1.05 -0.30 1.05 -0.30 0.15 0.40 -1.50 1.10 -1.90 0.90 -1.80 -0.85z"/>
  <path d="M621.85 304.15 c-0.20 -0.15 -0.35 -0.55 -0.35 -0.85 0 -0.35 0.15 -0.35 0.40 0 0.20 0.35 0.90 0.70 1.60 0.85 l1.25 0.20 -1.30 0.10 c-0.70 0 -1.45 -0.10 -1.60 -0.30z"/>
  <path d="M147 303 c-7.20 -1.35 -10.15 -2 -10.40 -2.25 -0.40 -0.40 0.85 -0.25 5.15 0.55 4.30 0.80 5.75 0.95 9.25 1.10 1.60 0.10 2.05 0.25 1.50 0.60 -0.50 0.30 -0.25 0.45 0.90 0.40 0.90 -0.05 1.75 0.10 1.95 0.25 0.55 0.60 -3.45 0.25 -8.35 -0.65z"/>
  <path d="M499.20 302.80 c-0.15 -0.40 -0.20 -1.15 -0.05 -1.65 0.15 -0.60 0.25 -0.45 0.30 0.45 0 0.70 0.35 1.45 0.70 1.55 0.45 0.20 0.45 0.30 -0.05 0.30 -0.35 0.05 -0.75 -0.25 -0.90 -0.65z"/>
  <path d="M609.25 301.65 c-1.10 -0.95 -1.55 -1.55 -1 -1.25 0.95 0.45 3.70 3.15 3.20 3.10 -0.10 -0.05 -1.10 -0.85 -2.20 -1.85z"/>
  <path d="M652.70 301.25 c0.05 -0.60 0.45 -1.05 1.05 -1.10 0.70 -0.05 0.75 0 0.15 0.15 -0.45 0.15 -0.95 0.65 -1.05 1.10 -0.15 0.60 -0.20 0.55 -0.15 -0.15z"/>
  <path d="M369.50 301.75 c0 -0.35 3.05 -1.85 3.30 -1.65 0.10 0.15 -0.60 0.60 -1.55 1.05 -0.95 0.45 -1.75 0.75 -1.75 0.60z"/>
  <path d="M388.50 300.45 c-0.60 -0.40 -0.50 -0.45 0.35 -0.20 1.10 0.30 1.10 0.30 1.30 -7.60 l0.15 -7.90 0.10 8.15 c0.10 8.35 0 8.90 -1.90 7.55z"/>
  <path d="M514 300.30 c-0.45 -0.60 -1.50 -0.70 -4.90 -0.45 -2.40 0.15 -4.25 0.15 -4.10 0.05 0.15 -0.15 2.20 -0.45 4.60 -0.65 4.05 -0.30 4.35 -0.25 4.90 0.70 0.60 1.20 0.40 1.35 -0.50 0.35z"/>
  <path d="M133 300 c-1 -0.30 -1.05 -0.40 -0.25 -0.40 0.55 0 1.55 0.20 2.25 0.40 1 0.30 1.05 0.40 0.25 0.40 -0.55 0 -1.55 -0.20 -2.25 -0.40z"/>
  <path d="M524.65 300.15 c0.45 -0.10 1.25 -0.10 1.75 0 0.45 0.15 0.05 0.25 -0.90 0.25 -0.95 0 -1.35 -0.10 -0.85 -0.25z"/>
  <path d="M374.75 299.25 c1.55 -0.75 8.75 -1 10.35 -0.35 0.50 0.20 -1.45 0.35 -4.25 0.35 -2.80 0 -5.65 0.15 -6.35 0.35 -0.95 0.30 -0.90 0.20 0.25 -0.35z"/>
  <path d="M435.30 299.65 c-0.20 -0.25 -2.65 -0.55 -5.45 -0.70 l-5.10 -0.30 4.50 -0.05 c2.90 -0.05 5.05 0.20 6 0.65 0.85 0.35 1.25 0.70 0.95 0.70 -0.30 0.05 -0.70 -0.10 -0.90 -0.30z"/>
  <path d="M455.90 299.65 c0.90 -0.10 2.25 -0.10 3 0 0.75 0.10 0 0.20 -1.65 0.20 -1.65 0 -2.25 -0.10 -1.35 -0.20z"/>
  <path d="M481.50 299.45 c-0.70 -0.30 -2.85 -0.45 -4.85 -0.35 -1.95 0.10 -3.30 0 -3 -0.20 1 -0.65 7 -0.40 8.60 0.35 1.75 0.75 1.10 0.95 -0.75 0.20z"/>
  <path d="M555.35 299.70 c0.25 -0.10 0.30 -2.80 0.20 -6 -0.10 -3.20 0.05 -6 0.25 -6.20 0.25 -0.25 0.45 2.35 0.40 5.90 -0.05 4.35 -0.25 6.35 -0.65 6.40 -0.30 0.05 -0.40 0.05 -0.20 -0.10z"/>
  <path d="M629 294 c0 -4.25 0.20 -6.50 0.60 -6.90 0.65 -0.65 7.20 -0.85 7.55 -0.20 0.15 0.20 -1.40 0.30 -3.45 0.20 -4.25 -0.20 -3.85 -0.95 -3.75 6.65 0.05 2.75 -0.15 5.35 -0.40 5.75 -0.40 0.55 -0.55 -1.10 -0.55 -5.50z"/>
  <path d="M662.45 299.40 c2.85 -0.25 5.35 -0.30 5.60 -0.05 0.20 0.20 -2.15 0.45 -5.20 0.45 l-5.60 0.10 5.20 -0.50z"/>
  <path d="M596.90 298.65 c1.45 -0.10 3.70 -0.10 5 0 1.30 0.10 0.10 0.15 -2.65 0.15 -2.75 0 -3.80 -0.05 -2.35 -0.15z"/>
  <path d="M240.50 291.80 c0 -0.30 5.50 -2.80 6.15 -2.75 0.30 0 -0.75 0.70 -2.40 1.45 -2.95 1.40 -3.75 1.70 -3.75 1.30z"/>
  <path d="M661.75 289 c-0.20 -0.30 0.30 -0.35 1.35 -0.15 2.20 0.40 2.40 0.65 0.50 0.65 -0.85 0 -1.70 -0.20 -1.85 -0.50z"/>
  <path d="M667.45 287.35 c1 -1.10 1.25 -1.95 1.25 -4.05 0.05 -2.20 0.15 -2.50 0.65 -1.85 1.20 1.60 0.35 4.35 -1.90 6.30 -1.15 0.95 -1.15 0.95 0 -0.40z"/>
  <path d="M558.40 286.65 c0.85 -0.10 2.35 -0.10 3.25 0 0.85 0.10 0.15 0.20 -1.65 0.20 -1.80 0 -2.50 -0.10 -1.60 -0.20z"/>
  <path d="M658.30 285.20 c-1.30 -3.30 2.10 -8.20 5.70 -8.20 0.75 0 2.05 0.70 3 1.55 l1.75 1.50 -1.80 -1.25 c-1 -0.70 -2.30 -1.30 -2.90 -1.30 -3.15 0 -5.90 3.55 -5.40 6.80 0.30 1.80 0.15 2.20 -0.35 0.90z"/>
  <path d="M388.35 282.25 c-0.75 -0.70 -1.20 -1.25 -0.95 -1.25 0.25 0 0.95 0.55 1.60 1.25 1.50 1.60 1.15 1.60 -0.65 0z"/>
  <path d="M84.60 276.70 c-6.35 -4.80 -11.65 -9.65 -14.70 -13.40 -1.25 -1.60 -0.45 -0.95 2.15 1.75 4.60 4.75 8.65 8.25 14.60 12.70 3.35 2.50 4.25 3.30 3.75 3.25 -0.10 0 -2.70 -1.95 -5.80 -4.30z"/>
  <path d="M380.95 279.65 c-0.60 -0.80 -0.60 -0.80 0.05 -0.30 0.40 0.30 1.45 0.65 2.25 0.80 l1.50 0.20 -1.55 0.10 c-1 0 -1.85 -0.30 -2.25 -0.80z"/>
  <path d="M380.95 277.40 c0.55 -0.70 1.35 -0.90 4 -0.80 l3.30 0.10 -3.25 0.15 c-1.75 0.10 -3.55 0.45 -4 0.80 -0.65 0.55 -0.65 0.50 -0.05 -0.25z"/>
  <path d="M390.90 276.15 c0.85 -0.10 2.35 -0.10 3.25 0 0.85 0.10 0.15 0.20 -1.65 0.20 -1.80 0 -2.50 -0.10 -1.60 -0.20z"/>
  <path d="M271.45 273.30 c0.75 -0.90 5.05 -4 5.05 -3.65 0 0.15 -1.30 1.20 -2.85 2.40 -1.60 1.15 -2.60 1.75 -2.20 1.25z"/>
  <path d="M300.35 267.20 c-3.15 -3.50 -2.75 -3.50 0.60 0.05 1.45 1.50 2.45 2.75 2.20 2.70 -0.20 0 -1.50 -1.25 -2.80 -2.75z"/>
  <path d="M253.50 268.85 c0 -0.15 0.85 -0.85 1.90 -1.65 1.50 -1.15 1.65 -1.20 0.85 -0.25 -0.95 1.10 -2.75 2.30 -2.75 1.90z"/>
  <path d="M280.05 267.20 c0.70 -0.85 5.90 -3.40 6.25 -3.10 0.10 0.10 -1.45 1.05 -3.40 2.05 -2.05 1.10 -3.25 1.55 -2.85 1.05z"/>
  <path d="M306.25 261.10 c0 -2.50 0.15 -4.25 0.35 -3.95 0.45 0.70 0.45 5.65 -0.05 7.25 -0.15 0.65 -0.30 -0.85 -0.30 -3.30z"/>
  <path d="M261.25 262.90 c3.25 -2.75 11.20 -10.70 12.65 -12.65 l1.15 -1.50 -0.90 1.70 c-1.20 2.25 -8.10 9.15 -12.15 12.20 -3.15 2.35 -3.20 2.35 -0.75 0.25z"/>
  <path d="M66.40 259.15 c-1.65 -1.85 -4.10 -5.15 -3.75 -5.15 0.15 0 1.40 1.45 2.80 3.25 2.70 3.40 3.10 4.15 0.95 1.90z"/>
  <path d="M303 251.60 c-2.25 -2.40 -4.80 -3.60 -7.70 -3.60 l-2.30 0 0.10 -2.85 0.10 -2.90 0.15 2.55 0.20 2.60 2.70 0.20 c3.05 0.25 6 1.90 7.75 4.35 1.40 2.05 1.15 1.95 -1 -0.35z"/>
  <path d="M252.70 248.75 c0.55 -5.15 2.45 -16.55 2.85 -17 0.70 -0.70 0.55 1.25 -0.55 7.40 -1.35 7.15 -2.55 12.40 -2.30 9.60z"/>
  <path d="M57.50 246.15 c-1.65 -2.60 -2.05 -4.25 -0.45 -1.90 1.40 2.10 2.55 4.25 2.20 4.25 -0.15 0 -0.95 -1.05 -1.75 -2.35z"/>
  <path d="M291.60 239.25 c-0.30 -0.70 -1.55 -2.30 -2.70 -3.60 -2.05 -2.35 -2.05 -2.35 -0.20 -0.65 1.90 1.80 4.10 4.90 3.70 5.30 -0.15 0.10 -0.50 -0.35 -0.80 -1.05z"/>
  <path d="M52.60 235.60 c-0.60 -1.30 -1.55 -3.60 -2.10 -5.10 -0.90 -2.55 -0.90 -2.65 -0.05 -1.55 0.90 1.20 3.70 8.55 3.40 8.90 -0.10 0.05 -0.65 -0.90 -1.25 -2.25z"/>
  <path d="M273.85 234.50 c-0.75 -1.30 -1.35 -2.75 -1.35 -3.15 0 -1.85 9.55 -1.15 12.70 0.90 1.95 1.30 1.60 1.35 -1.05 0.20 -2.45 -1.05 -9.65 -1.60 -10.45 -0.80 -0.20 0.20 0.10 1.40 0.75 2.65 1.50 3.10 1.10 3.25 -0.60 0.20z"/>
  <path d="M375.75 234.75 c1.15 -0.40 7.45 -0.60 6.50 -0.20 -0.55 0.20 -2.35 0.40 -4 0.40 -1.65 -0.05 -2.75 -0.10 -2.50 -0.20z"/>
  <path d="M426.55 234.80 c0.10 -0.10 2 -0.30 4.20 -0.45 2.50 -0.20 3.70 -0.10 3.25 0.15 -0.70 0.45 -7.95 0.75 -7.45 0.30z"/>
  <path d="M390.55 233.30 c-0.35 -0.40 -0.45 -1.25 -0.25 -2 0.40 -1.65 -0.10 -1.65 -2 0.10 l-1.55 1.35 1.45 -1.60 c2 -2.20 3 -2.20 2.60 0.05 -0.25 1.35 -0.15 1.85 0.55 2.25 0.50 0.30 0.65 0.55 0.35 0.55 -0.30 0 -0.85 -0.30 -1.15 -0.70z"/>
  <path d="M451.60 233.40 c-0.35 -0.35 -0.60 -0.95 -0.55 -1.35 0 -0.50 0.20 -0.35 0.45 0.35 0.45 1.10 0.50 1.10 10.35 1 l9.90 -0.15 0 -1.25 c0 -0.95 -0.30 -1.30 -1.25 -1.40 -0.65 -0.10 -1.70 -0.55 -2.25 -0.95 -1 -0.75 -1 -0.75 0 -0.40 0.55 0.20 1.75 0.55 2.65 0.85 1.20 0.35 1.60 0.75 1.60 1.55 0 2.20 -0.65 2.35 -10.75 2.35 -6.75 0 -9.75 -0.20 -10.15 -0.60z"/>
  <path d="M366.15 229.40 c-2.35 -2.45 -4.50 -5.70 -4.05 -6.20 0.15 -0.10 0.75 0.75 1.40 1.95 0.60 1.15 2.15 3.15 3.40 4.50 1.30 1.30 2.20 2.35 2.05 2.35 -0.10 0 -1.40 -1.20 -2.80 -2.60z"/>
  <path d="M405.70 231.25 c-0.20 -0.55 -0.60 -1.15 -0.90 -1.35 -0.40 -0.25 -0.40 -0.40 0 -0.40 0.85 0 1.85 1.35 1.55 2.10 -0.15 0.45 -0.35 0.30 -0.65 -0.35z"/>
  <path d="M442.70 228.95 c4.15 -4.50 4.15 -4.45 2.30 -1.80 -0.95 1.30 -2.50 2.95 -3.45 3.70 -1.35 1 -1.10 0.55 1.15 -1.90z"/>
  <path d="M415.95 229.65 l-1.70 -1.90 1.90 1.70 c1.70 1.65 2.10 2.05 1.70 2.05 -0.10 0 -0.95 -0.85 -1.90 -1.85z"/>
  <path d="M256.10 229 c0 -0.95 0.10 -1.35 0.25 -0.85 0.10 0.45 0.10 1.25 0 1.75 -0.15 0.45 -0.25 0.05 -0.25 -0.90z"/>
  <path d="M454.40 230 c0.95 -0.20 1.95 -0.65 2.25 -0.95 0.45 -0.45 0.60 -4.90 0.60 -15.60 l0 -15.05 -1.40 -1.20 c-0.75 -0.65 -2.05 -1.20 -2.80 -1.20 -1.90 0 -3.20 -1.05 -2.95 -2.50 0.05 -0.65 0.45 -1.25 0.80 -1.30 0.35 -0.05 0.40 0 0.10 0.15 -0.25 0.10 -0.50 0.75 -0.50 1.45 0 1 0.30 1.25 2 1.50 2.40 0.40 4.20 1.70 5.30 3.80 1.05 2 0.95 26.85 -0.15 29 -0.75 1.60 -2.10 2.40 -3.75 2.35 -0.85 -0.05 -0.70 -0.15 0.50 -0.45z"/>
  <path d="M377.85 229.50 c-4.65 -1.45 -7.75 -6.40 -8.80 -14 -0.55 -4.05 0.65 -10.60 2.70 -15.25 0.85 -1.85 3.45 -4.35 5.70 -5.50 1.95 -0.95 7.60 -0.85 7.95 0.15 0.10 0.35 0.45 0.60 0.80 0.60 0.70 0 2.95 2.25 3.75 3.85 0.35 0.70 0.55 5.40 0.55 13.85 l0 12.75 -1.60 1.20 c-0.90 0.70 -2.15 1.50 -2.75 1.80 -1.50 0.75 -6.60 1.10 -8.30 0.55z"/>
  <path d="M399.35 227.65 c-0.55 -0.65 -0.85 -1.30 -0.70 -1.45 0.10 -0.15 0.60 0.35 1.05 1.10 1.15 1.65 0.85 1.95 -0.35 0.35z"/>
  <path d="M466.10 228 c-0.45 -0.75 -0.60 -5.70 -0.60 -18.80 l0 -17.80 -5.60 0.25 -5.65 0.30 5.15 -0.50 c2.85 -0.30 5.50 -0.40 5.90 -0.25 0.60 0.20 0.70 3.05 0.70 17.50 0 10.60 0.20 17.75 0.50 18.60 0.65 1.65 0.45 2 -0.40 0.70z"/>
  <path d="M423.65 227.05 c-1.30 -1.10 -3.65 -4.50 -3.65 -5.25 0.05 -0.30 0.40 0.15 0.85 0.95 0.40 0.85 1.55 2.35 2.55 3.40 1.95 2 2.05 2.40 0.25 0.90z"/>
  <path d="M43.50 223.70 c-1.75 -0.95 -2.95 -1.70 -2.60 -1.70 0.95 0 5 2 5.65 2.80 0.75 0.95 0.70 0.90 -3.05 -1.10z"/>
  <path d="M411 222.40 c-1.35 -3.75 -1.90 -9.80 -1.25 -13.80 0.60 -3.65 2.30 -8.30 3.30 -8.90 0.40 -0.25 -0.75 2.75 -2.15 5.45 -0.25 0.50 -0.45 3.75 -0.45 7.25 0 5.10 0.20 6.85 1 9 0.50 1.40 0.80 2.60 0.55 2.60 -0.20 0 -0.65 -0.75 -1 -1.60z"/>
  <path d="M37.15 221.65 c0.45 -0.10 1.25 -0.10 1.75 0 0.45 0.15 0.05 0.25 -0.90 0.25 -0.95 0 -1.35 -0.10 -0.85 -0.25z"/>
  <path d="M258.50 219.75 c0 -0.75 3.05 -5.90 3.30 -5.60 0.15 0.10 -0.55 1.55 -1.55 3.15 -0.95 1.65 -1.75 2.75 -1.75 2.45z"/>
  <path d="M418.65 214.25 c0 -1.35 0.10 -1.90 0.20 -1.10 0.10 0.75 0.10 1.85 0 2.50 -0.10 0.60 -0.20 0 -0.20 -1.40z"/>
  <path d="M360.10 210 c0 -0.95 0.10 -1.35 0.25 -0.85 0.10 0.45 0.10 1.25 0 1.75 -0.15 0.45 -0.25 0.05 -0.25 -0.90z"/>
  <path d="M445.40 206.90 c-0.15 -2.55 -0.40 -5.05 -0.65 -5.50 -0.20 -0.50 -0.15 -0.90 0.15 -0.90 0.65 0 1.15 2.45 1.45 7.15 0.15 2.25 0.05 3.85 -0.25 3.85 -0.25 0 -0.60 -2.10 -0.70 -4.60z"/>
  <path d="M269.20 207.05 c0.20 -0.30 0.80 -0.80 1.40 -1.10 0.75 -0.40 0.90 -0.40 0.70 0 -0.20 0.30 -0.80 0.80 -1.40 1.10 -0.75 0.40 -0.90 0.40 -0.70 0z"/>
  <path d="M418.70 205.40 c0.90 -6 3.35 -9.55 7.55 -11.15 2.75 -1.05 5.15 -0.70 7.25 1.10 2.20 1.85 3.35 4.40 3.75 8.55 l0.35 3.60 -9.60 0 -9.65 0 0.35 -2.10z"/>
  <path d="M268.15 202.60 c-1.20 -0.75 -2.15 -1.50 -2.15 -1.70 0 -0.20 1 0.30 2.25 1.15 1.25 0.85 2.25 1.60 2.25 1.75 0 0.35 -0.15 0.25 -2.35 -1.20z"/>
  <path d="M361.50 203.85 c0 -1.15 2.30 -4.60 4.60 -7 1.45 -1.45 1.85 -1.75 0.80 -0.65 -1 1.15 -2.60 3.40 -3.60 5.05 -1 1.65 -1.80 2.80 -1.80 2.60z"/>
  <path d="M24.30 197.70 c-0.20 -0.70 -0.25 -1.40 -0.15 -1.55 0.15 -0.10 0.40 0.40 0.55 1.15 0.20 0.70 0.25 1.40 0.15 1.55 -0.15 0.10 -0.40 -0.40 -0.55 -1.15z"/>
  <path d="M415 196.85 c0 -0.10 0.75 -0.80 1.65 -1.65 l1.60 -1.45 -1.45 1.65 c-1.40 1.50 -1.80 1.85 -1.80 1.45z"/>
  <path d="M261.40 195.65 c-0.85 -1 -2.90 -4.85 -2.90 -5.50 0 -0.20 0.50 0.40 1.05 1.35 0.60 0.95 1.50 2.50 2.05 3.40 1.10 1.75 1 2.10 -0.20 0.75z"/>
  <path d="M388.50 192.45 c-0.60 -0.40 -0.50 -0.45 0.35 -0.20 1.10 0.30 1.10 0.30 1.30 -7.60 l0.15 -7.90 0.10 8.15 c0.10 8.35 0 8.90 -1.90 7.55z"/>
  <path d="M422.75 191.30 c0.60 -0.45 1.90 -0.75 3.25 -0.70 l2.25 0.05 -2 0.30 c-1.10 0.20 -2.55 0.55 -3.25 0.75 -1.20 0.40 -1.20 0.40 -0.25 -0.40z"/>
  <path d="M433.75 191.25 c-1.55 -0.55 -1.75 -0.70 -0.75 -0.70 0.70 0 1.80 0.30 2.50 0.70 1.50 0.85 0.90 0.85 -1.75 0z"/>
  <path d="M375.25 191 c0.95 -0.40 5.15 -0.70 4.70 -0.30 -0.10 0.10 -1.45 0.30 -2.95 0.45 -1.70 0.15 -2.35 0.10 -1.75 -0.15z"/>
  <path d="M383.50 191 l-1.25 -0.40 1.25 -0.05 c0.70 0 1.60 0.20 2 0.45 0.65 0.45 0.65 0.50 0 0.45 -0.40 -0.05 -1.30 -0.25 -2 -0.45z"/>
  <path d="M24.05 189.25 c-0.15 -2.90 1.70 -5.90 2.65 -4.30 0.15 0.25 -0.10 0.40 -0.55 0.35 -0.65 -0.05 -1 0.60 -1.45 2.45 -0.35 1.40 -0.60 2.05 -0.65 1.50z"/>
  <path d="M46.50 184.35 c0 -0.10 0.75 -0.80 1.65 -1.65 l1.60 -1.45 -1.45 1.65 c-1.40 1.50 -1.80 1.85 -1.80 1.45z"/>
  <path d="M256.10 181 c0 -0.95 0.10 -1.35 0.25 -0.85 0.10 0.45 0.10 1.25 0 1.75 -0.15 0.45 -0.25 0.05 -0.25 -0.90z"/>
  <path d="M458.45 180.35 c-0.70 -0.60 -1.60 -1.55 -1.95 -2.10 -0.40 -0.55 0 -0.30 0.85 0.60 0.85 0.90 2.20 1.75 3 1.90 2.30 0.55 2.50 0.65 0.90 0.70 -0.90 0.05 -2.05 -0.40 -2.80 -1.10z"/>
  <path d="M50.25 179.75 c0.20 -0.55 0.75 -2.20 1.30 -3.65 0.50 -1.40 1.30 -3.10 1.75 -3.75 0.70 -0.95 0.80 -0.95 0.45 -0.10 -0.20 0.55 -0.75 2.20 -1.30 3.65 -0.50 1.40 -1.30 3.10 -1.75 3.75 -0.70 0.95 -0.80 0.95 -0.45 0.10z"/>
  <path d="M465 179.15 c0.65 -0.90 1.25 -1.65 1.35 -1.65 0.40 0 -0.85 1.90 -1.65 2.55 -0.55 0.45 -0.45 0.10 0.30 -0.90z"/>
  <path d="M255.35 178.25 c-0.15 -0.55 -0.55 -2.90 -0.85 -5.25 -0.25 -2.35 -0.85 -6.25 -1.25 -8.75 -1.05 -6.55 -0.85 -6.85 0.45 -0.50 1.50 7.30 2.50 13.95 2.20 14.80 -0.20 0.50 -0.35 0.40 -0.55 -0.30z"/>
  <path d="M273.40 178.65 c-1.15 -0.30 -1.10 -1.60 0.10 -3.15 0.55 -0.70 1 -1.50 1 -1.80 0 -0.25 0.35 -0.95 0.75 -1.50 0.65 -0.80 0.65 -0.70 0 0.80 -0.45 0.95 -0.90 2.15 -1.10 2.65 -0.15 0.45 -0.50 0.85 -0.75 0.85 -1.10 0 0.30 1 1.50 1.05 l1.35 0.10 -1.25 0.30 c-0.90 0.20 -0.40 0.35 1.75 0.60 l3 0.30 -2.75 0 c-1.50 0 -3.15 -0.05 -3.60 -0.20z"/>
  <path d="M466.65 175 c0 -1.25 0.10 -1.75 0.20 -1.10 0.10 0.60 0.10 1.60 0 2.25 -0.10 0.60 -0.20 0.10 -0.20 -1.15z"/>
  <path d="M288.30 174.50 c1.10 -1.25 2.35 -2.80 2.80 -3.50 0.45 -0.70 0.85 -1 0.85 -0.65 0.05 0.35 -1.20 1.90 -2.75 3.50 -1.75 1.80 -2.10 2.05 -0.90 0.65z"/>
  <path d="M381.50 172.15 c-0.85 -0.35 -1.50 -1.15 -1.50 -1.85 0 -0.30 0.30 -0.10 0.65 0.40 0.35 0.50 1.45 1.05 2.35 1.30 1.35 0.30 1.45 0.40 0.50 0.40 -0.70 0 -1.60 -0.10 -2 -0.25z"/>
  <path d="M464.60 171 c-0.90 -0.85 -1.45 -1.50 -1.20 -1.50 0.50 0 1.70 1 2.55 2.15 0.95 1.25 0.55 1.05 -1.35 -0.65z"/>
  <path d="M458 170.55 c1.20 -1.10 2.15 -1.55 3.25 -1.50 l1.50 0.10 -1.50 0.20 c-0.80 0.15 -2.30 0.80 -3.25 1.50 l-1.75 1.20 1.75 -1.50z"/>
  <path d="M381.10 168.90 c0.35 -0.20 2 -0.35 3.65 -0.35 3.65 0.05 3.10 0.30 -1.15 0.55 -1.70 0.15 -2.85 0.05 -2.50 -0.20z"/>
  <path d="M276.65 166.75 c0 -1.10 0.10 -1.50 0.20 -0.85 0.10 0.60 0.10 1.50 0 2 -0.15 0.45 -0.25 -0.05 -0.20 -1.15z"/>
  <path d="M389.85 168.15 c0.90 -0.10 2.50 -0.10 3.50 0 1.05 0.10 0.35 0.20 -1.60 0.20 -1.90 0 -2.75 -0.10 -1.90 -0.20z"/>
  <path d="M56 166.20 c0 -0.60 3.30 -6.20 4.10 -6.95 0.30 -0.25 -0.20 0.85 -1.10 2.50 -2.10 3.75 -3 5.10 -3 4.45z"/>
  <path d="M293.15 164.50 c0 -1.25 0.10 -1.75 0.20 -1.10 0.10 0.60 0.10 1.60 0 2.25 -0.10 0.60 -0.20 0.10 -0.20 -1.15z"/>
  <path d="M273.65 159.15 c-1.20 -1.80 -1.65 -2.85 -1.10 -2.35 1.15 1 3.70 5.15 3.40 5.40 -0.10 0.10 -1.15 -1.25 -2.30 -3.05z"/>
  <path d="M61.80 156.50 c0.55 -1.10 4.30 -6 4.55 -6 0.25 0 -2.20 3.45 -3.90 5.50 -0.55 0.70 -0.85 0.90 -0.65 0.50z"/>
  <path d="M269.20 153.40 l-1.45 -1.65 1.65 1.45 c1.50 1.40 1.85 1.80 1.45 1.80 -0.10 0 -0.80 -0.75 -1.65 -1.60z"/>
  <path d="M306.25 148.50 c0 -2.45 0.15 -4.10 0.35 -3.60 0.45 1.10 0.45 6.10 0 7.20 -0.20 0.45 -0.35 -1.15 -0.35 -3.60z"/>
  <path d="M262.45 147.60 c-1.50 -1.30 -3.55 -3 -4.50 -3.75 -1.55 -1.25 -1.50 -1.25 0.55 0.15 2.30 1.55 7.45 5.95 7 5.95 -0.15 0 -1.50 -1.05 -3.05 -2.35z"/>
  <path d="M249.75 146.50 c-0.20 -1.20 -0.55 -2.55 -0.80 -3 -0.25 -0.40 -1.25 -3.80 -2.20 -7.50 -1 -3.70 -2.10 -7.25 -2.50 -7.85 -0.80 -1.20 -3.85 -11.20 -3.55 -11.50 0.10 -0.15 0.35 0.25 0.55 0.80 0.20 0.70 0.75 1.05 1.55 1.05 1.20 0 4.20 1.25 4.20 1.80 0 0.10 -0.70 -0.15 -1.55 -0.55 -0.85 -0.45 -1.65 -0.75 -1.75 -0.60 -0.30 0.25 3.65 14 4.55 16.10 0.40 0.85 2.25 2.70 4.20 4.15 1.95 1.45 3.55 2.75 3.55 2.95 0 0.30 -0.05 0.30 -4.65 -3.30 -3.35 -2.65 -4.35 -3 -3.45 -1.20 0.75 1.40 2.70 9.65 2.45 10.30 -0.10 0.35 -0.40 -0.40 -0.60 -1.65z"/>
  <path d="M290.90 146.15 c0.90 -0.10 2.25 -0.10 3 0 0.75 0.10 0 0.20 -1.65 0.20 -1.65 0 -2.25 -0.10 -1.35 -0.20z"/>
  <path d="M74 141.75 c2.35 -2.35 4.35 -4.25 4.50 -4.25 0.10 0 -1.65 1.90 -4 4.25 -2.35 2.35 -4.35 4.25 -4.50 4.25 -0.10 0 1.65 -1.90 4 -4.25z"/>
  <path d="M296.55 145.35 c0.10 -0.05 1.35 -1 2.70 -2.05 l2.50 -1.90 -2.25 2.05 c-1.25 1.15 -2.45 2.05 -2.70 2.05 -0.25 0 -0.35 -0.05 -0.25 -0.15z"/>
  <path d="M279.10 141.50 c-1.70 -1.10 -3.10 -2.10 -3.10 -2.20 0 -0.15 1.45 0.65 3.25 1.75 2.85 1.85 3.65 2.45 3.10 2.45 -0.10 0 -1.60 -0.90 -3.25 -2z"/>
  <path d="M304.50 140.35 c0 -1 -1 -1.10 -2 -0.20 -0.60 0.50 -0.60 0.45 -0.05 -0.25 0.35 -0.50 1 -0.90 1.40 -0.90 0.75 0 1.45 1.35 0.95 1.85 -0.15 0.20 -0.30 -0.05 -0.30 -0.50z"/>
  <path d="M270.50 135.45 c-1.80 -1.40 -4.95 -3.70 -7 -5.05 -4.10 -2.75 -5.45 -3.90 -3.50 -2.90 3 1.55 14.95 10.50 13.95 10.50 -0.10 0 -1.65 -1.15 -3.45 -2.55z"/>
  <path d="M80 136.30 c1.35 -1.50 10.25 -8.40 12.10 -9.35 1.75 -0.90 0.55 0.15 -3.60 3.05 -2.05 1.50 -5.10 3.80 -6.75 5.20 -1.65 1.35 -2.45 1.85 -1.75 1.10z"/>
  <path d="M384.50 126.95 c-1.15 -0.25 -0.50 -0.25 1.75 -0.10 1.95 0.15 3.60 0.35 3.70 0.45 0.35 0.35 -3.60 0.10 -5.45 -0.35z"/>
  <path d="M423.75 126.50 c-0.65 -0.30 0.45 -0.45 3.25 -0.45 2.80 0 3.90 0.15 3.25 0.45 -0.55 0.25 -2 0.45 -3.25 0.45 -1.25 0 -2.70 -0.20 -3.25 -0.45z"/>
  <path d="M551 126.50 c-0.70 -0.20 0.65 -0.25 3 -0.10 2.35 0.10 4.35 0.30 4.45 0.40 0.40 0.35 -6.20 0.10 -7.45 -0.30z"/>
  <path d="M620.75 126.50 c-0.60 -0.20 0.35 -0.30 2.25 -0.15 1.80 0.15 3.35 0.35 3.45 0.45 0.45 0.40 -4.75 0.10 -5.70 -0.30z"/>
  <path d="M469.50 125.65 c6.95 -0.15 9.85 -0.35 10.15 -0.80 0.30 -0.45 0.35 -0.40 0.20 0.15 -0.15 0.65 -1.70 0.75 -10.15 0.75 l-9.95 0.05 9.75 -0.15z"/>
  <path d="M495.25 125.50 l9.50 -0.25 0 -1.35 c-0.05 -0.80 0.15 -1.40 0.35 -1.40 0.75 0 0.40 2.90 -0.40 3.20 -0.45 0.15 -4.85 0.25 -9.85 0.20 l-9.10 -0.10 9.50 -0.30z"/>
  <path d="M520.65 125.65 l9.85 -0.15 0 -1.50 c0 -1.30 -0.20 -1.50 -1.30 -1.50 -1.45 0 -4.70 -1.80 -4.70 -2.60 0 -0.25 0.70 0.10 1.55 0.80 0.90 0.75 2.15 1.30 3 1.30 1.70 0 2.65 1.65 1.85 3.15 -0.40 0.75 -1.35 0.85 -10.30 0.75 l-9.85 -0.15 9.90 -0.10z"/>
  <path d="M588.50 125.50 l10.75 -0.25 0 -1.35 c-0.05 -0.70 0.15 -1.20 0.35 -1.10 0.60 0.40 0.50 1.90 -0.20 2.60 -0.45 0.45 -3.50 0.55 -11.10 0.50 l-10.55 -0.10 10.75 -0.30z"/>
  <path d="M253.90 124.50 c-1 -0.55 -2 -1.25 -2.15 -1.55 -0.40 -0.60 1.95 0.55 3.50 1.75 1.35 1.05 0.90 0.95 -1.35 -0.20z"/>
  <path d="M454.65 124.60 c1.25 -1.35 0.60 -2.50 -1.55 -2.75 l-1.85 -0.20 2.05 -0.05 c1.55 -0.10 2.20 0.10 2.40 0.70 0.45 1.15 -0.05 2.55 -1.05 2.95 -0.75 0.25 -0.75 0.20 0 -0.65z"/>
  <path d="M458.85 124.55 c-0.10 -0.50 -0.05 -1.25 0.20 -1.60 0.30 -0.50 0.45 -0.20 0.45 0.95 0 1.80 -0.25 2.10 -0.65 0.65z"/>
  <path d="M577.10 124 c0 -0.95 0.10 -1.35 0.25 -0.85 0.10 0.45 0.10 1.25 0 1.75 -0.15 0.45 -0.25 0.05 -0.25 -0.90z"/>
  <path d="M375 124 c-0.95 -0.50 -3.20 -2.30 -5 -4 l-3.25 -3.10 3.10 2.70 c1.75 1.50 4.15 3.25 5.40 3.90 2.10 1.10 2.75 1.55 1.90 1.45 -0.25 -0.05 -1.20 -0.45 -2.15 -0.95z"/>
  <path d="M418.65 123.40 c-0.85 -0.90 -1.75 -2.10 -2.05 -2.65 -0.80 -1.60 -1.10 -4.85 -0.65 -7 0.40 -1.75 0.45 -1.55 0.50 1.90 0.05 4.10 0.40 5.15 2.75 7.75 0.85 0.85 1.40 1.60 1.25 1.60 -0.15 0 -0.95 -0.75 -1.80 -1.60z"/>
  <path d="M544 123.80 c-0.95 -0.65 -2.30 -1.85 -3 -2.60 l-1.25 -1.45 1.50 1.30 c0.85 0.70 2.40 1.90 3.50 2.65 1.10 0.70 1.75 1.30 1.50 1.25 -0.30 0 -1.30 -0.55 -2.25 -1.15z"/>
  <path d="M615.65 123.40 c-1.65 -1.80 -2.65 -3.45 -2.65 -4.50 0.05 -0.35 0.45 0.20 0.90 1.20 0.50 1.05 1.55 2.55 2.35 3.40 0.80 0.80 1.35 1.50 1.20 1.50 -0.15 0 -0.95 -0.75 -1.80 -1.60z"/>
  <path d="M638.90 124.15 c-0.95 -1.10 -1.60 -2.80 -0.90 -2.40 0.30 0.15 0.50 0.65 0.50 1.05 0 0.40 0.20 0.70 0.45 0.70 0.25 0 0.55 0.35 0.75 0.75 0.35 1 0.10 0.95 -0.80 -0.10z"/>
  <path d="M652.10 123 c-0.35 -0.55 -1.15 -1 -1.80 -1 -1.90 0 -3.65 -0.85 -4.55 -2.15 -0.65 -1 -0.80 -3.50 -0.90 -15.40 -0.10 -15.55 0 -14.80 -3.30 -18.70 l-1.30 -1.50 1.70 1.50 c0.90 0.85 2.20 2.70 2.85 4.15 1.15 2.55 1.20 3 1.20 16.30 0 15.50 -0.20 14.80 4.05 15.20 2.40 0.20 3.30 0.85 2.85 2.10 -0.10 0.30 -0.45 0.05 -0.80 -0.50z"/>
  <path d="M437.50 123.15 c0 -0.25 0.50 -0.95 1.15 -1.55 1.15 -1.10 1.20 -1.10 2 -0.20 0.45 0.50 0.85 1.10 0.85 1.30 0 0.25 -0.40 -0.10 -0.90 -0.70 l-0.90 -1.15 -1.10 1.40 c-0.60 0.75 -1.10 1.15 -1.10 0.90z"/>
  <path d="M462.25 122 c0.55 -0.20 1.50 -0.90 2.15 -1.45 0.60 -0.60 1.10 -0.85 1.10 -0.60 0 0.70 -2.50 2.55 -3.45 2.50 -0.60 0 -0.55 -0.10 0.20 -0.45z"/>
  <path d="M476 121.75 c-1.65 -0.95 -1.05 -0.95 1.05 0 0.95 0.40 1.35 0.70 0.95 0.70 -0.40 0 -1.30 -0.30 -2 -0.70z"/>
  <path d="M487.50 122.15 c0.70 -0.15 1.45 -0.50 1.65 -0.85 0.30 -0.35 0.35 -0.30 0.20 0.20 -0.10 0.40 -0.80 0.80 -1.65 0.85 -1.25 0.05 -1.30 0 -0.20 -0.20z"/>
  <path d="M512.45 122.15 c0.70 -0.15 1.80 -0.60 2.50 -1.05 l1.30 -0.80 -1.10 1.10 c-0.65 0.65 -1.65 1.05 -2.50 1.05 -1.30 -0.10 -1.30 -0.10 -0.20 -0.30z"/>
  <path d="M579.85 122 c0.90 -0.20 2.05 -0.70 2.50 -1.05 0.75 -0.55 0.75 -0.50 -0.05 0.45 -0.65 0.75 -1.45 1.10 -2.50 1.05 l-1.55 -0.05 1.60 -0.40z"/>
  <path d="M594.50 121.95 c-3.05 -1.25 -3 -0.85 -3 -15.45 0 -12.15 0.10 -13.45 0.90 -14.05 0.70 -0.55 0.75 -0.55 0.25 0.05 -0.50 0.50 -0.65 4.10 -0.65 14.10 l0 13.40 1.20 0.75 c0.65 0.45 2.15 0.95 3.35 1.20 1.75 0.35 1.90 0.45 0.70 0.45 -0.80 0.05 -2.05 -0.20 -2.75 -0.45z"/>
  <path d="M95.40 92 c-0.15 -16.65 -0.45 -30.90 -0.60 -31.75 -0.30 -1.50 -0.30 -1.50 0.30 -0.25 0.45 0.95 0.65 8.20 0.80 29.35 0.10 15.45 0.10 29.15 0 30.50 -0.10 1.30 -0.30 -11.20 -0.50 -27.85z"/>
  <path d="M389.40 121.65 c0.85 -0.10 2.35 -0.10 3.25 0 0.85 0.10 0.15 0.20 -1.65 0.20 -1.80 0 -2.50 -0.10 -1.60 -0.20z"/>
  <path d="M427.45 120.75 c-1.55 -0.85 -2.95 -3.55 -2.95 -5.70 0 -2.80 2.20 -6.25 5 -8 1.40 -0.85 2.75 -1.55 3 -1.55 0.30 0 0.50 -0.20 0.50 -0.45 0 -0.20 1.40 -0.80 3.10 -1.30 1.70 -0.45 3.40 -0.95 3.75 -1.10 0.50 -0.20 0.65 1.25 0.65 6.95 l0 7.20 -1.60 1.60 c-0.90 0.85 -2.50 1.90 -3.50 2.30 -2.30 1 -6.20 1 -7.95 0.05z"/>
  <path d="M449.20 120.45 c-0.70 -0.75 -0.95 -1.90 -1 -4.60 l-0.15 -3.60 0.45 3.75 c0.35 2.90 0.65 3.90 1.50 4.60 0.60 0.50 0.90 0.90 0.65 0.90 -0.30 0 -0.90 -0.45 -1.45 -1.05z"/>
  <path d="M624.40 120.75 c-0.75 -0.40 -1.45 -1.20 -1.65 -1.75 -0.15 -0.55 -0.55 -1 -0.80 -1 -0.25 0 -0.45 -1.10 -0.45 -2.40 0 -3.05 1.70 -6.45 3.90 -7.85 0.85 -0.55 2.40 -1.50 3.40 -2.15 1.70 -1.05 7.05 -3.10 8.20 -3.10 0.30 0 0.50 2.55 0.50 7.15 l0 7.15 -1.60 1.60 c-0.90 0.85 -2.50 1.90 -3.50 2.30 -2.30 1 -6.20 1 -8 0.05z"/>
  <path d="M405.40 120.20 c0.30 -0.55 1 -1.40 1.65 -1.95 l1.15 -1 -1.15 1.60 c-1.30 1.90 -2.45 2.80 -1.65 1.35z"/>
  <path d="M550.70 120.05 c-1.55 -0.95 -4.70 -4.45 -4.70 -5.20 0 -0.25 0.75 0.55 1.65 1.75 0.90 1.15 2.55 2.65 3.60 3.25 1.10 0.65 1.80 1.15 1.50 1.15 -0.25 0 -1.20 -0.45 -2.05 -0.95z"/>
  <path d="M570.45 118.65 c1.35 -1.65 2 -2.85 1.80 -3.25 -0.30 -0.50 -0.25 -0.50 0.25 -0.05 0.50 0.45 0.35 0.95 -0.90 2.55 -0.85 1.05 -1.95 2.25 -2.45 2.65 -0.50 0.40 0.10 -0.45 1.30 -1.90z"/>
  <path d="M490.60 107.45 l-0.10 -12.75 -1.35 -2.70 c-1.10 -2.05 -1.80 -2.85 -3.15 -3.35 -1.60 -0.60 -1.60 -0.65 -0.25 -0.35 2.05 0.35 4.15 2.50 4.75 4.75 0.30 1.10 0.45 7.15 0.35 14.55 l-0.10 12.65 -0.15 -12.80z"/>
  <path d="M499.10 106.90 c-0.05 -7.35 0.05 -13.45 0.30 -13.55 0.20 -0.15 0.30 3.70 0.20 8.55 -0.20 16.70 -0.40 18.35 -0.50 5z"/>
  <path d="M473.40 119.15 c-0.10 -0.25 -0.05 -6.15 0.10 -13.15 l0.30 -12.75 0.10 13.15 c0.10 11.80 0 13.95 -0.50 12.75z"/>
  <path d="M538.50 117.90 c-0.55 -0.90 -1 -1.85 -1 -2.10 0 -0.60 0.05 -0.50 1.40 1.85 1.30 2.25 0.95 2.50 -0.40 0.25z"/>
  <path d="M565.90 118.25 c0.60 -0.80 1.80 -2.30 2.65 -3.25 l1.55 -1.75 -1.50 2.25 c-0.80 1.25 -2 2.70 -2.65 3.25 l-1.15 1 1.10 -1.50z"/>
  <path d="M377.90 116.10 c-2.70 -2.80 -4.40 -5.50 -5.10 -8.10 -0.20 -0.70 0.45 0.35 1.45 2.25 1 1.95 3 4.70 4.40 6.15 1.40 1.40 2.45 2.60 2.30 2.60 -0.15 0 -1.55 -1.30 -3.05 -2.90z"/>
  <path d="M403.30 116.50 c1.15 -1.25 2.15 -2.60 2.30 -3 0.15 -0.40 0.40 -0.60 0.60 -0.45 0.20 0.20 -0.85 1.55 -2.30 3.05 -1.95 2.05 -2.10 2.15 -0.60 0.40z"/>
  <path d="M409.10 115.25 c0.55 -1 1.15 -1.70 1.25 -1.55 0.25 0.25 -1.75 3.30 -2.10 3.30 -0.15 0 0.25 -0.80 0.85 -1.75z"/>
  <path d="M536.65 114.25 c-0.95 -1.90 -1.70 -7 -1.55 -10.50 l0.20 -3.50 0.10 4.35 c0.05 2.40 0.35 4.50 0.60 4.65 0.30 0.15 0.50 1.05 0.50 1.95 0 0.85 0.25 1.85 0.55 2.15 0.30 0.30 0.45 0.85 0.35 1.25 -0.15 0.45 -0.40 0.35 -0.75 -0.35z"/>
  <path d="M613.10 113.75 c-0.10 -2.30 1.40 -4.75 4.30 -7.10 2.60 -2.10 3.60 -2.60 3.60 -1.70 0 0.25 -0.55 0.60 -1.20 0.75 -1.50 0.35 -5.30 3.85 -5.30 4.85 0 0.40 -0.20 0.95 -0.45 1.25 -0.25 0.25 -0.55 1.15 -0.70 1.95 l-0.20 1.50 -0.05 -1.50z"/>
  <path d="M119.15 113.65 c-0.50 -0.15 -0.45 -0.40 0.15 -1 0.40 -0.45 0.65 -1.10 0.50 -1.50 -0.15 -0.40 -0.05 -0.55 0.20 -0.40 0.30 0.15 0.50 0.75 0.50 1.35 0 0.75 0.20 0.90 0.90 0.65 2.20 -0.95 8.30 -2.75 8.70 -2.65 0.40 0.15 -1.95 1 -9.60 3.55 -0.40 0.15 -1.05 0.15 -1.35 0z"/>
  <path d="M363.80 112.15 c-0.40 -0.40 -1.80 -3.55 -1.80 -4.05 0 -0.50 1.25 1.50 1.90 3.05 0.60 1.40 0.55 1.65 -0.10 1z"/>
  <path d="M410.95 111.85 c0.60 -0.75 0.55 -1.05 -0.25 -2 l-0.90 -1.10 1.20 1.10 c1.20 1.15 1.20 1.15 0.25 2 -0.90 0.85 -0.90 0.85 -0.30 0z"/>
  <path d="M448.70 102.75 c0 -5.20 0.10 -7.30 0.15 -4.60 0.10 2.70 0.10 6.95 0 9.50 -0.05 2.55 -0.15 0.35 -0.15 -4.90z"/>
  <path d="M236.85 107.90 c-1.55 -3.30 -2.85 -6.40 -2.85 -6.85 0 -0.55 2.25 3.60 3.45 6.35 1.50 3.55 1 3.95 -0.60 0.50z"/>
  <path d="M120.25 86 c0 -12.50 0.05 -17.65 0.10 -11.40 0.10 6.30 0.10 16.50 0 22.75 -0.05 6.30 -0.10 1.15 -0.10 -11.35z"/>
  <path d="M419.25 107.50 c1.25 -1.40 4.55 -3.30 6.50 -3.70 1.10 -0.25 1.30 -0.20 0.75 0.20 -0.40 0.25 -1.15 0.50 -1.60 0.50 -0.50 0 -0.90 0.25 -0.90 0.50 0 0.30 -0.25 0.50 -0.55 0.50 -0.30 0 -1.60 0.70 -2.90 1.55 -1.75 1.20 -2.05 1.30 -1.30 0.45z"/>
  <path d="M143.50 107.05 c8.25 -2.10 21.05 -3.20 33.75 -2.90 10.40 0.25 21.20 1.15 23 1.90 0.70 0.30 0.20 0.35 -1.50 0.20 -1.35 -0.15 -5.60 -0.40 -9.45 -0.55 -4.20 -0.20 -6.65 -0.50 -6.25 -0.75 1.80 -1.15 -21.95 -0.05 -33.05 1.50 -1.80 0.25 -4.35 0.60 -5.75 0.75 -2.10 0.25 -2.25 0.20 -0.75 -0.15z"/>
  <path d="M543.85 107.15 c-0.55 -0.50 -0.40 -3.15 0.15 -3.15 0.30 0 0.50 0.80 0.50 1.75 0 1.80 -0.10 2 -0.65 1.40z"/>
  <path d="M201.55 103.45 c-0.65 -1.10 -1 -2.15 -0.85 -2.30 0.35 -0.40 0.35 -0.40 1.45 2.05 1.20 2.60 0.80 2.80 -0.60 0.25z"/>
  <path d="M433.75 101.10 c0.65 -0.60 3.85 -1.70 4.15 -1.35 0.25 0.20 -1.05 0.80 -3.40 1.50 -0.80 0.25 -1.10 0.20 -0.75 -0.15z"/>
  <path d="M630.50 101.05 c0 -0.30 0.45 -0.55 1.05 -0.55 0.55 0 1.45 -0.25 2.05 -0.55 0.55 -0.30 1.10 -0.40 1.25 -0.25 0.30 0.25 -0.80 0.75 -3.20 1.50 -0.70 0.25 -1.15 0.15 -1.15 -0.15z"/>
  <path d="M360.15 96.25 c0 -2.20 0.10 -3.05 0.20 -1.85 0.10 1.15 0.10 2.95 0 4 -0.10 1 -0.20 0.05 -0.20 -2.15z"/>
  <path d="M535.75 98.25 c0.30 -1.85 2 -5.75 2.50 -5.75 0.10 0 -0.25 1.05 -0.75 2.30 -0.55 1.25 -1 2.65 -1 3.10 0 0.45 -0.25 1.20 -0.55 1.60 -0.40 0.55 -0.45 0.25 -0.20 -1.25z"/>
  <path d="M439.50 99.15 c0.75 -0.35 0.60 -6.30 -0.25 -8.35 -0.95 -2.25 -0.55 -2.35 0.50 -0.10 1 2.05 0.90 8.40 -0.15 8.60 -0.35 0.05 -0.40 0 -0.10 -0.15z"/>
  <path d="M543.70 98.95 c-0.15 -0.30 -0.10 -1.05 0.20 -1.60 0.30 -0.60 0.90 -2.35 1.35 -3.85 0.55 -1.80 1.50 -3.45 2.85 -4.85 6.25 -6.45 14.90 -1.75 14.90 8.15 l0 2.70 -9.45 0 c-6.35 0 -9.60 -0.20 -9.85 -0.55z"/>
  <path d="M145.05 97.70 c-2.10 -0.95 -1.80 -1.35 0.50 -0.70 2.70 0.80 3.35 0.55 1.35 -0.50 -3.05 -1.65 -2.55 -1.90 0.65 -0.35 1.60 0.75 2.95 1.60 2.95 1.90 0 0.70 -3.50 0.45 -5.45 -0.35z"/>
  <path d="M571.10 97 c-0.05 -0.70 -0.25 -1.80 -0.40 -2.50 -0.25 -0.95 -0.20 -1.10 0.25 -0.70 0.35 0.35 0.55 1.40 0.40 2.50 -0.10 1.10 -0.20 1.40 -0.25 0.70z"/>
  <path d="M230.25 94 c-0.95 -1.90 -1.65 -3.50 -1.55 -3.50 0.35 0 2.65 3.95 3.25 5.65 0.95 2.45 0.10 1.40 -1.70 -2.15z"/>
  <path d="M420.30 97.10 c-0.10 -0.20 0.60 -0.30 1.60 -0.20 2.80 0.25 3.10 0.50 0.75 0.55 -1.15 0.05 -2.20 -0.15 -2.35 -0.35z"/>
  <path d="M618.40 97.15 c0.60 -0.10 1.60 -0.10 2.25 0 0.60 0.10 0.10 0.20 -1.15 0.20 -1.25 0 -1.75 -0.10 -1.10 -0.20z"/>
  <path d="M197.20 94.65 c-0.75 -1.35 -1.70 -2.95 -2.10 -3.65 -0.70 -1.10 -0.70 -1.15 0 -0.50 0.85 0.85 4.10 6.50 3.75 6.50 -0.15 0 -0.90 -1.05 -1.65 -2.35z"/>
  <path d="M426.05 95.70 c0.65 -0.85 1.30 -1.50 1.40 -1.35 0.15 0.10 -0.40 0.80 -1.20 1.55 l-1.40 1.35 1.20 -1.55z"/>
  <path d="M623.05 95.70 c0.65 -0.85 1.30 -1.50 1.40 -1.35 0.15 0.10 -0.40 0.80 -1.20 1.55 l-1.40 1.35 1.20 -1.55z"/>
  <path d="M135.70 93.05 c-1.65 -1.10 -3.50 -2.60 -4.20 -3.35 -0.70 -0.75 0.35 -0.15 2.30 1.35 1.95 1.50 4 2.95 4.50 3.30 0.55 0.30 0.80 0.60 0.65 0.60 -0.20 0.05 -1.65 -0.85 -3.25 -1.90z"/>
  <path d="M601.90 94.45 c-0.50 -0.25 -1.15 -1 -1.45 -1.60 -0.50 -0.95 -0.40 -0.90 0.75 0.25 0.95 0.90 2.05 1.40 3.45 1.55 l2.10 0.20 -2 0.05 c-1.10 0.05 -2.40 -0.15 -2.85 -0.45z"/>
  <path d="M417.85 94.15 c-0.50 -0.45 -0.45 -3.05 0.10 -3.35 0.20 -0.15 0.40 0.60 0.40 1.70 0 2.15 0 2.20 -0.50 1.65z"/>
  <path d="M614.80 93.40 c-0.25 -0.80 -0.25 -1.80 0 -2.25 0.35 -0.80 0.40 -0.75 0.55 0.25 0.15 0.60 0.15 1.60 0 2.25 -0.15 1.05 -0.20 1 -0.55 -0.25z"/>
  <path d="M523.45 90.90 c-0.45 -1.60 -0.75 -2.90 -0.65 -2.90 0.45 0 1.75 3.80 1.60 4.75 -0.10 0.55 -0.50 -0.20 -0.95 -1.85z"/>
  <path d="M447.85 92.65 c-0.20 -0.15 -0.35 -0.85 -0.35 -1.50 0 -1.35 -0.70 -2.75 -2.50 -4.95 -0.70 -0.80 -0.35 -0.55 0.80 0.60 1.40 1.45 2.15 2.75 2.35 4 0.35 1.95 0.25 2.45 -0.30 1.85z"/>
  <path d="M427.10 91.40 c-0.05 -0.70 -0.25 -1.75 -0.40 -2.25 -0.25 -0.70 -0.20 -0.75 0.25 -0.35 0.35 0.35 0.55 1.30 0.40 2.25 -0.15 1.40 -0.20 1.45 -0.25 0.35z"/>
  <path d="M608.75 89.25 c0 -2.85 -0.15 -3.40 -1.35 -4.60 -0.85 -0.80 -2.15 -1.45 -3.50 -1.70 l-2.15 -0.30 1.85 -0.10 c4.10 -0.15 8 6.05 5.80 9.10 -0.55 0.75 -0.65 0.35 -0.65 -2.40z"/>
  <path d="M139.95 89.20 c-2 -4.45 -1.05 -11.75 1.95 -15 0.75 -0.85 1.10 -1.15 0.75 -0.70 -0.35 0.45 -1.20 2.15 -1.95 3.75 -1.70 3.80 -1.80 8.35 -0.25 11.90 0.55 1.30 0.90 2.35 0.75 2.35 -0.15 0 -0.70 -1.05 -1.25 -2.30z"/>
  <path d="M464.60 90.90 c-0.35 -0.35 -0.60 -0.85 -0.60 -1.15 0 -0.70 -1.60 -1.55 -3.75 -2 -1.60 -0.35 -2.25 -1.05 -2.20 -2.25 0 -0.40 0.20 -0.25 0.45 0.40 0.25 0.60 0.85 1.10 1.30 1.10 1.40 0 4.10 1.55 4.95 2.85 0.90 1.35 0.80 2 -0.15 1.05z"/>
  <path d="M513.95 90.20 c-0.35 -0.40 -1.30 -1.10 -2.15 -1.50 -1.25 -0.55 -1.30 -0.65 -0.30 -0.40 1.10 0.25 4.20 2.70 3.40 2.70 -0.15 0 -0.55 -0.35 -0.95 -0.80z"/>
  <path d="M496.85 87.40 l-1.90 -2.65 1.75 2 c1 1.10 1.80 2.20 1.80 2.50 0 0.25 0.95 -0.45 2.15 -1.50 l2.10 -2 -2 2.15 c-1.05 1.15 -1.95 2.10 -2 2.10 0 0 -0.90 -1.20 -1.90 -2.60z"/>
  <path d="M473 87.55 c0 -1.10 0.25 -2.15 0.55 -2.35 0.40 -0.25 0.45 0.30 0.20 1.75 -0.40 2.40 0.20 2.65 1.70 0.75 0.60 -0.75 1.05 -1.10 1.05 -0.85 0 0.65 -2.20 2.65 -2.90 2.65 -0.35 0 -0.60 -0.80 -0.60 -1.95z"/>
  <path d="M541.50 87.75 c0.95 -0.95 1.80 -1.75 1.95 -1.75 0.15 0 -0.50 0.80 -1.45 1.75 -0.95 0.95 -1.80 1.75 -1.95 1.75 -0.15 0 0.50 -0.80 1.45 -1.75z"/>
  <path d="M567.20 87.65 c-0.75 -1 -1.15 -1.65 -0.80 -1.45 0.65 0.40 2.80 3.30 2.45 3.30 -0.15 0 -0.85 -0.85 -1.65 -1.85z"/>
  <path d="M618.05 86.90 c1.30 -1.35 2.65 -2.40 3.05 -2.40 0.35 0 0.20 0.30 -0.35 0.60 -0.55 0.30 -1.90 1.35 -3 2.35 -1.55 1.35 -1.50 1.25 0.30 -0.55z"/>
  <path d="M419 88.85 c0 -0.10 0.75 -0.80 1.65 -1.65 l1.60 -1.45 -1.45 1.65 c-1.40 1.50 -1.80 1.85 -1.80 1.45z"/>
  <path d="M579.25 88 c-1.55 -0.50 -2.55 -1.15 -2.65 -1.70 -0.15 -0.75 -0.05 -0.75 0.85 0.15 0.60 0.60 1.45 1.05 1.95 1.05 0.50 0 1.35 0.35 1.90 0.75 1.15 0.85 1.15 0.85 -2.05 -0.25z"/>
  <path d="M594 86.75 c0.95 -0.95 1.80 -1.75 1.95 -1.75 0.15 0 -0.50 0.80 -1.45 1.75 -0.95 0.95 -1.80 1.75 -1.95 1.75 -0.15 0 0.50 -0.80 1.45 -1.75z"/>
  <path d="M406.60 87.45 c-1.70 -0.65 -1.30 -1.20 0.90 -1.20 1.15 0 2 0.25 2 0.55 0 0.80 -1.55 1.15 -2.90 0.65z"/>
  <path d="M591.60 85.90 c-0.10 -2 -0.35 -2.20 -4.10 -2.55 -1.30 -0.15 -1.15 -0.20 0.75 -0.25 3.30 -0.10 3.85 0.30 3.60 2.70 l-0.20 1.95 -0.05 -1.85z"/>
  <path d="M224.90 84.65 c-0.70 -1.05 -1.65 -2.55 -2.10 -3.40 l-0.85 -1.50 1.20 1.45 c1.30 1.50 3.55 5.30 3.20 5.30 -0.10 0 -0.75 -0.85 -1.45 -1.85z"/>
  <path d="M190.65 84.40 c-1.30 -1.50 -2 -2.65 -1.25 -2.20 0.60 0.35 2.80 3.30 2.45 3.30 -0.10 0 -0.65 -0.50 -1.20 -1.10z"/>
  <path d="M404.65 84.25 c-0.30 -0.55 -0.65 -1.80 -0.80 -2.75 -0.30 -1.70 -0.25 -1.70 0.70 0.45 1 2.20 1.05 4.20 0.10 2.30z"/>
  <path d="M362.10 83.75 c-0.05 -0.55 0.25 -1.45 0.65 -1.95 0.65 -0.85 0.75 -0.90 0.75 -0.15 0 0.45 -0.20 0.85 -0.45 0.85 -0.25 0 -0.60 0.50 -0.70 1.15 -0.20 0.95 -0.20 0.95 -0.25 0.10z"/>
  <path d="M439 83.25 c-1.95 -0.55 -2.05 -0.65 -0.75 -0.70 0.85 0 2.05 0.30 2.75 0.70 1.50 0.85 1 0.85 -2 0z"/>
  <path d="M463.40 83.65 c0.90 -0.10 2.25 -0.10 3 0 0.75 0.10 0 0.20 -1.65 0.20 -1.65 0 -2.25 -0.10 -1.35 -0.20z"/>
  <path d="M470.25 83.50 l-2.50 -0.35 2.60 -0.05 c1.40 -0.05 2.75 0.15 2.90 0.40 0.15 0.30 0.15 0.45 -0.10 0.40 -0.20 0 -1.50 -0.20 -2.90 -0.40z"/>
  <path d="M481.80 83.25 c0.50 -0.40 1.75 -0.70 2.70 -0.70 1.65 0 1.60 0.05 -0.75 0.70 -3.15 0.90 -3.15 0.90 -1.95 0z"/>
  <path d="M507.25 83.35 c0.55 -0.45 1.80 -0.80 2.75 -0.80 l1.75 0.05 -1.75 0.40 c-0.95 0.20 -2.20 0.55 -2.75 0.75 l-1 0.40 1 -0.80z"/>
  <path d="M548.75 83.25 c0.85 -0.40 2.05 -0.70 2.75 -0.70 0.75 0 0.25 0.30 -1.25 0.70 -3.10 0.85 -3.45 0.85 -1.50 0z"/>
  <path d="M559.25 83.25 c-1.90 -0.65 -1.95 -0.65 -0.50 -0.70 0.85 0 1.95 0.30 2.45 0.70 1.15 0.90 0.75 0.90 -1.95 0z"/>
  <path d="M581.40 83.65 c0.90 -0.10 2.25 -0.10 3 0 0.75 0.10 0 0.20 -1.65 0.20 -1.65 0 -2.25 -0.10 -1.35 -0.20z"/>
  <path d="M636 83.25 c-1.95 -0.55 -2.05 -0.65 -0.75 -0.70 0.85 0 2.05 0.30 2.75 0.70 1.50 0.85 1 0.85 -2 0z"/>
  <path d="M427.75 83 c0.15 -0.25 1.05 -0.50 1.90 -0.45 1.55 0.05 1.55 0.05 0.35 0.45 -1.80 0.55 -2.60 0.55 -2.25 0z"/>
  <path d="M515.75 83 c-0.95 -0.40 -0.95 -0.45 0.10 -0.45 0.60 -0.05 1.25 0.20 1.40 0.45 0.35 0.60 -0.10 0.60 -1.50 0z"/>
  <path d="M624.75 83 c0.15 -0.25 1.05 -0.50 1.90 -0.45 1.55 0.05 1.55 0.05 0.35 0.45 -1.80 0.55 -2.60 0.55 -2.25 0z"/>
  <path d="M372.75 81 c0.55 -1.80 2.15 -4.90 2.75 -5.25 0.25 -0.15 -0.15 1.10 -0.95 2.75 -1.60 3.35 -2.40 4.45 -1.80 2.50z"/>
  <path d="M409.20 74 c0 -4.55 0.10 -6.40 0.15 -4.10 0.10 2.25 0.10 5.95 0 8.25 -0.05 2.25 -0.15 0.40 -0.15 -4.15z"/>
  <path d="M184.25 76.90 l-4.50 -4.65 4.65 4.50 c4.25 4.15 4.85 4.75 4.45 4.75 -0.05 0 -2.15 -2.10 -4.60 -4.60z"/>
  <path d="M363.50 80.35 c0 -0.45 3.05 -5.35 3.30 -5.35 0.25 0 -2.20 4.45 -2.90 5.25 -0.20 0.25 -0.40 0.30 -0.40 0.10z"/>
  <path d="M125.30 77.45 c-0.35 -1.90 -0.30 -7.65 0.15 -9.65 0.15 -0.85 0.30 1.35 0.30 4.85 0 3.50 -0.05 6.35 -0.05 6.35 -0.05 0 -0.20 -0.70 -0.40 -1.55z"/>
  <path d="M219.20 76.15 c-0.75 -1 -1.15 -1.65 -0.80 -1.45 0.65 0.40 2.80 3.30 2.45 3.30 -0.15 0 -0.85 -0.85 -1.65 -1.85z"/>
  <path d="M215.30 71 c-2.75 -3.50 -9.30 -10.25 -13.55 -14 l-3 -2.60 3 2.25 c4.10 3.10 14.15 13.60 15.95 16.75 0.85 1.45 -0.20 0.40 -2.40 -2.40z"/>
  <path d="M368.95 72.35 c0.80 -1 4.55 -4.05 4.55 -3.70 0 0.15 -1.20 1.25 -2.60 2.40 -1.45 1.20 -2.35 1.80 -1.95 1.30z"/>
  <path d="M177.50 71.05 c-0.70 -0.50 -3.05 -1.90 -5.25 -3.05 -2.20 -1.15 -3.45 -1.90 -2.75 -1.75 1.80 0.50 6.50 3.05 8.25 4.50 1.75 1.40 1.55 1.65 -0.25 0.30z"/>
  <path d="M395 69.70 c-1.40 -0.75 -1.85 -1.20 -1.25 -1.20 0.55 0 1.70 0.55 2.50 1.25 1.80 1.45 1.65 1.45 -1.25 -0.05z"/>
  <path d="M402.45 67.65 c-0.65 -0.80 -0.60 -0.85 0.15 -0.20 0.75 0.55 1.05 0.45 2.20 -0.90 1 -1.20 1.65 -1.55 2.85 -1.45 l1.60 0.05 -1.65 0.20 c-1.05 0.15 -2 0.70 -2.70 1.70 -1.25 1.70 -1.55 1.75 -2.45 0.60z"/>
  <path d="M396.75 65.40 c-2.50 -0.80 -3.90 -0.95 -8.50 -0.75 -3 0.15 -6.05 0.45 -6.70 0.65 -0.75 0.20 -1.10 0.15 -0.90 -0.15 0.15 -0.25 2.20 -0.75 4.55 -1.10 4.80 -0.75 9.85 -0.15 13.50 1.50 2.65 1.15 1.80 1.10 -1.95 -0.15z"/>
  <path d="M128.85 58.95 c0.50 -0.85 1.35 -1.90 1.85 -2.35 0.55 -0.45 0.25 0.20 -0.65 1.55 -1.80 2.65 -2.60 3.20 -1.20 0.80z"/>
  <path d="M92.60 55.35 c-1 -1.90 -1.25 -2.60 -0.60 -1.85 1 1.20 2.65 4.50 2.40 4.80 -0.10 0.05 -0.90 -1.25 -1.80 -2.95z"/>
  <path d="M119.10 55.75 c-0.85 -1.85 -0.70 -2.25 0.20 -0.60 0.45 0.80 0.70 1.55 0.55 1.65 -0.10 0.10 -0.45 -0.35 -0.75 -1.05z"/>
  <path d="M133 53.80 c0.95 -1.05 2.45 -2.35 3.25 -2.90 1.75 -1.25 1.45 -0.90 -2.25 2.40 -2.20 1.95 -2.40 2.05 -1 0.50z"/>
  <path d="M193.85 51.50 c-2.40 -1.60 -6.10 -3.60 -8.25 -4.45 -2.10 -0.80 -4.50 -1.85 -5.35 -2.30 l-1.50 -0.85 1.50 0.35 c3.45 0.70 16.95 8.05 18 9.80 0.45 0.65 0.40 0.65 -4.40 -2.55z"/>
  <path d="M116.30 51.60 l-1.50 -1.85 1.85 1.70 c1.90 1.80 2.10 2.10 1.50 2 -0.25 0 -1.05 -0.85 -1.85 -1.85z"/>
  <path d="M142 47.05 c1.60 -1.30 5.55 -2.70 5.20 -1.85 -0.20 0.45 -2.50 1.55 -5.95 2.70 -0.25 0.10 0.05 -0.30 0.75 -0.85z"/>
  <path d="M80.75 45.50 c-1.35 -0.50 -3.55 -0.95 -4.85 -0.95 -1.95 -0.05 -2.40 -0.20 -2.40 -0.95 0 -0.85 1.90 -2.90 4.25 -4.60 0.55 -0.40 -0.10 0.30 -1.45 1.55 -1.35 1.25 -2.35 2.50 -2.15 2.80 0.15 0.25 1.60 0.65 3.20 0.80 2.55 0.25 6.15 1.50 6.15 2.15 0 0.10 -0.05 0.20 -0.10 0.15 -0.10 0 -1.25 -0.45 -2.65 -0.95z"/>
  <path d="M106.80 44.75 c-0.70 -1.10 -2.40 -2.75 -5.80 -5.75 l-1.25 -1.10 1.40 0.85 c2.40 1.40 7.80 7.25 6.70 7.25 -0.10 0 -0.60 -0.55 -1.05 -1.25z"/>
  <path d="M158.15 42.15 c0.75 -0.10 1.85 -0.10 2.50 0 0.60 0.10 0 0.20 -1.40 0.20 -1.35 0 -1.90 -0.10 -1.10 -0.20z"/>
 </g>
</svg>