<?xml version="1.0" encoding="utf-8"?>
<!DOCTYPE svg PUBLIC "-//W3C//DTD SVG 1.1//EN" "http://www.w3.org/Graphics/SVG/1.1/DTD/svg11.dtd">
<svg version="1.1" xmlns="http://www.w3.org/2000/svg" width="260px" height="150px" viewBox="0 0 260 150" preserveAspectRatio="xMidYMid meet">
 <g fill="#ffffff">
  <path d="M18 141.8 c-17.7 -9.5 -10.6 -34.5 12 -42.5 l4.7 -1.7 -0.5 -6.1 c-0.4 -5.3 0 -7.1 2.3 -12.4 3 -6.6 7.4 -11.2 12.7 -13.1 3.2 -1.2 3.4 -1.5 5.5 -11 3.4 -15.9 9.2 -25.3 16.2 -26.6 2.9 -0.6 3.8 -0.3 5.8 2 2 2.3 2.3 3.8 2.3 10.6 0 6.4 -0.7 9.7 -3.6 18.1 -2 5.7 -4.6 12.4 -5.9 14.9 -4.7 9.2 -5.5 18 -1.6 18 2.6 0 8.1 -3.8 9 -6.2 0.5 -1.3 1.9 -5.9 3.1 -10.3 1.2 -4.4 2.9 -8.8 3.7 -9.7 1.8 -2 7.8 -2.4 8.8 -0.8 0.4 0.6 -0.2 4.1 -1.3 7.8 -1.2 3.7 -2.6 9.5 -3.3 12.9 -1.6 7.7 -0.7 9.3 3.9 6.9 2.3 -1.2 3.1 -2.4 3.6 -5.7 1.6 -9.8 9.2 -19.6 16.7 -21.4 2.3 -0.6 2.7 -1.3 3.3 -6 1.5 -12.8 7.9 -26.8 13.8 -29.9 14.7 -7.9 15.5 17.3 1.5 44.9 -3.8 7.7 -4.5 16.8 -1.1 17.3 1.1 0.2 3.2 -0.7 4.7 -1.8 2.2 -1.8 2.7 -2.9 2.7 -6.8 0 -5.4 2.6 -11.7 6.1 -14.9 6.9 -6.3 19.8 -5.6 27.1 1.4 l2.6 2.5 1.2 -5.9 c4.4 -22.6 12 -35.3 20.9 -35.3 2.3 0 4.8 0.8 6.2 1.9 2 1.6 2.4 2.8 2.3 7.8 0 6.6 -4.7 17.8 -12.7 30.2 -4.3 6.5 -4.4 7 -2.6 7.6 4.8 1.5 12.2 -1.7 19.4 -8.5 6.2 -5.8 11.8 -8 14.4 -5.6 1 0.9 2.5 1.6 3.3 1.6 5.3 0 5.9 2.9 3.3 16.3 -1.9 9.7 -1.2 11.4 3.2 8.7 6.5 -3.9 10.7 -16.8 10.7 -32 -0.1 -21.6 -10.2 -41.4 -22.8 -45 -2.6 -0.7 -7.4 -1.4 -10.6 -1.4 -5.2 -0.1 -7.1 0.6 -20.1 7.1 -15.2 7.7 -22.6 9.9 -29.1 8.9 -4.9 -0.8 -10.6 -3.6 -13.3 -6.6 l-2 -2.2 2.4 -1.9 c3.1 -2.5 4.1 -2.4 10 1.2 7.2 4.5 11.4 3.8 27.8 -4.4 16.6 -8.4 18.7 -9 29.2 -8.5 18 0.9 27.6 9.3 34.6 30.3 5.5 16.1 4.1 38 -3.1 50.3 -7.8 13.3 -18.3 19 -23.3 12.6 l-2 -2.6 -3.1 2.2 c-4.2 3 -10.3 3.7 -13.5 1.6 -3.7 -2.4 -5.8 -7.2 -5.1 -11.6 l0.6 -3.6 -4.8 0.9 -4.8 1 2.4 6.1 c2.9 7.1 2.6 14.5 -0.9 22.7 -5.3 12.2 -16.7 11.9 -19.8 -0.6 -1.3 -5.1 -1.4 -19 -0.1 -29 l0.8 -7 -3.6 -3.3 c-1.9 -1.7 -3.7 -3.1 -3.8 -2.9 -0.2 0.2 0.1 1.9 0.6 3.8 3.3 10.9 -5.1 24.9 -14.9 24.9 -3.7 0 -10.1 -3.2 -10.1 -5 0 -0.6 -1.8 0.1 -4 1.5 -7.2 4.5 -12.1 4.3 -16.2 -0.8 -1.5 -2 -1.8 -2 -3.5 -0.5 -5.7 5 -12.4 6.1 -16.7 2.7 l-2.7 -2.1 -4.9 2.1 c-6.6 2.8 -11.4 2.8 -13.7 -0.2 l-1.7 -2.3 -4.1 2.3 c-5.5 3.1 -9 3 -12.6 -0.7 l-3 -2.9 -4.4 2.8 c-3.1 1.9 -6.4 3 -10.7 3.5 -11.8 1.2 -21.5 8.1 -23.9 17 -1.5 5.5 -0.3 10.2 3.6 14.4 l3.4 3.7 8.3 0 c7.2 -0.1 10.1 -0.7 21.8 -4.7 18 -6.2 23.3 -7.1 38.6 -6.6 11.6 0.3 13.5 0.6 19 3.2 3.4 1.5 7.7 4.3 9.5 6.3 3.3 3.3 3.3 3.5 1.5 4.9 -2.9 2.1 -6.4 1.7 -9.8 -1.1 -7.5 -6.3 -10 -7 -26.3 -7 l-15 0 -15.5 5.4 c-13.6 4.8 -16.7 5.5 -25 5.9 -8.6 0.3 -9.9 0.1 -14 -2z m134.5 -54.8 c1.6 -3.2 2.1 -10 0.6 -10 -1.5 0 -4.4 8.6 -3.6 10.9 0.8 2.8 1.2 2.7 3 -0.9z m-101.6 -5 c0 -2.2 -0.3 -2 -1.9 1.5 -2.4 5.2 -2.4 6.6 0 3.5 1.1 -1.4 1.9 -3.6 1.9 -5z m61.6 1.3 c1 -4 -0.3 -4 -2 0 -1.9 4.5 -1.9 5.3 -0.1 3.8 0.8 -0.7 1.7 -2.3 2.1 -3.8z"/>
  <path d="M34 114.5 l0 -4.5 3.6 0 c2.8 0 3.5 0.3 3.1 1.5 -0.4 0.8 -0.2 1.7 0.2 2 0.5 0.2 1.1 -0.4 1.4 -1.5 0.8 -3.2 4.4 -2.5 5.2 1 0.4 1.7 1.1 3 1.7 3 0.6 0 0.8 -0.7 0.4 -1.5 -1.2 -3.2 0.4 -4.4 6 -4.4 3.9 0.1 5.4 0.5 5.4 1.5 0 0.8 0.5 1.4 1 1.4 0.6 0 1 -0.7 1 -1.5 0 -0.8 0.7 -1.5 1.5 -1.5 1.1 0 1.5 1.2 1.5 4.5 0 3.3 -0.4 4.5 -1.5 4.5 -0.8 0 -1.5 -0.7 -1.5 -1.5 0 -2 -1 -1.9 -2.5 0.2 -1 1.4 -1.6 1.5 -2.7 0.5 -0.8 -0.6 -1.8 -0.8 -2.2 -0.4 -0.4 0.4 -4.1 0.7 -8.2 0.8 -6.6 0 -7.4 -0.2 -6.9 -1.7 0.5 -1.4 0.1 -1.6 -1.5 -1.2 -1.1 0.3 -2 1.2 -2 1.9 0 0.8 -0.7 1.4 -1.5 1.4 -1.1 0 -1.5 -1.2 -1.5 -4.5z"/>
  <path d="M67 114.5 c0 -3.3 0.4 -4.5 1.5 -4.5 0.8 0 1.5 0.8 1.5 1.8 0.1 1.6 0.1 1.6 1.1 0 1.2 -2.1 5.9 -2.4 7.7 -0.6 0.9 0.9 1.2 0.9 1.2 0 0 -1.8 3.8 -1.4 4.9 0.6 1 1.6 1 1.6 1.1 0 0 -1 0.7 -1.8 1.5 -1.8 1.1 0 1.5 1.2 1.5 4.5 0 5.1 -1.8 6 -4.4 2.3 l-1.6 -2.2 0 2.2 c0 2.5 -1.8 3 -2.6 0.7 -0.5 -1.3 -0.8 -1.3 -2.1 0 -2.1 2.2 -4.9 1.8 -6.7 -0.7 l-1.6 -2.2 0 2.2 c0 1.3 -0.6 2.2 -1.5 2.2 -1.1 0 -1.5 -1.2 -1.5 -4.5z"/>
  <path d="M94.6 117.4 c-1.9 -1.8 -2.1 -4.5 -0.4 -6.2 1.8 -1.8 6.5 -1.5 7.7 0.6 1 1.6 1 1.6 1.1 -0.1 0 -1.5 0.7 -1.8 3.8 -1.5 3.4 0.3 3.7 0.6 4 3.5 0.4 4.1 3.2 3.4 3.2 -0.8 0 -1.9 0.5 -2.9 1.5 -2.9 1.9 0 2.1 6.3 0.3 7.7 -0.7 0.5 -3.9 1 -7 1.1 -5.4 0.2 -5.8 0.1 -5.8 -2 l0 -2.2 -1.6 2.2 c-1.8 2.6 -4.6 2.8 -6.8 0.6z"/>
  <path d="M118 114.5 l0 -4.5 3.6 0 c2.8 0 3.5 0.3 3 1.5 -0.3 0.8 -0.1 1.5 0.3 1.5 0.5 0 1.1 -0.7 1.5 -1.5 0.7 -1.8 4.7 -2 6.4 -0.3 0.9 0.9 1.2 0.9 1.2 0 0 -0.7 1.4 -1.2 3.5 -1.2 1.9 0 3.5 0.5 3.5 1.1 0 0.8 0.4 0.8 1.4 -0.1 2.7 -2.2 5.8 -0.8 6.2 2.6 0.4 3.8 -1.6 5.9 -5 5 -1.9 -0.5 -2.2 -1.1 -1.8 -3.1 0.3 -1.8 0 -2.5 -1.2 -2.5 -1.1 0 -1.6 0.9 -1.6 3 0 2 -0.5 3 -1.5 3 -1 0 -1.5 -1 -1.5 -3 0 -2.8 -0.2 -3 -4.1 -3 -2.8 0 -3.9 0.4 -3.6 1.3 0.2 0.6 1.2 1.2 2.3 1.3 3.4 0.2 3.7 0.4 2.4 1.9 -1.6 1.9 -4.4 1.9 -6.4 -0.1 -1.5 -1.4 -1.6 -1.4 -1.6 0 0 1.2 -1 1.6 -3.5 1.6 -3.5 0 -3.5 0 -3.5 -4.5z"/>
  <path d="M86.2 58.4 c-2.8 -1.9 -2.9 -6.7 -0.2 -9.4 3 -3 9.5 -2.7 11.5 0.4 4.3 6.6 -4.6 13.7 -11.3 9z"/>
  <path d="M217.4 57.3 c-6.5 -7 -11.5 -14.7 -11.2 -17.2 0.4 -3.3 5 -6.1 7.5 -4.5 2.6 1.6 10.6 20.5 9.5 22.3 -1.5 2.5 -3.1 2.4 -5.8 -0.6z"/>
 </g>
 <g fill="#000000">
  <path d="M57.2 117.8 c-0.7 -0.7 -1.2 -1.7 -1.2 -2.3 0 -0.7 -1 -1.7 -2.2 -2.3 -2.1 -1 -2.1 -1.1 -0.3 -0.9 1.1 0.1 1.9 -0.3 1.8 -0.9 -0.1 -0.6 0.4 -1.1 1.2 -1.1 0.8 0 1.4 1.6 1.7 4.4 0.2 2.4 0.3 4.3 0.3 4.3 -0.1 0 -0.6 -0.5 -1.3 -1.2z"/>
  <path d="M122.3 118.3 c0.9 -0.2 1.7 -0.8 1.7 -1.3 0 -0.5 -0.8 -1.1 -1.7 -1.3 -1.7 -0.4 -1.7 -0.5 0 -0.6 0.9 0 1.7 -0.5 1.7 -1 0 -0.5 -0.8 -1.2 -1.7 -1.4 -1.3 -0.3 -1.4 -0.5 -0.3 -0.6 2.8 -0.2 4.1 1.5 3.4 4.2 -0.4 1.9 -1.2 2.7 -2.8 2.6 -1.6 -0.1 -1.7 -0.2 -0.3 -0.6z"/>
  <path d="M79.4 115.6 c-0.3 -1.4 -0.1 -3.3 0.5 -4.3 0.8 -1.5 1 -1 1.1 2.5 0 4.7 -0.6 5.5 -1.6 1.8z"/>
  <path d="M73.2 114.3 c0.2 -1 1 -1.8 1.8 -1.8 0.8 0 1.6 0.8 1.8 1.8 0.2 1.2 -0.3 1.7 -1.8 1.7 -1.5 0 -2 -0.5 -1.8 -1.7z"/>
  <path d="M96.2 114.3 c0.2 -1 1 -1.8 1.8 -1.8 0.8 0 1.6 0.8 1.8 1.8 0.2 1.2 -0.3 1.7 -1.8 1.7 -1.5 0 -2 -0.5 -1.8 -1.7z"/>
  <path d="M179.6 113.4 c-0.8 -2.1 -0.6 -24.3 0.3 -27.4 l0.7 -2.5 1.8 3.3 c2.3 4.4 3.3 19.5 1.7 24.5 -1.3 3.8 -3.4 4.9 -4.5 2.1z"/>
  <path d="M147.6 92.4 c-4.2 -4.1 0.1 -19.6 5.6 -20.2 2.2 -0.3 2.8 0.2 3.8 3.2 1.4 4.3 0.5 11.3 -2.1 15.5 -2.1 3.4 -4.9 4 -7.3 1.5z"/>
  <path d="M209.7 93.3 c-1.2 -1.1 -0.7 -7.9 0.8 -11.6 2.9 -7 9.5 -12.6 9.5 -7.9 -0.1 3.9 -3.8 16.3 -5.5 18.2 -1.8 2 -3.6 2.5 -4.8 1.3z"/>
  <path d="M44 91 c-2 -3.7 5.4 -19 9.2 -19 0.4 0 0.8 3.5 0.8 7.9 0 6.9 -0.3 8.1 -2.5 10.5 -2.9 3.1 -6 3.4 -7.5 0.6z"/>
  <path d="M105.7 92.3 c-2.3 -2.2 2 -15.2 6.1 -18.4 l2.7 -2.1 0.8 3.9 c1.3 5.8 0.3 12.1 -2.4 14.9 -2.1 2.3 -5.8 3.2 -7.2 1.7z"/>
  <path d="M63.6 63 c0.6 -8.9 2.7 -19.8 4.4 -23.1 1.9 -3.4 4 -2.3 4 2 0 4.5 -3.9 18.5 -6.9 25.1 l-2.1 4.5 0.6 -8.5z"/>
  <path d="M125.4 61.5 c0.5 -9.6 1.5 -14.8 3.8 -20.7 1.1 -2.9 3.2 -3.7 4.1 -1.5 1.1 2.8 -2.3 17.3 -6.3 27.2 l-2.1 5 0.5 -10z"/>
  <path d="M183.6 64.5 c0.7 -5.3 4.7 -18.2 7.1 -22.8 1 -2 2 -2.7 3.6 -2.5 4.5 0.6 1.9 9.2 -7.3 23.8 l-4.1 6.5 0.7 -5z"/>
 </g>
 <g fill="#ffffff">
  <path d="M30.8 138.3 c1.2 -0.2 3 -0.2 4 0 0.9 0.3 -0.1 0.5 -2.3 0.4 -2.2 0 -3 -0.2 -1.7 -0.4z"/>
  <path d="M84.8 131.3 c2.3 -0.2 6.1 -0.2 8.5 0 2.3 0.2 0.4 0.4 -4.3 0.4 -4.7 0 -6.6 -0.2 -4.2 -0.4z"/>
  <path d="M34.8 118.3 c0.6 -0.2 1.2 -1.1 1.2 -1.9 0 -0.8 0.9 -1.4 2 -1.4 2.8 0 2.5 -2 -0.2 -2.1 -2.1 -0.1 -2.1 -0.2 -0.3 -0.6 1.1 -0.3 2.4 -1 2.8 -1.7 0.6 -0.7 0.7 -0.5 0.4 0.5 -0.3 0.9 -0.1 2.1 0.5 2.7 0.8 0.8 0.3 1.3 -1.6 1.8 -1.4 0.3 -2.6 1.2 -2.6 2 0 0.8 -0.8 1.4 -1.7 1.3 -1.1 0 -1.3 -0.3 -0.5 -0.6z"/>
  <path d="M40 118 c0 -0.4 2 -0.6 4.5 -0.4 2.6 0.1 4.3 -0.1 4 -0.7 -0.4 -0.5 -0.1 -0.9 0.5 -0.9 0.7 0 0.9 -0.9 0.5 -2.2 -0.5 -2 -0.4 -2.1 0.5 -0.5 0.6 0.9 1.8 1.7 2.5 1.7 0.8 0 1.5 0.5 1.5 1.1 0 0.6 -0.7 0.8 -1.7 0.5 -0.9 -0.4 -2 -0.1 -2.4 0.6 -0.9 1.4 -9.9 2.1 -9.9 0.8z"/>
  <path d="M57.1 117.6 c-0.8 -1 -0.9 -2.5 -0.3 -4.8 l0.9 -3.3 0.4 4.8 c0.2 2.6 0.4 4.7 0.3 4.7 -0.1 0 -0.7 -0.6 -1.3 -1.4z"/>
  <path d="M120.8 118.3 c3.5 -0.5 4.3 -1.9 1.5 -2.6 -1.7 -0.4 -1.7 -0.5 0 -0.6 0.9 0 1.7 -0.5 1.7 -1.1 0 -0.5 -0.8 -1 -1.7 -1.1 -1.4 0 -1.5 -0.2 -0.3 -0.6 0.8 -0.3 1.9 -1.1 2.3 -1.7 0.6 -0.7 0.7 -0.5 0.4 0.6 -0.3 0.9 -0.1 1.8 0.4 2 0.6 0.2 0.8 1.5 0.4 3.1 -0.6 2.4 -1.2 2.7 -4.4 2.5 l-3.6 -0.1 3.3 -0.4z"/>
  <path d="M129 118.3 c0.8 -0.2 2.2 -0.7 3 -0.9 1.3 -0.5 1.3 -0.6 0 -1.4 -0.8 -0.6 -1 -1 -0.4 -1 1.8 0 2.4 1.3 1.3 2.7 -0.6 0.7 -2.1 1.3 -3.3 1.2 -1.4 0 -1.6 -0.2 -0.6 -0.6z"/>
  <path d="M136 116.1 c0 -2 -0.6 -3.1 -1.7 -3.4 -1.4 -0.4 -1.2 -0.5 0.5 -0.6 1.8 -0.1 2.2 0.4 2.2 2.8 0 1.6 0.6 3.2 1.3 3.4 0.7 0.3 0.5 0.6 -0.5 0.6 -1.3 0.1 -1.8 -0.7 -1.8 -2.8z"/>
  <path d="M143.3 116.3 c-2.1 -0.8 -1.5 -2.2 0.7 -1.6 1.1 0.3 2 0.9 2 1.4 0 1 -0.8 1 -2.7 0.2z"/>
  <path d="M193.3 102.5 c0 -2.7 0.2 -3.8 0.4 -2.2 0.2 1.5 0.2 3.7 0 5 -0.2 1.2 -0.4 0 -0.4 -2.8z"/>
  <path d="M170.2 94 c0 -1.9 0.2 -2.7 0.5 -1.7 0.2 0.9 0.2 2.5 0 3.5 -0.3 0.9 -0.5 0.1 -0.5 -1.8z"/>
  <path d="M198.2 91 c0 -1.9 0.2 -2.7 0.5 -1.7 0.2 0.9 0.2 2.5 0 3.5 -0.3 0.9 -0.5 0.1 -0.5 -1.8z"/>
  <path d="M165.2 82 c0 -1.9 0.2 -2.7 0.5 -1.7 0.2 0.9 0.2 2.5 0 3.5 -0.3 0.9 -0.5 0.1 -0.5 -1.8z"/>
  <path d="M185 78.1 c0 -0.5 0.8 -1.5 1.8 -2.2 1.5 -1.3 1.6 -1.2 0.4 0.3 -1 1.3 -1 1.7 0 2.1 0.8 0.4 0.7 0.6 -0.4 0.6 -1 0.1 -1.8 -0.3 -1.8 -0.8z"/>
  <path d="M39 73.7 c0 -0.2 1.5 -1.6 3.3 -3.3 l3.2 -2.9 -2.9 3.3 c-2.8 3 -3.6 3.7 -3.6 2.9z"/>
  <path d="M89.3 59.3 c0.9 -0.2 2.5 -0.2 3.5 0 0.9 0.3 0.1 0.5 -1.8 0.5 -1.9 0 -2.7 -0.2 -1.7 -0.5z"/>
  <path d="M140.3 41 c0 -3.6 0.2 -5 0.4 -3.2 0.2 1.7 0.2 4.7 0 6.5 -0.2 1.7 -0.4 0.3 -0.4 -3.3z"/>
  <path d="M203.3 40.5 c0 -2.2 0.2 -3 0.4 -1.7 0.2 1.2 0.2 3 0 4 -0.3 0.9 -0.5 -0.1 -0.4 -2.3z"/>
  <path d="M184 37.7 c0 -0.2 1.5 -1.6 3.3 -3.3 l3.2 -2.9 -2.9 3.3 c-2.8 3 -3.6 3.7 -3.6 2.9z"/>
  <path d="M76 30.6 c-0.6 -0.8 -2.4 -1.7 -3.8 -1.9 l-2.7 -0.4 2.6 -0.2 c1.5 0 3.4 0.8 4.4 1.9 1 1.1 1.6 2 1.3 2 -0.3 0 -1.1 -0.6 -1.8 -1.4z"/>
  <path d="M160.8 28.3 c1.2 -0.2 3.2 -0.2 4.5 0 1.2 0.2 0.2 0.4 -2.3 0.4 -2.5 0 -3.5 -0.2 -2.2 -0.4z"/>
 </g>
</svg>