<?xml version="1.0" encoding="utf-8"?>
<!DOCTYPE svg PUBLIC "-//W3C//DTD SVG 1.1//EN" "http://www.w3.org/Graphics/SVG/1.1/DTD/svg11.dtd">
<svg version="1.1" xmlns="http://www.w3.org/2000/svg" width="472px" height="440px" viewBox="0 0 472 440" preserveAspectRatio="xMidYMid meet">
 <g fill="#000000">
  <path d="M0 393.5 c0 -44.9 0.1 -46.5 1.9 -46.5 1.4 0 2 1 2.5 4.3 0.7 4.8 5.7 16 7.7 17.2 0.9 0.6 1 0.3 0.4 -1.1 -0.5 -1 -1.1 -10.5 -1.3 -21.1 -0.3 -17.5 0.2 -24.7 2.4 -30.8 0.5 -1.5 0.2 -1.3 -1.5 0.7 -2.9 3.6 -7 12.5 -7.7 17.1 -0.5 2.7 -1.1 3.7 -2.5 3.7 -1.8 0 -1.9 -4.5 -1.9 -168.5 l0 -168.5 66 0 c63 0 66 0.1 66 1.8 0 1.3 -1.3 2.2 -4.9 3.1 -2.7 0.7 -5.7 1.9 -6.8 2.7 -1.5 1.1 -1.1 1.1 2.6 -0.1 2.7 -0.9 8.1 -1.5 14.2 -1.5 l9.9 0 0 3.6 c0 2.3 -0.7 4.2 -1.7 5.1 -1.2 1 -0.8 0.9 1 -0.2 1.6 -0.9 4.3 -1.5 6.5 -1.3 l3.7 0.3 0.3 5.7 c0.2 4.1 -0.3 7.1 -1.7 10.3 -1.1 2.5 -1.8 4.5 -1.6 4.5 1.2 0 5.3 -10 5.9 -14.2 0.7 -4.4 0.9 -4.7 3.9 -5 l3.2 -0.3 -4.4 -2.8 c-5.2 -3.4 -16.1 -7.7 -19.6 -7.7 -1.8 0 -2.5 -0.5 -2.5 -2 0 -2 0.7 -2 166 -2 l166 0 0 128.5 0 128.5 -44 0 -44 0 0 -3.4 c0 -2.9 0.4 -3.5 2.7 -4.1 5.3 -1.3 16.8 -7.2 19.3 -9.9 l2.5 -2.8 0.3 -23.9 0.3 -23.9 3.3 0 c3 0 3.4 0.4 5.6 5.8 3 7.4 10.4 22.1 12.4 24.7 1.5 1.9 1.5 1.8 1.6 -1.7 0 -3.6 0.1 -3.7 4.4 -4.3 5.9 -0.9 10.5 0.2 14.1 3.4 l3 2.6 -2.5 -2.9 c-4 -4.5 -8 -5.8 -16.5 -5 l-7.3 0.7 -2.2 -4.3 c-1.2 -2.4 -4.6 -10.6 -7.6 -18.4 -6.3 -16.1 -19.1 -42.6 -22.8 -47.1 l-2.5 -3 -0.1 3.8 c0 3.2 -0.3 3.7 -2.2 3.7 -4.7 0 -20.5 -3 -26.1 -4.9 -3.2 -1.1 -5.5 -1.6 -5.2 -1.1 1.1 1.7 14.3 5.4 27 7.4 l13 2.2 3.7 6.9 3.7 7 -0.2 37.4 -0.2 37.4 -2.5 1.9 c-3.7 2.7 -38.9 15.8 -42.7 15.8 -2.7 0 -3.4 -0.6 -5.2 -4.4 -4.4 -9.1 -3.4 -20.3 2.1 -22.6 1.3 -0.5 7.7 -2.1 14.3 -3.5 6.6 -1.4 12.1 -2.8 12.3 -3 0.9 -0.9 -2.2 -20.3 -3.6 -22.9 -3.2 -5.5 -5.8 -6.5 -20.2 -8.1 -30 -3.3 -44.2 -7.2 -58.5 -16 -9.8 -6 -19.3 -9.5 -26 -9.5 -7.2 0 -19.9 2.8 -38.4 8.6 -20.6 6.4 -30.9 8.4 -43.7 8.4 l-9.3 0 -1.7 7.8 c-1.9 8.5 -2.3 19.8 -1 30.9 0.8 6.4 1.1 7 2.6 6.1 1.5 -1 1.5 -1.5 0.2 -5.2 -1.1 -3.1 -1.3 -7.4 -0.9 -18.1 0.3 -7.7 0.8 -14.9 1.2 -16.1 0.6 -1.9 1.7 -2.2 10.3 -2.8 12 -0.8 22.6 -3.1 41.2 -9.1 8 -2.5 16.8 -4.9 19.5 -5.2 4.8 -0.5 5.1 -0.4 6.5 2.3 l1.5 2.9 0.3 -3.6 0.3 -3.6 6.5 -0.7 c7.3 -0.7 16.3 0.6 22.7 3.3 4 1.7 4.5 2.5 11.6 17 7.3 15.1 9.1 21.1 7.7 26.7 -0.4 1.5 -3.5 5.7 -6.9 9.3 -4.9 5.2 -5.1 5.7 -1.3 2.1 7.2 -6.7 10.6 -11.7 10.6 -15.8 0 -2 -1.8 -7.4 -4.5 -13 -2.5 -5.2 -4.5 -10.8 -4.5 -12.3 0 -2.6 0.4 -2.9 3.1 -2.9 1.8 0 7 1.3 11.8 3 10 3.4 25.6 6.3 42.8 8.1 9.4 0.9 12.6 1.6 13.9 3 1.6 1.8 3.3 11.8 3.4 20 l0 4.5 -10.5 2.3 c-12.3 2.8 -15.7 4.6 -18.5 10 -2.4 4.8 -2.5 7.9 -0.5 12.8 0.8 1.9 1.5 4.8 1.5 6.4 l0 2.9 -35 0 -35 0 0 -3.2 0 -3.2 -3.3 3.2 -3.3 3.2 -22.7 0 -22.7 0 0 -8.6 c0 -4.7 0.5 -9.4 1 -10.5 0.6 -1 0.8 -1.9 0.5 -1.9 -1.7 0 -4.5 9.1 -4.5 14.8 l0 6.2 -32 0 -32 0 0 -3.4 c0 -3.1 0.3 -3.4 3.9 -4 7.3 -1.1 13.1 -8.7 11.9 -15.6 l-0.4 -2.5 -1.2 2.8 c-0.7 1.6 -1.2 4.3 -1.2 6.1 0 5.3 -2.7 6.9 -12.6 7.4 -7.9 0.4 -8.7 0.7 -11.7 3.7 -4.3 4.3 -15.4 6.8 -22.4 4.9 -4.5 -1.2 -5.8 -19.9 -1.7 -24.5 2.6 -2.9 7.5 -4.9 12.1 -4.9 3 0 9.2 -2.5 10.5 -4.2 0.1 -0.2 0.4 -11.4 0.7 -25 l0.6 -24.7 -2.4 3.1 c-3.3 4.1 -9.4 6.8 -15.8 6.8 l-5.3 0 0 -10.5 0 -10.5 -3.7 2.4 c-4.6 2.9 -11 4.9 -14.3 4.4 -2.2 -0.3 -2.6 -0.9 -3 -5.3 l-0.5 -5 -25.7 -6.6 -25.7 -6.7 -7.3 1.9 c-4 1 -9.4 1.9 -12 1.9 -4.3 0 -4.9 -0.3 -6.4 -3.2 -1 -1.8 -2 -6.2 -2.4 -9.8 -0.6 -6.1 -0.7 -6.3 -1.8 -3.7 -0.9 2.2 -0.9 3.6 0.5 7 0.9 2.3 1.6 6.2 1.7 8.6 l0.1 4.4 -12 3.1 -12 3.2 -0.3 58.2 -0.2 58.2 234 0 234 0 0 82.5 0 82.5 -236 0 -236 0 0 -46.5z m87 -51 l0 -36.5 -3.5 0 -3.5 0 0 36.5 0 36.5 3.5 0 3.5 0 0 -36.5z m34 32.3 c-0.1 -3.7 -0.2 -4 -1.2 -2.3 -0.6 1.1 -2 3 -3.1 4.3 l-2 2.2 3.1 0 c3.1 0 3.2 -0.1 3.2 -4.2z m98 -32.3 l0 -36.5 -3 0 -3 0 0 36.5 0 36.5 3 0 3 0 0 -36.5z m34 32.8 c0 -2 -0.1 -3.4 -0.2 -3.2 -0.2 0.2 -1.6 1.9 -3.2 3.7 l-3 3.2 3.2 0 c3 0 3.2 -0.2 3.2 -3.7z m27 -32.8 l0 -36.5 -3 0 -3 0 0 36.5 0 36.5 3 0 3 0 0 -36.5z m102.5 34.8 c-0.3 -1 -6.6 -17.5 -13.8 -36.6 l-13.1 -34.8 -2.1 5.8 -2 5.8 2 0.3 c1.6 0.2 2.7 2 4.7 8 6.1 18.1 9.4 27.4 13.5 38 2.3 6.2 4.3 12.1 4.3 13.2 0 1.6 0.7 2 3.6 2 3 0 3.5 -0.3 2.9 -1.7z m22.5 -34.8 l0 -36.5 -3.5 0 -3.5 0 0 36.5 0 36.5 3.5 0 3.5 0 0 -36.5z m28 31.8 l0 -4.8 -1.5 3 c-0.9 1.7 -2.5 3.8 -3.6 4.8 -2.1 1.7 -2.1 1.7 1.5 1.7 l3.6 0 0 -4.7z m25 -31.8 l0 -36.5 -3 0 -3 0 0 19.3 c0 10.5 0.3 27 0.7 36.5 0.6 17.2 0.6 17.2 3 17.2 l2.3 0 0 -36.5z m-141.2 23.8 c-0.5 -11.3 -1.7 -15.4 -5.2 -17.6 l-2.1 -1.4 0.7 11.6 c0.3 6.4 0.7 11.9 0.7 12.2 0.2 1.3 4.3 5.9 5.3 5.9 0.7 0 0.9 -3.6 0.6 -10.7z m-260.8 -6.8 l0 -15.5 -3.5 0 -3.5 0 0 14 c0 13 0.1 14 1.9 14 1 0 2.4 0.7 3.1 1.5 0.7 0.8 1.4 1.5 1.6 1.5 0.2 0 0.4 -7 0.4 -15.5z m131 6.6 c0 -5.4 -0.2 -6 -2.2 -6.3 -1.6 -0.2 -7 -7.5 -20.2 -27 -10 -14.7 -18.7 -26.7 -19.5 -26.8 -0.8 0 -1.1 0.6 -0.7 1.6 0.3 0.9 0.6 3.8 0.6 6.5 0 4.5 0.2 4.9 2.4 4.9 2.1 0 5.3 4.1 20.8 26.5 10.1 14.5 18.4 26.4 18.6 26.5 0.1 0 0.2 -2.7 0.2 -5.9z m-81 -24.6 l0 -3.6 -2.3 1.8 -2.4 1.7 2.1 1.8 c2.7 2.3 2.6 2.3 2.6 -1.7z m132 0 c0 -2.3 -0.2 -2.5 -2.2 -1.4 -2.1 1.1 -2.1 1.2 -0.3 2.5 2.5 1.8 2.5 1.8 2.5 -1.1z m80.4 -16 c2 -5.7 -0.6 -12.9 -5.5 -15.6 -2 -1 -2.1 -0.9 -1.5 1.2 1.4 4.6 1.8 16.4 0.7 20.4 l-1.1 3.9 3.1 -3 c1.7 -1.7 3.6 -4.8 4.3 -6.9z m-263.4 -13.2 c0 -3.4 -0.1 -3.6 -1.6 -2.1 -1.3 1.3 -1.4 1.9 -0.2 3.7 0.7 1.1 1.4 2.1 1.5 2.1 0.2 0 0.3 -1.7 0.3 -3.7z m198 -2.8 c0 -3.2 -0.2 -3.5 -3.1 -3.5 l-3.1 0 2.9 3.4 c1.5 1.9 2.9 3.5 3.1 3.5 0.1 0.1 0.2 -1.5 0.2 -3.4z m-133 -0.5 c0 -2.6 -0.4 -3 -2.6 -3 l-2.6 0 2.4 2.9 c1.3 1.7 2.4 3 2.6 3 0.1 0.1 0.2 -1.2 0.2 -2.9z m170.5 -66 c3.8 -3.8 6.7 -7 6.4 -7 -0.2 0 -3.6 3.2 -7.4 7 -3.8 3.9 -6.7 7 -6.4 7 0.2 0 3.6 -3.1 7.4 -7z m172.1 -8.2 c0.3 -0.4 -0.7 -2.3 -2.3 -4.2 l-2.8 -3.6 -0.3 3.6 -0.3 3.7 -5.7 -0.7 c-3.1 -0.4 -7.2 -1.6 -9 -2.6 -1.8 -1.1 -3 -1.5 -2.6 -0.9 0.3 0.6 3 2.2 5.8 3.5 4 2 6.3 2.4 10.8 2.1 3.2 -0.2 6 -0.6 6.4 -0.9z m-191.1 -6 c3.6 -3.8 3.9 -4.2 1 -1.5 -4.7 4.2 -5.4 4.3 -18.2 2 -8.8 -1.5 -9.5 -1.5 -13.3 0.2 -5.7 2.6 -5.9 3.5 -0.3 1.7 4.2 -1.4 5.4 -1.4 15.2 0.5 5.8 1.1 10.6 2.1 10.6 2.2 0.1 0 2.3 -2.3 5 -5.1z m184 -5.8 c-0.9 -1.6 -1.8 -3 -2.1 -3 -0.2 0 0.2 1.4 1.1 3 0.9 1.7 1.8 3 2.1 3 0.2 0 -0.2 -1.3 -1.1 -3z m-173.5 -6.2 c2.3 -3.8 2.5 -6.7 0.7 -9.1 -1 -1.5 -1.2 -1.1 -0.9 2.8 0.3 3 -0.1 5.4 -1.2 7 -0.9 1.4 -1.4 2.5 -1.1 2.5 0.3 0 1.4 -1.5 2.5 -3.2z m-12.2 -30.6 c-3.4 -5.7 -6.3 -9.4 -3.7 -4.7 3.2 5.7 5.1 8.5 5.6 8.5 0.2 0 -0.6 -1.7 -1.9 -3.8z m-114 -18.6 c1.5 -3.3 2.6 -4.4 4.8 -4.9 1.6 -0.3 3.8 -1.3 4.9 -2.2 1.1 -0.9 1.4 -1.4 0.8 -1 -0.7 0.3 -3.1 0.9 -5.4 1.3 -3.8 0.7 -4.2 1.1 -6 5.7 -2.1 5.5 -2.1 5.5 -1.4 5.5 0.2 0 1.3 -2 2.3 -4.4z m18.8 -19.3 c0.4 -2.4 0.1 -4.6 -1 -6.9 -1.9 -4.1 -2.1 -8.5 -0.3 -10.3 1 -1.2 0.8 -1.3 -0.8 -0.7 -1.1 0.4 -3.2 1 -4.6 1.3 l-2.5 0.5 3.3 3.3 c3.1 3.1 3.3 3.7 3.3 10.7 0 4.1 -0.3 7.8 -0.7 8.4 -0.5 0.5 0 0.1 0.9 -0.9 1 -1 2 -3.4 2.4 -5.4z m177.4 -11.6 c0 -0.1 -2.4 -2.5 -5.2 -5.2 l-5.3 -5 5 5.3 c4.6 4.8 5.5 5.7 5.5 4.9z m-267.7 -12.7 c0.9 -1.2 0.9 -1.3 -0.3 -0.2 -0.8 0.6 -2.9 1.2 -4.7 1.2 l-3.4 0 3.3 4.1 3.3 4.1 0.3 -3.8 c0.2 -2.1 0.9 -4.6 1.5 -5.4z m97.4 0.8 c6.5 -6.8 8.9 -16.1 5.9 -23.3 -1.9 -4.4 -2.8 -4.5 -1.5 -0.3 2.6 9.2 0.4 17.7 -6.3 24.1 -2.7 2.7 -4.1 4.4 -3.1 3.9 1 -0.6 3.2 -2.5 5 -4.4z m-142.2 -0.5 c4.7 -0.5 5.8 -1 6.5 -2.9 1.2 -3.1 4 -4.4 9.3 -4.4 5.5 0 11.9 2.2 16.6 5.7 2.9 2.2 3.2 2.2 1.7 0.5 -2.8 -3.2 -13.4 -8.2 -17.3 -8.2 -3.9 0 -8 1.9 -10.7 4.9 -1.1 1.2 -3 2.1 -4.3 2.1 -3.1 0 -8.8 2.4 -9.9 4.1 -0.6 1.2 -0.5 1.2 0.8 0.1 0.9 -0.7 4.2 -1.6 7.3 -1.9z m49.6 -7.8 l1 -2 -1.6 2 c-0.9 1.1 -2.1 2.9 -2.6 4 l-1 2 1.6 -2 c0.9 -1.1 2.1 -2.9 2.6 -4z m248.5 3.3 c-0.9 -1.2 -1.6 -3.7 -1.6 -5.5 l0 -3.3 5.3 0 c6.8 0 18.9 3.1 25.6 6.5 2.8 1.4 5.1 2.3 5.1 2 0 -0.4 -3.7 -2.4 -8.2 -4.5 -13.1 -6.1 -18.7 -6.9 -72.3 -10.5 -12.6 -0.9 -24.7 -1.8 -26.7 -2.1 l-3.8 -0.6 0 -8.4 0 -8.4 35.3 0 c19.3 0 38.3 -0.5 42.2 -1 6.1 -0.9 17.5 -5 17.5 -6.4 0 -0.3 -2.1 0.5 -4.7 1.7 -4.6 2.1 -6.3 2.2 -37 2.5 l-32.3 0.3 0 -3.6 0 -3.6 -2.7 1.9 c-5.7 3.9 -9.4 4.5 -30.2 5.1 -15 0.4 -20.5 0.9 -20.9 1.9 -0.3 0.9 3.1 1.2 14.6 1.2 12.7 0 15.1 0.2 15.6 1.6 1.1 2.9 0.6 12.9 -0.8 15.7 l-1.5 2.7 6.7 0 c3.7 0 14.1 0.7 23.2 1.5 9.1 0.7 22.7 1.7 30.3 2.1 l13.7 0.7 3.9 6.3 c2.2 3.5 4.3 6.4 4.6 6.4 0.3 0 -0.1 -1 -0.9 -2.2z m-243 -12 c0.4 -1.5 1.8 -1.8 8.9 -1.8 14.6 0 26.6 -5.5 32.7 -14.9 3.2 -5 3.2 -4.6 1.2 -24.9 -0.8 -7.8 0.8 -10.2 6.9 -10.2 l4 0 -0.7 -3.8 c-0.3 -2 -0.6 -5.6 -0.6 -7.9 0 -3.3 -0.3 -4.1 -1.5 -3.7 -1.1 0.5 -1.3 1.8 -0.9 6.3 l0.6 5.8 -3.5 2.1 c-6.3 3.7 -7.3 6.1 -5.9 15.6 2.4 16.4 1.1 21.5 -6.7 27.2 -6.6 4.8 -14.7 6.7 -26.4 6.3 l-9.7 -0.4 0 2.8 c0 1.5 -0.7 4 -1.6 5.5 l-1.6 2.7 2.1 -2.5 c1.1 -1.4 2.3 -3.3 2.7 -4.2z m153.7 1.9 c2.6 -1.1 2.1 -1.2 -4.7 -1.2 -4.2 0 -7.6 0.1 -7.6 0.2 0 0.4 6.4 2.1 8 2.2 0.8 0 2.8 -0.5 4.3 -1.2z m-69.3 -18.2 c-2.2 -2.7 -0.5 -10.4 13 -57.6 0.6 -2 2.2 -5.4 3.6 -7.5 2.1 -3 2.2 -3.5 0.6 -2.1 -1.1 1 -3.1 4.3 -4.4 7.3 -2.2 5 -2.5 5.4 -5.9 5.4 -3.3 0 -3.7 -0.3 -6.4 -6 -1.6 -3.4 -3.5 -6.6 -4.2 -7.1 -0.6 -0.6 0.1 1.4 1.7 4.3 7.8 14.4 7.9 28.6 0.2 52.5 l-2.9 9 2.6 1.5 c3.4 2.1 3.6 2.1 2.1 0.3z m-59.9 -13.7 c-0.9 -2 -1 -1.8 -1 1.7 0 3.1 0.2 3.6 0.9 2.3 0.6 -1 0.7 -2.5 0.1 -4z m-24.6 2.8 c4.3 -1.8 4.6 -2.9 0.5 -1.4 -1.7 0.5 -4.4 0.8 -6 0.6 -1.7 -0.3 -3 -0.3 -3 -0.1 0 0.3 3.6 2 4.8 2.2 0.1 0.1 1.8 -0.6 3.7 -1.3z m-8.4 -11.2 c0.6 -0.7 0.2 -1.7 -1.1 -2.9 -2 -1.8 -2.8 -8.1 -1.2 -10.1 0.4 -0.5 -0.1 -0.1 -1.1 1 -1.3 1.4 -1.7 2.7 -1.1 4.6 0.3 1.4 0.8 5.1 0.9 8.2 0.4 7.1 1.9 9.9 2.3 4.3 0.2 -2.2 0.8 -4.5 1.3 -5.1z m275.5 3.4 l2.9 -3.3 -3.2 2.9 c-3.1 2.8 -3.8 3.6 -3 3.6 0.2 0 1.6 -1.5 3.3 -3.2z m-247.5 -1.2 c-2.4 -1.3 -5.7 -1.1 -6.7 0.5 -0.3 0.5 1.6 0.9 4.3 0.9 4.5 -0.1 4.7 -0.1 2.4 -1.4z m253.9 -7.5 c1 -2.6 1.8 -2.9 7.2 -3.5 6 -0.7 16.3 -4 17.2 -5.5 0.3 -0.4 -1.8 0 -4.7 1 -4.6 1.6 -9 1.8 -35.9 1.9 l-30.8 0 0 -3.2 c0 -2.1 1 -4.3 2.7 -6.2 2 -2.2 1.7 -2 -1.2 0.6 -2.2 2 -6.2 4.7 -9 6 -4.8 2.2 -6.2 2.3 -38.4 2.8 -25.5 0.4 -33.5 0.8 -33.9 1.8 -0.3 0.9 4.9 1.2 23.7 1.2 l24 0 0.3 3.3 0.3 3.2 1.8 -3.2 1.8 -3.3 36 0 36.1 0 -0.4 3.9 c-0.4 4.5 1.1 4.1 3.2 -0.8z m-273.2 -19.1 c2 0 2.2 -0.5 2.2 -5.2 l0 -5.3 -2 3 c-1.1 1.7 -2 3.3 -2 3.8 0 0.4 -1.1 2.6 -2.5 5 -2.4 3.9 -2.5 4 -0.3 1.5 1.3 -1.6 3.4 -2.8 4.6 -2.8z m235.8 -6.2 c0.5 -1.7 3.2 -1.8 36.9 -1.8 l36.4 0 0.3 3.3 0.3 3.2 1.7 -3.1 c1.6 -2.9 2.2 -3.2 8.9 -3.8 7.4 -0.8 16 -3.4 19.5 -6.1 1 -0.8 -0.3 -0.5 -3.1 0.8 -4.8 2.1 -6.3 2.2 -37.4 2.5 l-32.3 0.3 0.4 -3.9 0.3 -3.9 -3 2.2 c-6.8 5.2 -10.1 5.5 -60.6 5.5 -40.6 0 -46.8 0.2 -47.3 1.5 -0.5 1.3 4.1 1.5 37.5 1.5 l38.1 0 -0.4 4 c-0.4 4.1 -0.4 4.1 1.4 1.8 1 -1.3 2 -3.1 2.4 -4z m-224.1 -10.4 c2.7 -0.8 8.3 -1.4 12.5 -1.4 5.4 0 8.2 -0.4 9.6 -1.6 1.7 -1.4 1 -1.5 -9.3 -1 l-11.3 0.6 0 -3.3 c0 -1.8 0.6 -3.9 1.3 -4.7 1 -1.2 0.9 -1.2 -0.6 -0.1 -0.9 0.8 -3.4 4.1 -5.4 7.5 -2 3.3 -4.3 7 -5.2 8.1 -1.2 1.5 -1 1.5 1 -0.3 1.5 -1.3 4.8 -3 7.4 -3.8z m335.1 -3.6 l2.9 -3.3 -3.2 2.9 c-3.1 2.8 -3.8 3.6 -3 3.6 0.2 0 1.6 -1.5 3.3 -3.2z m-71 -7.3 l1.9 -3.5 35.7 0 35.7 0 0.3 3.8 0.3 3.7 2.8 -4.6 c1.5 -2.5 2.7 -4.9 2.7 -5.3 0 -0.3 -52.8 -0.5 -117.2 -0.4 l-117.3 0.3 -6.2 2.9 c-3.5 1.6 -6.8 3.5 -7.4 4.2 -0.6 0.8 1.1 0.2 3.7 -1.4 l4.9 -2.7 78.8 -0.3 78.7 -0.2 0 3.1 c0 1.8 -0.8 4.2 -1.7 5.3 -1.8 2.1 -1.8 2.1 0.3 0.3 1.2 -1 3 -3.3 4 -5.2z m-196.6 4.2 c0 -0.2 -1.7 -1.9 -3.7 -3.8 l-3.8 -3.4 3.4 3.8 c3.3 3.4 4.1 4.2 4.1 3.4z"/>
  <path d="M14 253.7 l0 -3.2 20.3 -5.3 c11.1 -2.9 20.9 -5.2 21.7 -5.2 0.8 0 10.6 2.3 21.8 5.2 l20.2 5.3 0 3.2 0 3.3 -42 0 -42 0 0 -3.3z"/>
  <path d="M108 214.6 l0 -42.5 5.4 -1.5 c3 -0.9 7.3 -1.6 9.6 -1.6 l4.3 0 -0.7 6.3 c-0.4 3.4 -1 7.4 -1.3 8.8 l-0.5 2.6 6.6 -0.8 c3.6 -0.5 7.5 -1.3 8.5 -1.9 1.1 -0.5 3.8 -1 6.1 -1 l4 0 -0.2 20.2 -0.3 20.2 -6.5 1.1 c-7.2 1.2 -11.4 3.1 -14.7 6.7 -3.7 4 -4.5 7.6 -3.8 17.1 l0.7 8.7 -8.6 0 -8.6 0 0 -42.4z"/>
  <path d="M6.2 204.3 l0.3 -44.6 22.5 -5.8 c12.4 -3.3 24.5 -5.9 27 -5.9 2.5 0 14.6 2.6 27 5.9 l22.5 5.8 0.3 44.6 0.2 44.7 -3.6 0 c-2 0 -13.3 -2.5 -25 -5.5 l-21.4 -5.6 -21.4 5.6 c-11.7 3 -23 5.5 -25 5.5 l-3.6 0 0.2 -44.7z m28.8 14.2 c12.6 -3.4 13 -3.5 13 -4.4 0 -0.8 -23.4 5 -24.6 6.2 -1.3 1.2 1.8 0.8 11.6 -1.8z m53.6 1.8 c-1.2 -1.2 -24.6 -7 -24.6 -6.2 0 0.8 1.2 1.2 15 4.9 7 2 10.8 2.4 9.6 1.3z m-50.8 -22.9 c5.6 -1.5 10.2 -3.1 10.2 -3.7 0 -0.5 -0.6 -0.7 -1.2 -0.5 -0.7 0.3 -6.4 1.8 -12.5 3.4 -6.2 1.6 -11.3 3.3 -11.3 3.8 0 0.4 1 0.6 2.3 0.2 1.2 -0.3 6.8 -1.8 12.5 -3.2z m51.2 2.8 c0 -0.4 -5.1 -2 -11.2 -3.6 -6.2 -1.6 -11.9 -3.1 -12.5 -3.4 -0.7 -0.2 -1.3 0 -1.3 0.5 0 0.6 5.1 2.4 11.3 4 12.3 3.4 13.7 3.7 13.7 2.5z m-52.1 -22.9 c11.2 -2.7 11.8 -3 10.9 -3.9 -0.9 -0.8 -24.8 5.7 -24.8 6.8 0 0.6 0.8 0.7 1.7 0.4 0.9 -0.4 6.4 -1.9 12.2 -3.3z m52.1 2.8 c0 -1 -23.9 -7.5 -24.8 -6.7 -0.9 0.9 -0.4 1.1 11.8 4.3 13.9 3.7 13 3.5 13 2.4z"/>
 </g>
 <g fill="#ffffff">
  <path d="M169.3 439 c-3.3 -1.4 -4.6 -4.8 -4.6 -12.3 0 -8.8 2.1 -12.1 8.1 -12.5 5.6 -0.4 8.2 2.2 8.2 8.3 l0 4.5 -6 0 -6 0 0 3.4 c0 2.4 0.7 3.9 2.2 5 2.6 1.8 5.8 0.5 5.8 -2.4 0 -1.3 0.7 -2 2 -2 2.5 0 2.7 3 0.3 5.9 -2.1 2.4 -6.8 3.5 -10 2.1z m7.7 -17.3 c0 -4.5 -5 -6.5 -7 -2.8 -2 3.8 -1.3 5.1 3 5.1 3.5 0 4 -0.3 4 -2.3z"/>
  <path d="M187.2 438.4 c-1.7 -1.2 -2.2 -2.5 -2.2 -5.8 0 -5 1 -6.2 7.1 -7.9 3.9 -1.1 4.4 -1.6 4.4 -4.2 0 -2.7 -0.3 -3 -3 -3 -2.2 0 -3.3 0.6 -4 2.3 -1.2 2.8 -4.5 3 -4.5 0.2 0 -3.5 3.5 -6 8.3 -6 6.6 0 7.7 1.8 7.7 12.8 0 5.5 0.4 9.2 1 9.2 0.6 0 1 0.7 1 1.5 0 1.7 -4.5 2.1 -5.5 0.5 -0.4 -0.7 -1.4 -0.5 -2.8 0.5 -2.7 1.9 -4.7 1.9 -7.5 -0.1z m7.8 -3.2 c1.6 -1.3 2.1 -2.6 1.8 -5.4 l-0.3 -3.6 -3.5 1.7 c-3.8 1.7 -5.1 5.1 -3 7.7 1.6 1.8 2.3 1.8 5 -0.4z"/>
  <path d="M251.5 438.9 c-2.6 -1.6 -3.5 -2.9 -3.5 -5.6 0 -1.6 0.6 -2.3 2 -2.3 1.3 0 2 0.7 2 2 0 2.7 3.4 4.4 6.1 3 3.3 -1.8 2 -5.2 -2.9 -7.7 -6.1 -3.1 -7.2 -4.2 -7.2 -7.4 0 -4.2 3.2 -6.9 7.9 -6.9 4.5 0 7.1 2 7.1 5.6 0 3.2 -2.8 3.2 -4 -0.1 -1.1 -2.9 -4.1 -3.3 -6.1 -0.9 -1.8 2.2 -0.1 4.4 4.7 6.1 2.1 0.7 4.5 2.1 5.2 3 1.7 2.4 1.5 6.7 -0.5 9.2 -2.1 2.6 -8 3.6 -10.8 2z"/>
  <path d="M282.2 438.4 c-1.6 -1.1 -2.2 -2.5 -2.2 -5.2 0 -5.1 1.1 -6.4 6.7 -8.3 4.3 -1.4 4.8 -1.9 4.8 -4.5 0 -2.4 -0.5 -3 -2.7 -3.2 -2.2 -0.3 -3 0.2 -4 2.2 -0.6 1.5 -1.9 2.6 -3.1 2.6 -1.6 0 -1.8 -0.5 -1.3 -2.7 1 -3.8 3.2 -5.3 8.2 -5.3 6.5 0 7.4 1.5 7.4 12.6 0 5.6 0.4 9.4 1 9.4 0.6 0 1 0.7 1 1.5 0 0.9 -0.9 1.5 -2.5 1.5 -1.4 0 -2.5 -0.5 -2.5 -1 0 -0.6 -1.3 -0.4 -3 0.5 -3.7 1.9 -5 1.9 -7.8 -0.1z m9.6 -8.3 l0.3 -4.1 -2.8 1.2 c-4.3 1.8 -5.3 2.8 -5.3 5.4 0 3.1 2.9 4.7 5.5 3 1.4 -0.9 2.1 -2.7 2.3 -5.5z"/>
  <path d="M317.2 439 c-3.1 -1.3 -4.2 -4.8 -4.2 -13.1 0 -6.1 0.3 -7.3 2.5 -9.4 2.6 -2.7 7.2 -3.3 10.5 -1.5 1.8 1 4 6.5 4 10.3 0 1.4 -1 1.7 -6.5 1.7 l-6.5 0 0 3.4 c0 6.1 6 8.3 8.1 3 1 -2.9 3.9 -3.2 3.9 -0.5 0 4.7 -6.7 8.2 -11.8 6.1z m8.2 -17.2 c-1.5 -5 -5.4 -6.5 -7.4 -2.9 -2.1 4 -1.3 5.1 3.6 5.1 4.2 0 4.5 -0.1 3.8 -2.2z"/>
  <path d="M141 422.5 l0 -16.5 6.9 0 c9 0 12.1 2.2 12.1 8.4 0 2.3 -0.6 5.1 -1.4 6.1 -1.2 1.7 -1.2 2.2 0 3.9 0.8 1.1 1.4 4 1.4 6.4 0 2.4 0.5 5.2 1.1 6.3 0.9 1.9 0.8 2 -1.8 1.7 -2.6 -0.3 -2.8 -0.6 -3.3 -6.1 -0.6 -6.7 -2.6 -9 -7.5 -8.5 -3 0.3 -3 0.3 -3.3 7.6 -0.3 6.4 -0.5 7.2 -2.2 7.2 -1.9 0 -2 -0.8 -2 -16.5z m13.2 -3.2 c2 -1.8 2.4 -6.3 0.6 -8.1 -0.7 -0.7 -3.1 -1.2 -5.5 -1.2 l-4.3 0 0 5.5 0 5.5 3.7 0 c2 0 4.5 -0.7 5.5 -1.7z"/>
  <path d="M206 422.5 c0 -15.8 0.1 -16.5 2 -16.5 1.9 0 2 0.7 2 16.5 0 15.8 -0.1 16.5 -2 16.5 -1.9 0 -2 -0.7 -2 -16.5z"/>
  <path d="M227 422.5 l0 -16.5 8.5 0 c7.8 0 8.5 0.2 8.5 2 0 1.8 -0.7 2 -6.5 2 l-6.5 0 0 5 0 5 6 0 c5.3 0 6 0.2 6 2 0 1.8 -0.7 2 -6 2 l-6 0 0 5.5 0 5.5 7 0 c6.3 0 7 0.2 7 2 0 1.9 -0.7 2 -9 2 l-9 0 0 -16.5z"/>
  <path d="M270 437.1 c-0.5 -1.1 -1 -6 -1 -11 0 -7.4 -0.3 -9.1 -1.5 -9.1 -0.8 0 -1.5 -0.7 -1.5 -1.5 0 -0.8 0.7 -1.5 1.5 -1.5 1 0 1.5 -1.1 1.5 -3.5 0 -2.8 0.4 -3.5 2 -3.5 1.6 0 2 0.7 2 3.5 0 3.1 0.3 3.5 2.5 3.5 3.2 0 3.4 2.7 0.3 3.2 -2.1 0.3 -2.3 0.9 -2.6 7.3 -0.4 8.2 0.3 11.5 2.3 11.5 0.8 0 1.5 0.7 1.5 1.5 0 2.3 -5.7 2 -7 -0.4z"/>
  <path d="M303.7 438.3 c-0.4 -0.3 -0.7 -5.1 -0.7 -10.6 0 -9 -0.2 -9.9 -2 -10.4 -1.1 -0.3 -2 -1.2 -2 -1.9 0 -0.8 0.9 -1.4 2 -1.4 1.6 0 2 -0.7 2 -3.5 0 -2.4 0.5 -3.5 1.5 -3.5 1 0 1.5 1.1 1.5 3.5 0 3.1 0.3 3.5 2.5 3.5 3.2 0 3.4 2.7 0.3 3.2 -2.1 0.3 -2.3 1 -2.6 6.3 -0.5 8.6 0.4 12.5 2.8 12.5 1.1 0 2 0.7 2 1.5 0 1 -1 1.5 -3.3 1.5 -1.9 0 -3.7 -0.3 -4 -0.7z"/>
  <path d="M24.3 382 c-4.8 -1.1 -11.7 -5.5 -14.5 -9.2 -16.5 -21.6 -11.1 -58.7 9.9 -68 8.7 -3.8 20 -3.3 26.5 1.3 l2.8 2 4.5 -3.1 4.5 -3.1 0 14.6 c0 9.3 -0.4 14.5 -1 14.5 -0.6 0 -1.3 -0.6 -1.5 -1.2 -3.6 -10.5 -5.2 -13.6 -9.4 -17.8 -10.6 -11 -23.6 -8.4 -29.3 5.8 -2.1 5.3 -2.3 7.2 -2.3 25.2 l0 19.5 3 6 c3.5 7 8 10.5 13.6 10.5 4.9 0 8.7 -1.5 12.2 -4.8 2.7 -2.6 2.7 -2.6 2.7 -16.4 l0 -13.8 -5 0 c-3.8 0 -5 -0.4 -5 -1.5 0 -1.3 2.4 -1.5 15.5 -1.5 13.1 0 15.5 0.2 15.5 1.5 0 1.1 -1.1 1.5 -4 1.5 l-4 0 -0.2 19.1 -0.3 19.1 -4.8 -3.7 -4.9 -3.7 -2.6 2.5 c-5.3 5.1 -13.3 6.8 -21.9 4.7z"/>
  <path d="M67 380 c0 -1.7 0.7 -2 5 -2 l5 0 0 -35.5 0 -35.5 -4.5 0 c-3.8 0 -4.5 -0.3 -4.5 -2 0 -2 0.7 -2 27.5 -2 l27.5 0 0 14 c0 7.7 -0.4 14 -0.8 14 -0.5 0 -1.5 -2.6 -2.2 -5.7 -3.1 -14.4 -8 -18.3 -22.6 -18.3 l-7.4 0 0 16 0 16 4.1 0 c5.4 0 10.5 -4.8 11.5 -10.9 0.4 -2.5 1.2 -4.1 2 -4.1 1.1 0 1.4 3.4 1.4 18 0 13.8 -0.3 18 -1.3 18 -0.7 0 -1.8 -2.3 -2.5 -5.2 -1.6 -6.9 -5.6 -10.8 -11.2 -10.8 l-4 0 0 17.1 0 17.1 9.5 -0.4 c7.5 -0.3 10.1 -0.8 12.2 -2.4 3.6 -2.6 7 -9.3 8.4 -16.6 0.7 -3.7 1.7 -5.8 2.5 -5.8 1.1 0 1.4 2.9 1.4 14.5 l0 14.5 -28.5 0 c-27.8 0 -28.5 0 -28.5 -2z"/>
  <path d="M130 380.6 c0 -0.8 1.5 -1.7 3.6 -2.1 2 -0.3 4.7 -1.7 6 -3 l2.4 -2.4 0 -30.9 c0 -24.3 -0.3 -31.2 -1.4 -32.7 -0.9 -1.3 -3 -2 -7 -2.3 -4.6 -0.4 -5.6 -0.8 -5.6 -2.3 0 -1.7 0.9 -1.9 10.8 -1.9 l10.7 0.1 17.9 26.5 c9.9 14.6 18.3 26.7 18.8 27 0.4 0.3 0.8 -9.7 0.8 -22.1 l0 -22.6 -2.5 -2.4 c-1.6 -1.7 -3.5 -2.5 -6 -2.5 -2.8 0 -3.5 -0.4 -3.5 -2 0 -2 0.7 -2 40.5 -2 l40.5 0 0 14 c0 11.8 -0.2 14 -1.5 14 -0.9 0 -1.5 -0.9 -1.5 -2.3 0 -4.5 -3.1 -12.8 -6.1 -16.2 -3.7 -4.1 -8 -5.5 -17.6 -5.5 l-7.3 0 0 16 0 16 3.5 0 c6.8 0 10.4 -3 12.5 -10.8 2.2 -8.2 3 -4.4 3 13.8 0 10.4 -0.4 18 -0.9 18 -0.5 0 -1.7 -2.5 -2.6 -5.6 -2.1 -7.4 -5.4 -10.4 -11.1 -10.4 l-4.4 0 0 17 0 17 7.9 0 c9 0 12.4 -1 16.4 -4.8 2.8 -2.6 6.7 -13.1 6.7 -17.8 0 -1.5 0.6 -2.4 1.5 -2.4 1.3 0 1.5 2.3 1.5 14.5 l0 14.5 -28.5 0 c-27.8 0 -28.5 0 -28.5 -2 0 -1.8 0.7 -2 5.5 -2 l5.5 0 0 -35.5 0 -35.5 -7.4 0 c-5.8 0 -7.9 0.4 -9.7 1.9 l-2.4 1.9 -0.3 35.6 c-0.1 19.6 -0.6 35.6 -1 35.6 -0.4 0 -10.1 -13.7 -21.7 -30.3 l-21 -30.2 -0.8 24.5 c-0.5 16 -0.4 25.3 0.3 26.8 1.2 2.7 6.7 6.2 9.8 6.2 1.3 0 2.2 0.6 2.2 1.5 0 1.3 -2.2 1.5 -14 1.5 -11.3 0 -14 -0.3 -14 -1.4z"/>
  <path d="M261 380 c0 -1.7 0.7 -2 5 -2 l5 0 0 -35.5 0 -35.5 -5 0 c-4.4 0 -5 -0.3 -5 -2.1 0 -2 0.3 -2.1 24.3 -1.7 23 0.3 24.4 0.4 28.5 2.6 13.3 7.1 11.5 26.9 -3.2 34.4 -4.1 2.1 -4.1 2.1 -1.5 2.8 4 1.1 7.5 3.8 8.9 6.8 0.7 1.5 1.6 8.3 1.9 15.2 0.6 11.9 0.7 12.5 2.8 12.8 3.3 0.5 5.1 -3.2 13.3 -27.1 17.1 -49.9 17 -49.7 19.5 -49.7 1.9 0 2.7 1.1 4.9 6.8 1.4 3.7 7.9 20.9 14.4 38.2 l11.9 31.5 4.2 0.3 4.1 0.3 0 -35.5 0 -35.6 -5 0 c-4.3 0 -5 -0.3 -5 -2 0 -1.9 0.7 -2 16.5 -2 15.8 0 16.5 0.1 16.5 2 0 1.7 -0.7 2 -5 2 l-5 0 0 35.5 0 35.5 4.8 0 c6.5 0 13 -3.4 15.4 -8.1 1 -2 2.5 -6.5 3.2 -10 0.9 -4.5 1.8 -6.5 2.9 -6.7 1.5 -0.3 1.7 1.2 1.7 14.2 l0 14.6 -36 0 c-35 0 -36 -0.1 -36 -1.9 0 -1.6 0.8 -2 4.4 -2.3 l4.3 -0.3 -3.9 -10.2 -4 -10.3 -12.9 0 -12.9 0 -1.1 2.7 c-0.5 1.5 -1.7 5.4 -2.7 8.6 -1.6 5.9 -1.6 6 0.7 7.8 1.3 1.1 3.4 1.9 4.7 1.9 1.7 0 2.4 0.6 2.4 2 0 1.9 -0.7 2 -12.5 2 -20.3 0 -22.6 -1.8 -23.2 -18.8 -0.3 -5.9 -0.9 -12 -1.5 -13.6 -1.5 -3.9 -6.2 -5.6 -15.3 -5.6 l-7.5 0 0 17 0 17 5 0 c4.3 0 5 0.3 5 2 0 1.9 -0.7 2 -16 2 -15.3 0 -16 -0.1 -16 -2z m102.2 -26.5 c0.5 -0.6 -10.4 -32.5 -11.2 -32.5 -0.5 0 -11 30.8 -11 32.3 0 0.8 21.4 1 22.2 0.2z m-61.7 -14.9 c9.2 -3.9 11.3 -22.4 3.3 -29.1 -2.7 -2.3 -3.8 -2.5 -12.4 -2.5 l-9.4 0 0 15.8 c0 8.7 0.3 16.2 0.7 16.5 1.2 1.3 14.3 0.7 17.8 -0.7z"/>
  <path d="M439 380 c0 -1.8 0.7 -2 5.7 -2 l5.6 0 -0.6 -14.2 c-0.4 -7.9 -0.7 -23.9 -0.7 -35.5 l0 -21.3 -5 0 c-4.3 0 -5 -0.3 -5 -2 0 -1.9 0.7 -2 16.5 -2 15.8 0 16.5 0.1 16.5 2 0 1.8 -0.7 2 -5.5 2 l-5.5 0 0 35.5 0 35.5 5.5 0 c4.8 0 5.5 0.2 5.5 2 0 1.9 -0.7 2 -16.5 2 -15.8 0 -16.5 -0.1 -16.5 -2z"/>
  <path d="M1.2 216.8 l0.3 -61.2 12 -3.2 c13.1 -3.4 12.7 -3 10 -10.4 -3.9 -10.6 2.1 -21 13.1 -22.7 2.2 -0.3 5 -1.6 6.4 -2.8 4.1 -3.7 7.2 -4.8 13.1 -4.8 6.4 0.1 13.4 2.8 19.2 7.5 4.5 3.6 4.3 3.7 10.6 -6.5 l4.2 -6.8 -3 -3.5 c-1.7 -1.9 -3.1 -4.4 -3.1 -5.5 0 -3.4 4.3 -6.7 9.6 -7.3 17.6 -2.2 21.8 -4.2 21.2 -10.1 -0.4 -4.5 -3.5 -4.4 -11.5 0.7 -6 3.8 -7.5 4.3 -12.6 4.3 -5.4 0 -6.1 -0.3 -8.8 -3.3 -2.6 -2.9 -3 -4 -2.8 -8.5 0.1 -2.9 -0.4 -6.6 -1.1 -8.3 -1.7 -4.1 -0.9 -6.8 4.3 -13.9 2.5 -3.3 6.1 -9.1 8.2 -13 2 -3.8 4.3 -7.7 4.9 -8.5 0.7 -0.8 2.9 -4.3 4.9 -7.6 3.8 -6.4 9.7 -12.5 15.7 -16.1 13.4 -8.2 34.4 -6.4 50.5 4.3 7 4.6 11.9 10.2 15.8 18.2 1.7 3.4 3.4 6.2 3.7 6.2 0.3 0 1.4 -2.1 2.4 -4.8 2.8 -6.8 10.4 -14.4 17.9 -17.8 l6.2 -2.9 121.8 -0.3 c66.9 -0.1 121.7 0 121.7 0.4 0 0.3 -1.7 3.8 -3.7 7.8 -7.3 13.9 -17.3 20.9 -32.9 23 l-8.3 1.1 -2.9 4.5 c-6.7 10.5 -16.1 16.5 -28.7 18.3 -6.8 1 -7.5 1.3 -8.6 4 -2 4.7 -11.3 13.5 -17.1 16.2 -8.3 3.8 -16.5 4.5 -54.5 4.5 l-35.3 0 0 5.4 0 5.4 3.8 0.6 c2 0.3 14.1 1.2 26.7 2.1 54.6 3.7 59.3 4.4 73.2 11 21.1 10.3 36 31.1 52.6 74.1 3 7.8 6.4 15.9 7.6 18.2 l2 4 6 -0.5 c11.8 -1.1 16.5 1.4 22.7 12 2 3.4 5.6 8.5 8 11.4 l4.4 5.1 -5 1.1 c-8.7 1.9 -17.9 1.4 -23.5 -1.2 -9.4 -4.4 -19.2 -18.2 -27.6 -39.1 l-2.4 -5.9 -0.5 24.1 c-0.5 24 -0.5 24.1 -3 26.7 -2.8 3 -7.6 5.7 -16.4 9.1 l-6.1 2.3 42.8 0.1 42.7 0 0 12 0 12 -235.5 0 -235.5 0 0.2 -61.2z m93.3 36.7 c-0.5 -0.3 -9.4 -2.6 -19.7 -5.3 l-18.8 -4.9 -18.7 4.9 c-10.4 2.7 -19.2 5 -19.8 5.3 -0.5 0.2 16.8 0.3 38.5 0.3 21.7 0 39.1 -0.1 38.5 -0.3z m26.7 -6.9 c-0.6 -9.5 0.2 -13.8 3.5 -17.6 3.5 -4.2 7.6 -6.2 15.3 -7.5 l6.5 -1.1 0.3 -17.2 c0.1 -9.5 -0.1 -17.2 -0.5 -17.2 -0.5 0 -2.6 0.6 -4.8 1.4 -4.8 1.7 -20.5 3.2 -20.5 2 0 -0.5 0.6 -4.6 1.4 -9.1 0.8 -5 0.9 -8.3 0.4 -8.3 -0.6 0 -3.4 0.7 -6.4 1.6 l-5.4 1.5 0 39.5 0 39.4 5.3 0 5.4 0 -0.5 -7.4z m23.5 5.3 c1.8 -0.6 4.3 -2.3 5.6 -3.8 2.2 -2.6 3 -2.9 11 -3.3 10.5 -0.5 12.2 -1.7 12.9 -8.9 0.3 -3.3 1.3 -5.8 2.7 -7.3 2.1 -2.3 2.2 -2.7 1 -8.6 -1.4 -7.4 -0.7 -21.6 1.6 -31.7 l1.7 -7.3 9.2 0 c12.8 0 23.1 -2 43.7 -8.4 37.8 -11.7 50.1 -11.6 70.4 0.9 14.3 8.8 28.5 12.7 58.5 16 19.1 2.1 21.1 3.9 23 21.5 0.6 5.8 1.2 11.7 1.5 13.1 0.4 2.5 0.2 2.6 -12.8 5.4 -7.3 1.5 -14 3.2 -15 3.7 -1 0.5 -2.5 2.5 -3.3 4.3 -1.2 2.9 -1.1 4 0.1 8.2 2.9 9.2 1.8 9.1 22.6 1.3 10.1 -3.8 19.5 -7.8 20.9 -8.8 l2.5 -1.9 0.2 -34.4 0.3 -34.4 -3.8 -7 -3.7 -6.9 -13 -2.2 c-7.1 -1.1 -15.5 -2.9 -18.5 -3.9 -12.6 -4.1 -22.2 -12.3 -32.1 -27.5 l-5 -7.7 -11.7 -0.6 c-6.4 -0.4 -21.6 -1.4 -33.7 -2.3 l-22 -1.7 -3.9 2.6 c-6.9 4.7 -14.8 4.8 -25.1 0.3 l-5.6 -2.5 3.4 -3 3.4 -3 5.3 2 c6.4 2.4 10.6 1.9 14.9 -1.7 3.2 -2.7 4.8 -7.6 3.7 -11.9 l-0.6 -2.5 -16.4 -0.2 -16.3 -0.3 1.8 -4.3 1.8 -4.2 17.8 0 c24.4 0 32.8 -2.4 39.8 -11.6 l2.6 -3.4 -25.5 0 c-14.1 0 -25.6 -0.2 -25.6 -0.5 0 -0.3 0.9 -2.3 2 -4.5 l2 -3.9 33.2 -0.3 c32.5 -0.3 33.4 -0.4 38.5 -2.7 2.9 -1.3 7.2 -4.4 9.5 -7 l4.3 -4.6 -39.2 -0.3 c-21.6 -0.1 -39.3 -0.4 -39.3 -0.7 0 -0.2 0.7 -2.3 1.6 -4.5 l1.6 -4 46.7 0 c40 0 47.5 -0.2 52.2 -1.6 5.8 -1.7 11.6 -5.5 15 -9.8 l2.1 -2.6 -75.9 0.2 -75.8 0.3 -5.3 2.9 c-9.4 5.2 -11.2 8.6 -18.6 36.1 -3.2 11.6 -6.4 23.2 -7.3 25.8 l-1.5 4.8 4.1 3.8 c5.3 4.9 7.1 9.4 7.1 17.8 -0.1 10.6 -4.3 18.2 -13.3 23.9 l-3.7 2.4 1.6 3.2 c2.4 4.6 1.6 14.5 -1.6 19.1 -2.7 3.9 -9.4 8.7 -12.2 8.7 -1.1 0 -2.8 2.1 -4.8 6.1 l-3 6.1 0 22.5 c0 13.5 -0.4 23.2 -1 24.4 -1.5 2.6 -6.2 4.9 -10.4 4.9 -6.9 0 -13 3.9 -14.1 9.1 -1 4.2 1.3 13.7 3.3 14.3 2.1 0.5 7.6 -0.1 11.9 -1.5z m80.3 -4.2 c0 -9.1 3.5 -15.8 10.4 -19.7 5.9 -3.5 10.9 -3.8 22.6 -1.6 l7.5 1.5 5.2 -5.1 c2.8 -2.8 5.9 -6.5 6.9 -8.3 l1.7 -3.2 -10.9 -18.1 c-7.5 -12.5 -11.4 -18 -12.4 -17.7 -0.8 0.2 -8.9 2.6 -18 5.4 -20 6.1 -28.6 8 -40.7 8.8 l-9.3 0.6 -0.7 3.6 c-0.5 2 -0.8 8.8 -0.8 15.1 0 10.6 0.2 11.8 2.7 16 l2.6 4.5 -4.1 2.1 c-3.9 1.9 -4.2 2.4 -4.8 7 -1.1 8.4 -4 11.9 -11.6 14 -4.2 1.1 -1.2 1.3 24.5 1.3 l29.2 0.1 0 -6.3z m65.5 -11.8 c9.4 -10 17.6 -19.3 18.4 -20.7 1.8 -3.4 0.8 -6.6 -7.8 -23.9 -6.7 -13.5 -7 -14 -11.2 -15.6 -2.4 -0.9 -6.4 -2 -8.9 -2.5 -4.9 -0.9 -14.3 -0.4 -13.8 0.7 0.2 0.3 4.6 7.8 10 16.6 5.3 8.8 9.9 17.6 10.2 19.5 0.9 5 -1.6 9.5 -10.2 19 -8.2 8.9 -8 8.9 -19.4 6.4 -9.5 -2 -13.8 -2 -17.6 0 -4.2 2.2 -6.2 6.3 -6.2 13.1 l0 5.5 19.8 0 19.7 0 17 -18.1z m57.9 14.6 c-2.1 -5.1 -1.8 -13.8 0.6 -18.6 2.8 -5.4 6.2 -7.2 18.5 -10 7.9 -1.7 10.5 -2.7 10.5 -3.8 -0.2 -5.9 -2.1 -15.5 -3.4 -17 -1.3 -1.4 -4.5 -2.1 -13.9 -3 -20.8 -2.1 -36.9 -5.5 -49.9 -10.6 -1.4 -0.5 -0.7 1.5 2.6 8.6 8.8 18.5 8.4 19.8 -12 41.4 l-15.6 16.5 32.1 0 32 0 -1.5 -3.5z m-315.2 -10.5 l22.8 -5.9 22.7 5.9 c12.6 3.3 23.1 6 23.6 6 0.4 0 0.6 -18.7 0.5 -41.7 l-0.3 -41.6 -23.3 -6 -23.2 -6 -23.3 6 -23.2 6 -0.3 41.6 c-0.1 23 0.1 41.7 0.5 41.7 0.5 0 11 -2.7 23.5 -6z m418.3 -14.2 c-3.7 -6.7 -6.7 -9.1 -11.5 -9.1 -2.2 0 -4.3 0.3 -4.6 0.6 -1 1 4.6 7.5 8.3 9.8 3 1.9 9.2 4 10.1 3.4 0.1 -0.1 -0.9 -2.2 -2.3 -4.7z m-310.9 -47.7 c5 -2.3 8.6 -6.8 11 -14 1.1 -2.9 2.4 -5.5 2.9 -5.6 0.6 -0.2 2.8 -0.6 4.9 -1 5.7 -0.9 9.6 -5.4 9.6 -11 0 -5.1 -2.2 -8.1 -8.5 -12.2 -2.5 -1.5 -4.5 -3.1 -4.5 -3.4 0 -0.4 2.7 -1.2 6 -1.7 7.9 -1.4 12.2 -3.6 16.4 -8.2 5.9 -6.6 6.9 -15.8 2.4 -21.5 -1.1 -1.4 -3.9 -3.7 -6.4 -5.1 -2.4 -1.4 -4.4 -2.8 -4.4 -3.1 0 -0.3 1.8 -6 3.9 -12.8 5.4 -16.7 6.8 -25.5 5.3 -33.1 -1.6 -8 -7.2 -19.1 -12.1 -23.8 l-3.9 -3.8 -0.8 4.8 c-0.9 6.3 -4.4 13.4 -9 17.9 l-3.6 3.6 1.1 6.3 c1.5 8.8 1.6 8.6 -3.2 8.6 -3.1 0 -4.9 0.6 -6.1 1.9 -1.7 1.8 -1.7 2.5 -0.2 11.4 1.9 11.2 1.4 16 -2.4 22.1 -5.8 9 -18 14.6 -32.3 14.6 l-8.2 0.1 -5 8.1 c-2.7 4.5 -5.6 9.1 -6.4 10.3 -1.2 2 -1.1 2.6 1.3 6.1 3.2 4.8 3.2 6.1 0 9.9 -2.4 2.8 -2.6 2.9 -3.7 1.1 -6.6 -10.5 -9.8 -14.4 -14.8 -18.1 -10.3 -7.5 -18.7 -8.2 -21 -1.6 -1 2.8 -1.3 2.9 -6.3 2.8 -4 -0.1 -6 0.4 -8.4 2.2 -3.8 2.7 -4.1 5.6 -1.2 11.9 2.2 4.9 2.6 4.9 13 2.2 4.1 -1.1 8.9 -1.9 10.5 -1.9 1.7 0 14.5 3.1 28.5 6.7 l25.5 6.7 0.3 4 c0.4 6.5 0.6 6.6 5.7 4.8 2.6 -0.8 7 -3.7 10 -6.5 l5.5 -5 0 13.6 c0 13.4 0 13.6 2.3 13.6 1.2 0 4.1 -0.9 6.3 -1.9z m245.8 -38.8 c-5.2 -7 -13.4 -14 -20.4 -17.7 -6.7 -3.6 -19.9 -7.6 -24.7 -7.6 l-2.4 0 1.8 3.1 c3 5.2 13.3 15.8 17.7 18.3 2.2 1.3 6.5 3.1 9.4 4.1 5.3 1.7 20.3 4.5 21.1 3.9 0.2 -0.2 -0.9 -2 -2.5 -4.1z m-270.5 -39.9 c7.2 -2 14.3 -7.1 16.6 -12 1.7 -3.7 1.7 -4.3 0.1 -15 -1.6 -10.2 -1.7 -11.4 -0.2 -14.2 1.4 -2.8 3.8 -5 8 -7.7 1.3 -0.9 1.4 -1.7 0.4 -6 -0.9 -4.4 -0.8 -5.1 0.7 -6 4.6 -2.6 8 -6.3 10.1 -11 2.5 -5.2 3.1 -10 1.4 -11 -0.5 -0.3 -6 2.6 -12.3 6.5 l-11.4 7 -7.5 0 c-13.5 0 -22.3 4.4 -21.6 10.6 0.3 2.7 0.7 3 6.1 3.8 6.4 0.9 7.2 2.4 3.6 7 -2.7 3.4 -7.4 3.6 -8.5 0.4 -0.8 -2.6 -2.2 -3.8 -4.5 -3.8 -0.8 0 -3.7 3 -6.4 6.6 l-4.9 6.7 2.6 2.2 c1.5 1.3 3.3 2.5 4 2.7 0.9 0.3 0.5 1.5 -1.5 4.1 -2.9 3.9 -3.4 5.6 -1.4 5.8 2.7 0.3 4.5 -0.4 10.6 -4.3 3.5 -2.2 8.1 -4.3 10.1 -4.5 10 -1.4 16.7 10.9 10.8 19.7 -3.6 5.2 -8.9 7.4 -18.8 7.8 -9.1 0.4 -11.1 1.2 -9.1 3.6 2.4 2.8 14.6 3.4 23 1z m232.6 -23.2 c5 -2.3 10.8 -7.1 12.6 -10.4 0.9 -1.7 -0.9 -1.8 -32 -1.8 l-33 0 -1.7 3.1 c-0.8 1.7 -3.4 5.1 -5.7 7.6 l-4.1 4.5 29.4 -0.4 c28.3 -0.3 29.7 -0.4 34.5 -2.6z m40 -24.7 c3.2 -1.7 7.3 -4.9 9.3 -7.2 l3.5 -4.3 -33.4 0 -33.4 0 -2.3 4 c-1.2 2.2 -3.7 5.6 -5.4 7.6 l-3.1 3.5 29.5 -0.3 29.4 -0.3 5.9 -3z m40 -23.3 c4.7 -2.2 12.5 -8.7 12.5 -10.4 0 -0.4 -14.8 -0.8 -32.8 -0.8 l-32.9 0 -1.1 2.5 c-0.6 1.4 -3.1 4.6 -5.4 7.1 l-4.2 4.5 29.5 -0.3 c28.2 -0.3 29.6 -0.4 34.4 -2.6z m-292.8 -12.6 c4.5 -2.8 8.3 -5.4 8.3 -5.8 0 -1.4 -13.6 -0.8 -18 0.7 -4.6 1.6 -11.5 6.3 -13.5 9.2 -1.2 1.7 -0.8 1.8 6.8 1.4 7.6 -0.3 8.4 -0.6 16.4 -5.5z"/>
  <path d="M20.2 221.4 l0.3 -4.7 14.5 -3.8 c8 -2.1 14.8 -3.8 15.3 -3.9 0.4 0 0.7 2 0.7 4.4 l0 4.5 -5.2 1.5 c-2.9 0.8 -9.1 2.4 -13.8 3.6 -4.7 1.1 -9.3 2.3 -10.3 2.6 -1.6 0.5 -1.8 0 -1.5 -4.2z"/>
  <path d="M80 223.1 c-21 -5.6 -19 -4.6 -19 -9.6 0 -2.5 0.3 -4.5 0.8 -4.5 0.4 0.1 7.2 1.8 15.2 3.9 l14.5 3.8 0.3 4.6 c0.2 2.6 -0.1 4.7 -0.5 4.6 -0.4 0 -5.5 -1.3 -11.3 -2.8z"/>
  <path d="M20 201.2 l0 -4.7 14.8 -3.8 c8.1 -2.1 15 -3.8 15.5 -3.7 0.4 0 0.7 2 0.7 4.5 0 2.5 -0.3 4.5 -0.7 4.5 -0.5 0 -7.4 1.8 -15.5 3.9 l-14.8 3.9 0 -4.6z"/>
  <path d="M76.3 201.8 l-15.3 -4.1 0 -4.4 c0 -2.3 0.3 -4.3 0.8 -4.3 0.4 -0.1 7.3 1.6 15.5 3.7 l14.7 3.8 0 4.7 c0 2.7 -0.1 4.8 -0.2 4.7 -0.2 0 -7.2 -1.9 -15.5 -4.1z"/>
  <path d="M20 180.5 c0 -2.5 0.2 -4.5 0.5 -4.5 0.2 0 7.2 -1.8 15.5 -3.9 l15 -3.9 0 4.6 0 4.7 -14.8 3.8 c-8.1 2 -15 3.7 -15.4 3.7 -0.5 0 -0.8 -2 -0.8 -4.5z"/>
  <path d="M74.8 181.1 l-13.8 -3.6 0 -4.7 0 -4.6 15 3.9 c8.3 2.1 15.3 3.9 15.5 3.9 0.3 0 0.5 2 0.5 4.5 0 5.5 0.9 5.4 -17.2 0.6z"/>
 </g>
</svg>