<?xml version="1.0" encoding="utf-8"?>
<!DOCTYPE svg PUBLIC "-//W3C//DTD SVG 1.1//EN" "http://www.w3.org/Graphics/SVG/1.1/DTD/svg11.dtd">
<svg version="1.1" xmlns="http://www.w3.org/2000/svg" width="350px" height="127px" viewBox="0 0 350 127" preserveAspectRatio="xMidYMid meet">
 <g fill="#ffffff">
  <path d="M118.50 101.90 c-3.80 -1.10 -6.05 -3.95 -7 -9 -0.65 -3.45 0.20 -8.20 2 -11.05 3.05 -4.80 9.80 -5.75 14.15 -1.95 0.80 0.70 0.85 0.40 0.85 -5.70 l0 -6.50 3.65 0.20 c1.95 0.10 3.90 0.25 4.25 0.35 0.90 0.30 0.90 32.20 0 32.45 -0.35 0.15 -2.15 0.35 -4.05 0.50 l-3.35 0.25 0.30 -1.20 c0.40 -1.60 -0.30 -1.60 -1.80 0 -1.90 2.05 -5.40 2.70 -9 1.65z m7.50 -9.20 c0 -0.40 0.30 -0.70 0.70 -0.70 0.65 0 1.30 -1 1.30 -2.05 0 -0.25 -0.30 -0.45 -0.65 -0.45 -0.30 0 -0.90 -0.65 -1.25 -1.50 -0.90 -2 -2.30 -1.95 -3.30 0.20 -1.05 2.20 -1 2.90 0.20 4.45 1.05 1.35 3 1.35 3 0.05z"/>
  <path d="M202.25 101.95 c-0.80 -0.20 -2.05 -0.50 -2.75 -0.65 -1.90 -0.40 -5 -3.25 -6.05 -5.50 -1.25 -2.80 -1.25 -8.80 0 -11.55 2.05 -4.50 7.30 -7.10 13.55 -6.65 6 0.45 10.20 3.60 11.55 8.60 0.85 3.10 0.10 8.40 -1.60 11.10 -1.25 2 -2.40 2.80 -6.40 4.10 -3.35 1.15 -5.75 1.30 -8.30 0.55z m5.30 -8.95 c0.70 -2.50 0.45 -4.85 -0.60 -6.20 -1.40 -1.75 -2.15 -1.65 -2.95 0.45 -0.50 1.30 -1 1.75 -1.90 1.75 -1.55 0 -1.30 1.70 0.30 1.90 0.60 0.10 1.10 0.40 1.10 0.75 0 0.90 2.15 2.90 2.95 2.75 0.40 -0.10 0.90 -0.70 1.10 -1.40z"/>
  <path d="M271.95 102.05 c-3.55 -1.15 -4.95 -3.10 -4.95 -7 0 -4.85 2.70 -6.50 12.60 -7.80 1.30 -0.15 2.85 -0.70 3.50 -1.25 1.10 -0.90 1.15 -0.90 0.20 -1.95 -1.15 -1.25 -4.05 -1.40 -5.25 -0.35 -0.90 0.85 -9.05 1.90 -9.75 1.25 -0.70 -0.60 1.55 -4.65 3.05 -5.50 3.85 -2.20 13.55 -2.55 17.45 -0.65 3.65 1.85 3.95 2.65 4.10 12.60 0.10 5.15 0.40 9.10 0.70 9.50 0.80 0.95 0.20 1.20 -1.30 0.60 -0.75 -0.25 -2.80 -0.50 -4.60 -0.50 -2.50 0 -3.20 -0.15 -3.20 -0.75 0 -0.85 -0.20 -0.90 -1.40 -0.30 -4.10 2.20 -8.40 3 -11.15 2.10z m9.80 -7.60 c0.25 -0.30 0.15 -0.45 -0.35 -0.45 -1.20 0 -2.40 0.55 -2.40 1.10 0 0.50 1.95 0.05 2.75 -0.65z"/>
  <path d="M189.25 101.45 c-1.90 -0.25 -4.20 -0.35 -5.05 -0.20 -1.55 0.25 -1.65 0.15 -4.75 -4.85 -1.75 -2.85 -3.40 -5.60 -3.70 -6.10 -0.25 -0.55 -0.80 -1.05 -1.10 -1.20 -0.50 -0.15 -0.65 1.10 -0.65 5.05 0 2.90 -0.15 5.60 -0.30 6.05 -0.25 0.65 -1.10 0.80 -4.25 0.80 l-3.95 0 0 -16.50 0 -16.50 8.15 0 c4.45 0 8.95 0.25 9.95 0.50 5.85 1.65 8.55 8.50 5.65 14.35 -1.35 2.65 -2.70 3.85 -4.95 4.45 -1.55 0.35 -1.60 0.55 -0.35 1.90 1.35 1.55 9.55 12.25 9.55 12.55 0 0.15 -0.15 0.20 -0.35 0.20 -0.25 -0.05 -1.95 -0.30 -3.90 -0.50z m-10.30 -21.40 c0.85 -0.85 0.85 -1 0.10 -2.25 -0.40 -0.70 -1.20 -1.30 -1.65 -1.30 -0.65 0 -0.90 -0.40 -0.90 -1.25 0 -0.80 -0.30 -1.25 -0.75 -1.25 -0.40 0 -0.75 0.25 -0.75 0.50 0 0.30 0.25 0.50 0.50 0.50 0.30 0 0.50 1.20 0.50 2.70 0 2.45 -0.10 2.75 -1.10 2.95 -0.65 0.10 -0.20 0.25 1 0.30 1.45 0.05 2.40 -0.25 3.05 -0.90z"/>
  <path d="M142.85 89.85 l0.10 -11.60 4.40 0 4.40 0 0.15 11.10 0.10 11.15 -1.10 0.20 c-0.65 0.15 -2.70 0.35 -4.65 0.50 l-3.50 0.20 0.10 -11.55z"/>
  <path d="M238.40 95.95 c0.25 -7.30 -0.10 -9.75 -1.70 -10.80 -0.95 -0.60 -1.60 -0.70 -2.60 -0.35 -2.20 0.75 -2.80 2.80 -3.10 9.70 l-0.25 6.25 -4.10 0.15 -4.15 0.15 0 -11.55 0 -11.55 4.15 0.15 4.10 0.15 -0.15 1.65 -0.10 1.70 1.90 -1.55 c1.10 -0.85 2.55 -1.75 3.30 -2.05 3.10 -1.15 7 -0.25 9.25 2.15 l1.20 1.30 1.65 -1.40 c2.25 -2 4.80 -2.75 8.10 -2.40 3.30 0.35 5 1.45 6.35 4.15 0.85 1.70 1 3.15 1.15 10.70 l0.20 8.75 -4.80 0 -4.80 0 0 -7.60 c0 -7.60 0 -7.65 -1.25 -8.45 -1.70 -1.10 -3.55 -0.55 -4.75 1.45 -0.85 1.35 -1 2.50 -1 7.75 0 4.45 -0.15 6.20 -0.60 6.30 -0.35 0.15 -2.35 0.35 -4.40 0.45 l-3.75 0.25 0.15 -5.45z"/>
  <path d="M19.50 62 l0 -39 39.25 0 39.25 0 0 37.90 c0 20.80 -0.15 38.35 -0.30 39 l-0.30 1.10 -38.95 0 -38.95 0 0 -39z m12.75 31.40 l0.50 -1.65 4.90 -0.15 c4.60 -0.15 4.85 -0.10 4.85 0.90 0 0.55 0.25 1 0.50 1 0.30 0 0.50 0.35 0.50 0.75 0 0.65 1.30 0.75 8.65 0.75 8.30 0 8.80 -0.05 11.15 -1.25 1.35 -0.70 3.65 -1.40 5.10 -1.55 l2.60 -0.35 0 1.60 c0 1.50 0.05 1.55 2.20 1.55 2.90 0 3.80 -0.40 3.80 -1.60 0 -0.55 0.40 -1.10 1 -1.25 0.55 -0.15 1 -0.45 1 -0.70 0 -0.25 0.80 -0.45 1.75 -0.45 1.20 0 1.75 0.25 1.75 0.75 0 0.40 0.25 0.75 0.50 0.75 0.30 0 0.50 0.55 0.50 1.25 0 1.15 0.15 1.25 2.50 1.25 2.30 0 2.50 -0.10 2.50 -1.20 0 -0.90 -0.30 -1.25 -1.10 -1.40 -0.90 -0.10 -1.20 -0.55 -1.30 -1.75 -0.15 -1.25 -0.40 -1.65 -1.15 -1.65 -0.85 0 -1 -0.30 -0.85 -1.85 0.15 -1.65 0.35 -1.95 1.75 -2.35 1.30 -0.40 1.65 -0.80 1.90 -2.30 0.35 -2.05 -1.05 -6 -2.10 -6 -0.35 0 -0.65 -0.20 -0.65 -0.45 0 -0.80 -4.40 -1.55 -9.20 -1.55 -4.45 0 -4.80 0.05 -4.80 1 0 0.80 -0.35 1 -1.75 1 -1.40 0 -1.75 -0.20 -1.75 -1 0 -0.55 -0.20 -1 -0.50 -1 -0.25 0 -0.50 0.25 -0.50 0.50 0 0.30 -0.90 0.50 -2 0.50 -1.80 0 -2 -0.10 -2 -1.25 0 -0.80 -0.30 -1.25 -0.75 -1.25 -0.40 0 -0.75 0.35 -0.75 0.75 0 0.60 -0.95 0.75 -5.50 0.75 l-5.50 0 0 2.30 0 2.30 -2 -0.20 c-1.10 -0.10 -2 0 -2 0.20 0 0.25 -0.75 0.40 -1.65 0.40 -1.55 0 -1.75 -0.15 -2.40 -2.35 l-0.75 -2.40 -3.45 -0.15 -3.50 -0.15 -3.40 9.90 c-1.85 5.45 -3.35 10.05 -3.35 10.30 0 0.20 0.95 0.35 2.15 0.35 2 0 2.20 -0.10 2.60 -1.60z m28.55 -28.10 c0.40 -0.40 0.70 -0.95 0.70 -1.20 0 -0.25 0.55 -1.05 1.25 -1.80 0.70 -0.75 1.25 -1.55 1.25 -1.75 0 -0.20 0.55 -0.95 1.20 -1.65 0.60 -0.70 1.30 -1.65 1.45 -2.10 0.20 -0.45 0.50 -0.80 0.80 -0.80 0.25 0 0.55 -0.45 0.70 -1 0.15 -0.55 0.60 -1 1.05 -1 0.45 0 0.80 -0.40 0.80 -1 0 -0.55 0.25 -1 0.50 -1 0.30 0 0.50 -0.35 0.50 -0.75 0 -0.40 0.35 -0.75 0.75 -0.75 0.40 0 0.75 -0.45 0.75 -1 0 -0.55 0.25 -1 0.50 -1 0.30 0 0.50 -0.35 0.50 -0.75 0 -0.35 0.40 -0.95 0.90 -1.20 0.80 -0.50 0.80 -0.50 0 -0.55 -0.50 0 -0.90 0.20 -0.90 0.45 0 0.25 -0.50 0.65 -1.10 0.85 -0.60 0.15 -1.40 0.65 -1.80 1 -0.35 0.40 -1 0.70 -1.40 0.70 -0.40 0 -0.70 0.25 -0.70 0.55 0 0.35 -0.90 0.50 -2.35 0.35 -2.40 -0.15 -2.40 -0.15 -2.55 1.50 -0.10 1 -0.45 1.60 -0.90 1.60 -0.40 0 -0.70 0.25 -0.70 0.50 0 0.30 -0.55 0.50 -1.25 0.50 -0.80 0 -1.25 0.30 -1.25 0.75 0 0.45 -0.45 0.75 -1.25 0.75 -0.80 0 -1.25 0.30 -1.25 0.75 0 0.45 -0.45 0.75 -1.25 0.75 -0.80 0 -1.25 0.30 -1.25 0.75 0 0.40 -0.35 0.75 -0.75 0.75 -0.40 0 -0.75 0.20 -0.75 0.50 0 0.25 -0.55 0.60 -1.25 0.80 -0.70 0.15 -1.25 0.50 -1.25 0.75 0 0.25 -0.80 0.45 -1.75 0.45 -0.95 0 -1.75 -0.25 -1.75 -0.55 0 -0.40 -0.25 -0.40 -0.75 0.05 -0.40 0.35 -0.75 1.25 -0.75 2.05 0 0.95 -0.25 1.45 -0.75 1.45 -0.40 0 -0.75 0.25 -0.75 0.50 0 0.30 -0.35 0.50 -0.75 0.50 -0.40 0 -0.75 0.25 -0.75 0.50 0 0.30 3.25 0.50 8.80 0.50 6.95 0 8.90 -0.15 9.50 -0.70z m29.60 -31.90 c0.35 -0.35 0.60 -0.90 0.60 -1.20 0 -0.80 -1.40 -2.20 -2.15 -2.20 -0.95 0 -1.80 1.75 -1.50 2.95 0.30 1.15 2.05 1.45 3.05 0.45z"/>
  <path d="M59.50 89.25 c0 -0.50 -0.50 -0.75 -1.50 -0.75 l-1.50 0 0 -3.25 c0 -2.55 -0.15 -3.25 -0.75 -3.25 -0.50 0 -0.75 -0.55 -0.75 -1.75 0 -1.70 0.05 -1.75 1.95 -1.75 3.35 0 5.05 0.55 5.05 1.55 0 0.60 0.35 0.95 0.95 0.95 1.45 0 2 4.90 0.85 7.30 -0.65 1.45 -1.05 1.70 -2.55 1.70 -1.20 0 -1.75 -0.25 -1.75 -0.75z"/>
  <path d="M142.95 74.75 c0 -0.15 -0.05 -1.75 -0.05 -3.60 l-0.05 -3.30 4.45 0.05 4.45 0 0.15 3.55 0.15 3.55 -4.55 0 c-2.45 0 -4.50 -0.10 -4.55 -0.25z"/>
  <path d="M225.50 67.20 c0 -0.10 -0.05 -7.70 -0.05 -16.80 l0 -16.65 3.90 0 c3.90 0 3.90 0 4.05 1.40 0.20 1.65 0.45 1.70 1.65 0.15 2.20 -2.75 8.90 -3.10 12.15 -0.60 3 2.25 3.85 4.60 3.95 10.50 0.10 5.75 -0.50 7.30 -3.75 9.95 -1.65 1.35 -2.35 1.55 -5.90 1.75 -3.70 0.20 -4.15 0.15 -5.25 -0.90 -0.70 -0.65 -1.40 -1 -1.60 -0.80 -0.20 0.20 -0.50 2.70 -0.65 5.55 -0.15 2.90 -0.50 5.45 -0.75 5.70 -0.50 0.40 -7.75 1.10 -7.75 0.75z m14.15 -18.60 c0.90 -0.80 1.10 -2.80 0.55 -5.55 -0.40 -1.95 -1.75 -2.05 -3.20 -0.20 -0.90 1.15 -1 1.75 -0.75 3.65 0.55 3.55 1.20 3.95 3.40 2.10z"/>
  <path d="M263 57 c-5.35 -1.45 -8.50 -5.70 -8.50 -11.40 0 -5.40 2.05 -9.05 6.25 -11.25 2.85 -1.45 9.45 -1.80 12.55 -0.60 5 1.90 7.70 5.75 7.70 11 0 5.50 -2.30 9.55 -6.45 11.35 -2.40 1.05 -9.05 1.55 -11.55 0.90z m6.75 -9.50 c0.20 -1.10 0.60 -2 0.90 -2 0.45 0 0.45 -0.10 0 -0.40 -0.30 -0.20 -0.70 -1.20 -0.90 -2.25 -0.35 -1.70 -0.50 -1.85 -2 -1.85 -1.55 0 -1.70 0.15 -2 2 -0.30 1.70 -0.50 2 -1.65 2.05 l-1.35 0.10 1.40 0.20 c0.75 0.10 1.35 0.50 1.35 0.85 0 1.65 1.30 3.30 2.60 3.30 1.15 0 1.35 -0.25 1.65 -2z"/>
  <path d="M111.60 56.35 c0.10 -0.40 2.95 -8 6.40 -17 l6.25 -16.35 4.80 0 4.80 0 2.80 7.65 c1.60 4.15 4.15 11 5.75 15.20 2.15 5.65 2.85 8.05 2.70 9.40 l-0.20 1.80 -3.80 -0.15 -3.80 -0.15 -1.05 -2.75 c-1.20 -3.15 -1.65 -3.35 -7.60 -3.45 -4.50 -0.05 -5.80 0.45 -6.65 2.55 -1.35 3.35 -2.25 3.90 -6.60 3.90 -3.05 0 -3.95 -0.15 -3.80 -0.65z m18.50 -12.65 c0.35 -0.35 -0.65 -3.70 -1.15 -3.70 -0.20 0 -0.50 0.55 -0.65 1.20 -0.15 0.65 -0.45 1.55 -0.60 2 -0.25 0.60 0 0.80 0.90 0.80 0.70 0 1.35 -0.15 1.50 -0.30z"/>
  <path d="M153.25 56.30 c-2.60 -0.95 -5.45 -4.15 -6.25 -7.05 -0.75 -2.75 -0.45 -7.45 0.70 -9.60 1 -1.95 3.45 -4.45 5.50 -5.55 1.15 -0.65 2.75 -0.85 6.55 -0.85 4.60 0 5.20 0.10 7.40 1.40 3.50 2.05 5.35 5.20 5.35 8.95 l0 2.90 -4.60 0.05 c-2.55 0.05 -6.35 0.20 -8.40 0.40 -4.40 0.35 -5 1.15 -2.60 3.55 1.85 1.80 4.30 2 6.25 0.50 0.95 -0.75 2 -1 4.20 -1 3.25 0 5.15 0.40 5.15 1.05 0 0.90 -3.35 4.15 -5 4.85 -2.55 1.05 -11.70 1.30 -14.25 0.40z m8.15 -15.65 c-1 -0.15 -1.40 -0.55 -1.50 -1.55 -0.15 -1.30 -0.20 -1.30 -0.45 0.30 -0.25 1.55 -0.25 1.60 1.50 1.55 1.45 -0.10 1.55 -0.15 0.45 -0.30z"/>
  <path d="M176.50 45.25 l0 -11.80 4.15 0.15 4.10 0.15 -0.15 2.15 c-0.10 1.15 -0.05 2.10 0.10 2.10 0.10 0 0.70 -0.80 1.30 -1.75 1.30 -2.10 3.30 -3.25 5.75 -3.25 l1.75 0 0 4.45 0 4.50 -2 -0.10 c-4.05 -0.15 -6.40 3.50 -6.45 10 -0.05 5.25 0 5.15 -4.60 5.15 l-3.95 0 0 -11.75z"/>
  <path d="M201 55.90 c-7.40 -4 -7.75 -16.15 -0.60 -20.90 2.55 -1.70 5.35 -2.20 10 -1.90 6.85 0.50 10.60 4.05 11.35 10.70 0.60 5.25 -1.30 9.50 -5.20 11.65 -1.80 1 -3.05 1.20 -7.75 1.40 -5.15 0.25 -5.70 0.15 -7.80 -0.95z m9.90 -10 c0.10 -2.15 -0.05 -3.40 -0.40 -3.40 -0.25 0 -0.50 -0.35 -0.50 -0.75 0 -0.95 -1.45 -0.95 -2.75 0 -0.75 0.60 -0.95 1.35 -0.95 3.50 0 3.05 1 4.35 3.20 4.10 1.20 -0.10 1.25 -0.30 1.40 -3.45z"/>
  <path d="M284.50 45.25 l0 -11.75 4.30 0 4.30 0 -0.35 2 c-0.40 2.35 0.20 2.60 1.40 0.50 1.10 -1.80 3.20 -3 5.35 -3 l1.50 0 0 2.95 c0 1.60 0.15 3.60 0.30 4.45 0.30 1.55 0.30 1.55 -1.65 1.45 -4 -0.15 -6.20 2.70 -6.50 8.40 -0.10 1.90 -0.30 4.25 -0.45 5.15 l-0.25 1.60 -3.95 0 -4 0 0 -11.75z"/>
  <path d="M310.75 56.35 c-2.35 -1.10 -2.75 -2.60 -2.75 -10.60 l0 -7.20 -1.60 -0.15 c-1.60 -0.15 -1.65 -0.25 -1.80 -2.50 l-0.15 -2.40 1.75 0 1.80 0 0 -3.75 0 -3.80 4.40 0.15 4.35 0.15 0.15 3.65 0.15 3.60 2 0 2 0 -0.15 2.10 c-0.15 1.85 -0.30 2.10 -1.90 2.65 l-1.75 0.60 -0.15 5 c-0.15 5.55 0.30 6.65 2.70 6.65 1.10 0 1.20 0.15 1.20 2.70 0 1.60 -0.25 2.90 -0.60 3.10 -1.15 0.75 -8.10 0.75 -9.65 0.05z"/>
  <path d="M325.85 56.65 c-0.20 -0.15 -0.35 -5.45 -0.35 -11.75 l0 -11.40 4.75 0 4.75 0 0 11.75 0 11.75 -4.40 0 c-2.45 0 -4.60 -0.15 -4.75 -0.35z"/>
  <path d="M325.50 26.40 l0 -3.40 4.75 0 4.75 0 0 3.40 0 3.35 -4.75 0 -4.75 0 0 -3.35z"/>
 </g>
 <g fill="#ffffff" stroke="#ffffff" stroke-width="0.5">
  <path d="M119.25 102.05 c-3.40 -0.85 -6.35 -3.70 -7.25 -7.10 -0.65 -2.35 -0.75 -6.70 -0.20 -9.10 1.50 -6.90 9.45 -10.45 14.75 -6.55 1.95 1.40 0.85 1.70 -1.70 0.40 -2.30 -1.25 -6.50 -1.15 -8.20 0.10 -3.45 2.55 -5.15 7.85 -4.10 12.75 0.80 3.65 1.60 5.15 3.60 6.40 2.40 1.45 7.10 1.45 9.60 0 1.40 -0.85 1.95 -0.95 2.40 -0.50 1.15 1.20 -3.80 4.20 -6.65 4 -0.40 -0.05 -1.40 -0.20 -2.25 -0.40z"/>
  <path d="M201.80 101.95 c-6.90 -1.40 -10.60 -7.90 -9 -15.80 0.50 -2.65 3.65 -6.20 6.45 -7.30 3.35 -1.35 10.20 -1.45 12.80 -0.15 6 2.90 8.65 10.45 5.75 16.55 -1.35 2.90 -3.30 4.90 -5.80 5.90 -2.40 1 -7.25 1.35 -10.20 0.80z m9.25 -2.70 c3.15 -1.15 4.35 -2.50 5.50 -6.45 l1.10 -3.55 -1.15 -3.40 c-1.85 -5.45 -5.65 -7.65 -12.25 -7.10 -4.35 0.35 -5.85 0.95 -7.80 3.10 -2.55 2.70 -3.10 4.50 -2.80 8.70 0.35 5.30 1.10 6.55 5.10 8.45 2.55 1.25 9.15 1.35 12.30 0.25z"/>
  <path d="M202.95 96.35 c-2.20 -1.45 -3.45 -4 -3.45 -7.05 0 -4.10 2.85 -7.80 6 -7.80 0.55 0 1.90 0.90 3 2 1.95 1.95 2 2.10 2 5.45 0 3.60 -0.35 5.20 -1 4.80 -0.20 -0.15 -0.35 0.10 -0.30 0.55 0.05 0.85 -1.80 2.45 -3.50 2.90 -0.65 0.20 -1.65 -0.10 -2.75 -0.85z m4.05 -3.10 c0.80 -0.85 1.15 -1.80 1.15 -3.20 0 -2.20 -1.25 -4.55 -2.40 -4.55 -1.20 0 -2.75 2.50 -2.75 4.50 0 1.75 1.50 4.50 2.45 4.50 0.20 0 0.90 -0.55 1.55 -1.25z m2.85 -4.35 c-0.10 -0.65 -0.20 -0.15 -0.20 1.10 0 1.25 0.10 1.75 0.20 1.15 0.10 -0.65 0.10 -1.65 0 -2.25z"/>
  <path d="M272.60 102.15 c-1 -0.15 -2.40 -0.95 -3.60 -2.10 -1.80 -1.70 -2 -2.15 -2 -4.35 0 -2.90 1.30 -5.30 3.40 -6.40 0.80 -0.40 3.80 -1.15 6.65 -1.60 6.25 -0.95 8 -2.05 6.15 -3.90 -1.20 -1.20 -4.30 -1 -5.60 0.35 -0.95 1 -1.40 1.10 -5.05 0.95 -3.70 -0.15 -4.05 -0.25 -4.05 -1.20 0 -1.90 1.65 -3.85 4.20 -4.95 2.15 -0.95 3.50 -1.10 8.30 -1.15 6.65 0 8.90 0.70 10.50 3.30 1.05 1.75 1.35 4.40 0.50 4.40 -0.30 0 -0.50 2.35 -0.50 6 0 3.65 0.20 6 0.50 6 0.30 0 0.50 0.40 0.50 0.90 0 0.50 0.35 1.40 0.80 2 l0.75 1.10 -4.75 0 c-4.65 0 -4.80 -0.05 -4.80 -1.10 0 -1.05 0.20 -1.15 3.10 -1.15 l3.15 0 0 -8.60 c0 -8.30 -0.05 -8.60 -1.15 -9.80 -1.80 -1.90 -4.90 -2.55 -10.40 -2.15 -6.50 0.45 -9.80 1.95 -9 4.10 0.25 0.65 0.75 0.75 2.95 0.45 1.40 -0.20 2.95 -0.70 3.40 -1.10 1.55 -1.35 4.30 -1.40 6.20 -0.10 2.45 1.70 2.60 2.45 0.65 4.25 -1.40 1.25 -2.40 1.65 -5.65 2.15 -5.80 0.90 -8.05 1.85 -9.25 3.75 -0.55 0.95 -1 2.15 -1 2.70 0 1.50 1.55 3.95 2.90 4.55 2.05 0.95 7.70 0.65 10.05 -0.50 3.75 -1.80 4.90 -0.10 1.25 1.85 -2 1.10 -6.15 1.70 -9.10 1.35z"/>
  <path d="M19.50 62.25 l0 -39.25 39.25 0 39.25 0 0 39.25 0 39.25 -39.25 0 -39.25 0 0 -39.25z m76.75 35.65 c0.15 -0.90 0.20 -17.85 0.15 -37.65 l-0.15 -36 -2.75 -0.35 c-1.50 -0.15 -18.40 -0.30 -37.50 -0.25 l-34.75 0.10 -0.25 37.50 c-0.15 20.65 -0.20 37.65 -0.10 37.90 0.10 0.20 17 0.35 37.60 0.35 l37.45 0 0.30 -1.60z"/>
  <path d="M28.25 97 l4 -0.30 -3.85 -0.10 c-2.80 -0.05 -3.85 -0.25 -3.70 -0.70 0.05 -0.35 0.05 -0.50 -0.05 -0.25 -0.40 0.65 -1.65 0.35 -1.65 -0.40 0 -0.40 1.70 -5.65 3.80 -11.70 4.60 -13.20 4.40 -12.95 10.65 -12.55 2.75 0.15 4.30 0.45 4.45 0.90 0.15 0.45 -1 0.60 -4.50 0.70 l-4.65 0.10 5 0.25 c3.10 0.20 5.15 0.10 5.35 -0.20 0.25 -0.30 0.40 -0.30 0.40 0.10 0 0.30 0.50 1.45 1.10 2.45 0.95 1.60 1.15 1.75 1.45 0.90 0.20 -0.50 0.40 -1.55 0.40 -2.30 0.05 -0.90 0.30 -1.40 0.80 -1.40 0.55 0 0.75 0.65 0.85 2.65 l0.10 2.60 0.15 -2.35 0.20 -2.40 5.50 0 c3 0 5.45 -0.15 5.45 -0.35 0 -0.25 -2.40 -0.35 -5.30 -0.25 -5 0.15 -7 -0.25 -6 -1.25 0.70 -0.70 13.90 -0.10 16.05 0.70 1.10 0.45 2.60 0.75 3.40 0.75 0.75 -0.05 1.35 0.10 1.35 0.30 0 0.20 2.80 0.30 6.25 0.20 3.45 -0.10 6.25 -0.30 6.25 -0.50 0 -0.20 -2.75 -0.35 -6.10 -0.35 -4.40 0 -6.10 -0.15 -6.25 -0.60 -0.35 -0.95 13.30 -0.90 15.50 0.05 3.15 1.30 6.65 6.45 6.10 9.05 -0.15 0.70 -0.35 1.80 -0.50 2.50 -0.15 0.70 -0.50 1.15 -0.75 1 -0.25 -0.15 -0.35 0 -0.25 0.40 0.15 0.35 -0.15 1.10 -0.75 1.60 -1.15 1.05 -1.25 1.45 -0.35 2.35 0.35 0.35 1.75 2.10 3.05 3.85 l2.45 3.20 -1.20 0.90 c-0.95 0.75 -2.10 0.95 -5.35 0.95 l-4.15 0 -1.95 -1.95 c-1.95 -1.95 -2.50 -2.05 -2.50 -0.60 -0.05 1.70 -2.30 2.60 -6.10 2.45 -2.10 -0.10 -3.60 -0.35 -3.55 -0.65 0.20 -1.10 -2.05 -1.25 -4.70 -0.25 -2.35 0.90 -3.90 1 -12.40 1 l-9.70 0 -1.65 -1.50 c-1.55 -1.45 -3.35 -1.85 -5.10 -1.20 -0.45 0.15 -0.80 0.55 -0.80 0.80 0 1.30 -1.85 1.85 -6 1.80 l-4.25 -0.10 4 -0.30z m27.65 -0.35 c-2.45 -0.10 -6.35 -0.10 -8.75 0 -2.45 0.05 -0.45 0.15 4.35 0.15 4.80 0 6.80 -0.10 4.40 -0.15z m19 0 c-0.80 -0.10 -2 -0.10 -2.75 0 -0.80 0.10 -0.15 0.20 1.35 0.20 1.50 0 2.15 -0.10 1.40 -0.20z m13.95 0 c-1 -0.10 -2.60 -0.10 -3.50 0 -0.85 0.10 0 0.20 1.90 0.20 1.95 0 2.65 -0.10 1.60 -0.20z m-58 -1.45 c0.60 -0.15 1.30 -0.95 1.60 -1.75 l0.50 -1.45 5 0 c4.65 0 5.05 0.10 5.05 0.95 0 0.55 0.40 1.35 0.85 1.80 0.75 0.75 1.80 0.85 8.85 0.65 8.90 -0.25 11.85 -1 13.55 -3.60 0.70 -1.05 1.25 -1.30 2.80 -1.30 l1.95 0 0 2.20 c0 1.90 0.15 2.25 1.25 2.50 0.70 0.20 1.80 0.20 2.50 0 1.25 -0.30 1.30 -0.40 1.15 -4.40 l-0.15 -4.05 2 0 c1.85 0 2 0.10 3.75 3.10 2.60 4.60 3.70 5.65 5.75 5.65 0.95 0 1.75 -0.15 1.75 -0.35 0 -0.25 -1.25 -1.80 -2.75 -3.50 -2.10 -2.30 -2.75 -3.45 -2.75 -4.60 0 -1.15 0.25 -1.55 0.90 -1.55 1 0 3.25 -2.20 3.75 -3.65 0.50 -1.40 -0.85 -4.05 -2.70 -5.45 -2.25 -1.65 -5.50 -2.40 -10.40 -2.40 l-4.05 0 0 2.25 c0 2.25 0 2.25 -1.70 2.25 -0.95 0 -1.90 -0.25 -2.05 -0.50 -1.35 -2.20 -7.65 -4 -14.05 -4 l-3.45 0 0.20 8.05 0.15 8 -1.90 -0.15 -1.90 -0.15 -2.55 -7.85 -2.50 -7.90 -3.35 0 c-1.85 0 -3.50 0.25 -3.65 0.50 -0.45 0.75 -7.25 20 -7.25 20.55 0 0.50 2.20 0.60 3.85 0.15z m7.20 -2.10 c-1.75 -0.10 -3.40 0.05 -3.60 0.25 -0.20 0.20 1.20 0.30 3.20 0.15 l3.60 -0.25 -3.20 -0.15z m51.80 -13.20 c-0.10 -0.65 -0.20 -0.15 -0.20 1.10 0 1.25 0.10 1.75 0.20 1.15 0.10 -0.65 0.10 -1.65 0 -2.25z"/>
  <path d="M55 85 l0 -6 3.05 0 c3.55 0 4.65 0.50 5.70 2.50 0.95 1.80 0.95 4.05 0.05 6.20 -1 2.45 -2.55 3.30 -5.90 3.30 l-2.90 0 0 -6z m4.90 1.40 c0.85 -0.85 0.75 -3.20 -0.20 -4.10 -1.20 -1.20 -1.70 -0.50 -1.70 2.25 0 2.50 0.65 3.10 1.90 1.85z"/>
  <path d="M34.35 89.70 c-0.55 -0.55 -0.40 -2.80 0.35 -5.50 0.40 -1.35 0.85 -3.10 1 -3.85 0.30 -1.25 0.50 -1.40 2.15 -1.25 1.75 0.15 1.75 0.15 2.75 3.90 0.50 2.05 0.85 4.45 0.80 5.25 -0.15 1.50 -0.20 1.50 -3.40 1.65 -1.80 0.10 -3.45 0 -3.65 -0.20z"/>
  <path d="M76 81.25 l0 -3.75 2.90 0 c1.60 0 3.15 0.25 3.50 0.60 0.35 0.35 0.60 1.75 0.60 3.15 0 1.40 -0.25 2.80 -0.60 3.15 -0.35 0.35 -1.90 0.60 -3.50 0.60 l-2.90 0 0 -3.75z"/>
  <path d="M36.80 68.50 c-0.35 -0.15 -0.60 -0.65 -0.55 -1.10 0.10 -0.50 0 -0.85 -0.15 -0.85 -3.65 0.50 -0.70 -1.80 12.65 -9.90 3.60 -2.20 11.45 -6.95 17.50 -10.60 6.05 -3.65 11.65 -7.05 12.40 -7.60 0.80 -0.60 1.75 -0.90 2.35 -0.70 1.20 0.40 1.80 2.15 1 2.95 -0.50 0.40 -0.55 0.40 -0.25 -0.20 0.40 -0.65 0.35 -0.65 -0.40 -0.05 -0.90 0.75 -1.15 1.30 -0.35 0.80 0.90 -0.55 0.50 0.45 -1 2.50 -2.70 3.65 -5.40 7.45 -11.25 15.45 -3.15 4.35 -6.15 8.25 -6.65 8.60 -0.65 0.45 -4.15 0.65 -12.75 0.80 -6.55 0.10 -12.20 0.05 -12.55 -0.10z m18.85 -0.85 c-3.35 -0.10 -8.95 -0.10 -12.50 0 -3.50 0.05 -0.75 0.15 6.10 0.15 6.90 0 9.75 -0.10 6.40 -0.15z m9.05 -7.75 c2.60 -3.65 4.90 -6.90 5.15 -7.15 0.85 -1.05 4.50 -6.05 4.85 -6.65 0.25 -0.40 -1.45 0.50 -3.75 1.90 -2.30 1.45 -7.80 4.80 -12.20 7.50 -12.70 7.70 -17.50 10.65 -17.70 10.85 -0.10 0.05 4.10 0.15 9.35 0.15 l9.50 0 4.80 -6.60z"/>
  <path d="M86.10 36.15 c-2.05 -1 -2.80 -2.30 -2.70 -4.85 0.25 -5.30 6.65 -6.95 9.55 -2.45 1.55 2.35 1.20 4.85 -0.95 6.80 -1.75 1.55 -3.50 1.70 -5.90 0.50z m3.85 -2.15 c1.40 -0.70 1.70 -2 0.75 -3.05 -1.10 -1.25 -1.95 -1.20 -3.25 0.10 l-1.05 1.05 1.15 1.20 c1.30 1.40 1.20 1.35 2.40 0.70z"/>
  <path d="M129.50 99.95 c0 -1.30 0.10 -1.45 0.70 -1 0.40 0.35 1.70 0.55 2.90 0.45 l2.15 -0.15 0.15 -14.40 c0.05 -9.35 -0.05 -14.75 -0.40 -15.35 -0.60 -1.10 -2.90 -1.35 -4.55 -0.50 -0.85 0.45 -0.95 1.10 -0.95 5.25 0 2.60 -0.20 4.85 -0.50 5 -0.30 0.20 -0.50 -1.75 -0.50 -5.45 l0 -5.80 4.50 0 4.50 0 0 16.75 0 16.75 -4 0 -4 0 0 -1.55z"/>
  <path d="M143 90 l0 -11.50 4.50 0 c3.65 0 4.50 0.15 4.50 0.75 0 0.40 -0.35 0.75 -0.75 0.75 -0.65 0 -0.75 1.40 -0.75 9.50 0 8.10 0.10 9.50 0.75 9.50 0.45 0 0.75 0.45 0.75 1.25 0 1.25 -0.05 1.25 -4.50 1.25 l-4.50 0 0 -11.50z m6.90 -0.20 c0.10 -6.90 -0.05 -9.60 -0.50 -10.15 -0.75 -0.95 -4.80 -0.60 -5.45 0.40 -0.50 0.80 -0.60 17.45 -0.15 18.70 0.25 0.65 0.90 0.75 3.15 0.65 l2.80 -0.15 0.15 -9.45z"/>
  <path d="M165.50 84.75 l0 -16.75 8.15 0 c4.45 0 9 0.25 10.10 0.55 5.40 1.50 8.25 9 5.45 14.50 -0.85 1.70 -3.40 3.85 -5 4.25 -0.65 0.15 -1.20 0.40 -1.20 0.50 0 0.15 2.25 3.15 5 6.70 2.75 3.60 5 6.60 5 6.75 0 0.15 -2.30 0.25 -5.10 0.25 l-5.15 0 -1.05 -1.65 c-0.60 -0.85 -2.25 -3.50 -3.65 -5.85 -1.45 -2.35 -2.95 -4.75 -3.40 -5.35 -0.45 -0.70 -0.55 -1.15 -0.20 -1.15 0.30 0 1.60 1.70 2.90 3.80 1.35 2.10 3.10 4.75 3.90 5.90 1.50 2 1.65 2.05 4.90 2.30 1.85 0.15 3.35 0.15 3.35 0 0 -0.30 -2.65 -4.20 -4.95 -7.25 -0.85 -1.10 -1.90 -2.50 -2.35 -3.10 -1.10 -1.55 -0.65 -2.35 2.20 -4.15 2.95 -1.80 3.85 -3.60 3.85 -7.50 -0.05 -3.75 -1.30 -5.90 -4.50 -7.50 -2.30 -1.15 -3.05 -1.25 -9.35 -1.25 -3.75 0 -6.95 0.10 -7.10 0.25 -0.20 0.20 -0.50 26.65 -0.35 29.90 0.05 0.40 0.90 0.60 2.50 0.60 3 0 3.15 -0.30 3 -5.75 -0.10 -3.40 0 -4.05 0.70 -4.15 0.75 -0.15 0.85 0.50 0.85 5.85 l0 6.05 -4.25 0 -4.25 0 0 -16.75z"/>
  <path d="M222.50 90 l0 -11.50 4 0 c3.65 0 4 0.10 4 1 0 1.20 -1.10 1.30 -2 0.25 -0.75 -0.90 -3.55 -1 -4.40 -0.15 -0.70 0.70 -0.85 18.25 -0.15 19.30 0.25 0.45 1.25 0.60 2.85 0.50 l2.45 -0.15 0.25 -6.25 c0.25 -6.75 0.60 -7.80 3.05 -9.55 1.45 -1.05 1.65 -1.05 3.20 -0.30 2.95 1.40 3.45 2.80 3.75 9.80 l0.25 6.30 2.75 0 2.75 0 0.15 -6 c0.10 -6.65 0.70 -8.50 3.20 -10 1.25 -0.70 1.70 -0.75 2.95 -0.25 2.95 1.25 3.45 2.50 3.45 8.85 0 7.10 0.25 7.65 3.45 7.65 3.05 0 3.05 0 3.05 -8.95 0 -6.25 -0.10 -6.85 -1.25 -8.80 -0.70 -1.25 -1.85 -2.40 -2.75 -2.75 -2.35 -1 -6.35 -0.30 -8.90 1.50 -2.85 2 -3.25 1.90 -0.85 -0.20 4.50 -4 11.90 -3.35 14.25 1.20 0.90 1.70 1 3.10 1.15 11 l0.10 9 -4.35 0 -4.40 0 0 -7.25 c0 -7.10 -0.05 -7.35 -1.25 -8.50 -1.55 -1.60 -2.95 -1.60 -4.50 0 -1.20 1.15 -1.25 1.40 -1.25 8.50 l0 7.25 -4.45 0 -4.45 0 -0.20 -7.55 c-0.15 -7.20 -0.20 -7.60 -1.35 -8.50 -1.45 -1.20 -2.65 -1.20 -4.10 0 -1.15 0.90 -1.20 1.25 -1.35 8.50 l-0.15 7.55 -4.50 0 -4.45 0 0 -11.50z"/>
  <path d="M276.45 97.25 c-2.50 -1.65 -2.70 -2.55 -1.20 -4.50 1.20 -1.60 2.65 -2.30 6.15 -3 1.40 -0.30 1.60 -0.20 1.60 0.70 0 0.55 0.25 1.15 0.50 1.30 0.30 0.15 0.50 0 0.50 -0.35 0 -0.50 0.10 -0.50 0.45 0.05 1 1.60 -1.20 5.70 -3.55 6.50 -2.15 0.75 -2.45 0.70 -4.45 -0.70z m0.45 -1.25 c-0.50 -0.80 -0.50 -1.20 0.05 -2.10 0.65 -1.05 0.65 -1.10 -0.10 -0.45 -1 0.80 -1.10 2.10 -0.25 2.95 0.90 0.90 1 0.75 0.30 -0.40z m3.80 -1.25 c0.30 -0.80 -0.15 -0.95 -1.40 -0.45 -1.10 0.40 -1 1.20 0.15 1.20 0.50 0 1.05 -0.35 1.25 -0.75z"/>
  <path d="M120.30 95.05 c-1.15 -1.20 -1.50 -2.10 -1.70 -4.30 -0.25 -3.25 0.45 -5.30 2.50 -7 2.05 -1.75 3.95 -1.60 6.05 0.40 2.05 1.90 2.90 4.55 2.35 7.10 -0.55 2.40 -1.90 4.40 -2.80 4.05 -0.40 -0.15 -0.65 0 -0.55 0.35 0.05 0.40 -0.70 0.65 -2.15 0.75 -1.95 0.15 -2.45 -0.05 -3.70 -1.35z m5.40 -2 c1.40 -1.55 1.60 -4.25 0.35 -5.50 -1.30 -1.30 -1.80 -1.30 -3.05 -0.05 -1.20 1.20 -1.30 3.85 -0.20 5.40 0.95 1.35 1.80 1.40 2.90 0.15z"/>
  <path d="M175.25 83.55 c0.20 -0.35 -0.30 -0.70 -1.20 -0.85 l-1.55 -0.30 0 -4.10 c0 -3.45 0.15 -4.30 1 -5.20 1.25 -1.35 2.15 -1.35 4.80 -0.15 2.30 1.05 4.20 3.35 4.20 5.15 0 1.40 -1.65 4.15 -2.85 4.80 -1.50 0.80 -4.80 1.25 -4.40 0.65z m2.75 -2.80 c1.90 -1 2 -2.80 0.25 -3.95 -2.20 -1.45 -2.75 -1.10 -2.75 1.95 0 3 0.25 3.15 2.50 2z"/>
  <path d="M232.45 80.35 c0.65 -0.75 2.20 -1.70 3.40 -2.15 1.85 -0.75 2.60 -0.75 4.85 -0.25 1.60 0.35 3.10 1.10 3.80 1.80 1.80 1.90 0.80 2.05 -1.85 0.25 -2.15 -1.40 -2.70 -1.55 -4.85 -1.30 -1.45 0.15 -3.30 0.85 -4.50 1.60 l-2.05 1.35 1.20 -1.30z"/>
  <path d="M143 71.50 l0 -3.50 4.50 0 c3.65 0 4.50 0.15 4.50 0.75 0 0.40 -0.35 0.75 -0.75 0.75 -0.45 0 -0.75 0.45 -0.75 1.25 0 0.80 0.30 1.25 0.75 1.25 0.40 0 0.75 0.45 0.75 1 0 0.55 -0.35 1 -0.75 1 -0.40 0 -0.75 0.25 -0.75 0.50 0 0.80 -1.35 0.60 -1.70 -0.25 -0.15 -0.45 -0.95 -0.75 -2.05 -0.75 -1.10 0 -1.90 0.30 -2.05 0.75 -0.20 0.40 -0.60 0.75 -1 0.75 -0.55 0 -0.70 -0.85 -0.70 -3.50z m6.40 0.90 c0.35 -0.35 0.60 -1.05 0.60 -1.65 0 -1.40 -0.95 -2.25 -2.45 -2.25 -3.30 0 -4.70 1.40 -3.55 3.50 0.40 0.75 1.05 1 2.65 1 1.20 0 2.40 -0.25 2.75 -0.60z"/>
  <path d="M225.50 50.50 l0 -17 4 0 c3.65 0 4 0.10 4 1 0 1.10 -1 1.30 -2.60 0.45 -0.55 -0.30 -1.75 -0.40 -2.70 -0.20 l-1.70 0.30 0.10 15.10 0.15 15.10 2.40 0.15 c2.20 0.15 2.40 0.05 2.90 -1.25 0.30 -0.75 0.50 -2.85 0.40 -4.65 -0.15 -4.35 -0.10 -4.50 1.05 -4.50 0.55 0 1 -0.30 1 -0.70 0 -0.60 0.45 -0.55 2.35 0.30 2.85 1.25 6.25 1 8.85 -0.70 2.70 -1.75 3.50 -3.55 3.70 -8.40 0.20 -3.90 0.10 -4.45 -1.25 -6.95 -2.55 -4.90 -7.55 -6.20 -12 -3.20 -0.95 0.65 -1.65 0.90 -1.55 0.55 0.15 -0.35 1.10 -1.15 2.20 -1.80 1.60 -0.95 2.55 -1.10 5.25 -1 4.25 0.20 6.80 2.05 8.45 6.20 1 2.40 1.10 3.35 0.85 6.95 -0.30 4.50 -1.45 7.10 -4.10 9.15 -3.05 2.40 -8.70 2.75 -10.90 0.65 -0.65 -0.55 -1.30 -1.05 -1.50 -1.05 -0.20 0 -0.35 2.80 -0.35 6.25 l0 6.25 -4.50 0 -4.50 0 0 -17z"/>
  <path d="M153.65 56.45 c-8.05 -3.10 -9.60 -14.55 -2.85 -20.45 2.45 -2.15 3.70 -2.60 7.75 -2.85 3.05 -0.25 4.45 -0.10 6.25 0.60 4.80 1.80 8.30 6.35 8.40 10.90 l0.05 2.40 -8.85 -0.05 c-7.85 -0.05 -8.90 0.05 -8.90 0.75 0 1.35 1 2.75 2.65 3.75 1.55 0.95 1.55 1 0.35 1 -1.50 -0.05 -2.85 -1 -4.10 -2.85 -1.15 -1.80 -1.15 -2.65 0.10 -2.65 0.55 0 1 -0.30 1 -0.70 0 -0.70 5.20 -1.30 11.90 -1.30 l3.60 0 0 -1.75 c0 -3.40 -2.90 -6.90 -7.20 -8.75 -2.85 -1.20 -6.55 -1.05 -10.05 0.50 -5.15 2.20 -7.75 9.30 -5.45 14.80 1.65 3.95 4.65 5.40 11.20 5.40 3.90 0 5.15 -0.20 7.10 -1.15 2.45 -1.20 3.55 -2.85 2.35 -3.60 -0.45 -0.30 0.05 -0.45 1.45 -0.45 1.55 0 2.10 0.20 2.10 0.75 0 1.40 -4.20 5.05 -6.75 5.90 -3.35 1.15 -8.80 1.05 -12.10 -0.20z"/>
  <path d="M203.05 56.75 c-4.75 -1.50 -7.50 -5.75 -7.55 -11.65 0 -5.20 1.90 -8.45 6.25 -10.75 2.40 -1.25 8.55 -1.70 11.55 -0.90 4.60 1.25 8 5.35 8.60 10.30 0.20 1.80 0.05 2.20 -0.70 2.40 -0.90 0.25 -0.90 0.25 0 0.30 0.75 0.05 0.85 0.30 0.55 1.45 -1.50 6.35 -6.10 9.65 -13.20 9.55 -1.80 0 -4.30 -0.30 -5.50 -0.70z m11.80 -2.65 c2.75 -1.45 3.95 -3 4.70 -6.10 0.70 -3 0.70 -4.35 -0.15 -7 -0.95 -3 -2.40 -4.55 -5.85 -6.15 -2.85 -1.25 -3.65 -1.45 -6.15 -1.15 -8.30 0.85 -12.30 6.05 -10.70 13.90 0.70 3.40 2.85 5.95 6 7.15 2.80 1 9.55 0.65 12.15 -0.65z"/>
  <path d="M205.05 51.05 c-1.90 -1.80 -2.55 -3.45 -2.55 -6.65 0 -4.05 2.60 -7.40 5.70 -7.40 1.05 0 2 0.55 3.45 2.05 l1.95 2.10 -0.20 4.20 c-0.15 3.75 -0.30 4.35 -1.35 5.20 -0.60 0.50 -1.40 0.80 -1.70 0.60 -0.25 -0.15 -0.35 -0.05 -0.20 0.20 0.20 0.30 0 0.70 -0.45 0.85 -1.65 0.65 -3.15 0.25 -4.65 -1.15z m5.80 -3.95 c0.85 -1.55 0.80 -2.10 -0.10 -3.95 -1.30 -2.65 -2.05 -2.95 -3.50 -1.35 -1.75 1.85 -1.75 5 0 6.90 1.20 1.30 1.30 1.30 2.10 0.50 0.50 -0.45 1.15 -1.40 1.50 -2.10z m2 -3.20 c-0.10 -0.90 -0.20 -0.30 -0.20 1.35 0 1.65 0.10 2.40 0.20 1.65 0.10 -0.75 0.10 -2.10 0 -3z m-3.85 -5.45 c0 -0.90 -1 -0.90 -1.45 0 -0.45 0.80 -0.40 0.90 0.45 0.70 0.55 -0.15 1 -0.45 1 -0.70z"/>
  <path d="M262.10 56.60 c-3.20 -1.15 -4.80 -2.60 -6.40 -5.70 -1.45 -2.85 -1.60 -6.60 -0.35 -10.40 1.55 -4.75 6.20 -7.50 12.85 -7.50 8.30 0 13.20 5.15 12.70 13.45 -0.15 2.95 -0.45 3.85 -1.75 5.65 -0.85 1.20 -2.55 2.80 -3.80 3.60 -3.10 1.90 -9.20 2.35 -13.25 0.90z m11.60 -2.35 c2.35 -1.10 4.10 -3.15 5 -5.75 1.50 -4.25 0.65 -8.20 -2.40 -11.20 -2.90 -2.90 -6.40 -3.95 -11.05 -3.30 -4.25 0.60 -6.90 2.30 -8.60 5.45 -1.55 2.95 -1.60 7.65 -0.10 10.80 1.25 2.70 1.65 3.05 5 4.30 2.15 0.80 3.50 0.95 6.60 0.75 2.15 -0.15 4.65 -0.65 5.55 -1.05z"/>
  <path d="M264.65 51.40 c-2.15 -1.55 -2.70 -2.60 -3 -5.60 -0.25 -2.75 0.80 -6.10 2.10 -6.60 0.40 -0.20 0.65 -0.50 0.50 -0.70 -0.40 -0.65 2.65 -1.65 3.90 -1.30 0.70 0.15 1.95 1 2.80 1.90 1.60 1.65 1.65 1.70 1.45 5.95 -0.10 3.45 -0.35 4.55 -1.10 5.40 -0.55 0.60 -1.30 0.95 -1.65 0.80 -0.40 -0.10 -0.60 -0.05 -0.45 0.20 0.30 0.50 -0.80 1.05 -2.10 1.05 -0.50 0 -1.55 -0.50 -2.45 -1.10z m5.55 -6.05 c0.05 -1.75 -0.25 -2.55 -1.20 -3.60 l-1.25 -1.30 -1.45 1.60 c-1.20 1.35 -1.35 1.90 -1.15 3.55 0.15 1.10 0.80 2.55 1.40 3.20 l1.15 1.25 1.25 -1.25 c0.90 -0.90 1.20 -1.80 1.25 -3.45z"/>
  <path d="M111.75 56.15 c0.20 -0.50 0.95 -2.60 1.75 -4.65 1.85 -5.05 5.45 -14.40 6.25 -16.25 0.35 -0.80 1.25 -3.20 1.95 -5.25 0.75 -2.05 1.70 -4.50 2.10 -5.40 l0.70 -1.65 4.55 0.15 c3.50 0.10 4.70 0.35 4.95 0.90 0.45 0.80 1.40 3.30 2.90 7.50 0.95 2.55 4.90 13 8.20 21.40 0.75 2.05 1.40 3.75 1.40 3.90 0 0.10 -0.65 0.20 -1.50 0.20 -1 0 -1.50 -0.25 -1.50 -0.75 0 -1.15 -4.30 -1.05 -4.95 0.15 -0.65 1.10 -1.15 0.55 -2.25 -2.55 -1.20 -3.25 -0.75 -4.10 0.65 -1.20 1.15 2.35 1.15 2.35 3.60 2.35 1.60 0 2.55 -0.25 2.75 -0.65 0.20 -0.65 -1.75 -6.25 -6.55 -18.60 -1.15 -3 -2.50 -6.60 -3 -8 -1.20 -3.45 -2.30 -4.25 -5.50 -4.25 -3.05 0 -3.65 0.55 -4.95 4.25 -1.05 2.85 -4.95 13.05 -7.85 20.45 -2.65 6.70 -2.60 6.90 0.70 6.70 2.40 -0.15 2.65 -0.25 3.45 -1.90 0.50 -0.95 1.45 -2.25 2.20 -2.90 1.20 -1.05 1.65 -1.10 6.85 -1 4.80 0.15 5.60 0.25 5.75 1 0.15 0.75 -0.45 0.90 -5.65 1 -6.45 0.15 -6.20 0.05 -7.75 4.30 -0.45 1.20 -0.95 1.60 -1.80 1.60 -0.75 0 -1.20 -0.30 -1.20 -0.75 0 -0.55 -0.60 -0.75 -2.25 -0.75 -1.55 0 -2.35 0.25 -2.55 0.75 -0.20 0.40 -0.65 0.75 -1.05 0.75 -0.50 0 -0.65 -0.25 -0.40 -0.85z"/>
  <path d="M176.50 45.25 l0 -11.75 4 0 4 0 0 1.50 c0 1.75 -0.95 2 -1.90 0.50 -0.40 -0.70 -1.15 -1 -2.35 -1 -2.50 0 -2.75 1.05 -2.75 10.40 0 10.35 -0.05 10.20 3.20 10 l2.55 -0.15 0.30 -4.75 c0.15 -3.05 0.60 -5.35 1.15 -6.40 0.90 -1.75 3.45 -3.60 4.95 -3.60 1.45 0 2.45 -3.80 1.40 -5.45 -0.60 -0.95 -2.20 -0.30 -4.15 1.60 l-1.60 1.60 1 -1.65 c1.10 -1.95 3 -3.10 5.20 -3.10 l1.50 0 0 3.40 c0 1.85 0.15 3.85 0.30 4.40 0.25 0.95 0.10 1.05 -1.70 1 -1.10 0 -2.55 0.25 -3.20 0.60 -2.20 1.20 -2.60 2.50 -2.80 8.75 -0.20 5.70 -0.25 5.85 -1.35 5.85 -0.65 0 -1.25 -0.35 -1.45 -0.75 -0.15 -0.50 -0.95 -0.75 -2.30 -0.75 -1.35 0 -2.15 0.25 -2.30 0.75 -0.20 0.40 -0.60 0.75 -1 0.75 -0.60 0 -0.70 -2.05 -0.70 -11.75z"/>
  <path d="M284.50 45.25 l0 -11.75 4 0 4 0 0 1.75 c0 2 -1 2.35 -1.75 0.65 -0.35 -0.80 -1 -1.20 -2.15 -1.30 -3 -0.30 -3.10 0.10 -3.10 9.60 0 4.70 0.15 9.05 0.30 9.70 0.25 0.95 0.65 1.10 2.70 1.10 2.80 0 3 -0.30 3 -4.65 0 -1.70 0.25 -4 0.55 -5.10 0.65 -2.30 3.50 -5.25 5.15 -5.25 0.60 0 1.35 -0.25 1.70 -0.60 0.90 -0.90 0.75 -4.85 -0.15 -5.20 -0.90 -0.35 -4.05 1.50 -4.45 2.65 -0.20 0.45 -0.45 0.65 -0.60 0.50 -0.15 -0.15 0.20 -0.95 0.85 -1.80 1.20 -1.60 3.20 -2.55 5.50 -2.55 l1.45 0 0 4.45 0 4.40 -1.95 -0.05 c-4.50 -0.10 -6.05 2.45 -6.05 10.20 0 4.95 0 5 -1.20 5 -0.65 0 -1.30 -0.35 -1.50 -0.75 -0.15 -0.50 -0.95 -0.75 -2.30 -0.75 -1.35 0 -2.15 0.25 -2.30 0.75 -0.20 0.40 -0.60 0.75 -1 0.75 -0.60 0 -0.70 -2.05 -0.70 -11.75z"/>
  <path d="M312.50 56.55 c0 -0.25 -0.40 -0.35 -0.90 -0.20 -0.65 0.15 -1.40 -0.30 -2.25 -1.35 -1.35 -1.55 -1.35 -1.70 -1.35 -9.10 0 -4.15 0.15 -7.40 0.35 -7.25 0.15 0.20 0.25 2.95 0.20 6.10 -0.15 7.70 0.30 9 3.75 10.10 3.60 1.10 6.90 0.50 7.10 -1.40 0.10 -1 -0.25 -1.55 -1.85 -2.65 l-2 -1.40 -0.15 -4.95 c-0.15 -5.55 -0.10 -5.95 0.90 -5.95 0.55 0 0.70 1.05 0.70 5.40 0 6 0.25 6.60 2.85 6.60 l1.65 0 0 3.25 0 3.25 -4.50 0 c-2.45 0 -4.50 -0.20 -4.50 -0.45z"/>
  <path d="M326 45.25 l0 -11.80 4.25 0.15 4.30 0.15 0.10 11.65 0.10 11.60 -1.35 0 c-0.90 0 -1.40 -0.25 -1.40 -0.75 0 -0.55 -0.60 -0.75 -2.25 -0.75 -1.55 0 -2.35 0.25 -2.55 0.75 -0.90 2.30 -1.20 -0.40 -1.20 -11z m6.40 9.15 c0.40 -0.40 0.60 -3.30 0.60 -9.65 0 -9.90 -0.10 -10.25 -2.80 -10.25 -3.30 0 -3.20 -0.35 -3.20 10.20 0 5.30 0.15 9.80 0.35 9.95 0.55 0.60 4.40 0.40 5.05 -0.25z"/>
  <path d="M160.25 52.50 c0.15 -0.25 0.70 -0.50 1.20 -0.50 0.50 0 1.30 -0.45 1.80 -1 0.55 -0.60 1.50 -1 2.45 -0.95 l1.55 0 -1.90 0.70 c-1 0.40 -2.35 1.05 -2.95 1.50 -1.25 0.85 -2.65 1 -2.15 0.25z"/>
  <path d="M234.30 49.50 c-1.60 -1.80 -1.80 -2.30 -1.80 -4.70 0 -4.10 2.40 -7.30 5.40 -7.30 1.30 0 3.90 2.20 4.85 4.05 2.15 4.05 -0.85 9.95 -5 9.95 -1.25 0 -2.05 -0.45 -3.45 -2z m6.20 -3.55 c0.50 -1.20 0.50 -1.65 -0.20 -2.70 -1.25 -1.90 -2.30 -2.10 -3.40 -0.80 -1.25 1.55 -1.15 3.95 0.20 5.40 1 1.05 1.15 1.10 1.95 0.35 0.45 -0.40 1.15 -1.45 1.45 -2.25z"/>
  <path d="M126.35 45.65 c-1.10 -0.15 -1.40 -0.45 -1.20 -1.10 0.15 -0.70 0 -0.85 -0.70 -0.70 -0.60 0.20 -0.95 0 -0.95 -0.45 0 -1.35 3 -9.55 3.80 -10.45 0.95 -1.05 1.90 -0.75 1.50 0.40 -0.20 0.55 -0.10 0.65 0.45 0.50 0.90 -0.40 1.20 0.05 2.85 4.90 1.35 3.90 1.75 5.75 1.10 5.10 -0.20 -0.15 -0.70 0.15 -1.15 0.70 -0.85 1.05 -3.30 1.50 -5.70 1.10z m3.50 -4.40 c-0.30 -0.95 -0.70 -1.75 -0.95 -1.75 -0.20 0 -0.40 0.05 -0.40 0.15 0 0.05 -0.20 0.85 -0.45 1.75 -0.45 1.55 -0.40 1.60 0.95 1.60 1.40 0 1.40 -0.05 0.85 -1.75z"/>
  <path d="M155.50 43.05 c0 -0.25 -0.45 -0.55 -1 -0.70 -0.55 -0.15 -1 -0.60 -1 -1 0 -1.20 2.55 -3.90 4.35 -4.70 1.50 -0.60 1.90 -0.60 3.45 0.15 1.70 0.80 4.20 3.50 4.20 4.55 0 0.85 -1.30 1.15 -5.15 1.25 l-3.60 0.10 3.50 0.30 3.50 0.30 -4.10 0.10 c-2.30 0.05 -4.15 -0.10 -4.15 -0.35z m5.40 -2.35 c-0.45 -0.45 -1.20 -0.70 -1.60 -0.55 -1.35 0.55 -0.85 1.35 0.80 1.35 1.50 0 1.55 -0.05 0.80 -0.80z"/>
  <path d="M304.60 36.15 c0.15 -2.25 0.25 -2.40 1.65 -2.55 1.45 -0.20 1.45 -0.15 0.60 0.75 -1.05 1.20 -1.10 1.85 -0.10 2.65 1.15 0.95 0.90 1.50 -0.80 1.50 -1.50 0 -1.50 -0.05 -1.35 -2.35z"/>
  <path d="M316.70 37.95 c-0.40 -0.65 0.25 -1.30 1.50 -1.55 1.55 -0.25 1.45 -1.25 -0.20 -1.80 -2.15 -0.80 -1.85 -1.10 1 -1.10 l2.50 0 0 2.50 0 2.50 -2.20 0 c-1.25 0 -2.40 -0.25 -2.60 -0.55z"/>
  <path d="M315.50 30.55 c0 -2.95 -0.90 -4.05 -3.20 -4.05 -2.20 0 -3.35 1 -3.80 3.30 -0.35 1.85 -0.40 1.85 -0.45 -0.90 l-0.05 -2.90 4.50 0 4.50 0 0 3.50 c0 2.80 -0.15 3.50 -0.75 3.50 -0.55 0 -0.75 -0.60 -0.75 -2.45z"/>
  <path d="M326 26.50 l0 -3.50 4.20 0 4.20 0 0.20 3.50 0.15 3.50 -4.35 0 -4.40 0 0 -3.50z m6.90 -0.25 c0.20 -1.75 -0.90 -2.75 -3.10 -2.75 -2.50 0 -3.15 0.80 -2.90 3.65 0.10 0.75 0.50 0.90 3 0.75 2.75 -0.15 2.85 -0.20 3 -1.65z"/>
 </g>
 <g fill="#000000">
  <path d="M277.10 96.40 c-0.80 -0.80 -0.75 -2.15 0.10 -2.90 0.90 -0.70 5.80 -2.05 6.35 -1.70 0.55 0.30 -0.35 3.15 -1.35 4.25 -1 1.10 -4.15 1.30 -5.10 0.35z"/>
  <path d="M27.05 89.65 c1.30 -3.80 3.15 -9.10 4.05 -11.80 l1.60 -4.90 5 0.15 4.95 0.15 2.55 7.35 c1.45 4.05 2.75 7.50 2.95 7.70 0.20 0.20 0.35 -3.15 0.35 -7.45 l0 -7.85 6.40 0 c7.20 0 10.60 0.75 13.10 2.80 l1.50 1.30 0 -2.10 0 -2.10 7.40 0.20 c6.60 0.15 7.55 0.25 9.15 1.30 2.30 1.40 3.45 3.75 3.45 6.95 0 2.80 -0.85 4.25 -2.95 5.15 l-1.55 0.60 4 4.70 4.05 4.70 -4.90 0 -4.90 0 -1.95 -3.15 c-1.10 -1.70 -2.30 -3.65 -2.65 -4.25 -1.10 -1.80 -1.40 -0.95 -1.20 3.45 l0.15 4 -4.20 -0.15 -4.15 -0.15 0.15 -2.10 c0.20 -2.25 -0.50 -2.85 -1.35 -1.20 -0.30 0.50 -1.70 1.55 -3.15 2.25 -2.55 1.25 -2.85 1.30 -12.70 1.30 l-10.05 0 -0.45 -1.60 -0.50 -1.65 -3.45 0 -3.50 0 -0.50 1.65 -0.45 1.60 -4.35 0 -4.30 0 2.40 -6.85z m33.40 -0.90 c4.05 -2.05 2.70 -7.65 -2.05 -8.50 l-1.90 -0.35 0 4.80 0 4.80 1.25 0 c0.75 0 1.95 -0.35 2.70 -0.75z m-20.75 -0.70 c0.25 -0.40 -1.40 -6.90 -1.85 -7.35 -0.15 -0.15 -0.45 0.35 -0.65 1.10 -0.15 0.80 -0.60 2.50 -0.95 3.80 -0.35 1.25 -0.55 2.45 -0.40 2.60 0.35 0.35 3.65 0.20 3.85 -0.15z m41.20 -5.15 c0.35 -0.35 0.60 -1.05 0.60 -1.65 0 -1.45 -0.95 -2.25 -2.60 -2.25 -1.35 0 -1.40 0.10 -1.40 2.25 0 2.15 0.05 2.25 1.40 2.25 0.75 0 1.65 -0.25 2 -0.60z"/>
  <path d="M204.75 96 c-1.90 -0.70 -2.90 -2.40 -3.15 -5.20 -0.50 -6 3.80 -9.40 6.90 -5.45 1.40 1.80 1.45 7.45 0 9.25 -1.10 1.45 -2.35 1.90 -3.75 1.40z"/>
  <path d="M121.90 94.50 c-1.45 -1.45 -1.50 -1.70 -1.30 -4.60 0.20 -2.55 0.45 -3.25 1.60 -4.25 1.70 -1.45 2.90 -1.45 4.55 0 1 0.85 1.40 1.75 1.60 3.50 0.35 3.15 -0.55 5.30 -2.65 6.15 -2.15 0.90 -2.05 0.95 -3.80 -0.80z"/>
  <path d="M174.35 82.65 c-0.15 -0.20 -0.25 -2.15 -0.20 -4.35 l0.05 -3.90 2.50 0.25 c6.20 0.60 6.40 7.25 0.25 8.10 -1.30 0.20 -2.45 0.15 -2.60 -0.10z"/>
  <path d="M36.50 66.75 c0.35 -0.40 0.85 -0.75 1.10 -0.75 0.25 0 1.75 -0.80 3.30 -1.85 1.55 -1 10.85 -6.70 20.60 -12.65 9.75 -5.95 18.35 -11.20 19.15 -11.70 0.75 -0.50 1.35 -0.80 1.35 -0.65 0 0.15 -2.95 4.30 -6.55 9.20 -3.60 4.90 -8.15 11.20 -10.10 14 l-3.60 5.10 -12.95 0 c-11.45 0.05 -12.85 -0.05 -12.30 -0.70z"/>
  <path d="M206.20 50.30 c-1.20 -1 -1.40 -1.60 -1.55 -4.35 -0.20 -3.60 0.40 -5.30 2.40 -6.40 1.80 -1 3.75 -0.35 4.75 1.55 0.60 1.15 0.75 2.50 0.60 5 -0.15 3 -0.35 3.60 -1.40 4.45 -1.70 1.25 -3.15 1.20 -4.80 -0.25z"/>
  <path d="M265.25 50.20 c-1.50 -1.60 -2 -4.80 -1.30 -7.60 1.45 -5.25 6.95 -4.55 7.80 1 0.90 5.95 -3.20 10.15 -6.50 6.60z"/>
  <path d="M235.55 49.20 c-0.75 -1 -1.05 -2.05 -1.05 -4.05 0 -2.35 0.20 -2.95 1.50 -4.25 1.25 -1.20 1.80 -1.45 2.90 -1.15 1.95 0.50 2.50 1.10 3.10 3.30 0.60 2.25 0.05 5 -1.30 6.50 -1.30 1.45 -3.90 1.25 -5.15 -0.35z"/>
  <path d="M125.50 44.15 c0 -0.90 3.20 -10.15 3.50 -10.15 0.30 0 3.50 9.30 3.50 10.20 0 0.45 -7 0.35 -7 -0.05z"/>
  <path d="M155.50 42.20 c0 -0.60 1.20 -2.50 1.95 -3.05 1.50 -1.15 4 -0.75 5.60 0.80 0.80 0.80 1.45 1.70 1.45 2 0 0.35 -1.60 0.55 -4.50 0.55 -2.45 0 -4.50 -0.15 -4.50 -0.30z"/>
  <path d="M86.50 35 c-2.05 -2.05 -1.75 -4.65 0.75 -6.30 2.30 -1.50 5.75 0.55 5.75 3.40 0 3.20 -4.30 5.10 -6.50 2.90z"/>
 </g>
</svg>