<?xml version="1.0" encoding="UTF-8"?>
<svg width="40px" height="40px" viewBox="0 0 40 40" version="1.1" xmlns="http://www.w3.org/2000/svg" xmlns:xlink="http://www.w3.org/1999/xlink">
    <title>ic-006</title>
    <defs>
        <filter id="filter-1">
            <feColorMatrix in="SourceGraphic" type="matrix" values="0 0 0 0 0.450312 0 0 0 0 0.742908 0 0 0 0 0.023979 0 0 0 1.000000 0"></feColorMatrix>
        </filter>
    </defs>
    <g id="Page-1" stroke="none" stroke-width="1" fill="none" fill-rule="evenodd">
        <g id="ic-006" transform="translate(-460.000000, -108.000000)" filter="url(#filter-1)">
            <g transform="translate(461.000000, 109.000000)">
                <path d="M19,0.5 C24.1086339,0.5 28.7336339,2.57068303 32.0814755,5.91852455 C35.429317,9.2663661 37.5,13.8913661 37.5,19 C37.5,24.1086339 35.429317,28.7336339 32.0814755,32.0814755 C28.7336339,35.429317 24.1086339,37.5 19,37.5 C13.8913661,37.5 9.2663661,35.429317 5.91852455,32.0814755 C2.57068303,28.7336339 0.5,24.1086339 0.5,19 C0.5,13.8913661 2.57068303,9.2663661 5.91852455,5.91852455 C9.2663661,2.57068303 13.8913661,0.5 19,0.5 Z M19,3.5 C14.7197932,3.5 10.8447932,5.23489659 8.03984489,8.03984489 C5.23489659,10.8447932 3.5,14.7197932 3.5,19 C3.5,23.2802068 5.23489659,27.1552068 8.03984489,29.9601551 C10.8447932,32.7651034 14.7197932,34.5 19,34.5 C23.2802068,34.5 27.1552068,32.7651034 29.9601551,29.9601551 C32.7651034,27.1552068 34.5,23.2802068 34.5,19 C34.5,14.7197932 32.7651034,10.8447932 29.9601551,8.03984489 C27.1552068,5.23489659 23.2802068,3.5 19,3.5 Z" id="Combined-Shape" stroke="#6312FF" stroke-width="3"></path>
                <circle id="Oval-Copy-4" fill="#6312FF" fill-rule="nonzero" cx="19" cy="19" r="7"></circle>
            </g>
        </g>
    </g>
</svg>