<?xml version="1.0" encoding="UTF-8"?>
<svg width="44px" height="56px" viewBox="0 0 44 56" version="1.1" xmlns="http://www.w3.org/2000/svg" xmlns:xlink="http://www.w3.org/1999/xlink">
    <title>Group 32</title>
    <g id="Page-1" stroke="none" stroke-width="1" fill="none" fill-rule="evenodd">
        <g id="Group-32" fill="#F2B928">
            <path d="M21,0 C31.4934102,0 40,8.50658975 40,19 C40,29.4934102 31.4934102,38 21,38 C10.5065898,38 2,29.4934102 2,19 C2,8.50658975 10.5065898,0 21,0 Z M21,11 C16.581722,11 13,14.581722 13,19 C13,23.418278 16.581722,27 21,27 C25.418278,27 29,23.418278 29,19 C29,14.581722 25.418278,11 21,11 Z" id="Combined-Shape"></path>
            <path d="M33.9969918,39 L43.0870041,49.0985276 C36.6807029,53.346712 28.99592,55.8210846 20.7332164,55.8210846 C13.1556952,55.8210846 6.06422084,53.7400702 -0.000874227101,50.1183736 L8.63943716,39.8266234 C12.1099746,42.1133967 16.2661821,43.4442049 20.7332164,43.4442049 C25.7141555,43.4442049 30.3086363,41.7895809 33.9969918,39 Z" id="Combined-Shape"></path>
        </g>
    </g>
</svg>