<?xml version="1.0" encoding="UTF-8"?>
<svg width="42px" height="41px" viewBox="0 0 42 41" version="1.1" xmlns="http://www.w3.org/2000/svg" xmlns:xlink="http://www.w3.org/1999/xlink">
    <title>Combined Shape</title>
    <g id="Page-1" stroke="none" stroke-width="1" fill="none" fill-rule="evenodd">
        <path d="M26.6568542,2.47497959 L39.066651,14.8847763 C42.1908453,18.0089706 42.1908453,23.0742905 39.066651,26.1984848 L26.6568542,38.6082815 C23.5326599,41.7324759 18.4673401,41.7324759 15.3431458,38.6082815 L2.93334903,26.1984848 C-0.190845302,23.0742905 -0.190845302,18.0089706 2.93334903,14.8847763 L15.3431458,2.47497959 C18.4673401,-0.649214742 23.5326599,-0.649214742 26.6568542,2.47497959 Z M27.067168,12.4634293 C23.8942145,9.38876725 18.8295215,9.46844825 15.7548594,12.6414018 L15.7548594,12.6414018 L13.1781669,15.3004666 C11.6418725,16.8858736 10.8906161,18.9482242 10.9243977,21.0000874 L10.9243977,21.0000874 L32.0756023,21.0000874 C32.1093839,18.9482242 31.3581275,16.8858736 29.8218331,15.3004666 L29.8218331,15.3004666 L27.2451406,12.6414018 C27.1867533,12.581148 27.1274218,12.5218165 27.067168,12.4634293 Z" id="Combined-Shape" fill="#D53838"></path>
    </g>
</svg>