<?xml version="1.0" encoding="UTF-8"?>
<svg width="45px" height="24px" viewBox="0 0 45 24" version="1.1" xmlns="http://www.w3.org/2000/svg" xmlns:xlink="http://www.w3.org/1999/xlink">
    <title>ic-007</title>
    <defs>
        <filter id="filter-1">
            <feColorMatrix in="SourceGraphic" type="matrix" values="0 0 0 0 1.000000 0 0 0 0 0.296489 0 0 0 0 0.550462 0 0 0 1.000000 0"></feColorMatrix>
        </filter>
    </defs>
    <g id="Page-1" stroke="none" stroke-width="1" fill="none" fill-rule="evenodd">
        <g id="ic-007" transform="translate(-798.000000, -117.000000)" filter="url(#filter-1)">
            <g transform="translate(798.000000, 117.000000)">
                <path d="M33,0 C39.627417,0 45,5.372583 45,12 C45,18.627417 39.627417,24 33,24 L12,24 C5.372583,24 0,18.627417 0,12 C0,5.372583 5.372583,0 12,0 L33,0 Z M33,4 C28.581722,4 25,7.581722 25,12 C25,16.418278 28.581722,20 33,20 C37.418278,20 41,16.418278 41,12 C41,7.581722 37.418278,4 33,4 Z" id="Combined-Shape" fill="#6312FF" fill-rule="nonzero"></path>
            </g>
        </g>
    </g>
</svg>