<?xml version="1.0" encoding="UTF-8"?>
<svg width="89px" height="91px" viewBox="0 0 89 91" version="1.1" xmlns="http://www.w3.org/2000/svg" xmlns:xlink="http://www.w3.org/1999/xlink">
    <title>@</title>
    <g id="Page-1" stroke="none" stroke-width="1" fill="none" fill-rule="evenodd">
        <g id="Artboard-Copy-30" transform="translate(-188.000000, -152.000000)" fill="#FFFFFF" fill-rule="nonzero">
            <path d="M234.595703,242.03125 C240.772461,242.03125 246.626953,241.225586 250.977539,239.829102 L250.977539,231.879883 C247.808594,233.168945 241.416992,234.02832 235.132812,234.02832 C213.21875,234.02832 197.696289,220.761719 197.696289,197.558594 C197.696289,175.644531 212.413086,160.336914 233.199219,160.336914 C253.931641,160.336914 267.896484,173.173828 267.896484,192.670898 C267.896484,205.024414 263.868164,212.167969 258.174805,212.167969 C254.522461,212.167969 252.696289,209.750977 252.696289,206.152344 L252.696289,176.396484 L242.867188,176.396484 L242.867188,182.841797 L242.222656,182.841797 C240.12793,178.168945 235.132812,175.268555 229.385742,175.268555 C218.536133,175.268555 211.070312,184.238281 211.070312,197.290039 C211.070312,210.932617 218.536133,220.063477 229.708008,220.063477 C235.992188,220.063477 240.665039,217.109375 242.920898,211.68457 L243.56543,211.68457 C244.532227,216.948242 249.688477,220.332031 256.133789,220.332031 C269.078125,220.332031 276.919922,209.267578 276.919922,192.241211 C276.919922,168.393555 258.980469,152.441406 233.682617,152.441406 C207.149414,152.441406 188.672852,170.541992 188.672852,197.236328 C188.672852,225.43457 207.740234,242.03125 234.595703,242.03125 Z M231.802734,210.986328 C225.679688,210.986328 221.973633,205.9375 221.973633,197.612305 C221.973633,189.179688 225.625977,184.18457 231.910156,184.18457 C238.194336,184.18457 242.168945,189.34082 242.168945,197.612305 C242.168945,205.830078 238.140625,210.986328 231.802734,210.986328 Z" id="@"></path>
        </g>
    </g>
</svg>