<?xml version="1.0" encoding="utf-8"?>
<!DOCTYPE svg PUBLIC "-//W3C//DTD SVG 1.1//EN" "http://www.w3.org/Graphics/SVG/1.1/DTD/svg11.dtd">
<svg version="1.1" xmlns="http://www.w3.org/2000/svg" width="860px" height="540px" viewBox="0 0 860 540" preserveAspectRatio="xMidYMid meet">
 <g fill="#161719">
  <path d="M104.40 445.65 c-0.50 -0.15 -0.90 -0.35 -0.90 -0.45 0 -0.40 9.95 -26.20 13.85 -35.95 l3.40 -8.50 4.70 0 4.65 0 1.20 3 c5.15 13.10 15.20 39.30 15.45 40.30 0.30 1.25 0.20 1.30 -2 1.55 -2.80 0.35 -4.25 0 -4.25 -0.90 0 -0.45 0.60 -0.70 1.70 -0.70 l1.70 0 -3.25 -8.85 c-1.75 -4.90 -5.30 -14.25 -7.80 -20.80 l-4.50 -11.90 -3 0.15 -3 0.15 -1.45 3.75 c-4.05 10.65 -13.90 36.85 -13.90 37.20 0 0.20 1.20 0.30 2.60 0.20 l2.65 -0.15 1.55 -4.45 c0.90 -2.40 1.80 -4.60 2.05 -4.80 0.20 -0.20 4.60 -0.30 9.75 -0.15 l9.35 0.30 1.60 4.45 c0.90 2.50 1.90 4.60 2.30 4.75 1.70 0.65 0.05 2.20 -1.95 1.75 -0.80 -0.15 -1.05 -0.60 -2.95 -5.95 l-1.10 -3.15 -7.60 0 -7.65 0 -1.60 4.50 c-1.10 3.10 -1.90 4.50 -2.45 4.55 -3.95 0.20 -8.45 0.25 -9.15 0.10z"/>
  <path d="M174.05 444.90 c-0.90 -2.25 -9.45 -20.50 -9.75 -20.80 -0.15 -0.15 -0.30 1.10 -0.30 2.80 0 2.75 -0.10 3.10 -1 3.10 -0.95 0 -1 -0.35 -1 -4.75 l0 -4.75 1.90 0 1.90 0 2.15 4.90 c5.35 12.10 7.25 16.10 7.60 15.75 0.40 -0.50 8.90 -18.90 9.55 -20.75 0.40 -1.15 0.80 -1.40 2.20 -1.40 l1.70 0 0 13.25 c0 12.90 -0.05 13.25 -1 13.25 -1.10 0 -1.05 0.75 -1 -15 l0 -8.25 -1 2 c-0.55 1.10 -2.90 6.40 -5.20 11.75 -3.40 7.85 -4.40 9.80 -5.25 9.90 -0.70 0.10 -1.20 -0.20 -1.50 -1z"/>
  <path d="M208.10 445.60 l-1.10 -0.15 0.10 -22.35 0.15 -22.35 12.25 -0.15 c13.15 -0.15 15.35 0.15 18.60 2.55 4.60 3.40 5.60 11.80 1.90 16.40 l-1.45 1.80 1.50 1.10 c3.70 2.75 4.90 9.95 2.50 15.30 -1.50 3.35 -2.75 4.60 -6.30 6.30 -3.60 1.70 -6.75 1.95 -6.75 0.50 0 -0.70 0.50 -1.05 1.85 -1.30 2.65 -0.50 4.60 -1.55 7.05 -3.90 2.15 -2.10 3.60 -5.45 3.60 -8.30 0 -2 -2 -5.55 -3.80 -6.70 -1.40 -0.90 -1.70 -1.40 -1.70 -2.90 0 -1.25 0.35 -2.10 1.25 -2.95 1.70 -1.60 2.95 -5.05 2.55 -7.15 -0.55 -2.80 -2.90 -5.60 -6.15 -7.15 -2.90 -1.45 -2.95 -1.45 -14 -1.60 l-11.15 -0.20 0 20.80 0 20.80 3.50 0 c2.80 0 3.50 0.15 3.50 0.75 0 0.40 -0.30 0.80 -0.60 0.80 -1.70 0.20 -6.25 0.20 -7.30 0.05z"/>
  <path d="M261.95 445.30 c-7.55 -2.70 -12.15 -9.85 -12.75 -20.05 -0.70 -11.05 3.95 -20.40 11.95 -24.05 2.65 -1.20 3.75 -1.40 7.60 -1.45 9.70 0 16.25 5.10 19.10 14.95 1.90 6.50 1.35 15.25 -1.35 20.95 -2.45 5.25 -7.80 9.50 -12.75 10.20 -2.05 0.25 -2.25 0.20 -2.25 -0.75 0 -0.70 0.45 -1.05 1.65 -1.30 2.70 -0.50 6.70 -3.15 8.80 -5.80 2.30 -2.90 3.70 -6.30 4.55 -11.30 0.55 -3 0.50 -4.10 -0.20 -7.75 -0.45 -2.30 -1.50 -5.60 -2.30 -7.25 -4.95 -10.25 -18.50 -12.75 -26.30 -4.85 -5.50 5.50 -7.55 15.70 -4.95 24.45 1.70 5.80 6.65 11 11.65 12.35 1.45 0.40 2.10 0.80 2.10 1.45 0 1.10 -1.85 1.15 -4.55 0.20z"/>
  <path d="M297.90 445.65 c-0.50 -0.10 -0.90 -0.70 -0.90 -1.25 0 -0.90 0.20 -1 1.55 -0.70 0.85 0.15 2.45 0.30 3.50 0.30 1.35 0 1.95 0.20 1.95 0.70 0 1.10 -3.50 1.65 -6.10 0.95z"/>
  <path d="M351.50 444.90 c-10.60 -4.05 -15.30 -21.10 -9.25 -33.65 4.65 -9.70 14.75 -13.95 24.90 -10.45 4.35 1.50 10.60 8.50 9.70 10.85 -0.20 0.60 -7.40 3.85 -8.45 3.85 -0.20 0 -0.95 -0.85 -1.60 -1.90 -3.10 -4.90 -10.95 -4.80 -14.20 0.20 -1.15 1.75 -2.60 6.90 -2.60 9.40 0 0.75 0.40 3 0.85 4.90 0.65 2.75 1.30 4 2.90 5.80 2 2.20 2.20 2.30 5.40 2.50 3.80 0.25 5.90 -0.40 7.35 -2.30 1.65 -2.05 1.30 -2.55 -1.85 -2.70 -2.65 -0.15 -2.85 -0.25 -3.25 -1.65 -0.25 -0.80 -0.25 -2.90 -0.10 -4.60 l0.30 -3.15 7.95 0 c5.25 0 8 0.20 8.25 0.55 0.60 1.05 0.15 9.65 -0.65 12.30 -1.75 5.55 -7.25 10.35 -12.60 11 -2.35 0.25 -2.55 0.20 -2.55 -0.80 0 -0.75 0.30 -1.05 1.05 -1.05 2.05 0 6.40 -2.55 8.65 -5.05 2.65 -2.95 3.75 -6 4.15 -11.30 l0.30 -3.65 -6.60 0 -6.60 0 0.15 2.65 0.15 2.60 3.40 0.15 3.35 0.15 0 1.85 c0 2.50 -1.45 5.10 -3.55 6.20 -2.15 1.15 -9.45 1.25 -12.10 0.15 -2.30 -0.95 -4.50 -3.70 -5.55 -6.85 -1.20 -3.75 -1.10 -12.55 0.20 -16.05 2.05 -5.45 6.30 -7.80 13 -7.10 2.95 0.35 3.40 0.55 5.40 2.55 l2.20 2.15 2.25 -1.10 2.25 -1.15 -1.70 -2.25 c-1.15 -1.50 -2.80 -2.75 -5.10 -3.95 -3.05 -1.55 -3.90 -1.75 -7.25 -1.75 -4.75 0 -8.45 1.60 -11.95 5.10 -8.25 8.30 -8.10 24.40 0.35 32.30 2.35 2.20 6.20 4.35 7.85 4.35 0.40 0 0.70 0.45 0.70 1 0 1.35 -1.85 1.30 -5.50 -0.10z"/>
  <path d="M415.40 445.60 c-1.55 -0.15 -1.90 -0.35 -1.90 -1.20 0 -0.90 0.20 -1 1.55 -0.70 0.85 0.15 2.10 0.30 2.75 0.30 1.40 0 1.65 1.30 0.35 1.55 -0.50 0.10 -1.75 0.15 -2.75 0.05z"/>
  <path d="M456.10 445.70 l-1.10 -0.25 0.10 -22.35 0.15 -22.35 4.55 -0.15 c5.35 -0.15 4.50 -0.80 9.70 7.50 4.75 7.55 11.70 17.75 12.20 17.95 0.30 0.10 0.40 -4.80 0.35 -12.05 -0.05 -6.75 0.10 -12.55 0.35 -12.90 0.30 -0.45 1.65 -0.60 4.90 -0.50 l4.45 0.15 0.15 22.40 c0.10 22.10 0.10 22.35 -0.90 22.35 -1 0 -1 -0.30 -1 -21.50 l0 -21.50 -2.75 0 -2.75 0 0 13.50 0 13.50 -1.85 0 c-1.90 0 -1.95 -0.10 -6.65 -7.10 -2.60 -3.90 -6.75 -9.95 -9.15 -13.50 l-4.40 -6.45 -2.60 0.15 -2.60 0.15 0 20.50 0 20.50 2.75 0 2.75 0 0.15 -13.85 0.10 -13.90 1.65 0 c1.30 0 1.80 0.35 2.80 1.90 5.05 7.90 17.85 26.10 18.40 26.10 1 0 0.80 1.35 -0.25 1.60 -0.50 0.15 -1.35 0.10 -1.95 -0.15 -0.60 -0.20 -4.50 -5.60 -9.45 -13.15 -4.65 -7.05 -8.60 -12.80 -8.80 -12.80 -0.25 0 -0.40 5.70 -0.40 12.70 0 9 -0.15 12.85 -0.55 13.10 -0.75 0.45 -6.80 0.70 -8.35 0.40z"/>
  <path d="M506.90 445.65 c-1.80 -0.45 -1 -1.65 1.10 -1.65 1.45 0 2 0.20 2 0.75 0 0.40 -0.20 0.75 -0.45 0.75 -0.25 0 -0.75 0.10 -1.15 0.20 -0.35 0.10 -1.05 0.10 -1.50 -0.05z"/>
  <path d="M553.50 445.55 c-4.75 -1.45 -8.85 -5.10 -11.05 -9.80 -1.80 -3.80 -2.45 -7.20 -2.45 -12.70 0 -7.80 2.05 -13.20 6.80 -17.85 4.20 -4.15 7.25 -5.40 13.70 -5.40 4.40 -0.05 5 0.05 8.10 1.60 3.55 1.75 6.65 4.75 8.15 7.90 1.10 2.30 0.70 2.70 -4.25 4.75 l-3.65 1.50 -2.30 -2.50 c-2.55 -2.75 -3.95 -3.30 -7.55 -2.95 -3.10 0.30 -5.50 2.10 -7.05 5.25 -1.05 2.10 -1.20 3.15 -1.20 7.90 0 5.15 0.10 5.65 1.50 8.25 2.10 3.80 4.05 5 8.20 5 3.35 0 4.95 -0.65 6.40 -2.50 1.40 -1.75 0.80 -2.45 -2.20 -2.60 -2.75 -0.15 -2.90 -0.20 -3.05 -1.50 -0.15 -1.15 0.05 -1.40 0.85 -1.40 0.60 0 1.05 0.25 1.05 0.50 0 0.30 1.40 0.50 3.25 0.50 l3.25 0 0 2.15 c0 2.70 -0.85 4.30 -2.95 5.70 -1.45 1 -2.35 1.15 -6.40 1.15 -5.10 0 -6.50 -0.45 -8.75 -2.85 -2.50 -2.60 -3.60 -5.90 -3.80 -11.45 -0.25 -5.90 0.55 -9.40 2.90 -12.60 2.20 -3.05 3.95 -3.80 9 -3.80 4.75 0 6.60 0.70 8.60 3.15 l1.15 1.45 2.15 -0.95 c1.15 -0.50 2.10 -1.15 2.10 -1.45 0 -1.15 -4.25 -5.05 -6.90 -6.30 -11.05 -5.25 -23.25 3.15 -24.80 17.05 -0.75 6.20 1.60 13.95 5.50 18.25 1.90 2.10 7 5 8.85 5 0.50 0 0.85 0.40 0.85 1 0 1.10 -1.55 1.30 -4 0.55z"/>
  <path d="M562.50 445.15 c0 -0.70 0.55 -1.10 2.15 -1.50 4.85 -1.35 9.20 -5.60 10.65 -10.55 0.40 -1.25 0.70 -3.80 0.70 -5.70 l0 -3.40 -7.25 0 c-6.95 0 -7.25 -0.05 -7.25 -1 0 -1 0.25 -1 8.40 -0.90 l8.35 0.15 0.15 3.25 c0.20 4.25 -0.65 9.05 -2.15 11.95 -2.20 4.30 -6.90 7.75 -11.50 8.40 -2 0.25 -2.25 0.20 -2.25 -0.70z"/>
  <path d="M587.40 445.70 c-0.85 -0.25 -0.90 -1.75 -0.90 -22.75 l0 -22.45 15.75 0 15.75 0 0 1.15 0 1.10 -14.75 -0.15 -14.75 -0.15 0 20.75 0 20.80 2.75 0 c2.10 0 2.75 0.15 2.75 0.75 0 0.40 -0.05 0.75 -0.10 0.75 -1.75 0.25 -5.85 0.35 -6.50 0.20z"/>
  <path d="M628.35 445.60 c-0.80 -0.15 -0.85 -1.55 -0.75 -22.50 l0.15 -22.35 4.75 0 4.75 0 3.30 5 c1.85 2.75 5.50 8.30 8.15 12.35 2.70 4.05 5.05 7.50 5.35 7.65 0.25 0.20 0.45 -4.30 0.45 -11.70 0 -6.55 0.15 -12.30 0.30 -12.75 0.25 -0.65 1.20 -0.80 5 -0.80 l4.70 0 0 22.45 0 22.45 -3.35 0.40 c-1.80 0.15 -3.90 0.15 -4.60 -0.10 -0.75 -0.30 -2.25 -2 -3.90 -4.45 -4.60 -7 -10.85 -16.25 -12.90 -19.20 l-2 -2.80 -0.15 13.15 -0.10 13.10 -1.30 0 c-1.20 0 -1.30 -0.15 -1 -1.55 0.15 -0.85 0.30 -7.40 0.30 -14.50 l0 -12.95 1.70 0 c1.70 0 1.90 0.25 8.45 9.90 3.70 5.40 7.90 11.60 9.40 13.75 l2.65 3.85 2.40 0 2.40 0 -0.10 -20.60 -0.15 -20.65 -2.60 -0.15 -2.65 -0.15 0 13.50 0 13.55 -1.90 0 -1.85 0 -8.75 -13.05 c-4.80 -7.15 -9 -13.25 -9.35 -13.50 -0.30 -0.30 -1.65 -0.45 -3 -0.35 l-2.40 0.15 -0.15 20.40 c-0.10 17.80 0 20.40 0.65 20.65 1.85 0.70 0.25 2.25 -1.90 1.80z"/>
  <path d="M676.10 445.60 l-1.10 -0.15 0.10 -22.35 0.15 -22.35 15.65 -0.15 15.65 -0.10 -0.15 4.85 -0.15 4.90 -10.60 0.15 -10.65 0.10 0 3.25 0 3.25 6.25 0 6.25 0 0 4.75 0 4.75 -6.25 0 -6.25 0 0 4.75 0 4.75 11.15 0.10 11.10 0.15 0.15 4.65 c0.15 4.35 0.10 4.60 -0.90 4.60 -0.90 0 -1 -0.30 -1 -3.75 l0 -3.75 -11.25 0 -11.30 0 0.15 -6.60 0.15 -6.65 6.15 -0.15 6.10 -0.15 0 -2.70 0 -2.70 -6.10 -0.15 -6.15 -0.15 0 -5.25 0 -5.25 10.65 0.20 10.60 0.20 0 -3.10 0 -3.05 -13.75 0 -13.75 0 0 20.75 0 20.75 2.75 0 c2.10 0 2.75 0.15 2.75 0.75 0 0.40 -0.30 0.75 -0.60 0.80 -2.80 0.20 -4.80 0.25 -5.80 0.05z"/>
  <path d="M733.40 445.65 c-1.75 -0.45 -1 -1.65 1.05 -1.65 1.85 0 2 -0.10 2.70 -2.10 0.40 -1.20 3.70 -10.45 7.30 -20.55 3.60 -10.10 6.55 -18.50 6.55 -18.65 0 -0.15 -1.30 -0.20 -2.85 -0.10 l-2.85 0.15 -1.90 6 c-1.10 3.30 -3.05 9.40 -4.40 13.55 -1.35 4.15 -2.70 8.60 -3.05 9.90 -0.55 2.30 -0.65 2.35 -2.35 2.20 -1.70 -0.15 -1.80 -0.25 -2.65 -3.15 -1.35 -4.85 -8.55 -26.90 -9.05 -27.85 -0.35 -0.70 -1.05 -0.90 -3.20 -0.90 -2.45 0 -2.75 0.10 -2.45 0.90 0.15 0.45 1.80 5 3.55 10.10 1.80 5.10 4.95 14 7 19.80 2.05 5.80 3.70 10.95 3.70 11.40 0 1.35 -1.85 0.95 -2.40 -0.55 -0.25 -0.80 -3.80 -10.60 -7.85 -21.80 -4 -11.25 -7.20 -20.75 -7.05 -21.15 0.20 -0.55 1.40 -0.70 5.25 -0.70 4.55 0 5.05 0.10 5.55 1.05 0.75 1.40 3.45 9.50 6.70 20.40 1.55 5.05 2.85 9.25 2.95 9.35 0.20 0.20 3.75 -11.15 7.15 -22.80 0.70 -2.35 1.55 -5.05 1.90 -6 l0.60 -1.75 5.10 -0.15 c4.10 -0.10 5.15 0 5.40 0.60 0.20 0.50 -14.85 43.35 -15.50 44.10 -0.20 0.30 -4.20 0.55 -4.90 0.35z"/>
  <path d="M762.40 445.65 c-0.50 -0.10 -0.90 -0.70 -0.90 -1.25 0 -0.90 0.20 -1 1.55 -0.70 0.85 0.15 2.80 0.30 4.25 0.30 2 0 2.70 0.20 2.70 0.70 0 1.05 -4.90 1.65 -7.60 0.95z"/>
  <path d="M791.40 445.65 c-1.40 -0.35 -1.10 -1.65 0.35 -1.65 0.75 0 1.25 0.30 1.25 0.70 0 0.90 -0.50 1.20 -1.60 0.95z"/>
  <path d="M97.50 441.75 l0 -3.75 -10.85 -0.10 -10.90 -0.15 -0.15 -17.60 -0.10 -17.65 -3.75 0 c-3.45 0 -3.75 -0.10 -3.75 -1 0 -1 0.25 -1.05 4.65 -0.90 l4.60 0.15 0.15 17.60 0.10 17.65 10.90 0.10 10.85 0.15 0.15 4.65 c0.15 4.35 0.10 4.60 -0.90 4.60 -0.90 0 -1 -0.30 -1 -3.75z"/>
  <path d="M154.50 444.50 c0 -0.65 0.35 -1 1 -1 0.65 0 1 0.35 1 1 0 0.65 -0.35 1 -1 1 -0.65 0 -1 -0.35 -1 -1z"/>
  <path d="M162 440.50 c0 -4.65 0.05 -5 1 -5 0.95 0 1 0.35 1 5 0 4.65 -0.05 5 -1 5 -0.95 0 -1 -0.35 -1 -5z"/>
  <path d="M194.90 424.15 l-0.15 -21.40 -2.95 0 -2.90 0 -4.85 10.75 c-2.70 5.90 -5.30 11.85 -5.80 13.15 -0.85 2.30 -1 2.40 -2.70 2.25 l-1.75 -0.15 -5.80 -13 -5.75 -13 -3.90 0.05 c-3.75 0.05 -3.85 0.05 -3.85 -1.10 0 -1.20 0.10 -1.20 4.65 -1.20 l4.65 0 3.20 6.90 c1.75 3.75 4.35 9.45 5.85 12.60 1.45 3.15 2.75 5.75 2.90 5.75 0.15 0 2.70 -5.45 5.70 -12.15 2.95 -6.70 5.65 -12.40 5.90 -12.65 0.25 -0.25 2.45 -0.45 4.95 -0.35 l4.45 0.15 0 22.25 c0 20.75 -0.05 22.25 -0.85 22.40 -0.85 0.15 -0.90 -1.20 -1 -21.25z"/>
  <path d="M305 436.80 l0 -8.80 5.75 0 5.75 0 4 8 c2.20 4.40 4 8.35 4 8.80 0 0.50 -0.35 0.70 -1.05 0.60 -0.80 -0.10 -1.95 -1.95 -4.90 -7.65 l-3.80 -7.50 -3.85 -0.15 -3.85 -0.15 -0.15 7.65 c-0.15 6.80 -0.25 7.65 -1 7.80 -0.85 0.15 -0.90 -0.50 -0.90 -8.60z"/>
  <path d="M327.35 437.75 c-4.40 -8.85 -4.80 -10.75 -2.35 -11.75 3 -1.25 6.50 -6.25 6.50 -9.25 0 -0.95 0.25 -1.25 1.05 -1.25 1 0 1.05 0.20 0.80 2.60 -0.40 3.25 -2.45 6.65 -5.20 8.65 -1.15 0.80 -2.10 1.80 -2.10 2.15 -0.05 0.35 1.65 4.15 3.70 8.45 2.05 4.30 3.75 7.90 3.75 8 0 0.05 -0.50 0.15 -1.15 0.15 -0.95 0 -1.70 -1.15 -5 -7.75z"/>
  <path d="M386.50 444.50 c0 -0.65 0.35 -1 1 -1 0.65 0 1 0.35 1 1 0 0.65 -0.35 1 -1 1 -0.65 0 -1 -0.35 -1 -1z"/>
  <path d="M394 444.50 c0 -0.65 0.35 -1 1 -1 0.65 0 1 0.35 1 1 0 0.65 -0.35 1 -1 1 -0.65 0 -1 -0.35 -1 -1z"/>
  <path d="M421 444.50 c0 -0.65 0.35 -1 1 -1 0.65 0 1 0.35 1 1 0 0.65 -0.35 1 -1 1 -0.65 0 -1 -0.35 -1 -1z"/>
  <path d="M434 443.15 c0 -3.10 0.45 -4.65 1.30 -4.65 0.55 0 0.70 0.85 0.70 3.50 0 3.15 -0.10 3.50 -1 3.50 -0.85 0 -1 -0.35 -1 -2.35z"/>
  <path d="M442 424 l0 -21.50 -3 0 -3 0 0 3 c0 2.20 -0.20 3 -0.70 3 -0.85 0 -1.30 -1.55 -1.30 -4.50 0 -3.45 0.20 -3.55 5.30 -3.40 l4.45 0.15 0.15 22.40 c0.10 22.10 0.10 22.35 -0.90 22.35 -1 0 -1 -0.30 -1 -21.50z"/>
  <path d="M503.10 423.15 l0.15 -22.40 4.75 0 4.75 0 0.15 22.40 c0.10 22.05 0.10 22.35 -0.90 22.35 -0.95 0 -1 -0.40 -1.10 -21.35 l-0.15 -21.40 -2.85 -0.15 -2.90 -0.15 0 21.55 c0 21.20 0 21.50 -1 21.50 -1 0 -1 -0.25 -0.90 -22.35z"/>
  <path d="M617 441.75 l0 -3.75 -11.25 0 -11.25 0 0 -6.75 0 -6.75 6.25 0 6.25 0 0 -2.75 0 -2.70 -6.10 -0.15 -6.15 -0.15 -0.15 -5.10 -0.15 -5.15 10.80 0 c6.85 0 10.75 -0.20 10.75 -0.50 0 -0.25 0.45 -0.50 1.05 -0.50 0.80 0 1 0.25 0.85 1.40 l-0.15 1.35 -10.60 0.15 -10.65 0.10 0 3.25 0 3.25 5.90 0 c3.90 0 6.10 0.20 6.50 0.60 0.75 0.75 0.80 6.60 0.10 7.95 -0.50 0.85 -1.10 0.95 -6.50 0.95 l-6 0 0 4.75 0 4.75 11.15 0.10 11.10 0.15 0.15 4.65 c0.15 4.35 0.10 4.60 -0.90 4.60 -0.90 0 -1 -0.30 -1 -3.75z"/>
  <path d="M215.20 437.85 c-0.10 -0.35 -0.15 -3.55 -0.10 -7.15 l0.15 -6.45 6.25 -0.15 c8.35 -0.20 11.30 0.20 12.80 1.65 1.05 1.10 1.20 1.65 1.20 5.35 0 5 -0.55 6.05 -3.70 6.85 -3.25 0.80 -16.25 0.75 -16.60 -0.10z"/>
  <path d="M263.70 437.80 c-2.10 -0.95 -3.60 -2.60 -4.85 -5.30 -0.85 -1.90 -1 -3.35 -1.05 -9.25 -0.05 -6.75 0 -7.10 1.35 -9.90 1 -2 2.10 -3.30 3.50 -4.25 1.80 -1.20 2.45 -1.35 6.30 -1.30 4.90 0 6.75 0.75 8.75 3.35 2.20 2.90 2.90 5.60 2.95 11.60 0.05 8.30 -1.65 12.70 -5.65 14.75 -2.35 1.20 -8.80 1.35 -11.30 0.30z"/>
  <path d="M769.50 436 c0 -2.15 1.15 -2.85 1.65 -1 0.25 0.95 0.70 1 11.05 1 10.45 0 10.80 0.05 10.80 1 0 0.95 -0.35 1 -11.75 1 l-11.75 0 0 -2z"/>
  <path d="M769.50 428.50 l0 -4 6.25 0 6.25 0 0 -2.75 0 -2.70 -6.10 -0.15 -6.15 -0.15 -0.15 -5.10 -0.15 -5.15 10.80 0 10.75 0 0 -3.05 0 -3 -14.75 0.15 -14.75 0.15 0 -1.15 0 -1.10 15.65 0.10 15.60 0.15 0.15 3.75 c0.25 6.55 1.25 6 -10.85 6 -11.70 0 -10.85 -0.30 -10.80 4 l0 2.25 6.25 0.25 6.25 0.25 0 4.50 0 4.50 -6.10 0.15 -6.15 0.15 0 1.85 c0 2.60 -0.50 4.10 -1.30 4.10 -0.55 0 -0.70 -0.95 -0.70 -4z"/>
  <path d="M394.50 427.25 l0 -1.75 10.25 0 10.25 0 0 1.75 c0 1.20 -0.25 1.75 -0.75 1.75 -0.40 0 -0.75 -0.35 -0.75 -0.75 0 -0.65 -1.30 -0.75 -8.75 -0.75 -7.45 0 -8.75 0.10 -8.75 0.75 0 0.40 -0.35 0.75 -0.75 0.75 -0.50 0 -0.75 -0.55 -0.75 -1.75z"/>
  <path d="M119 426.65 c0 -1.05 1.05 -4.90 2.30 -8.50 l2.35 -6.65 1.60 0 1.60 0 2.35 6.90 c1.25 3.75 2.30 7.60 2.30 8.50 l0 1.60 -6.25 0 -6.25 0 0 -1.85z"/>
  <path d="M305.10 415.40 l0.15 -7.15 7.25 -0.10 c11.50 -0.10 12.65 0.50 12.95 6.90 0.15 3.95 0.15 3.95 -1.60 5.70 l-1.75 1.75 -8.55 0 -8.60 0 0.15 -7.10z"/>
  <path d="M394.50 417.75 c0 -1.20 0.25 -1.75 0.75 -1.75 0.40 0 0.75 0.35 0.75 0.75 0 0.65 1.30 0.75 8.75 0.75 8.40 0 8.75 -0.05 8.75 -1 0 -0.70 0.35 -1 1.05 -1 0.85 0 1 0.25 0.85 1.90 l-0.15 1.85 -10.35 0.15 -10.40 0.10 0 -1.75z"/>
  <path d="M215 413.60 c0 -4.55 0.15 -5.55 0.80 -5.80 1.15 -0.45 12.10 -0.30 14.60 0.15 3.25 0.65 3.85 1.50 3.85 5.55 0 5.25 0.05 5.20 -10.50 5.40 l-8.75 0.15 0 -5.45z"/>
  <path d="M331.50 413.65 c-0.05 -3.55 -3.45 -7.75 -7.95 -9.85 -2.10 -0.95 -3.40 -1.05 -13.40 -1.20 -11 -0.20 -11.15 -0.15 -11.15 0.85 0 0.70 -0.30 1.05 -1 1.05 -0.85 0 -1 -0.35 -1 -2.05 l0 -2 13.40 0.15 13.35 0.15 2.70 1.50 c4.20 2.30 7.05 7 7.05 11.45 0 0.95 -0.25 1.30 -1 1.30 -0.75 0 -1 -0.35 -1 -1.35z"/>
  <path d="M421 402.95 c0 -0.45 -1.10 -0.50 -3.75 -0.30 -3.70 0.25 -3.75 0.25 -3.75 -0.95 0 -1.20 0.05 -1.20 4.75 -1.20 l4.75 0 0 1.50 c0 1.15 -0.20 1.50 -1 1.50 -0.55 0 -1 -0.25 -1 -0.55z"/>
  <path d="M386.50 401.65 c0 -1.10 0.15 -1.15 4.75 -1.15 4.60 0 4.75 0.05 4.75 1.15 0 1.05 -0.15 1.10 -4.75 1.10 -4.60 0 -4.75 -0.05 -4.75 -1.10z"/>
  <path d="M684.70 395.15 c-4.35 -5 -5.70 -6.65 -5.70 -7.20 0 -0.30 2.35 -0.40 5.85 -0.35 l5.90 0.15 2.60 4.75 c1.45 2.60 2.65 5.05 2.65 5.40 0 0.30 -0.55 0.60 -1.25 0.60 -1 0 -1.55 -0.70 -3.55 -4.50 l-2.30 -4.50 -2.75 0 -2.75 0 2 2.40 c1.10 1.30 2.60 2.90 3.30 3.55 1.65 1.55 1.75 3.05 0.10 3.05 -0.80 0 -2.05 -1 -4.10 -3.35z"/>
  <path d="M427.75 366.55 c-4 -1.15 -8.05 -3.60 -17.75 -11 -6.15 -4.65 -8.80 -6.90 -17.50 -14.85 -14.05 -12.80 -23.30 -23.05 -34.70 -38.35 -22.60 -30.40 -38.85 -71 -44.85 -112.35 -0.55 -3.70 -1.10 -7.10 -1.20 -7.50 -1.05 -3.40 -2.65 -29.45 -2.70 -44.35 -0.05 -7.55 0.10 -9.55 0.90 -12.10 1.90 -6.05 5.55 -10.25 11.40 -13.20 6.80 -3.45 23.40 -9.05 32.65 -11.05 2.05 -0.45 5.10 -1.15 6.75 -1.55 8.20 -1.85 20.65 -3.75 33.50 -5 9.95 -1 10.25 -1 10.25 0.25 0 0.80 -0.35 1 -1.75 1 -2.90 0 -19.50 1.95 -25.80 3 -15 2.55 -26.65 5.40 -38.50 9.45 -14.45 4.90 -17.95 6.60 -21.55 10.45 -5.15 5.50 -6.10 9.50 -5.75 23.85 1.05 39.60 9 80.10 21.40 109 9.90 23.15 21.65 42.40 37.40 61.50 5.25 6.35 21.05 23.15 21.85 23.20 0.25 0.05 1.15 0.75 2 1.60 2.30 2.45 14.85 12.85 21.70 17.95 6.15 4.60 12.75 8.50 14.40 8.50 3.30 0 8.85 -3.35 19.85 -12 23.65 -18.60 44.20 -40.70 58.25 -62.70 18.50 -28.90 30.10 -59.15 36.20 -94.05 1.45 -8.55 2.30 -14 2.80 -18.75 0.30 -2.60 0.60 -5.30 0.75 -6 0.40 -2.15 1.25 -14.80 1.75 -25.40 0.70 -14.75 -0.30 -20.20 -4.50 -25.55 -3.50 -4.45 -8.50 -6.95 -23.45 -11.90 -16.50 -5.45 -37.15 -9.65 -56.40 -11.45 -8.55 -0.85 -9.65 -1.05 -9.65 -1.80 0 -1.10 0.10 -1.10 9.90 -0.15 18.10 1.75 32.95 4.25 47.35 8.05 10.30 2.70 24.80 8.15 29.25 10.95 2.20 1.40 6.15 5.60 7.25 7.75 2.35 4.55 2.40 5 2.30 20.75 -0.05 8.25 -0.30 17.05 -0.55 19.50 -0.25 2.50 -0.70 7.20 -1 10.50 -3.50 39.10 -16.70 81 -35.25 111.85 -7.60 12.60 -18.55 27.35 -28.25 38.15 -5.45 6 -20.55 20.50 -27.30 26.10 -7.50 6.25 -18.70 14.40 -22.50 16.30 -2.85 1.45 -6.65 2 -8.95 1.40z"/>
  <path d="M425.70 358.35 c-2.70 -1.45 -10.60 -7.25 -19.10 -14.10 -7.10 -5.65 -28.10 -26.15 -32.10 -31.35 -16.80 -21.65 -17.85 -23.10 -23.15 -32.45 -11.35 -20.05 -20.65 -42.65 -25.35 -61.45 -0.85 -3.45 -1.75 -7.05 -2.05 -8 -1.40 -4.85 -4.30 -23.20 -5.25 -33 -0.40 -4.25 -0.95 -8.40 -1.20 -9.25 -0.60 -2 -1.70 -32.50 -1.35 -37 0.30 -4.05 2.05 -8.35 4.15 -10.30 2.20 -2 5.80 -3.65 14.80 -6.65 17.90 -6 37.80 -10.10 59.65 -12.30 7.50 -0.75 36.35 -1.60 47.25 -1.35 10.85 0.20 23.60 1.05 27.75 1.80 1.40 0.30 5.30 0.85 8.75 1.25 16.05 1.95 32.30 5.70 47.95 11.05 12.10 4.15 14.10 5.35 16.20 9.75 1.05 2.20 1.10 2.70 1 20.25 -0.05 9.90 -0.30 20.25 -0.60 23 -1.95 19.05 -2.55 23.55 -4.50 34 -3.15 16.70 -8.60 34.55 -15.65 51 -9.90 23 -19.05 38 -35.35 58 -12.45 15.20 -34.15 34.85 -51.25 46.25 -2.60 1.75 -3.30 2 -5.75 2 -1.90 -0.05 -3.45 -0.40 -4.85 -1.15z m-42.70 -62.75 c1.45 -0.75 1.85 -1.30 2.60 -4 0.55 -1.70 1.50 -3.95 2.15 -4.95 1.10 -1.55 1.25 -2.35 1.25 -5.85 0 -4.10 0 -4.10 2.15 -6.60 1.15 -1.35 2.50 -3.50 3.05 -4.70 0.50 -1.25 1.10 -2.65 1.35 -3.10 0.25 -0.50 0.45 -1.45 0.45 -2.10 0 -0.70 0.85 -2.75 1.85 -4.65 1 -1.85 2.85 -5.40 4.15 -7.90 2 -3.85 2.55 -4.50 3.75 -4.65 3.95 -0.50 5.55 1.85 5.15 7.45 -0.20 2.85 -0.10 3.40 0.65 3.90 1.25 0.75 1.25 3.85 0 6.65 -0.55 1.20 -1.35 3.25 -1.80 4.55 -1 2.85 -2.80 5.10 -4.90 6.20 -0.85 0.40 -2.25 1.45 -3.15 2.35 -0.85 0.85 -2.20 2 -2.90 2.55 -0.85 0.65 -1.45 1.65 -1.65 2.90 l-0.30 1.85 2.10 0 c1.70 0 2.05 0.15 2.05 1 0 0.55 0.30 1 0.70 1 1.20 0 3.80 -2.80 3.80 -4.15 0 -0.65 0.35 -1.50 0.75 -1.85 0.45 -0.35 1.80 -2.75 3.05 -5.35 1.95 -4.10 2.60 -4.95 5.25 -7.05 2.95 -2.30 4.45 -4.25 4.45 -5.85 0 -0.45 0.85 -1.60 1.90 -2.50 1.55 -1.50 2.20 -1.75 4.25 -1.75 l2.35 0 0 2.60 c0 3.10 -1.90 6.75 -5.55 10.80 -1.35 1.50 -2.45 2.85 -2.45 3.10 0 0.20 0.45 0.50 1 0.65 0.60 0.15 1 0.70 1 1.30 0 1.25 0.85 1.35 3.25 0.35 1.95 -0.80 3 -2.30 3.45 -4.80 0.20 -0.95 0.75 -2.30 1.25 -2.95 0.70 -0.90 0.85 -1.75 0.65 -3.40 -0.15 -1.40 0.10 -2.95 0.65 -4.40 0.80 -2.15 0.95 -2.25 2.80 -2.25 1.70 0 2.10 0.25 2.95 1.60 0.55 0.90 1.40 3.10 1.95 4.90 1.45 4.75 2.05 5.15 7.95 5.25 5.45 0.10 6.25 -0.20 8.20 -3.05 1 -1.50 1.35 -2.80 1.55 -5.65 0.35 -4.15 1.50 -6.35 5.05 -9.75 3.35 -3.15 6.25 -4.80 8.45 -4.80 l1.90 0 2.10 4.40 c1.70 3.65 2.05 4.85 2 7.35 -0.05 5.65 -0.80 13 -1.45 14.30 -0.60 1.20 -0.55 1.45 0.30 2.20 0.60 0.55 1 0.65 1 0.35 0 -0.75 3.10 -0.80 3.80 -0.10 1 1 1.95 -0.80 1.25 -2.30 -0.30 -0.70 -0.55 -2.75 -0.55 -4.60 0 -2.05 -0.25 -3.65 -0.60 -4 -0.90 -0.90 -0.85 -11.70 0.05 -14.40 0.60 -1.90 0.60 -2.20 -0.65 -4.50 -0.90 -1.65 -1.30 -3.20 -1.30 -4.80 l0 -2.40 1.90 0 c1 0 3.05 0.45 4.50 1 3.35 1.30 5.80 1.25 8.60 -0.10 l2.25 -1.05 -2.55 -0.35 c-3.15 -0.45 -4.05 -0.95 -8.15 -4.35 -1.80 -1.50 -3.70 -3.05 -4.15 -3.45 -1 -0.80 -1.20 -3.70 -0.35 -4.55 0.65 -0.65 0.40 -2.80 -0.75 -7.65 -1.05 -4.40 -1 -7.75 0.20 -11 1.05 -2.95 1.30 -6.25 0.50 -6.75 -0.25 -0.15 -0.50 -0.75 -0.50 -1.25 0 -0.95 -3.15 -6.75 -3.95 -7.25 -0.25 -0.15 -0.95 -1.80 -1.60 -3.65 -0.60 -1.85 -1.75 -4.30 -2.50 -5.50 -1.75 -2.60 -1.85 -4.80 -0.45 -8.50 1.20 -3.15 1.25 -4.65 0.25 -6.60 -0.45 -0.85 -0.85 -1.50 -0.90 -1.50 -0.05 0 0 1.25 0.05 2.75 0.25 3.55 -0.10 4.80 -1.70 6.70 -1.10 1.35 -1.60 1.55 -3.70 1.55 -1.35 0 -3.05 -0.25 -3.85 -0.55 -0.75 -0.30 -2.65 -0.75 -4.15 -1.05 -3 -0.55 -12.40 -3.60 -14.70 -4.75 -0.75 -0.40 -1.90 -0.60 -2.50 -0.45 -0.60 0.15 -3 1.90 -5.35 3.95 -6 5.10 -8.70 7 -13 9.15 -6.30 3.15 -8.30 4.60 -10.25 7.55 -1.95 2.95 -3.70 8.50 -3.70 11.95 0 2.90 -0.75 4.80 -3.95 9.95 -5.50 8.95 -7.55 14.40 -7.55 20.15 0 2.30 -0.50 4.45 -2.05 8.70 -1.95 5.50 -2 5.80 -2 11.85 l0.05 6.20 -2 4.05 c-1.10 2.25 -2 4.55 -2 5.15 0 0.60 -0.25 2.25 -0.55 3.75 -0.30 1.45 -0.65 3.10 -0.75 3.65 -0.10 0.55 -1.55 2.60 -3.20 4.50 -1.70 1.95 -3.20 4.10 -3.35 4.85 -0.15 0.70 -1 2.05 -1.95 2.95 -2.05 1.95 -2.10 2.45 -0.45 2.45 1.15 0 1.25 0.20 1.25 2 0 1.85 0.10 2 1.40 2 0.75 -0.05 2.15 -0.45 3.10 -0.90z m73.15 -134.45 c-0.65 -0.10 -1.65 -0.10 -2.25 0 -0.65 0.10 -0.15 0.20 1.10 0.20 1.25 0 1.75 -0.10 1.15 -0.20z m-37.15 -5 c-0.05 -1.20 -0.10 -1.30 -0.55 -0.50 -0.25 0.45 -0.35 1.10 -0.20 1.35 0.50 0.85 0.75 0.55 0.75 -0.85z m16 -3.45 c0 -1.25 0.05 -1.30 3 -1.10 2 0.10 3 -0.05 3 -0.40 0 -0.75 1.15 -1.20 3.15 -1.25 1.55 -0.05 1.55 -0.10 -0.40 -0.55 -7.95 -1.85 -13.25 -1.65 -18.35 0.75 l-2.65 1.25 2.25 0.10 c1.25 0 3.70 0.60 5.50 1.25 4.20 1.50 4.50 1.50 4.50 -0.05z m-93.55 -3 c0.40 -0.10 0.60 -0.30 0.50 -0.45 -0.30 -0.25 -4.25 0.90 -4.75 1.40 -0.20 0.20 -1.10 0.35 -2 0.35 l-1.60 0 -0.35 -4.85 c-0.25 -2.70 -0.25 -7.90 -0.10 -11.50 0.15 -3.65 0.15 -6.65 -0.05 -6.65 -1.40 0 -1.60 1.55 -1.60 13.30 l0 12.05 4.65 -1.70 c2.50 -0.95 4.90 -1.80 5.30 -1.95z m187.45 -9.05 c-0.15 -11.35 -0.20 -12.40 -1 -12.55 -0.85 -0.15 -0.90 0.70 -0.90 12.05 0 12.20 0.05 12.65 1.65 12.80 0.20 0.05 0.30 -5.50 0.25 -12.30z m-10 -3.50 c-0.10 -9.15 -0.30 -12.35 -0.75 -12.50 -0.45 -0.15 -0.65 1.40 -0.75 6.20 l-0.15 6.40 -1.85 0.15 c-1.25 0.10 -1.90 -0.05 -1.90 -0.45 0 -0.35 -0.10 -0.50 -0.25 -0.35 -0.15 0.15 0.65 2.60 1.80 5.45 1.15 2.85 2.25 5.70 2.50 6.35 0.25 0.60 0.65 1.10 0.95 1.10 0.35 0 0.45 -4.05 0.40 -12.35z m-169.50 6.40 c0.30 -1.80 0.80 -3.45 1.10 -3.75 0.30 -0.30 2.10 -0.60 4.05 -0.70 4 -0.25 4.20 -0.15 4.70 3.25 0.25 1.70 0.50 2.15 1.30 2.15 0.75 0 0.95 -0.25 0.75 -0.85 -0.15 -0.50 -0.45 -1.80 -0.75 -2.90 -0.80 -3.45 -4.60 -17.75 -4.95 -18.80 -0.35 -0.85 -0.50 -0.90 -1.30 -0.30 -0.65 0.50 -1.70 4.05 -3.85 13.15 -1.60 6.85 -2.95 12.65 -2.95 12.95 0 0.25 0.30 0.15 0.65 -0.25 0.40 -0.40 0.95 -2.20 1.25 -3.95z m157.70 -4.90 l0.15 -7.40 1.90 -0.15 c2.10 -0.20 2.05 -0.10 1.30 -1.95 -0.30 -0.75 -0.75 -1.85 -0.95 -2.40 -1.45 -3.75 -2.25 -5.20 -3.05 -5.40 -0.90 -0.25 -0.95 0.25 -0.95 12.20 0 10.65 0.10 12.45 0.75 12.45 0.60 0 0.75 -1.25 0.85 -7.35z m-9.70 -7 c-0.10 -9.30 -0.30 -12.35 -0.75 -12.55 -0.50 -0.15 -0.65 2.50 -0.65 12.05 0 6.70 0.15 12.35 0.35 12.50 1 1.05 1.15 -0.75 1.05 -12z m-127.50 4.95 l0.15 -6.10 1.65 0 c1.50 0 1.80 0.25 2.45 1.90 0.40 1 1 3.05 1.40 4.50 0.75 3 0.80 2.95 2.40 -2.90 l0.90 -3.25 -2.05 0 -2.05 0 -2.20 -6.35 c-1.75 -5.20 -2.35 -6.40 -3.10 -6.40 -0.90 0 -0.95 0.55 -0.95 12.55 0 9.80 0.15 12.50 0.65 12.35 0.40 -0.15 0.65 -2 0.75 -6.30z m118 -6.95 c-0.15 -11.35 -0.20 -12.40 -1 -12.55 -0.80 -0.15 -0.90 0.35 -0.90 5.20 l0 5.35 -3.35 -0.30 c-1.90 -0.20 -4.10 -0.35 -5 -0.35 l-1.60 0 -0.15 -5.85 c-0.15 -5.15 -0.25 -5.90 -1 -6.05 -0.85 -0.15 -0.90 0.70 -0.90 12.60 0 12.45 0.05 12.80 1 12.80 0.95 0 1 -0.35 1 -6.25 l0 -6.25 1.75 0 c2.20 0 6.80 1 7.65 1.60 0.40 0.35 0.60 2.30 0.60 6.45 0 5.65 0.05 5.95 1 5.95 1 0 1 -0.25 0.90 -12.35z m-102.90 -1.65 c0 -11.85 -0.05 -12.50 -0.95 -12.50 -0.70 0 -1.15 0.80 -2 3.40 -0.55 1.85 -1.05 3.70 -1.05 4.15 0 0.40 -0.20 0.95 -0.45 1.20 -0.40 0.50 -1.60 4.80 -1.50 5.60 0 0.20 0.20 -0.10 0.45 -0.70 0.35 -0.90 0.85 -1.15 2.25 -1.15 l1.75 0 0 6.25 c0 5.20 0.10 6.25 0.75 6.25 0.65 0 0.75 -1.70 0.75 -12.50z m17.05 10.20 c3.40 -1.95 4.95 -7.70 2.75 -10.15 -1.05 -1.15 -1 -3.70 0 -6.60 1 -2.75 0.65 -4.55 -1.15 -6.25 -1.15 -1.05 -1.75 -1.20 -5.20 -1.20 -2.10 0 -4.20 0.15 -4.65 0.30 -0.70 0.25 -0.80 1.85 -0.80 12.80 l0 12.55 3.70 -0.25 c2.35 -0.15 4.30 -0.60 5.35 -1.20z m62 0 c1.65 -1.50 2.40 -3.35 2.75 -6.90 l0.35 -3.30 -1.80 0 c-0.95 0 -2.10 -0.15 -2.55 -0.30 -0.55 -0.20 -0.80 -0.05 -0.80 0.50 0 0.45 0.40 0.80 0.95 0.80 1.65 0 2.20 1.25 1.95 4.55 -0.25 3.65 -1.05 4.45 -4.20 4.45 -2.85 0 -4.90 -1.70 -5.65 -4.70 -0.70 -2.90 -0.70 -11.20 0 -14.20 0.85 -3.35 1.65 -4.10 4.40 -4.10 2.60 0 4.55 1.05 4.55 2.55 0 0.50 0.35 0.95 0.75 0.95 0.40 0 0.75 -0.25 0.75 -0.50 0 -1.05 -2.25 -3.60 -3.90 -4.35 -1.50 -0.70 -1.80 -0.70 -3.60 0.10 -2.40 1.10 -4.10 4.20 -5.05 9.20 -1.05 5.40 0.75 12.30 3.95 15.10 1.55 1.35 2.05 1.55 3.95 1.30 1.20 -0.10 2.65 -0.65 3.20 -1.15z m-42.15 -0.85 c6.35 -4.25 5.95 -20.30 -0.60 -24.60 -1.45 -0.95 -3.95 -0.30 -5.90 1.60 -3.60 3.45 -4.55 14.50 -1.75 20.20 2.15 4.35 4.60 5.20 8.25 2.80z m24.10 0.70 c0 -0.25 -0.65 -2.45 -1.50 -4.90 -1.90 -5.60 -1.90 -7.05 -0.05 -8.85 2.95 -2.85 3.25 -6.30 0.75 -9.30 -1.65 -1.90 -4.05 -2.60 -8.45 -2.40 l-3.50 0.15 0 12.50 c0 11.50 0.05 12.50 0.90 12.65 0.75 0.15 0.85 -0.35 0.85 -5.65 l0 -5.80 2.80 0.15 2.85 0.15 2 5.90 c1.20 3.40 2.35 5.85 2.70 5.85 0.35 0 0.65 -0.20 0.65 -0.45z"/>
  <path d="M351.65 133.80 c0.45 -5 0.60 -5.30 2.85 -5.30 1.85 0 1.85 0.05 2.20 2.30 0.15 1.30 0.30 3.30 0.30 4.50 l0 2.20 -2.80 0 -2.85 0 0.30 -3.70z"/>
  <path d="M394.85 137.70 c-0.15 -0.25 -0.25 -2.75 -0.30 -5.60 l0 -5.10 3.60 0 c5.25 0 5.85 0.55 5.85 5.20 0 2.90 -0.20 3.80 -0.90 4.45 -1 0.90 -7.80 1.75 -8.25 1.05z"/>
  <path d="M395 123.95 c0 -0.95 -0.15 -3.25 -0.35 -5.15 l-0.30 -3.45 4.05 0.25 c2.25 0.15 4.25 0.40 4.45 0.60 0.20 0.20 0.45 1.75 0.55 3.45 0.30 4.30 -0.50 5.15 -5 5.65 l-3.40 0.30 0 -1.65z"/>
  <path d="M416.10 136.40 c-1.95 -2.50 -2.35 -4.15 -2.35 -10.65 0 -6 0.10 -6.65 1.25 -8.75 l1.25 -2.25 3.15 -0.15 3.15 -0.15 1.05 2.40 c2.15 4.75 1.75 15.80 -0.65 18.85 -0.85 1.10 -1.40 1.30 -3.70 1.30 -1.50 0 -2.85 -0.25 -3.15 -0.60z"/>
  <path d="M435.25 122.90 c-0.15 -0.90 -0.25 -3.20 -0.15 -5.15 0.15 -4 0.35 -4.10 5.30 -3.50 3.70 0.45 4.60 1.45 4.60 5.15 0 4.45 -0.70 5.10 -5.50 5.10 l-3.95 0 -0.30 -1.60z"/>
  <path d="M407 95.30 c0 -0.95 1.60 -1.30 6.15 -1.30 3.50 0 3.85 0.10 3.85 1 0 0.95 -0.35 1 -5 1 -3.90 0 -5 -0.15 -5 -0.70z"/>
  <path d="M444 95 c0 -0.90 0.35 -1 3.40 -1 4 0 5.60 0.40 5.60 1.30 0 0.55 -1 0.70 -4.50 0.70 -4.15 0 -4.50 -0.05 -4.50 -1z"/>
 </g>
 <g fill="#ffffff">
  <path d="M262.65 445.05 c-6.90 -2.35 -11.20 -8.30 -12.45 -17.15 -0.30 -2.15 -0.20 -2.40 0.70 -2.40 0.80 0 1.05 0.45 1.30 2.65 0.40 2.85 2.60 8.35 3.65 9 0.35 0.20 0.65 0.65 0.65 1 0 0.35 0.45 0.90 1 1.25 0.55 0.35 1 0.95 1 1.35 0 0.40 0.30 0.75 0.70 0.75 0.40 0 1.90 0.55 3.40 1.25 1.45 0.70 3.15 1.25 3.80 1.25 0.75 0 1.10 0.30 1.10 1 0 1.25 -1.35 1.30 -4.85 0.05z"/>
  <path d="M271 445.05 c0 -0.85 0.30 -1.05 1.75 -1.05 0.95 0 1.75 -0.20 1.75 -0.50 0 -0.25 0.70 -0.50 1.50 -0.50 1 0 1.50 -0.25 1.50 -0.75 0 -0.40 0.25 -0.75 0.50 -0.75 0.30 0 1.20 -0.80 2.05 -1.75 0.85 -0.95 1.80 -1.75 2.15 -1.75 0.30 0 0.80 -0.75 1.10 -1.60 0.35 -0.90 1.10 -3 1.70 -4.65 2.30 -6.25 1.70 -15.10 -1.50 -20.50 -1.60 -2.75 -4.65 -6.25 -5.45 -6.25 -0.30 0 -0.55 -0.35 -0.55 -0.75 0 -0.40 -0.45 -0.75 -0.95 -0.75 -0.55 0 -2.35 -0.35 -4.05 -0.80 -3.60 -0.90 -6.05 -0.65 -9.95 1.10 -1.45 0.65 -3 1.20 -3.35 1.20 -0.40 0 -0.70 0.30 -0.70 0.70 0 0.40 -0.55 1.15 -1.25 1.70 -0.70 0.55 -1.25 1.20 -1.25 1.50 0 0.30 -0.20 0.60 -0.40 0.70 -0.75 0.30 -3.05 6.20 -3.40 8.80 -0.25 2.10 -0.50 2.60 -1.25 2.60 -1.15 0 -1.15 -0.45 -0.20 -5.05 1.85 -8.85 7.20 -14.05 15.70 -15.40 7.90 -1.25 16.10 3.05 19.30 10.15 1.40 3.05 2.75 9.30 2.75 12.75 0 6 -2.40 13.10 -5.70 16.90 -1.95 2.25 -6.75 4.90 -9.90 5.45 -1.70 0.30 -1.90 0.20 -1.90 -0.75z"/>
  <path d="M353.05 445 c-1.45 -0.55 -3.50 -1.60 -4.50 -2.35 l-1.80 -1.40 1.70 -0.15 c0.95 -0.10 1.85 0.05 2 0.30 0.15 0.25 0.80 0.60 1.45 0.80 0.60 0.20 1.10 0.55 1.10 0.80 0 0.20 1.15 0.55 2.50 0.75 2 0.30 2.50 0.55 2.50 1.30 0 1.25 -1.40 1.20 -4.95 -0.05z"/>
  <path d="M361.50 445.10 c0 -0.85 0.45 -1.05 2.50 -1.35 1.40 -0.20 2.50 -0.55 2.50 -0.80 0 -0.25 0.55 -0.55 1.25 -0.75 0.70 -0.15 1.25 -0.50 1.25 -0.75 0 -0.25 0.80 -0.45 1.75 -0.45 1.65 0 1.75 -0.10 1.75 -1.75 0 -0.95 0.20 -1.75 0.45 -1.75 0.55 0 2.55 -6.10 2.55 -7.75 0 -0.95 0.25 -1.25 1.05 -1.25 1 0 1.05 0.20 0.80 2.15 -0.65 4.35 -1.85 7.25 -4.15 9.80 -2.40 2.70 -6.05 4.70 -9.55 5.30 -1.95 0.30 -2.15 0.25 -2.15 -0.65z"/>
  <path d="M555.40 445.65 c-1.80 -0.45 -1 -1.65 1.10 -1.65 1.65 0 2 0.15 2 1 0 1 -1 1.20 -3.10 0.65z"/>
  <path d="M561.50 445.05 c0 -0.90 0.30 -1.05 2 -1.05 1.10 0 2 -0.20 2 -0.50 0 -0.25 0.70 -0.50 1.50 -0.50 1 0 1.50 -0.25 1.50 -0.75 0 -0.40 0.20 -0.75 0.45 -0.75 0.25 0 1.25 -0.80 2.25 -1.80 1 -1 1.80 -2 1.80 -2.25 0 -0.25 0.20 -0.45 0.40 -0.45 0.45 0 2.10 -4.85 2.10 -6.15 0 -0.55 0.40 -0.85 1.05 -0.85 1 0 1.05 0.20 0.75 2.35 -0.35 2.80 -1.70 5.75 -3.80 8.25 -1.75 2.10 -6.70 4.70 -9.85 5.20 -1.95 0.30 -2.15 0.25 -2.15 -0.75z"/>
  <path d="M111.50 444.55 c0 -0.55 0.20 -1.10 0.45 -1.30 0.25 -0.15 1.05 -2.05 1.80 -4.25 1.15 -3.50 1.50 -4 2.50 -4 0.65 0 1.25 -0.30 1.35 -0.60 0.25 -0.75 9.40 -1.20 14.20 -0.65 l3.10 0.30 1.80 4.90 c2.05 5.50 2.20 6.70 0.95 6.45 -0.60 -0.10 -1.45 -1.65 -2.55 -4.75 l-1.70 -4.60 -7.80 -0.15 c-4.30 -0.10 -8.05 0 -8.25 0.15 -0.25 0.20 -1.15 2.35 -2.05 4.75 -1.25 3.65 -1.75 4.50 -2.70 4.60 -0.80 0.15 -1.10 -0.10 -1.10 -0.85z"/>
  <path d="M154.75 444.90 c-0.15 -0.35 -0.20 -10.30 -0.15 -22.15 0.15 -20 0.20 -21.50 1.05 -21.65 0.80 -0.15 0.85 1.15 0.85 22.10 0 19.70 -0.10 22.30 -0.75 22.30 -0.45 0 -0.90 -0.30 -1 -0.60z"/>
  <path d="M161.50 444.50 c0 -0.65 0.35 -1 1 -1 0.65 0 1 0.35 1 1 0 0.65 -0.35 1 -1 1 -0.65 0 -1 -0.35 -1 -1z"/>
  <path d="M171.90 439.10 c-1.55 -3.50 -3.90 -8.75 -5.25 -11.70 -2.35 -5.45 -3.15 -6.45 -3.15 -4.10 0 1.15 -0.10 1.20 -0.75 0.50 -0.40 -0.40 -0.75 -1.55 -0.75 -2.50 0 -1.70 0.05 -1.80 1.75 -1.80 1.70 0 1.85 0.10 3.50 3.80 0.95 2.10 1.75 4.25 1.75 4.75 0 0.55 0.20 0.95 0.40 0.95 0.25 0 1.65 2.70 3.15 6.05 2.25 5.10 2.75 5.90 3.25 5.20 0.35 -0.45 1.10 -0.75 1.65 -0.65 1 0.15 1 0.20 -0.30 3.05 -0.70 1.55 -1.55 2.85 -1.85 2.85 -0.30 -0.05 -1.85 -2.90 -3.40 -6.40z"/>
  <path d="M187.50 444.50 c0 -0.65 0.35 -1 1 -1 0.65 0 1 0.35 1 1 0 0.65 -0.35 1 -1 1 -0.65 0 -1 -0.35 -1 -1z"/>
  <path d="M194.50 444.50 c0 -0.65 0.35 -1 1 -1 0.65 0 1 0.35 1 1 0 0.65 -0.35 1 -1 1 -0.65 0 -1 -0.35 -1 -1z"/>
  <path d="M207.50 444.50 c0 -0.65 0.35 -1 1 -1 0.65 0 1 0.35 1 1 0 0.65 -0.35 1 -1 1 -0.65 0 -1 -0.35 -1 -1z"/>
  <path d="M228.50 444.50 c0 -0.85 0.35 -1 2 -1 2.25 0 2.85 1.15 0.90 1.70 -2.10 0.55 -2.90 0.35 -2.90 -0.70z"/>
  <path d="M297.35 445.15 c-0.45 -0.40 -0.45 -41 -0.05 -42.50 0.20 -0.65 0.65 -1.15 1 -1.15 0.60 0 0.70 3.60 0.70 22 0 18 -0.10 22 -0.65 22 -0.40 0 -0.85 -0.15 -1 -0.35z"/>
  <path d="M304.50 444.50 c0 -0.65 0.35 -1 1 -1 0.65 0 1 0.35 1 1 0 0.65 -0.35 1 -1 1 -0.65 0 -1 -0.35 -1 -1z"/>
  <path d="M319 437.50 l-4 -8 -1.75 0 c-1.40 0 -1.75 -0.20 -1.75 -1 0 -0.80 0.35 -1 1.75 -1 1.20 0 1.75 0.25 1.75 0.75 0 0.45 0.45 0.75 1.15 0.75 0.90 0 1.50 0.80 3.25 4.25 1.15 2.35 2.10 4.50 2.10 4.80 0 0.30 0.35 0.85 0.75 1.25 0.40 0.45 0.75 1.40 0.75 2.20 0 0.95 0.30 1.45 1 1.65 1.35 0.35 1.35 2.35 0 2.35 -0.80 0 -1.85 -1.70 -5 -8z"/>
  <path d="M331 444.75 c0 -0.40 -0.20 -0.75 -0.50 -0.75 -0.25 0 -0.50 -0.80 -0.50 -1.75 0 -2.30 0.75 -2.20 2 0.25 1.25 2.45 1.25 3 0 3 -0.55 0 -1 -0.35 -1 -0.75z"/>
  <path d="M386.75 444.90 c-0.15 -0.35 -0.20 -10.30 -0.15 -22.15 0.15 -20 0.20 -21.50 1.05 -21.65 0.80 -0.15 0.85 1.15 0.85 22.10 0 19.70 -0.10 22.30 -0.75 22.30 -0.45 0 -0.90 -0.30 -1 -0.60z"/>
  <path d="M394 435.55 l0 -10.05 1.75 0 c1.20 0 1.75 0.25 1.75 0.75 0 0.40 -0.35 0.75 -0.75 0.75 -0.60 0 -0.75 1.45 -0.85 9.10 -0.15 8.25 -0.25 9.15 -1 9.30 -0.85 0.15 -0.90 -0.55 -0.90 -9.85z"/>
  <path d="M413.85 445.15 c-0.20 -0.15 -0.35 -4.35 -0.35 -9.25 l0 -8.90 -1.50 0 c-1.15 0 -1.50 -0.20 -1.50 -1 0 -1.05 1.50 -1.30 3.90 -0.70 1.10 0.30 1.10 0.35 1.10 10.25 0 7.95 -0.15 9.95 -0.65 9.95 -0.40 0 -0.85 -0.15 -1 -0.35z"/>
  <path d="M421 424.30 c0 -18.60 -0.10 -21.30 -0.75 -21.30 -0.40 0 -0.75 -0.45 -0.75 -1 0 -1.55 2.90 -1.40 3.25 0.15 0.15 0.60 0.20 10.55 0.15 22.10 -0.15 19.55 -0.20 21 -1 21.15 -0.85 0.15 -0.90 -1.10 -0.90 -21.10z"/>
  <path d="M434.50 444.50 c0 -0.65 0.35 -1 1 -1 0.65 0 1 0.35 1 1 0 0.65 -0.35 1 -1 1 -0.65 0 -1 -0.35 -1 -1z"/>
  <path d="M455.75 444.90 c-0.15 -0.35 -0.20 -10.30 -0.15 -22.15 l0.15 -21.50 1.20 -0.15 c1.10 -0.15 1.15 -0.05 0.85 1.40 -0.15 0.90 -0.30 10.95 -0.30 22.30 0 18.25 -0.10 20.70 -0.75 20.70 -0.45 0 -0.90 -0.30 -1 -0.60z"/>
  <path d="M481.35 442.15 c-1.25 -1.90 -5.55 -8.20 -9.55 -14.10 l-7.30 -10.70 0 12.30 c0 12 -0.05 12.35 -1 12.35 -0.95 0 -1 -0.35 -1 -13 l0 -13 1.45 0 c1.95 0 3.05 0.45 3.05 1.30 0 0.40 0.25 0.70 0.50 0.70 0.30 0 0.50 0.35 0.50 0.75 0 0.40 0.25 0.75 0.50 0.75 0.30 0 0.50 0.35 0.50 0.75 0 0.40 0.25 0.75 0.50 0.75 0.30 0 0.50 0.35 0.50 0.75 0 0.40 0.25 0.75 0.50 0.75 0.30 0 0.50 0.35 0.50 0.75 0 0.40 0.25 0.75 0.50 0.75 0.30 0 0.50 0.35 0.50 0.75 0 0.40 0.25 0.75 0.50 0.75 0.30 0 0.50 0.35 0.50 0.75 0 0.40 0.25 0.75 0.50 0.75 0.30 0 0.50 0.35 0.50 0.75 0 0.40 0.25 0.75 0.50 0.75 0.30 0 0.50 0.80 0.50 1.75 0 1.55 0.15 1.75 1.25 1.75 0.80 0 1.25 0.30 1.25 0.75 0 0.40 0.25 0.75 0.50 0.75 0.30 0 0.50 0.35 0.50 0.75 0 0.40 0.25 0.75 0.50 0.75 0.30 0 0.50 0.35 0.50 0.75 0 0.40 0.25 0.75 0.50 0.75 0.30 0 0.50 0.45 0.50 1 0 0.55 0.35 1 0.75 1 0.40 0 0.75 0.35 0.75 0.75 0 0.40 0.25 0.75 0.50 0.75 0.30 0 0.50 0.35 0.50 0.75 0 0.40 0.25 0.75 0.50 0.75 0.30 0 0.50 0.30 0.50 0.70 0 0.40 0.35 0.80 0.75 1 1.10 0.40 0.95 2.30 -0.20 2.30 -0.55 0 -1.75 -1.25 -3.20 -3.35z"/>
  <path d="M489.50 444.50 c0 -0.65 0.35 -1 1 -1 0.65 0 1 0.35 1 1 0 0.65 -0.35 1 -1 1 -0.65 0 -1 -0.35 -1 -1z"/>
  <path d="M510.50 444.50 c0 -0.65 0.35 -1 1 -1 0.65 0 1 0.35 1 1 0 0.65 -0.35 1 -1 1 -0.65 0 -1 -0.35 -1 -1z"/>
  <path d="M587 444.50 c0 -0.65 0.35 -1 1 -1 0.65 0 1 0.35 1 1 0 0.65 -0.35 1 -1 1 -0.65 0 -1 -0.35 -1 -1z"/>
  <path d="M628.25 444.90 c-0.15 -0.35 -0.20 -10.30 -0.15 -22.15 l0.15 -21.50 1.20 -0.15 c1.10 -0.15 1.15 -0.05 0.85 1.40 -0.15 0.90 -0.30 10.95 -0.30 22.30 0 18.25 -0.10 20.70 -0.75 20.70 -0.45 0 -0.90 -0.30 -1 -0.60z"/>
  <path d="M635 440.55 c0 -4.75 0.05 -5.05 1 -5.05 1 0 1.05 0.25 0.90 4.85 -0.15 4.20 -0.30 4.90 -1 5.05 -0.80 0.15 -0.90 -0.35 -0.90 -4.85z"/>
  <path d="M647.45 432.70 c-4.80 -7.05 -9.10 -13.30 -9.55 -13.90 -0.85 -1 -0.85 -0.70 -0.90 6.60 0 7.25 -0.05 7.60 -1 7.60 -0.95 0 -1 -0.35 -1 -8.50 l0 -8.50 2.05 0 c1.60 0 2.10 0.20 2.30 1 0.15 0.55 0.45 1 0.70 1 0.25 0 0.45 0.35 0.45 0.75 0 0.40 0.25 0.75 0.50 0.75 0.30 0 0.50 0.35 0.50 0.75 0 0.40 0.25 0.75 0.50 0.75 0.30 0 0.50 0.35 0.50 0.75 0 0.40 0.25 0.75 0.50 0.75 0.30 0 0.50 0.35 0.50 0.75 0 0.40 0.25 0.75 0.50 0.75 0.30 0 0.50 0.35 0.50 0.75 0 0.40 0.25 0.75 0.50 0.75 0.30 0 0.50 0.25 0.50 0.50 0 0.30 0.45 0.95 1 1.50 0.55 0.55 1 1.45 1 2 0 0.55 0.35 1 0.75 1 0.40 0 0.75 0.35 0.75 0.75 0 0.40 0.25 0.75 0.50 0.75 0.30 0 0.50 0.35 0.50 0.75 0 0.40 0.25 0.75 0.50 0.75 0.30 0 0.50 0.35 0.50 0.75 0 0.40 0.25 0.75 0.50 0.75 0.30 0 0.50 0.30 0.50 0.70 0 0.40 0.35 0.80 0.75 1 0.45 0.15 0.75 0.90 0.75 1.80 0 1.15 0.20 1.50 1 1.50 0.55 0 1 0.35 1 0.75 0 0.40 0.25 0.75 0.50 0.75 0.30 0 0.50 0.30 0.50 0.70 0 0.40 0.35 0.80 0.75 1 1.10 0.40 0.95 2.30 -0.15 2.30 -0.65 0 -3.60 -3.95 -9.65 -12.80z"/>
  <path d="M662 444.50 c0 -0.65 0.35 -1 1 -1 0.65 0 1 0.35 1 1 0 0.65 -0.35 1 -1 1 -0.65 0 -1 -0.35 -1 -1z"/>
  <path d="M728.75 444.65 c-0.20 -0.50 -2.45 -6.95 -5.05 -14.40 -2.60 -7.40 -5.85 -16.65 -7.20 -20.50 -3 -8.50 -3 -8.50 -1.80 -8.50 0.65 0 1.15 0.60 1.60 1.75 2.95 8.10 14.35 40.50 14.55 41.40 0.20 0.85 0.05 1.10 -0.75 1.10 -0.55 0 -1.15 -0.40 -1.35 -0.85z"/>
  <path d="M736 444.80 c0 -1.45 0.65 -2.30 1.80 -2.30 1.05 0 1.10 0.10 0.65 1.50 -0.55 1.55 -2.45 2.15 -2.45 0.80z"/>
  <path d="M761.75 444.90 c-0.15 -0.35 -0.20 -10.30 -0.15 -22.15 0.15 -20 0.20 -21.50 1.05 -21.65 0.80 -0.15 0.85 1.15 0.85 22.10 0 19.70 -0.10 22.30 -0.75 22.30 -0.45 0 -0.90 -0.30 -1 -0.60z"/>
  <path d="M105.20 442.65 c0.80 -2.20 11.40 -30.20 13.95 -36.90 1.35 -3.55 1.95 -4.55 2.80 -4.65 1.35 -0.20 1.35 0.60 0.05 3.30 -0.55 1.10 -1 2.30 -1 2.60 0 0.25 -0.20 0.50 -0.45 0.50 -0.25 0 -0.55 0.75 -0.70 1.65 -0.10 0.85 -1.60 5.20 -3.30 9.60 -1.70 4.40 -4.05 10.50 -5.15 13.50 -1.15 3.05 -2.25 5.60 -2.50 5.65 -0.20 0.10 -0.40 0.75 -0.40 1.40 0 0.65 -0.20 1.20 -0.45 1.20 -0.25 0 -0.55 0.90 -0.75 2 -0.25 1.70 -0.50 2 -1.55 2 -1.20 0 -1.20 -0.05 -0.55 -1.85z"/>
  <path d="M233 443.50 c0 -0.80 0.35 -1 1.50 -1 1 0 1.50 -0.25 1.50 -0.75 0 -0.55 0.55 -0.75 1.80 -0.75 1.60 0 1.75 0.10 1.15 0.80 -0.80 0.95 -4.15 2.70 -5.20 2.70 -0.40 0 -0.75 -0.45 -0.75 -1z"/>
  <path d="M143.50 442.80 c0 -0.65 -0.20 -1.30 -0.40 -1.40 -0.25 -0.05 -1.60 -3.40 -3.05 -7.40 -1.40 -4 -2.90 -8.05 -3.30 -9 -2.05 -5.05 -4.75 -12.75 -4.75 -13.55 0 -0.55 -0.20 -0.95 -0.50 -0.95 -0.25 0 -0.50 -0.55 -0.50 -1.25 0 -0.70 -0.20 -1.25 -0.50 -1.25 -0.25 0 -0.60 -0.85 -0.80 -1.85 -0.20 -1.05 -0.65 -2.20 -1.05 -2.55 -1 -1 -0.80 -2.60 0.25 -2.60 0.75 0 1.85 2.30 5.50 11.90 2.50 6.50 5.85 15.55 7.50 20.10 1.65 4.55 3.25 8.85 3.55 9.65 0.50 1.25 0.45 1.35 -0.70 1.35 -1 0 -1.25 -0.25 -1.25 -1.20z"/>
  <path d="M549.25 443.10 c-9.30 -5.70 -11.65 -24.40 -4.35 -34.85 6.15 -8.90 19.70 -10.60 27.60 -3.45 2.20 2 4.25 5.40 3.85 6.45 -0.25 0.60 -6.35 3.25 -7.50 3.25 -0.30 -0.05 -1.05 -0.75 -1.60 -1.60 -0.55 -0.90 -1.75 -2.05 -2.65 -2.55 -2.05 -1.20 -6.80 -1.30 -9.05 -0.15 -2.15 1.15 -4.45 4.50 -5.40 7.90 -0.55 1.85 -1.10 2.90 -1.55 2.90 -0.60 0 -0.70 -0.50 -0.45 -2.60 0.20 -1.45 0.55 -2.70 0.85 -2.80 0.25 -0.10 0.50 -0.75 0.50 -1.40 0 -0.65 0.25 -1.20 0.50 -1.20 0.30 0 0.50 -0.35 0.50 -0.75 0 -0.50 0.50 -0.75 1.50 -0.75 1.30 0 1.50 -0.15 1.50 -1.45 0 -1.85 1.80 -2.55 6.50 -2.55 4.65 0 6.50 0.70 6.50 2.50 0 1.30 0.20 1.40 2.60 1.70 1.40 0.20 2.70 0.15 2.85 -0.10 0.15 -0.25 0.70 -0.65 1.20 -0.90 0.85 -0.50 0.85 -0.60 -0.15 -1.80 -0.55 -0.70 -1 -1.65 -1 -2.10 0 -0.45 -0.40 -0.80 -1 -0.80 -0.55 0 -1.15 -0.35 -1.30 -0.75 -0.20 -0.40 -0.60 -0.75 -0.95 -0.75 -0.40 0 -1 -0.30 -1.35 -0.65 -1.05 -1.05 -6.45 -1.90 -9.60 -1.55 -1.55 0.20 -2.80 0.50 -2.80 0.70 0 0.20 -0.90 0.65 -2 1 -1.10 0.35 -2 0.85 -2 1.10 0 0.20 -0.55 0.40 -1.25 0.40 -0.90 0 -1.25 0.25 -1.25 1 0 0.55 -0.35 1 -0.75 1 -0.40 0 -0.75 0.45 -0.75 1 0 0.55 -0.20 1 -0.50 1 -0.25 0 -0.50 0.30 -0.50 0.70 0 0.40 -0.20 0.80 -0.45 0.90 -0.20 0.10 -1 1.90 -1.75 4 -0.95 2.80 -1.30 4.80 -1.30 7.60 0 3.85 0.95 10.30 1.55 10.30 0.15 0 0.70 0.95 1.25 2.15 0.50 1.15 1.20 2.30 1.55 2.50 0.35 0.20 0.65 0.75 0.65 1.10 0 0.40 0.30 0.75 0.65 0.75 1.05 0.05 3.35 2.40 3.35 3.50 0 1.25 -0.35 1.25 -2.25 0.10z"/>
  <path d="M738 440.70 c0 -1.75 1.05 -5.20 1.60 -5.20 0.20 0 0.40 -0.40 0.40 -0.85 0 -1.30 2.15 -7.65 2.60 -7.65 0.20 0 0.40 -0.40 0.40 -0.90 0 -0.45 1.65 -5.70 3.70 -11.65 2.50 -7.20 3.60 -11.20 3.45 -12.10 -0.25 -1.25 -0.15 -1.35 1.30 -1.35 1.20 0 1.55 0.20 1.55 1 0 0.90 -13.05 38.35 -13.75 39.50 -0.60 0.95 -1.25 0.50 -1.25 -0.80z"/>
  <path d="M240 438.85 c0 -0.95 0.35 -2.10 0.75 -2.55 0.40 -0.40 0.75 -1.40 0.75 -2.25 0 -1.20 0.20 -1.55 1 -1.55 0.55 0 1 0.30 1 0.65 0 1.60 -1.60 5.75 -2.50 6.60 -1 0.90 -1 0.90 -1 -0.90z"/>
  <path d="M345.15 439.40 c-1.50 -1.65 -2.95 -4.75 -3.85 -8.25 -1.10 -4.25 -1.05 -5.65 0.20 -5.65 0.75 0 1 0.35 1 1.35 0 1.95 2.10 8.25 3.10 9.35 0.75 0.80 1.30 4.30 0.75 4.30 -0.10 0 -0.65 -0.50 -1.20 -1.10z"/>
  <path d="M264.40 438.30 c-2.05 -0.75 -4.40 -2.70 -4.40 -3.65 0 -0.35 -0.20 -0.65 -0.50 -0.65 -0.75 0 -2 -4.95 -2 -8.10 0 -2.15 0.20 -2.90 0.70 -2.90 0.80 0 1.30 1.50 1.30 4.25 0.05 3.75 2.60 7.70 5.80 9.05 5.70 2.40 11.50 -0.85 13.20 -7.30 0.85 -3.15 0.70 -9.80 -0.25 -12.45 -1.75 -4.95 -4.60 -7.15 -9.30 -7.20 -2.30 0 -3.30 0.25 -4.85 1.30 -2.05 1.30 -4.60 5.55 -4.60 7.55 0 1.90 -0.60 3.30 -1.40 3.30 -0.60 0 -0.70 -0.50 -0.45 -2.95 0.35 -3.85 1.95 -7.55 3.30 -7.55 0.65 0 1.05 -0.40 1.15 -1.10 0.10 -0.90 0.55 -1.20 1.80 -1.30 0.85 -0.10 1.60 -0.35 1.60 -0.65 0 -0.25 1.65 -0.45 3.65 -0.45 4.10 0 7.75 1.35 8.20 3 0.15 0.55 0.45 1 0.70 1 0.25 0 0.45 0.35 0.45 0.75 0 0.40 0.20 0.75 0.45 0.75 0.95 0 1.80 4.95 1.80 10.25 0 5.30 -0.85 10.25 -1.80 10.25 -0.25 0 -0.45 0.35 -0.45 0.75 0 0.45 -0.45 0.75 -1.25 0.75 -1 0 -1.25 0.25 -1.25 1.20 0 0.95 -0.45 1.35 -2 2 -2.40 0.95 -7.05 1 -9.60 0.10z"/>
  <path d="M327.50 438 c0 -0.55 -0.20 -1 -0.50 -1 -0.25 0 -0.50 -0.45 -0.50 -1 0 -0.55 -0.20 -1 -0.50 -1 -0.25 0 -0.50 -0.35 -0.50 -0.80 0 -0.40 -0.35 -1.10 -0.75 -1.50 -1.05 -1.05 -1.40 -2.90 -1.05 -4.90 0.35 -1.85 1.85 -2.80 4.40 -2.80 1.50 0 1.50 0.05 0.70 0.95 -0.50 0.55 -1.55 1.25 -2.35 1.55 -0.80 0.35 -1.45 0.70 -1.45 0.80 0 0.15 1.15 2.45 2.50 5.20 1.40 2.75 2.50 5.10 2.50 5.25 0 0.15 -0.55 0.25 -1.25 0.25 -0.90 0 -1.25 -0.25 -1.25 -1z"/>
  <path d="M355.15 438.40 c-0.90 -0.30 -1.65 -0.75 -1.65 -0.95 0 -0.25 -0.35 -0.45 -0.75 -0.45 -0.45 0 -0.75 -0.45 -0.75 -1.25 0 -0.90 -0.25 -1.25 -1 -1.25 -0.65 0 -1 -0.35 -1 -1 0 -0.55 -0.20 -1 -0.50 -1 -0.25 0 -0.50 -0.65 -0.50 -1.45 0 -0.80 -0.25 -1.55 -0.55 -1.65 -0.30 -0.10 -0.65 -2.30 -0.80 -5.05 -0.30 -4.70 -0.25 -4.85 0.80 -4.85 1 0 1.05 0.25 1.05 3.70 0 4.40 1.10 8.05 3.10 10.55 1.90 2.25 4.25 3.25 7.75 3.25 4.25 0 6.80 -1.60 7.85 -4.85 0.35 -1.05 0.20 -1.10 -3.05 -1.25 -3.05 -0.15 -3.40 -0.25 -3.55 -1.25 -0.15 -1.05 -0.05 -1.05 3.75 -0.80 2.15 0.15 4 0.35 4.10 0.45 0.10 0.10 0.30 1.15 0.40 2.45 0.20 1.50 0.10 2.25 -0.30 2.25 -0.30 0 -0.55 0.45 -0.55 1 0 0.55 -0.30 1 -0.70 1 -0.35 0 -0.80 0.45 -0.95 0.95 -0.15 0.60 -0.95 1.15 -2.15 1.50 -2.40 0.65 -7.90 0.65 -10.05 -0.05z"/>
  <path d="M555.35 438.25 c-2.55 -0.90 -4.15 -2.45 -5.70 -5.45 -1.55 -3.05 -2.15 -7.80 -1.05 -7.80 0.50 0 1 0.85 1.35 2.35 0.75 2.95 1.80 5.05 3.50 6.80 1.95 2.15 3.70 2.85 7.05 2.85 4.35 0 7 -1.60 7.75 -4.60 l0.35 -1.40 -3.25 0 c-3.80 0 -3.85 -0.05 -3.85 -5.05 0 -3.10 0.10 -3.45 1 -3.45 0.90 0 1 0.35 1 3.25 l0 3.25 3.25 0 3.25 0 0 2.75 c0 2.10 -0.15 2.75 -0.75 2.75 -0.45 0 -0.75 0.45 -0.75 1.25 0 0.80 -0.30 1.25 -0.75 1.25 -0.40 0 -0.75 0.20 -0.75 0.45 0 1.50 -8.20 2.05 -11.65 0.80z"/>
  <path d="M85.50 437.50 c0 -0.80 0.35 -1 1.75 -1 1.40 0 1.75 0.20 1.75 1 0 0.80 -0.35 1 -1.75 1 -1.40 0 -1.75 -0.20 -1.75 -1z"/>
  <path d="M90.50 437.50 c0 -0.80 0.35 -1 1.75 -1 1.40 0 1.75 0.20 1.75 1 0 0.80 -0.35 1 -1.75 1 -1.40 0 -1.75 -0.20 -1.75 -1z"/>
  <path d="M162 432.75 c0 -4.55 0.15 -5.75 0.70 -5.75 0.95 0 1.30 1.60 1.30 5.75 0 4.15 -0.35 5.75 -1.30 5.75 -0.55 0 -0.70 -1.20 -0.70 -5.75z"/>
  <path d="M178 437 c0 -2.35 1.50 -5 2.85 -5 1.25 0 1.15 0.55 -0.85 4.50 -1.20 2.35 -2 2.60 -2 0.50z"/>
  <path d="M215 436.75 c0 -1.95 1.20 -2.50 1.65 -0.75 0.15 0.55 0.60 1 1.05 1 0.45 0 0.80 0.35 0.80 0.75 0 0.50 -0.55 0.75 -1.75 0.75 -1.65 0 -1.75 -0.10 -1.75 -1.75z"/>
  <path d="M219.50 437.80 c0 -0.40 0.60 -0.85 1.30 -1 1.80 -0.45 4.20 0.10 4.20 1 0 0.50 -0.70 0.70 -2.75 0.70 -2 0 -2.75 -0.20 -2.75 -0.70z"/>
  <path d="M227.50 437.80 c0 -0.45 1 -0.95 2.50 -1.30 1.50 -0.35 2.80 -1.05 3.25 -1.65 1 -1.40 0.95 -5.80 -0.05 -7.25 -0.75 -1.05 -0.70 -1.10 0.70 -1.10 1.70 0 2.10 0.85 2.10 4.75 0 3.45 -0.45 4.75 -1.55 4.75 -0.60 0 -0.95 0.35 -0.95 0.95 0 1.05 -1.30 1.55 -4.10 1.55 -1.30 0 -1.90 -0.20 -1.90 -0.70z"/>
  <path d="M595 436.75 c0 -0.95 0.25 -1.75 0.50 -1.75 0.30 0 0.50 0.35 0.50 0.75 0 0.65 1.60 0.75 11.25 0.75 10.90 0 11.25 0.05 11.25 1 0 0.95 -0.35 1 -11.75 1 l-11.75 0 0 -1.75z"/>
  <path d="M683.50 436.75 c0 -0.95 0.25 -1.75 0.50 -1.75 0.30 0 0.50 0.35 0.50 0.75 0 0.65 1.10 0.75 6.75 0.75 6.40 0 6.75 0.05 6.75 1 0 0.95 -0.35 1 -7.25 1 l-7.25 0 0 -1.75z"/>
  <path d="M700.50 437.50 c0 -0.80 0.35 -1 1.75 -1 1.40 0 1.75 0.20 1.75 1 0 0.80 -0.35 1 -1.75 1 -1.40 0 -1.75 -0.20 -1.75 -1z"/>
  <path d="M705 437.50 c0 -0.65 0.35 -1 1 -1 0.65 0 1 0.35 1 1 0 0.65 -0.35 1 -1 1 -0.65 0 -1 -0.35 -1 -1z"/>
  <path d="M769.65 437.75 c-0.45 -0.50 -0.65 -2.55 -0.65 -6.50 l0 -5.75 1.90 0.05 c1 0.05 1.45 0.15 1 0.30 -0.80 0.20 -0.90 0.90 -0.90 5.45 l0 5.20 11 0 c10.65 0 11 0.05 11 1 0 0.95 -0.35 1 -11.35 1 -9.20 -0.05 -11.50 -0.15 -12 -0.75z"/>
  <path d="M75.50 436.25 c0 -1.95 1.20 -2.50 1.65 -0.75 0.15 0.55 0.60 1 1.05 1 0.45 0 0.80 0.35 0.80 0.75 0 0.50 -0.55 0.75 -1.75 0.75 -1.65 0 -1.75 -0.10 -1.75 -1.75z"/>
  <path d="M732 433.75 c0 -0.70 -0.20 -1.25 -0.50 -1.25 -0.25 0 -0.50 -0.80 -0.50 -1.75 0 -0.95 -0.20 -1.75 -0.50 -1.75 -0.25 0 -0.50 -0.65 -0.50 -1.45 0 -0.80 -0.20 -1.55 -0.45 -1.65 -0.25 -0.05 -2.05 -5.15 -4.05 -11.25 -1.95 -6.15 -3.80 -11.25 -4.05 -11.40 -0.25 -0.20 -0.45 -0.75 -0.45 -1.30 0 -0.75 0.30 -1 1.15 -0.85 1.25 0.15 1.35 0.50 7.40 19.40 1.95 6.20 3.65 11.60 3.80 12 0.20 0.45 0.60 -0.30 1 -1.75 0.95 -3.50 1.55 -4.75 2.15 -4.75 0.75 0 0.60 2.65 -0.35 6 -0.80 2.90 -0.85 3 -2.50 3 -1.45 0 -1.65 -0.15 -1.65 -1.25z"/>
  <path d="M182 428.40 c0 -2.15 0.60 -3.05 1.90 -2.80 l1.05 0.15 -0.95 2.15 c-1.15 2.50 -2 2.70 -2 0.50z"/>
  <path d="M241.50 428.75 c0 -0.70 -0.20 -1.25 -0.50 -1.25 -0.25 0 -0.50 -0.30 -0.50 -0.65 0 -0.35 -0.45 -0.90 -1 -1.25 -0.55 -0.35 -1 -1.05 -1 -1.60 0 -0.75 -0.35 -1 -1.30 -1 -1.15 0 -1.25 -0.15 -1.10 -1.85 0.10 -1.55 0.35 -1.95 1.30 -2.05 0.70 -0.10 1.10 -0.50 1.10 -1.15 0 -0.70 0.35 -0.95 1.25 -0.95 1.65 0 1.60 0.60 -0.30 2.75 -0.90 1 -1.50 1.85 -1.40 1.95 0.10 0.05 0.90 0.60 1.80 1.20 1.55 1.10 3.65 4.65 3.65 6.25 0 0.50 -0.40 0.85 -1 0.85 -0.75 0 -1 -0.35 -1 -1.25z"/>
  <path d="M481 429.25 c0 -0.40 -0.35 -0.75 -0.75 -0.75 -0.40 0 -0.85 -0.55 -1.05 -1.25 -0.15 -0.70 -0.50 -1.25 -0.75 -1.25 -0.25 0 -0.45 -0.35 -0.45 -0.75 0 -0.40 -0.20 -0.75 -0.50 -0.75 -0.25 0 -0.50 -0.35 -0.50 -0.75 0 -0.40 -0.20 -0.75 -0.50 -0.75 -0.25 0 -0.50 -0.80 -0.50 -1.80 0 -1.55 0.10 -1.75 0.75 -1.20 0.40 0.35 1.80 2.30 3.10 4.30 2.30 3.65 3.15 4.45 3.15 2.95 0 -0.40 0.35 -0.75 0.75 -0.75 0.50 0 0.75 0.55 0.75 1.75 0 1.65 -0.10 1.75 -1.75 1.75 -1.20 0 -1.75 -0.25 -1.75 -0.75z"/>
  <path d="M653.15 429.25 c-0.35 -0.40 -0.65 -1.30 -0.65 -2 0 -0.90 -0.25 -1.25 -1 -1.25 -0.55 0 -1 -0.35 -1 -0.75 0 -0.40 -0.20 -0.75 -0.50 -0.75 -0.25 0 -0.50 -0.80 -0.50 -1.80 0 -2.30 0.65 -1.85 3.30 2.30 2.10 3.30 2.70 3.65 2.70 1.70 0 -1.15 0.10 -1.20 0.75 -0.50 0.40 0.40 0.75 1.40 0.75 2.25 0 1.40 -0.15 1.55 -1.60 1.55 -0.90 -0.05 -1.95 -0.35 -2.25 -0.75z"/>
  <path d="M119 426.65 c0 -3.60 0.45 -4.65 1.80 -4.65 1.15 0 1.15 0.05 0.45 2.05 -0.40 1.15 -0.75 2.25 -0.75 2.50 0 0.25 2.15 0.45 4.75 0.45 2.60 0 4.75 -0.10 4.75 -0.15 0 -0.10 -0.45 -1.45 -0.95 -3 l-1 -2.85 1.15 0 c0.90 0 1.25 0.40 1.70 1.95 0.35 1.05 0.60 2.85 0.60 4 l0 2.05 -6.25 0 -6.25 0 0 -2.35z"/>
  <path d="M173.10 427.75 c-0.35 -0.70 -0.60 -1.75 -0.60 -2.25 0 -0.55 -0.20 -1 -0.40 -1 -0.55 0 -1.60 -2.25 -1.60 -3.30 0 -0.45 -0.30 -1.10 -0.70 -1.45 -0.40 -0.40 -1.35 -2.35 -2.20 -4.35 -2.95 -7.10 -5.55 -12.40 -6.10 -12.40 -0.25 0 -0.50 -0.45 -0.50 -1.05 0 -0.80 0.25 -1 1.40 -0.85 1.25 0.15 1.70 1 7 12.90 3.10 7 5.80 12.90 6 13.10 0.20 0.20 1.25 -1.70 2.30 -4.25 4.90 -11.60 6.30 -13.85 6.30 -10.40 0 1.95 -0.45 3.05 -1.30 3.05 -0.45 0 -0.70 0.60 -0.70 1.70 0 0.95 -0.35 2.05 -0.75 2.50 -0.40 0.40 -0.75 1 -0.75 1.35 0 1.05 -2.60 7.15 -3.20 7.55 -0.30 0.20 -1.25 0.40 -2.10 0.40 -1.15 0 -1.70 -0.30 -2.10 -1.25z"/>
  <path d="M683 426.25 c0 -1.65 0.10 -1.75 1.75 -1.75 1.95 0 2.50 1.20 0.75 1.65 -0.55 0.15 -1 0.60 -1 1.05 0 0.45 -0.35 0.80 -0.75 0.80 -0.50 0 -0.75 -0.55 -0.75 -1.75z"/>
  <path d="M215 425.75 c0 -1.65 0.10 -1.75 1.75 -1.75 1.95 0 2.50 1.20 0.75 1.65 -0.55 0.15 -1 0.60 -1 1.05 0 0.45 -0.35 0.80 -0.75 0.80 -0.50 0 -0.75 -0.55 -0.75 -1.75z"/>
  <path d="M228.40 425.65 c-1.80 -0.45 -1 -1.65 1.10 -1.65 1.65 0 2 0.15 2 1 0 1 -1 1.20 -3.10 0.65z"/>
  <path d="M606.50 425 c0 -0.65 0.35 -1 1 -1 0.65 0 1 0.35 1 1 0 0.65 -0.35 1 -1 1 -0.65 0 -1 -0.35 -1 -1z"/>
  <path d="M695 425 c0 -0.65 0.35 -1 1 -1 0.65 0 1 0.35 1 1 0 0.65 -0.35 1 -1 1 -0.65 0 -1 -0.35 -1 -1z"/>
  <path d="M781.50 424.50 c0 -1.15 0.20 -1.50 1 -1.50 0.80 0 1 0.35 1 1.50 0 1.15 -0.20 1.50 -1 1.50 -0.80 0 -1 -0.35 -1 -1.50z"/>
  <path d="M736.50 424.40 c0 -0.35 1.65 -5.70 3.65 -11.90 3.20 -9.80 3.80 -11.25 4.75 -11.40 0.80 -0.15 1.10 0.10 1.10 0.85 0 0.55 -0.20 1.10 -0.40 1.25 -0.25 0.15 -0.85 1.60 -1.35 3.30 -0.50 1.65 -1.10 3 -1.35 3 -0.20 0 -0.40 0.75 -0.40 1.70 0 0.95 -0.35 2.05 -0.75 2.50 -0.40 0.40 -0.75 1.25 -0.75 1.85 0 0.65 -0.60 3 -1.35 5.30 -1.05 3.15 -1.55 4.15 -2.25 4.15 -0.50 0 -0.90 -0.30 -0.90 -0.60z"/>
  <path d="M184.50 422.75 c0 -0.95 0.25 -1.75 0.50 -1.75 0.30 0 0.50 -0.55 0.50 -1.25 0 -1.10 0.20 -1.25 1.75 -1.25 1.65 0 1.75 0.10 1.75 1.75 0 0.95 -0.20 1.75 -0.45 1.75 -0.25 0 -0.60 0.40 -0.70 0.90 -0.15 0.45 -0.30 0.05 -0.35 -0.90 l-0.05 -1.75 -0.95 2.15 c-1.15 2.55 -2 2.70 -2 0.35z"/>
  <path d="M361.50 423.50 c0 -0.65 0.35 -1 1 -1 0.65 0 1 0.35 1 1 0 0.65 -0.35 1 -1 1 -0.65 0 -1 -0.35 -1 -1z"/>
  <path d="M375.50 423.50 c0 -0.65 0.35 -1 1 -1 0.65 0 1 0.35 1 1 0 0.65 -0.35 1 -1 1 -0.65 0 -1 -0.35 -1 -1z"/>
  <path d="M330 422.55 c0 -0.80 0.35 -2.25 0.75 -3.20 0.40 -1 0.75 -3.05 0.75 -4.60 0 -2.05 0.20 -2.75 0.70 -2.75 1.70 0 1.50 6 -0.30 9.90 -1.15 2.45 -1.90 2.70 -1.90 0.65z"/>
  <path d="M320 421.75 c0 -0.15 0.90 -1.15 2 -2.20 1.10 -1.05 2 -2.25 2 -2.70 0 -0.50 0.35 -0.85 0.75 -0.85 1.15 0 0.95 3.10 -0.30 4.70 -0.75 0.95 -1.50 1.30 -2.75 1.30 -0.95 0 -1.70 -0.10 -1.70 -0.25z"/>
  <path d="M121 420.15 c0 -0.75 0.60 -3.15 1.30 -5.25 1.25 -3.85 1.30 -3.90 3 -3.90 1.55 0 1.70 0.15 1.70 1.50 0 0.85 0.25 1.50 0.50 1.50 0.30 0 0.50 0.80 0.50 1.75 0 2 -0.80 2.30 -1.45 0.65 -0.25 -0.65 -0.65 -1.70 -0.90 -2.35 -0.40 -1.10 -0.60 -0.80 -1.95 2.95 -1.50 4.30 -2.70 5.75 -2.70 3.15z"/>
  <path d="M340.70 418.65 c0.85 -6.45 3.95 -11.85 8.50 -15 8.35 -5.75 20.95 -3.60 25.65 4.35 0.90 1.50 1.65 2.85 1.65 3.05 0 0.40 -5.05 2.80 -6.85 3.25 -0.90 0.25 -1.55 -0.15 -3.25 -2.05 -1.70 -1.85 -2.60 -2.45 -4.40 -2.75 -3.50 -0.65 -6.40 0.20 -8.85 2.65 l-2.15 2.05 0 -1.75 c0 -1.90 1.20 -3.45 2.60 -3.45 0.45 0 0.90 -0.30 1.05 -0.60 0.10 -0.45 1.65 -0.65 5.25 -0.65 5.40 0 7.25 0.70 8.35 3.20 0.35 0.80 0.80 1.05 1.50 0.85 0.55 -0.15 1.75 -0.45 2.60 -0.65 1.65 -0.40 1.65 -0.40 0.75 -1.70 -1.50 -2.25 -3.50 -4.45 -4.05 -4.45 -0.30 0 -0.55 -0.35 -0.55 -0.75 0 -0.45 -0.45 -0.75 -1.10 -0.75 -0.65 0 -2.25 -0.35 -3.65 -0.80 -3.35 -1 -6.90 -0.55 -10.85 1.40 -1.70 0.85 -3.75 2.35 -4.60 3.35 -0.85 0.95 -1.90 2.15 -2.40 2.60 -1 1.05 -3.40 7.85 -3.40 9.65 0 1 -0.25 1.30 -1.05 1.30 -1 0 -1.05 -0.20 -0.75 -2.35z"/>
  <path d="M781.50 419.25 c0 -1.40 0.20 -1.75 1 -1.75 0.80 0 1 0.35 1 1.75 0 1.40 -0.20 1.75 -1 1.75 -0.80 0 -1 -0.35 -1 -1.75z"/>
  <path d="M412 418.80 c0 -0.40 0.35 -0.80 0.80 -0.90 0.65 -0.15 0.80 -1.35 0.85 -8.40 l0.10 -8.25 1.20 -0.15 c1.10 -0.15 1.15 -0.05 0.85 1.40 -0.15 0.90 -0.30 5.10 -0.30 9.30 l0 7.70 -1.75 0 c-1.20 0 -1.75 -0.25 -1.75 -0.70z"/>
  <path d="M228.50 418.30 c0 -0.35 0.75 -0.85 1.65 -1.10 2.05 -0.60 3.15 -2.70 2.50 -4.85 -0.50 -1.75 -1.90 -2.65 -4.75 -3.10 -2.75 -0.45 -2.55 -1.75 0.25 -1.75 3.05 0 4.35 0.45 4.35 1.55 0 0.60 0.35 0.95 1 0.95 0.90 0 1 0.35 1 3.50 0 3.40 -0.05 3.50 -1.25 3.50 -0.90 0 -1.25 0.25 -1.25 1 0 0.80 -0.35 1 -1.75 1 -1.15 0 -1.75 -0.25 -1.75 -0.70z"/>
  <path d="M394 411 c0 -6.80 -0.10 -8 -0.75 -8 -0.40 0 -0.75 -0.45 -0.75 -1.05 0 -0.85 0.25 -1 1.65 -0.85 l1.60 0.15 0.15 8.40 c0.10 6.95 0.25 8.35 0.85 8.35 0.40 0 0.75 0.25 0.75 0.50 0 0.30 -0.80 0.50 -1.75 0.50 l-1.75 0 0 -8z"/>
  <path d="M594.50 417.25 c0 -1.95 1.20 -2.50 1.65 -0.75 0.15 0.55 0.60 1 1.05 1 0.45 0 0.80 0.35 0.80 0.75 0 0.50 -0.55 0.75 -1.75 0.75 -1.65 0 -1.75 -0.10 -1.75 -1.75z"/>
  <path d="M683 417.25 c0 -1.95 1.20 -2.50 1.65 -0.75 0.15 0.55 0.60 1 1.05 1 0.45 0 0.80 0.35 0.80 0.75 0 0.50 -0.55 0.75 -1.75 0.75 -1.65 0 -1.75 -0.10 -1.75 -1.75z"/>
  <path d="M769.15 418.20 c-0.30 -0.80 0.05 -9.60 0.40 -9.90 0.30 -0.25 12.25 -0.50 18.10 -0.40 4.50 0.10 4.85 0.15 4.85 1.10 0 0.95 -0.35 1 -10.75 1 l-10.75 0 0 3.55 c0 3.10 0.10 3.55 1 3.80 0.55 0.15 1 0.60 1 0.95 0 1 -3.45 0.95 -3.85 -0.10z"/>
  <path d="M348.50 416.75 c0 -1.50 0.15 -1.75 1.20 -1.75 1.15 0 1.20 0.10 0.65 1.75 -0.30 0.95 -0.80 1.75 -1.20 1.75 -0.40 0 -0.65 -0.65 -0.65 -1.75z"/>
  <path d="M472.50 417.25 c0 -0.40 -0.20 -0.75 -0.50 -0.75 -0.25 0 -0.50 -0.35 -0.50 -0.75 0 -0.40 -0.20 -0.75 -0.50 -0.75 -0.25 0 -0.50 -0.35 -0.50 -0.75 0 -0.40 -0.20 -0.75 -0.50 -0.75 -0.25 0 -0.50 -0.35 -0.50 -0.75 0 -0.40 -0.20 -0.75 -0.50 -0.75 -0.25 0 -0.50 -0.35 -0.50 -0.75 0 -0.40 -0.20 -0.75 -0.50 -0.75 -0.25 0 -0.50 -0.30 -0.50 -0.70 0 -0.40 -0.35 -0.80 -0.75 -1 -0.45 -0.15 -0.75 -0.90 -0.75 -1.80 0 -1.15 -0.20 -1.50 -1 -1.50 -0.55 0 -1 -0.30 -1 -0.65 0 -0.35 -0.45 -0.95 -1 -1.35 -1.40 -1 -1.35 -2.60 0.10 -2.40 0.75 0.10 2.75 2.60 6.75 8.55 l5.70 8.35 -1.50 0 c-1.05 0 -1.55 -0.25 -1.55 -0.75z"/>
  <path d="M645 417.25 c0 -0.40 -0.20 -0.75 -0.50 -0.75 -0.25 0 -0.50 -0.35 -0.50 -0.75 0 -0.40 -0.20 -0.75 -0.50 -0.75 -0.25 0 -0.50 -0.35 -0.50 -0.75 0 -0.40 -0.20 -0.75 -0.50 -0.75 -0.25 0 -0.50 -0.35 -0.50 -0.75 0 -0.40 -0.20 -0.75 -0.50 -0.75 -0.25 0 -0.50 -0.35 -0.50 -0.75 0 -0.40 -0.20 -0.75 -0.50 -0.75 -0.25 0 -0.50 -0.35 -0.50 -0.75 0 -0.40 -0.20 -0.75 -0.50 -0.75 -0.25 0 -0.50 -0.35 -0.50 -0.75 0 -0.40 -0.20 -0.75 -0.50 -0.75 -0.25 0 -0.50 -0.35 -0.50 -0.75 0 -0.40 -0.20 -0.75 -0.50 -0.75 -0.25 0 -0.50 -0.25 -0.50 -0.50 0 -0.30 -0.55 -1.05 -1.25 -1.70 -1.60 -1.50 -1.65 -2.95 -0.10 -2.70 0.80 0.10 2.60 2.35 6.75 8.55 l5.65 8.35 -1.55 0 c-1 0 -1.50 -0.25 -1.50 -0.75z"/>
  <path d="M323.70 413.45 c-0.90 -3.10 -2.30 -3.60 -10.05 -3.60 -6 0 -6.90 0.10 -7.05 0.85 -0.30 1.55 -1.60 0.90 -1.60 -0.90 l0 -1.65 4.40 -0.30 c5.10 -0.40 13.25 0.30 13.50 1.10 0.10 0.30 0.50 0.55 0.90 0.55 0.40 0 0.70 0.45 0.70 1 0 0.55 0.25 1 0.50 1 0.30 0 0.50 0.80 0.50 1.75 0 2.25 -1.20 2.35 -1.80 0.20z"/>
  <path d="M239.50 409.50 c-0.35 -1.10 -0.85 -2 -1.10 -2 -0.20 0 -0.40 -0.35 -0.40 -0.75 0 -0.40 -0.30 -0.75 -0.70 -0.75 -0.40 0 -0.80 -0.15 -0.90 -0.35 -0.30 -0.70 -4 -2.20 -6.20 -2.50 -1.75 -0.25 -2.20 -0.50 -2.20 -1.30 0 -0.90 0.25 -0.95 2.65 -0.65 5.50 0.70 10.35 4.45 11.15 8.70 0.30 1.35 0.20 1.60 -0.65 1.60 -0.70 0 -1.20 -0.55 -1.65 -2z"/>
  <path d="M594.50 409.80 l0 -1.65 4.30 -0.30 c2.40 -0.15 7.25 -0.15 10.75 0 l6.45 0.30 0 -2.55 c0 -2 -0.20 -2.60 -0.75 -2.60 -0.40 0 -0.75 -0.45 -0.75 -1.05 0 -0.85 0.25 -1 1.65 -0.85 l1.60 0.15 0.15 3.25 c0.10 1.75 0 3.75 -0.15 4.35 l-0.25 1.15 -10.75 0 c-9.20 0 -10.75 0.10 -10.75 0.75 0 0.40 -0.35 0.75 -0.75 0.75 -0.50 0 -0.75 -0.50 -0.75 -1.70z"/>
  <path d="M683 409.75 l0 -1.75 11.50 0 c11.30 0 11.50 0 11.50 1.05 0 1 -0.20 1 -10.60 0.90 -9.55 -0.10 -10.65 0 -10.80 0.70 -0.35 1.65 -1.60 0.90 -1.60 -0.90z"/>
  <path d="M215.50 409.25 l0 -1.75 3 0 c2.25 0 3 0.20 3 0.70 0 0.65 -2.15 1.45 -3.30 1.25 -1.10 -0.20 -1.70 0.10 -1.70 0.80 0 0.40 -0.20 0.75 -0.50 0.75 -0.25 0 -0.50 -0.80 -0.50 -1.75z"/>
  <path d="M330.50 410 c0 -0.55 -0.20 -1 -0.50 -1 -0.25 0 -0.50 -0.65 -0.50 -1.50 0 -1.30 -0.15 -1.50 -1.45 -1.50 -0.80 0 -1.55 -0.15 -1.65 -0.35 -0.30 -0.70 -4 -2.20 -6.20 -2.50 -1.75 -0.25 -2.20 -0.50 -2.20 -1.30 0 -0.90 0.20 -0.95 2.65 -0.65 5.10 0.65 9.90 3.95 11.60 7.95 l0.75 1.85 -1.25 0 c-0.90 0 -1.25 -0.25 -1.25 -1z"/>
  <path d="M184.20 408.40 c2.80 -6.50 3.30 -7.40 4.30 -7.40 0.60 0 1 0.35 1 0.90 -0.05 1.05 -1.15 2.60 -1.95 2.60 -0.30 0 -0.55 0.65 -0.55 1.50 0 2.30 -1 4 -2.35 4 -1.15 0 -1.15 -0.05 -0.45 -1.60z"/>
  <path d="M704.50 404 c0 -0.55 -0.35 -1 -0.75 -1 -0.40 0 -0.75 -0.45 -0.75 -1 0 -0.75 0.35 -1 1.45 -1 1.60 0 2.20 0.95 1.75 2.80 -0.35 1.45 -1.70 1.60 -1.70 0.20z"/>
  <path d="M193.90 403.15 c-0.50 -0.10 -0.90 -0.65 -0.90 -1.20 0 -0.85 0.30 -1 1.65 -0.85 1.20 0.10 1.65 0.40 1.75 1.30 0.15 1.10 -0.45 1.30 -2.50 0.75z"/>
  <path d="M510.35 403.15 c-0.20 -0.15 -0.35 -0.75 -0.35 -1.25 0 -0.70 0.30 -0.95 1.15 -0.80 1.45 0.20 1.90 2.40 0.45 2.40 -0.50 0 -1.10 -0.15 -1.25 -0.35z"/>
  <path d="M69.50 402 c0 -0.85 0.35 -1 2.25 -1 1.90 0 2.25 0.15 2.25 1 0 0.85 -0.35 1 -2.25 1 -1.90 0 -2.25 -0.15 -2.25 -1z"/>
  <path d="M74.50 402 c0 -0.75 0.35 -1 1.25 -1 0.90 0 1.25 0.25 1.25 1 0 0.75 -0.35 1 -1.25 1 -0.90 0 -1.25 -0.25 -1.25 -1z"/>
  <path d="M207.50 402 c0 -0.75 0.35 -1 1.25 -1 0.90 0 1.25 0.25 1.25 1 0 0.75 -0.35 1 -1.25 1 -0.90 0 -1.25 -0.25 -1.25 -1z"/>
  <path d="M434.50 402 c0 -0.75 0.35 -1 1.25 -1 0.90 0 1.25 0.25 1.25 1 0 0.75 -0.35 1 -1.25 1 -0.90 0 -1.25 -0.25 -1.25 -1z"/>
  <path d="M441.50 402 c0 -0.65 0.35 -1 1 -1 0.65 0 1 0.35 1 1 0 0.65 -0.35 1 -1 1 -0.65 0 -1 -0.35 -1 -1z"/>
  <path d="M483 402 c0 -0.65 0.35 -1 1 -1 0.65 0 1 0.35 1 1 0 0.65 -0.35 1 -1 1 -0.65 0 -1 -0.35 -1 -1z"/>
  <path d="M489 402 c0 -0.75 0.35 -1 1.25 -1 0.90 0 1.25 0.25 1.25 1 0 0.75 -0.35 1 -1.25 1 -0.90 0 -1.25 -0.25 -1.25 -1z"/>
  <path d="M503.50 402 c0 -0.65 0.35 -1 1 -1 0.65 0 1 0.35 1 1 0 0.65 -0.35 1 -1 1 -0.65 0 -1 -0.35 -1 -1z"/>
  <path d="M587 402 c0 -0.65 0.35 -1 1 -1 0.65 0 1 0.35 1 1 0 0.65 -0.35 1 -1 1 -0.65 0 -1 -0.35 -1 -1z"/>
  <path d="M655.50 402 c0 -0.65 0.35 -1 1 -1 0.65 0 1 0.35 1 1 0 0.65 -0.35 1 -1 1 -0.65 0 -1 -0.35 -1 -1z"/>
  <path d="M661 401.95 c0 -0.80 0.25 -1 1.35 -0.85 0.85 0.10 1.45 0.50 1.55 1.05 0.15 0.65 -0.15 0.85 -1.35 0.85 -1.25 0 -1.55 -0.20 -1.55 -1.05z"/>
  <path d="M675.50 402 c0 -0.65 0.35 -1 1 -1 0.65 0 1 0.35 1 1 0 0.65 -0.35 1 -1 1 -0.65 0 -1 -0.35 -1 -1z"/>
  <path d="M789.50 402 c0 -0.80 0.35 -1 1.50 -1 1.15 0 1.50 0.20 1.50 1 0 0.80 -0.35 1 -1.50 1 -1.15 0 -1.50 -0.20 -1.50 -1z"/>
  <path d="M685.70 395.40 l-2.90 -3.15 1.40 -0.15 c1.80 -0.20 3.30 1.15 3.30 3 0 1.35 0.10 1.40 2.25 1.40 1.25 0 2.25 -0.15 2.25 -0.30 0 -0.15 -0.80 -1.70 -1.75 -3.40 -2 -3.55 -2.20 -4.80 -0.80 -4.80 0.70 0 1.60 1.20 3.25 4.45 1.25 2.45 2.30 4.80 2.30 5.25 0 0.65 -0.60 0.80 -3.20 0.80 l-3.20 0 -2.90 -3.10z"/>
  <path d="M680.85 390.10 c-1.70 -1.80 -1.70 -2.10 0.15 -2.10 1.40 0 1.50 0.15 1.50 1.75 0 0.95 -0.05 1.75 -0.15 1.75 -0.10 0 -0.75 -0.65 -1.50 -1.40z"/>
  <path d="M423.90 364.60 c-8.20 -4.30 -26.60 -19.30 -39.95 -32.60 -23.25 -23.20 -39.85 -47.75 -52.90 -78.25 -12.65 -29.40 -20.50 -70.15 -21.40 -110.50 -0.35 -16 0.50 -19.75 5.75 -25.35 3.60 -3.85 7.10 -5.55 21.55 -10.45 28.95 -9.85 60.85 -14 101.55 -13.30 32.20 0.60 59.80 4.85 84.55 13 14.95 4.95 19.95 7.45 23.45 11.90 4 5.05 5.20 11.15 4.75 23.70 -0.35 8.80 -1.65 28.25 -2 30.25 -0.15 0.70 -0.45 3.40 -0.75 6 -0.60 5.65 -2.40 16.95 -4 25.25 -8 41.70 -26.75 81.05 -53.80 112.75 -13.55 15.90 -34.15 34.55 -50.05 45.30 -7.25 4.95 -10.75 5.40 -16.75 2.30z m10.90 -8.60 c17.10 -11.40 38.80 -31.05 51.25 -46.25 13.15 -16.10 21.70 -29.15 29.15 -44.50 13.90 -28.55 21.60 -55 25.10 -86.25 0.45 -4 0.85 -8.70 0.90 -10.50 0 -1.80 0.20 -3.50 0.40 -3.80 0.40 -0.60 0.60 -6.85 0.60 -23.45 0.05 -11.85 0 -12.60 -1.05 -14.75 -2.10 -4.40 -4.10 -5.60 -16.20 -9.75 -15.65 -5.35 -31.90 -9.10 -47.95 -11.05 -3.45 -0.40 -7.35 -0.95 -8.75 -1.25 -8.70 -1.60 -29.40 -2.20 -51.25 -1.45 -20 0.70 -30.25 1.70 -45.75 4.45 -10.90 1.90 -24.15 5.30 -34.65 8.85 -9 3 -12.60 4.65 -14.80 6.65 -1.75 1.60 -3.65 5.85 -4.10 9 -0.40 3.05 0.70 33.30 1.30 35.30 0.25 0.85 0.80 5 1.20 9.25 0.95 9.80 3.85 28.15 5.25 33 0.30 0.95 1.20 4.55 2.05 8 4.70 18.80 14 41.40 25.35 61.45 5.30 9.35 6.35 10.80 23.15 32.45 4 5.20 25 25.70 32.10 31.35 13.55 10.90 19.90 15.20 22.45 15.25 0.70 0 2.60 -0.90 4.25 -2z"/>
  <path d="M376.70 297.90 c-0.15 -0.20 -0.10 -1.15 0.10 -2.15 0.40 -2.10 -0.45 -2.35 -1.40 -0.45 -0.90 1.85 -1.60 1.75 -1.80 -0.25 -0.25 -2.55 0.25 -3.90 2.35 -6.20 1.05 -1.15 2.05 -2.65 2.20 -3.35 0.20 -0.70 1.70 -2.85 3.35 -4.75 1.65 -1.95 3.10 -3.95 3.20 -4.50 0.10 -0.55 0.45 -2.20 0.75 -3.65 0.30 -1.50 0.55 -3.15 0.55 -3.75 0 -0.60 0.85 -2.80 1.85 -4.85 1.85 -3.70 1.90 -3.80 1.95 -10.25 0.10 -6.25 0.20 -6.70 2.15 -12.15 1.55 -4.25 2.05 -6.40 2.05 -8.70 0 -5.75 2.05 -11.20 7.55 -20.15 3.20 -5.15 3.95 -7.05 3.95 -9.95 0 -3.45 1.75 -9 3.70 -11.95 1.95 -2.95 3.95 -4.40 10.25 -7.55 4.30 -2.15 7 -4.05 12.95 -9.15 5.45 -4.65 6.95 -5.15 10.95 -3.45 4.45 1.80 10.50 3.80 13.85 4.55 1.70 0.35 4.10 0.95 5.40 1.30 2.15 0.60 2.45 0.55 3.45 -0.35 2.70 -2.45 3.10 -6.15 1 -9.10 -2.50 -3.50 -8.80 -4.55 -28.30 -4.60 -15 -0.05 -20.30 -1.15 -22.25 -4.60 -0.65 -1.25 -0.65 -1.55 0.40 -3.65 1.20 -2.50 3.90 -4.50 8.60 -6.35 2.30 -0.90 3.80 -1.10 9.25 -1.10 3.60 -0.05 7.40 0.20 8.50 0.55 1.10 0.30 3 0.85 4.25 1.15 3.40 0.90 8.05 3.10 7.85 3.70 -0.30 0.90 -4.60 0.90 -7.95 0.05 -3 -0.75 -4.90 -0.65 -4.90 0.30 0 0.25 0.65 0.45 1.40 0.45 0.80 0 2.20 0.35 3.10 0.80 l1.65 0.85 -2.45 0.90 c-2.70 1.05 -8.80 1.30 -11.40 0.45 -0.85 -0.25 -3.30 -1.05 -5.45 -1.75 -4.75 -1.55 -5.95 -1.55 -7.65 -0.10 -1.85 1.65 -1.35 3.05 1.45 3.75 6.55 1.65 8.65 1.80 21.85 1.90 7.55 0.05 14.90 0.25 16.35 0.45 3.85 0.55 8.05 3.10 10.05 5.95 1.35 2 1.60 2.90 1.60 5.25 0 1.60 -0.45 4.10 -1.05 5.80 l-1.05 3.05 1.50 2.20 c0.80 1.25 1.95 3.75 2.55 5.60 0.65 1.85 1.35 3.50 1.60 3.65 0.80 0.50 3.95 6.30 3.95 7.25 0 0.50 0.25 1.10 0.50 1.25 0.90 0.55 0.55 6.70 -0.60 10 -1.05 3.10 -1.05 3.20 -0.15 7.10 1.15 5.15 1.50 10.50 0.75 11.40 -0.45 0.55 -0.40 0.85 0.35 1.45 0.50 0.40 2.55 2.10 4.60 3.75 4.40 3.65 6.65 4.50 9.60 3.60 1.15 -0.35 2.20 -0.50 2.35 -0.30 0.20 0.20 -0.15 1.15 -0.70 2.15 -2.25 4.05 -8.80 5.40 -14.70 3.15 -1.50 -0.55 -2.90 -1.05 -3.10 -1.05 -0.75 0 -0.35 1.80 0.90 4.20 1.30 2.45 1.40 4.55 0.40 9.05 -0.55 2.55 -0.45 8.55 0.15 9.80 0.35 0.65 0.70 2.80 0.85 4.70 0.15 1.95 0.40 4.60 0.60 5.90 0.25 2.10 0.15 2.60 -0.85 3.65 -1.40 1.50 -2.30 1.50 -3.40 0.10 l-0.90 -1.05 -0.35 1.30 c-0.15 0.75 -0.65 1.35 -1 1.35 -0.75 0 -4.30 -3.70 -4.30 -4.50 0 -0.30 0.45 -1.45 1.05 -2.60 0.90 -1.70 1 -2.60 0.75 -5 -0.25 -1.85 -0.15 -3.25 0.25 -3.95 1.20 -2.25 0.75 -5.45 -1.45 -10.05 -1.10 -2.45 -2.25 -4.40 -2.45 -4.40 -0.75 0 -4.80 2.80 -6.95 4.80 -3.65 3.50 -4.80 5.75 -4.95 9.70 -0.10 2.90 -0.35 3.80 -1.55 5.55 -2.20 3.20 -2.70 3.40 -9.55 3.35 -7.55 0 -8.15 -0.35 -9.65 -5.35 -1.10 -3.50 -2.65 -6.55 -3.45 -6.55 -0.90 0 -1.95 3.75 -1.70 6.10 0.20 1.85 0.05 2.65 -0.75 3.80 -0.60 0.80 -1.25 2.40 -1.55 3.55 -0.60 2.75 -1.65 3.85 -4.65 4.85 -2.90 0.95 -4.75 0.65 -5 -0.90 -0.20 -1.25 -1.40 -1.85 -1.40 -0.70 0 1.20 -0.95 0.95 -1.25 -0.35 -0.45 -1.65 1 -4.60 3.45 -7.30 4.05 -4.30 6.55 -10.05 4.45 -10.05 -1.15 0 -4.65 3.20 -4.65 4.25 0 1.60 -1.50 3.55 -4.45 5.85 -2.65 2.10 -3.30 2.95 -5.25 7.05 -1.25 2.60 -2.60 5 -3.05 5.35 -0.40 0.35 -0.75 1.10 -0.75 1.70 0 2.40 -3.25 4.80 -6.50 4.80 -1.45 0 -1.60 -0.15 -1.40 -1.25 0.30 -1.40 0.20 -1.45 -1.20 -0.70 -1.50 0.80 -2.55 -0.50 -2.50 -3.15 0.05 -3.15 0.80 -4.70 3.10 -6.15 1.15 -0.70 2.20 -1.65 2.35 -2.05 0.15 -0.40 1.10 -1.15 2.15 -1.70 2.45 -1.25 4.20 -3.35 5.25 -6.35 0.45 -1.30 1.30 -3.50 1.90 -4.85 l1.05 -2.40 -1.15 -0.95 c-1.10 -0.90 -1.15 -1.20 -0.85 -4.10 0.35 -3.60 -0.30 -6.10 -1.80 -6.90 -1.25 -0.70 -1.30 -0.70 -4.45 5.30 -1.45 2.75 -3.25 6.20 -4.05 7.70 -0.75 1.50 -1.40 3.20 -1.40 3.90 0 0.65 -0.20 1.55 -0.45 2.05 -0.25 0.45 -0.85 1.85 -1.35 3.10 -0.55 1.20 -1.90 3.35 -3.05 4.70 -2.15 2.50 -2.15 2.50 -2.15 6.60 0 3.50 -0.15 4.30 -1.25 5.85 -0.65 1 -1.60 3.25 -2.15 4.95 -0.70 2.55 -1.20 3.30 -2.40 3.90 -1.65 0.80 -7.65 1.50 -8 0.90z m60.30 -83.60 c0 -0.10 -1.40 -0.70 -3.10 -1.30 -5.60 -2.05 -7.20 -3.95 -7.70 -9.10 -0.30 -2.55 -0.65 -3.55 -2.10 -5.40 -1.90 -2.50 -3.50 -4 -4.10 -4 -0.40 0 2.50 6 4.10 8.50 0.45 0.70 1.15 2.60 1.60 4.20 0.55 2.10 1.25 3.50 2.60 4.85 1.65 1.70 2.20 1.95 4.65 2.10 1.55 0.10 3.10 0.20 3.45 0.25 0.30 0.05 0.60 0 0.60 -0.10z m2.50 -60.55 c-0.35 -0.40 -1.20 -0.75 -1.95 -0.75 l-1.30 0.05 1.25 0.70 c1.75 1 2.85 1 2 0z"/>
  <path d="M330 141.55 c0 -10.65 0.15 -14.10 0.65 -14.40 1.30 -0.85 3.85 -1.50 4.15 -1.10 0.15 0.25 0.15 4 -0.05 8.35 -0.15 4.30 -0.10 9.45 0.05 11.45 0.30 3.10 0.45 3.50 1.15 3.15 1.55 -0.85 7.10 -2.50 7.55 -2.25 0.70 0.45 0.30 3.85 -0.50 4.30 -1.30 0.70 -11.65 4.45 -12.35 4.45 -0.50 0 -0.65 -2.75 -0.65 -13.95z"/>
  <path d="M527.40 154.65 l-1.90 -0.75 0 -14.20 c0 -7.80 0.05 -14.20 0.15 -14.20 0.05 0 1.10 0.30 2.35 0.70 l2.25 0.65 0 14.15 c0 9 -0.20 14.20 -0.50 14.30 -0.25 0.10 -1.35 -0.20 -2.35 -0.65z"/>
  <path d="M518.05 151.35 c-1.60 -0.55 -1.85 -1 -5.25 -9.75 -2 -5 -3.75 -9 -3.95 -8.80 -0.20 0.20 -0.35 3.75 -0.35 7.85 l0 7.50 -1.55 -0.35 c-0.85 -0.15 -1.90 -0.30 -2.25 -0.30 -0.60 0 -0.70 -2.45 -0.70 -13.95 0 -8.60 0.20 -14.10 0.50 -14.30 0.25 -0.15 1.35 -0.05 2.45 0.30 2.20 0.65 2 0.25 6.35 11.55 1 2.70 2.05 4.75 2.30 4.60 0.20 -0.15 0.40 -3.20 0.40 -6.80 l0 -6.50 1.85 0.35 c1.05 0.20 2.05 0.45 2.25 0.55 0.50 0.35 0.50 28.70 0.05 28.65 -0.25 0 -1.15 -0.25 -2.10 -0.60z"/>
  <path d="M345.20 149.20 c0.20 -0.50 0.70 -2.40 1.05 -4.20 0.85 -4 5.20 -22.40 5.55 -23.65 0.30 -0.90 2.95 -2.35 4.35 -2.35 0.40 0 0.85 0.60 1 1.40 0.20 0.75 1.25 4.85 2.40 9.10 2.30 8.80 3.95 15.35 3.95 15.95 0 0.35 -2.95 1.15 -4.75 1.25 -0.25 0.05 -0.65 -0.85 -0.85 -1.95 -0.90 -4.65 -0.70 -4.40 -3.20 -4.10 -1.25 0.10 -2.50 0.45 -2.75 0.70 -0.25 0.25 -0.75 1.90 -1.05 3.70 -0.30 1.75 -0.80 3.45 -1.10 3.80 -0.30 0.35 -1.55 0.75 -2.75 0.95 -2.05 0.35 -2.20 0.30 -1.85 -0.60z m10.30 -13.90 c0 -1.80 -0.70 -5.30 -1.05 -5.30 -0.45 0 -0.75 0.95 -1.20 3.90 -0.30 2 -0.30 2.10 0.95 2.10 0.75 0 1.30 -0.30 1.30 -0.70z"/>
  <path d="M496.75 145.60 c-0.80 -0.10 -1.70 -0.35 -1.95 -0.60 -0.30 -0.30 -0.55 -23.05 -0.30 -27.60 0 -0.60 2.40 -0.50 3.55 0.10 0.90 0.50 0.95 1.20 0.95 14.25 0 7.50 -0.15 13.75 -0.35 13.85 -0.25 0.10 -1.05 0.10 -1.90 0z"/>
  <path d="M366.90 144.15 c-0.20 -1 0.10 -27.30 0.35 -27.55 0.05 -0.10 1.10 -0.20 2.30 -0.25 l2.20 -0.10 2.25 6.50 c1.25 3.60 2.45 6.45 2.75 6.40 0.25 -0.05 0.85 -1.45 1.25 -3.10 0.40 -1.65 0.90 -3.15 1.15 -3.35 0.20 -0.20 0.35 -0.75 0.35 -1.20 0 -0.65 1.90 -7.05 2.15 -7.35 0.05 0 1.15 -0.20 2.50 -0.40 l2.35 -0.35 0 14.25 0 14.30 -2.10 0.40 -2.15 0.45 -0.25 -6.80 c-0.25 -6.15 -0.30 -6.60 -0.90 -5.25 -0.85 1.85 -3.10 9.30 -3.60 11.90 -0.20 1.05 -0.50 2.05 -0.65 2.20 -0.40 0.40 -1.95 -3.30 -3.05 -7.35 -0.50 -1.80 -1.20 -3.80 -1.60 -4.50 -0.60 -1.10 -0.65 -0.55 -0.70 4.85 0 3.35 -0.15 6.20 -0.40 6.35 -0.20 0.10 -1.20 0.35 -2.20 0.55 -1.50 0.30 -1.85 0.20 -2 -0.60z"/>
  <path d="M485.90 143.65 l-1.40 -0.20 0 -5.90 c0 -4.15 -0.20 -6.10 -0.60 -6.45 -0.50 -0.40 -5.15 -1.60 -6.15 -1.60 -0.15 0 -0.25 2.95 -0.25 6.55 0 5.75 -0.10 6.50 -0.80 6.25 -0.45 -0.15 -1.55 -0.30 -2.50 -0.30 l-1.70 0 0 -14.30 0 -14.25 2.40 0.15 2.35 0.15 0.25 5.75 0.25 5.75 2 0.15 c1.10 0.05 2.60 0.25 3.35 0.40 l1.35 0.25 0.15 -5.40 0.15 -5.40 1.75 0.15 c3.20 0.20 3.05 -0.65 2.90 14.45 -0.15 15.45 0.10 14.35 -3.50 13.80z"/>
  <path d="M391.50 127.30 c0 -16.50 -0.75 -14.80 6.65 -14.95 5.25 -0.10 6.95 0.45 8.15 2.75 0.95 1.80 0.90 5.65 -0.10 8.25 -0.75 2 -0.75 2.25 -0.05 3.05 1.90 2.10 1.95 7.05 0.05 10.65 -1.45 2.80 -3.35 3.50 -11.30 4.20 l-3.40 0.30 0 -14.25z m10.15 7.80 c0.55 -0.50 0.85 -1.50 0.85 -2.90 0 -2.60 -1.25 -3.70 -4.25 -3.70 l-2.05 0 0.10 3.90 c0.05 2.10 0.15 3.90 0.15 4 0.15 0.40 4.45 -0.65 5.20 -1.30z m-0.30 -12.90 c0.50 -0.80 0.65 -1.75 0.45 -2.90 -0.35 -1.75 -1.45 -2.30 -4.65 -2.30 -1.05 0 -1.20 0.20 -0.95 1.15 0.15 0.60 0.30 2.10 0.30 3.35 l0 2.30 2 -0.20 c1.45 -0.15 2.25 -0.55 2.85 -1.40z"/>
  <path d="M455.60 139.75 c-2.05 -1.75 -2.85 -3.25 -3.80 -7.45 -1.40 -5.90 -0.65 -13 1.75 -17.30 2.45 -4.35 9.25 -4.70 12.25 -0.65 1.30 1.75 2.35 4.70 1.85 5.20 -0.25 0.25 -1.35 0.55 -2.50 0.75 -1.80 0.30 -2.20 0.20 -2.45 -0.60 -0.85 -2.80 -3 -4 -4.60 -2.50 -1.35 1.20 -2.25 6.10 -2 10.65 0.25 4.35 1 6.35 3 7.80 1.90 1.40 3.70 0.60 4.20 -1.90 0.35 -2 -0.35 -3.25 -1.85 -3.25 -0.80 0 -0.95 -0.40 -0.95 -2.30 l0 -2.35 3.05 0.35 c1.70 0.15 3.55 0.30 4.10 0.30 0.95 0 1 0.25 0.70 4.70 -0.45 7.50 -1.95 9.45 -7.55 9.70 -3.35 0.20 -3.75 0.10 -5.20 -1.15z"/>
  <path d="M414.85 139.60 c-0.75 -0.45 -2 -2.10 -2.75 -3.60 -1.20 -2.45 -1.35 -3.40 -1.55 -8.85 -0.30 -11.65 2.65 -16.65 9.90 -16.65 1.35 0 2.15 0.45 3.75 2.15 5.75 5.95 5.15 22.20 -0.95 26.30 -2.35 1.55 -6.40 1.90 -8.40 0.65z m6.55 -5.35 c2.40 -3 2.75 -11.30 0.70 -15.90 -1 -2.25 -1.20 -2.40 -2.70 -2.25 -1.35 0.10 -1.85 0.55 -2.90 2.40 -1.10 2 -1.25 2.80 -1.25 7.25 0.05 4.85 0.55 6.85 2.35 9.15 0.85 1 2.75 0.70 3.80 -0.65z"/>
  <path d="M443.15 139.65 c-0.15 -0.35 -1.10 -3.10 -2.15 -6.05 -1.70 -4.80 -2 -5.35 -3.20 -5.50 l-1.30 -0.15 0 5.80 0 5.80 -2.35 -0.15 -2.40 -0.15 0 -14 0 -14 5.50 -0.15 c4.45 -0.10 5.80 0.05 7.20 0.75 2.50 1.30 3.70 3.20 3.95 6.35 0.30 3.65 -0.10 4.95 -2.15 7.25 l-1.70 1.90 1.95 5.90 c1.10 3.25 1.85 6.10 1.65 6.30 -0.75 0.70 -4.75 0.75 -5 0.10z m-0.45 -17.75 c1.05 -1.50 1 -3.70 -0.10 -4.80 -0.95 -0.95 -4.80 -1.85 -5.65 -1.35 -0.50 0.35 -0.60 4.35 -0.15 6.15 0.25 0.95 0.65 1.10 2.75 1.10 1.90 0 2.55 -0.20 3.15 -1.10z"/>
 </g>
 <g fill="#fefefe">
  <path d="M264.35 445.50 c-7.10 -1.80 -12.05 -7.50 -13.65 -15.85 -2.35 -12.35 1.90 -23.60 10.30 -27.35 7.35 -3.30 16.25 -1.75 21.45 3.80 6.15 6.60 7.55 19.85 3.05 29.65 -1.60 3.55 -5.35 7.30 -8.85 8.80 -2.75 1.20 -9.30 1.70 -12.30 0.95z m8.45 -8.95 c2.55 -1.15 4.90 -4 5.75 -7 0.90 -2.95 0.85 -10.20 0 -12.80 -1.15 -3.30 -3.30 -6.05 -5.55 -6.95 -5.70 -2.25 -11.40 0.65 -13.20 6.75 -1 3.35 -1 10 -0.05 13.25 1.80 6.15 7.70 9.15 13.05 6.75z"/>
  <path d="M354.85 445.50 c-8.45 -2.15 -13.50 -9.35 -14.15 -20.25 -0.50 -7.70 1.35 -14 5.50 -18.60 4.90 -5.45 12.45 -7.40 19.80 -5.20 3.05 0.95 4.05 1.55 6.20 3.70 2.80 2.85 4.05 4.90 3.65 5.95 -0.10 0.40 -1.85 1.35 -3.85 2.15 -3.50 1.40 -3.60 1.40 -4.15 0.45 -0.30 -0.50 -1.25 -1.65 -2.10 -2.55 -2.50 -2.55 -7.55 -2.85 -11.10 -0.70 -3.40 2.10 -6.05 9.25 -5.40 14.55 1.05 8.55 5.85 13.25 12.65 12.30 2.70 -0.35 4.45 -1.50 5.80 -3.75 1.40 -2.40 0.80 -3.10 -2.45 -3 -1.55 0.05 -3 -0.10 -3.30 -0.40 -0.25 -0.25 -0.45 -2.05 -0.35 -3.95 l0.15 -3.45 7.75 0 7.75 0 0.15 2.75 c0.20 3.80 -0.70 8.75 -2.20 11.85 -2.45 5.10 -7.65 8.15 -14.35 8.45 -2.25 0.10 -4.95 -0.05 -6 -0.30z"/>
  <path d="M555.05 445.50 c-6.30 -1.35 -11.75 -7.35 -13.55 -14.95 -1.05 -4.40 -0.80 -12.25 0.50 -16.05 2.05 -6.20 5.35 -10.05 10.45 -12.40 2.40 -1.15 3.50 -1.30 7.80 -1.30 5.35 0 7.20 0.50 10.85 3.05 2.10 1.40 5.60 6.35 5.25 7.30 -0.15 0.35 -1.85 1.25 -3.80 2.05 l-3.60 1.45 -1.80 -2.15 c-4.10 -4.75 -10.20 -4.75 -14.25 -0.05 -2.55 3 -3.55 6.65 -3.30 11.95 0.45 8.35 4.55 13.10 11.35 13.10 3.65 0 7.55 -3.10 7.55 -5.95 0 -0.95 -0.30 -1.05 -3.25 -1.05 l-3.25 0 0 -4 0 -4 7.80 0 7.85 0 -0.30 5.40 c-0.30 6.55 -1.20 9.30 -4.15 12.55 -3.15 3.50 -6.65 5.05 -11.85 5.30 -2.25 0.10 -5.10 0 -6.30 -0.25z"/>
  <path d="M68 423.30 l0 -22.20 3.65 0 c5.95 -0.05 5.35 -2.05 5.35 17.95 l0 17.45 5.15 0.05 c2.80 0 7.75 0 11 -0.05 l5.85 0 0 4.50 0 4.50 -15.50 0 -15.50 0 0 -22.20z"/>
  <path d="M104.50 445.15 c0 -0.25 1.40 -4 3.05 -8.40 1.70 -4.40 4.20 -10.90 5.55 -14.50 2.25 -6.05 3.95 -10.55 6.50 -17.25 1.55 -4 1.55 -4 5.95 -4 3.35 0 4 0.15 4.40 0.95 0.30 0.50 2.10 5.20 4.05 10.35 1.95 5.20 3.85 10.25 4.25 11.20 1.80 4.55 7.75 21 7.75 21.45 0 0.35 -1.65 0.55 -4.45 0.55 l-4.50 0 -1.05 -2.85 c-0.55 -1.60 -1.40 -3.85 -1.85 -5 l-0.75 -2.10 -3.30 -0.35 c-4.15 -0.45 -11.95 0.05 -12.85 0.80 -0.40 0.30 -1.20 2.10 -1.80 3.90 -1.80 5.60 -1.80 5.60 -6.70 5.60 -2.35 0 -4.25 -0.15 -4.25 -0.35z m25.50 -18.25 c0 -0.35 -1.10 -3.75 -2.40 -7.55 l-2.45 -6.95 -2.30 6.75 c-1.30 3.70 -2.35 7.10 -2.35 7.55 0 0.70 0.70 0.80 4.75 0.80 3.45 0 4.75 -0.15 4.75 -0.60z"/>
  <path d="M155 423.25 l0 -22.25 3.65 0 c2.15 0 4 0.25 4.50 0.65 0.45 0.30 1.95 3.20 3.35 6.35 7.20 16.20 8.80 19.50 9.20 19.35 0.25 -0.10 1.20 -2 2.10 -4.25 2.20 -5.40 8.60 -19.55 9.50 -20.95 0.60 -1 1.15 -1.15 3.70 -1.15 1.60 0 3.50 0.20 4.20 0.50 l1.30 0.50 -0.10 21.60 -0.15 21.65 -4.25 0 -4.25 0 -0.15 -12.75 -0.10 -12.75 -1.65 3.75 c-3.60 8.15 -10.10 22 -10.40 22 -0.20 0 -2.15 -4 -4.35 -8.85 -2.25 -4.90 -4.80 -10.45 -5.70 -12.40 l-1.65 -3.50 -0.25 12.25 -0.25 12.25 -4.10 0.15 -4.15 0.15 0 -22.30z"/>
  <path d="M207.90 445.20 c-0.25 -0.20 -0.40 -10.10 -0.40 -22 0 -19.25 0.10 -21.65 0.80 -21.90 1.50 -0.60 20.40 -0.30 23.50 0.35 6.50 1.35 10.20 5.35 10.20 11.05 0 2.85 -1.55 6.50 -3.25 7.60 l-1.15 0.75 2.65 2.65 c2.20 2.20 2.75 3.05 3 5 0.80 5.25 -0.75 9.95 -4.30 12.95 -3.70 3.20 -5.25 3.50 -18.70 3.75 -6.60 0.10 -12.15 0 -12.35 -0.20z m24.90 -9.75 c1.55 -1.60 2.10 -5 1.10 -6.95 -1.25 -2.40 -3.50 -3 -10.75 -3 l-6.65 0 0 5.80 0 5.75 7.50 -0.15 c7.30 -0.15 7.50 -0.20 8.80 -1.45z m-1.10 -19 c1.80 -1.40 1.80 -4.30 0 -6 -1.20 -1.15 -1.55 -1.20 -8.10 -1.20 l-6.85 0 -0.15 4.15 -0.15 4.10 6.95 0 c6.30 0 7.10 -0.10 8.30 -1.05z"/>
  <path d="M297.50 423.25 l0 -22.25 10.40 0 c10.90 0 15.10 0.45 18.15 2 4.95 2.55 7.05 6.10 7.10 12 0.05 5.80 -2.10 9.95 -6.25 12.05 -1.05 0.55 -1.90 1.20 -1.90 1.45 0 0.25 1.65 3.65 3.70 7.60 5.25 10.30 5.30 9.40 -0.35 9.40 -3.85 0 -4.85 -0.15 -5.45 -0.85 -0.40 -0.50 -2.20 -4 -4.05 -7.80 -2.10 -4.35 -3.70 -7 -4.30 -7.25 -0.55 -0.20 -2.55 -0.30 -4.50 -0.20 l-3.55 0.20 -0.10 7.80 -0.15 7.85 -4.35 0.15 -4.40 0.15 0 -22.30z m25.30 -3.90 c1.35 -1.55 1.65 -4.85 0.65 -7.05 -1.10 -2.40 -4.85 -3.15 -14.05 -2.90 l-2.90 0.10 0 5.80 0 5.75 7.55 -0.15 7.55 -0.15 1.20 -1.40z"/>
  <path d="M387 423.20 l0 -22.30 4.15 0.15 4.10 0.15 0.25 8.30 0.25 8.25 9.10 0.15 9.15 0.10 0.10 -8.35 0.15 -8.40 4.10 -0.10 4.10 -0.05 0.15 1.55 c0.10 0.90 0.10 10.90 0 22.25 l-0.10 20.60 -4.25 0 -4.25 0 0 -9.20 c0 -8.15 -0.10 -9.25 -0.80 -9.40 -0.45 -0.10 -4.65 -0.10 -9.25 0 l-8.45 0.15 0 9.20 0 9.25 -4.25 0 -4.25 0 0 -22.30z"/>
  <path d="M434.85 445.15 c-0.20 -0.15 -0.35 -10.05 -0.35 -21.95 l0 -21.70 1.15 -0.25 c0.60 -0.15 2.60 -0.25 4.35 -0.15 l3.25 0.15 0.15 22.15 0.10 22.10 -4.15 0 c-2.30 0 -4.35 -0.15 -4.50 -0.35z"/>
  <path d="M456.10 423.40 l0.15 -22.15 3.50 -0.15 c1.95 -0.05 3.75 0.05 4.05 0.25 0.60 0.45 3.30 4.35 11.95 17.15 3.25 4.80 6.15 9.05 6.45 9.45 0.40 0.55 0.60 -2.80 0.80 -13 l0.25 -13.70 3 -0.15 c1.60 -0.10 3.50 -0.05 4.10 0.15 l1.15 0.25 -0.10 21.90 -0.15 21.85 -3.70 0 -3.75 0 -2.50 -3.50 c-1.35 -1.90 -5.60 -8.10 -9.40 -13.75 -3.85 -5.65 -7.15 -10.35 -7.45 -10.40 -0.30 -0.15 -0.45 4.80 -0.35 13.75 l0.15 13.90 -4.15 0.15 -4.10 0.15 0.10 -22.15z"/>
  <path d="M503.60 423.40 l0.15 -22.15 3.80 -0.15 c2.80 -0.10 3.95 0.05 4.40 0.55 0.40 0.55 0.55 6.40 0.45 22.15 l-0.15 21.45 -4.40 0.15 -4.35 0.15 0.10 -22.15z"/>
  <path d="M587.25 444.90 c-0.15 -0.35 -0.20 -10.30 -0.15 -22.15 l0.15 -21.50 15.15 -0.10 15.10 -0.10 0 4.25 0 4.25 -6.20 -0.15 c-3.40 -0.10 -6.10 0 -5.95 0.25 0.10 0.20 -0.05 0.35 -0.30 0.35 -0.30 0 -0.55 -0.20 -0.55 -0.50 0 -0.25 -0.25 -0.50 -0.55 -0.50 -0.25 0 -0.35 0.25 -0.20 0.50 0.15 0.30 0 0.50 -0.45 0.50 -0.40 0 -0.85 -0.30 -0.95 -0.60 -0.15 -0.35 -0.30 -0.40 -0.30 -0.10 -0.05 0.30 -1.15 0.45 -3.05 0.30 l-3 -0.20 0 4.05 0 4.05 6.25 0 6.30 0 -0.15 4.15 -0.15 4.10 -6.15 0.15 -6.15 0.15 0.15 5.35 0.15 5.35 11 0 11 0 0.15 4.40 0.15 4.35 -15.55 0 c-11.95 0 -15.60 -0.15 -15.75 -0.60z"/>
  <path d="M628.60 423.40 l0.15 -22.15 3.55 -0.15 c2.75 -0.10 3.75 0.05 4.40 0.65 0.40 0.45 4.75 6.70 9.65 13.90 l8.90 13.10 0.25 -13.75 0.25 -13.75 2.50 -0.15 c1.35 -0.10 3.25 -0.05 4.15 0.15 l1.60 0.30 -0.10 21.85 -0.15 21.85 -3.60 0.15 c-3.50 0.15 -3.60 0.10 -4.80 -1.50 -1.45 -1.90 -6.40 -9.15 -13.20 -19.25 -2.65 -3.95 -5.05 -7.15 -5.30 -7.15 -0.30 0 -0.40 3.65 -0.30 9.65 0.05 5.25 0.10 11.55 0.05 14 l-0.10 4.35 -4 0 -4 0 0.10 -22.10z"/>
  <path d="M675.60 423.40 l0.15 -22.15 15.15 -0.10 15.10 -0.10 0 4.20 0 4.25 -5.35 0.10 c-3 0.05 -7.80 0 -10.75 -0.05 l-5.40 -0.15 0 4.05 0 4.05 6.25 0 6.30 0 -0.15 4.15 -0.15 4.10 -6.15 0.15 -6.15 0.15 0.15 5.35 0.15 5.35 11 0 11 0 0.15 4.40 0.15 4.35 -15.80 0 -15.75 0 0.10 -22.10z"/>
  <path d="M729.05 444.55 c-0.30 -0.50 -3 -8 -6 -16.60 -3 -8.65 -6.25 -17.90 -7.25 -20.65 -1 -2.70 -1.80 -5.25 -1.80 -5.60 0 -1 8.15 -1 8.95 0 0.35 0.40 2.85 7.65 5.60 16.10 2.75 8.50 5.05 15.50 5.15 15.55 0.05 0.10 0.50 -1.25 1 -2.95 1.60 -5.90 8.90 -28.15 9.45 -28.80 0.60 -0.75 8.20 -0.75 8.65 -0.05 0.15 0.25 -1.20 4.65 -3 9.80 -5.55 16.15 -11.25 32.15 -11.80 33.15 -0.45 0.85 -1.05 1 -4.50 1 -3.40 0 -4.05 -0.15 -4.45 -0.95z"/>
  <path d="M762 423.25 l0 -22.25 15.25 0 15.25 0.05 0 4.25 0 4.25 -6.10 0 c-3.40 0.05 -8.20 0 -10.75 -0.05 l-4.55 -0.10 -0.35 2.70 c-0.65 5.30 -0.90 5.15 6.05 5.30 l6.10 0.15 0.30 1.55 c0.40 1.90 0.40 4.30 0 5.80 -0.30 1.05 -0.50 1.10 -6.20 1.10 -4.90 0 -5.95 0.15 -6.20 0.80 -0.60 1.50 -0.35 9.10 0.30 9.50 0.35 0.25 5.35 0.45 11.15 0.50 l10.50 0.05 0.15 4.35 0.15 4.30 -15.55 0 -15.50 0 0 -22.25z"/>
  <path d="M684.75 394.15 c-1.95 -2.10 -3.90 -4.35 -4.40 -5 l-0.90 -1.15 5.25 0 5.25 0 2.25 4.15 c3.45 6.30 3.45 5.85 -0.55 5.85 l-3.40 0 -3.50 -3.85z"/>
  <path d="M429 364.15 c-1.40 -0.30 -2.60 -1.10 -2.30 -1.60 0.25 -0.35 7.25 -0.25 7.60 0.10 0.30 0.25 -3.05 1.90 -3.65 1.80 -0.20 -0.05 -0.95 -0.20 -1.65 -0.30z"/>
  <path d="M422.95 361 l-1.20 -1.05 1.65 0.80 c1.55 0.75 2.05 1.25 1.15 1.25 -0.25 0 -0.95 -0.45 -1.60 -1z"/>
  <path d="M419.25 358.20 l-1.50 -1.30 1.65 1.10 c0.85 0.60 1.60 1.15 1.60 1.30 0 0.35 -0.20 0.25 -1.75 -1.10z"/>
  <path d="M390.40 334.45 l-6.65 -6.55 6.90 6.35 c3.75 3.50 6.85 6.45 6.85 6.55 0 0.55 -0.95 -0.30 -7.10 -6.35z"/>
  <path d="M366.65 308.65 c-4.25 -5.40 -9.05 -11.80 -10.60 -14.15 l-1.15 -1.75 1.20 1.30 c0.60 0.70 2.60 3.30 4.35 5.75 1.80 2.45 4.60 6.15 6.25 8.20 3.90 4.90 3.95 5 3.65 5 -0.15 0 -1.80 -1.95 -3.70 -4.35z"/>
  <path d="M406.50 275.50 c0 -0.65 2.45 -2.20 2.85 -1.80 0.45 0.40 -1.35 2.30 -2.20 2.30 -0.35 0 -0.65 -0.20 -0.65 -0.50z"/>
  <path d="M338.30 263.05 c-4.30 -8.55 -11.40 -25.95 -11.25 -27.70 0 -0.35 0.25 0.10 0.55 0.90 1.85 5.25 7.80 19.55 10.55 25.40 1.80 3.75 3.20 6.85 3.05 6.85 -0.10 0 -1.40 -2.45 -2.90 -5.45z"/>
  <path d="M449.75 237.05 c-5.20 -2.40 -7.55 -8.70 -4.45 -12.10 1.15 -1.25 4.65 -2.20 5.35 -1.50 0.40 0.40 0.20 0.55 -0.60 0.55 -0.60 0 -1.80 0.65 -2.60 1.45 -1.15 1.15 -1.45 1.90 -1.45 3.55 0 3 1.20 4.80 4.60 7.05 3.20 2.05 2.70 2.65 -0.85 1z"/>
  <path d="M436.40 216.25 c-0.15 -0.15 -1.90 -0.35 -3.85 -0.40 -3.45 -0.15 -3.65 -0.25 -5.60 -2.15 -1.50 -1.50 -2.20 -2.75 -2.75 -5 -0.45 -1.60 -1.30 -3.75 -1.90 -4.70 -0.65 -0.95 -1.60 -2.75 -2.20 -4 -0.60 -1.25 -1.50 -3 -2.05 -3.95 -1.05 -1.75 -0.75 -3.55 0.60 -3.55 2.40 0 4.35 1.20 6.45 3.90 1.95 2.45 2.30 3.25 2.55 6 0.55 5.15 2.15 7.05 7.70 9.10 3.15 1.15 5 2.90 4.45 4.30 -0.25 0.65 -2.85 1 -3.40 0.45z"/>
  <path d="M457.30 213.90 c-0.40 -0.65 -1.45 -3.95 -2.30 -7.40 -0.90 -3.45 -2.55 -8.40 -3.75 -11 -5.45 -12.05 -5.25 -11.50 -3.95 -11.50 0.45 0 1.40 1.45 2.50 3.90 2.55 5.45 3 6.90 5.20 15.45 1.05 4.20 2.10 7.85 2.25 8.15 0.45 0.75 1.20 3.50 1 3.50 -0.15 0 -0.55 -0.50 -0.95 -1.10z"/>
  <path d="M425.45 149.20 c0.95 -0.40 2.55 -0.85 3.60 -1 1.60 -0.25 1.95 -0.20 1.95 0.50 0 0.45 -0.30 0.80 -0.60 0.80 -0.35 0.05 -2 0.10 -3.65 0.25 -3 0.15 -3 0.15 -1.30 -0.55z"/>
  <path d="M337.50 149.25 c0 -0.30 1.90 -1.10 4.15 -1.75 2.35 -0.75 1.50 0.35 -1 1.20 -2.45 0.85 -3.15 0.95 -3.15 0.55z"/>
  <path d="M358.55 144.15 c0 -1.55 0.10 -1.70 0.45 -0.90 0.60 1.40 0.60 2.75 0 2.75 -0.25 0 -0.50 -0.85 -0.45 -1.85z"/>
  <path d="M382.15 140 c0 -1.25 0.10 -1.75 0.20 -1.10 0.10 0.60 0.10 1.60 0 2.25 -0.10 0.60 -0.20 0.10 -0.20 -1.15z"/>
  <path d="M399 137 c0 -0.25 0.40 -0.50 0.90 -0.50 0.50 0 1.15 -0.25 1.50 -0.60 0.30 -0.30 0.70 -0.45 0.90 -0.30 0.15 0.20 -0.40 0.70 -1.25 1.10 -1.75 0.95 -2.05 0.95 -2.05 0.30z"/>
  <path d="M421.50 135.50 c0 -0.15 0.45 -1.15 1 -2.25 0.75 -1.45 1 -1.65 1 -0.90 0 0.85 -1.95 3.95 -2 3.15z"/>
  <path d="M424.15 125.75 c0 -1.10 0.10 -1.50 0.20 -0.85 0.10 0.60 0.10 1.50 0 2 -0.15 0.45 -0.25 -0.05 -0.20 -1.15z"/>
  <path d="M313 125.30 c0 -1.70 1.75 -3.75 2.50 -2.95 0.95 0.90 -0.30 4.15 -1.55 4.15 -0.65 0 -0.95 -0.35 -0.95 -1.20z"/>
  <path d="M543.15 125.65 c-0.35 -0.10 -0.65 -0.60 -0.65 -1.05 0.05 -1 1.70 -3.10 2.45 -3.10 0.65 0 2.55 2.90 2.55 3.90 0 0.60 -3.05 0.80 -4.35 0.25z"/>
  <path d="M399 124.30 c0 -0.25 3 -1.80 3.40 -1.80 0.15 0 -0.15 0.45 -0.65 1 -0.80 0.85 -2.75 1.40 -2.75 0.80z"/>
  <path d="M441.20 123.30 c1.05 -0.40 2.15 -1.05 2.35 -1.40 0.25 -0.40 0.45 -0.45 0.45 -0.10 0 0.90 -1.20 1.65 -3.05 1.95 l-1.70 0.30 1.95 -0.75z"/>
  <path d="M421.80 116.70 c-0.75 -1.10 -1.25 -1.25 -2.80 -1.10 -1.50 0.15 -1.80 0.05 -1.40 -0.45 0.30 -0.35 1 -0.65 1.65 -0.65 1.15 0 3.75 2.05 3.75 3 0 0.70 -0.15 0.65 -1.20 -0.80z"/>
  <path d="M412.25 116.25 c0.30 -1.50 3.25 -4.75 4.30 -4.75 0.30 0 -0.15 0.60 -1.05 1.30 -0.85 0.75 -2 2.15 -2.55 3.15 -1 1.75 -1 1.75 -0.70 0.30z"/>
  <path d="M472.50 99.50 c-1.70 -0.35 -1.70 -0.35 -0.25 -0.40 0.85 0 2.05 0.20 2.75 0.40 1.65 0.55 0 0.55 -2.50 0z"/>
  <path d="M398.15 98.15 c0.45 -0.10 1.25 -0.10 1.75 0 0.45 0.15 0.05 0.25 -0.90 0.25 -0.95 0 -1.35 -0.10 -0.85 -0.25z"/>
  <path d="M460.65 98.15 c0.75 -0.10 1.85 -0.10 2.50 0 0.60 0.10 0 0.20 -1.40 0.20 -1.35 0 -1.90 -0.10 -1.10 -0.20z"/>
  <path d="M406 97.40 c3.75 -0.70 45.50 -0.70 48.50 0 1.85 0.45 1.40 0.50 -2.75 0.20 -6.50 -0.40 -34.75 -0.40 -42.50 0 -4.95 0.25 -5.55 0.25 -3.25 -0.20z"/>
 </g>
</svg>