<?xml version="1.0" encoding="UTF-8"?>
<svg width="72px" height="16px" viewBox="0 0 72 16" version="1.1" xmlns="http://www.w3.org/2000/svg" xmlns:xlink="http://www.w3.org/1999/xlink">
    <title>CONNOR</title>
    <g id="Page-1" stroke="none" stroke-width="1" fill="none" fill-rule="evenodd">
        <g id="Artboard-Copy-8" transform="translate(-176.000000, -85.000000)" fill="#FFFFFF" fill-rule="nonzero">
            <path d="M180.794741,99.0018418 L181.091471,99 C182.484804,98.962 183.738804,98.5186667 184.853471,97.67 C185.968137,96.8213333 186.731304,95.732 187.142971,94.402 C187.554637,93.072 187.535637,91.7451667 187.085971,90.4215 C186.636304,89.0978333 185.844637,88.0275 184.710971,87.2105 C183.577304,86.3935 182.313804,85.985 180.920471,85.985 C179.603137,85.985 178.393471,86.3523333 177.291471,87.087 C176.962137,87.315 176.781637,87.6316667 176.749971,88.037 C176.718304,88.4423333 176.854471,88.7843333 177.158471,89.063 C177.373804,89.2656667 177.627137,89.3765 177.918471,89.3955 C178.209804,89.4145 178.482137,89.3416667 178.735471,89.177 C179.558804,88.6323333 180.464471,88.4265 181.452471,88.5595 C182.440471,88.6925 183.263804,89.1326667 183.922471,89.88 C184.581137,90.6273333 184.907304,91.5013333 184.900971,92.502 C184.894637,93.5026667 184.562137,94.3766667 183.903471,95.124 C183.244804,95.8713333 182.421471,96.3083333 181.433471,96.435 C180.445471,96.5616667 179.533471,96.3463333 178.697471,95.789 C178.456804,95.6243333 178.190804,95.5515 177.899471,95.5705 C177.608137,95.5895 177.354804,95.7003333 177.139471,95.903 C176.835471,96.169 176.696137,96.5078333 176.721471,96.9195 C176.746804,97.3311667 176.930471,97.651 177.272471,97.879 C178.425137,98.6643333 179.698137,99.038 181.091471,99 L180.794741,99.0018418 Z M195.276647,98.981 C196.454647,98.981 197.54398,98.6928333 198.544647,98.1165 C199.545314,97.5401667 200.333814,96.7516667 200.910147,95.751 C201.48648,94.7503333 201.774647,93.661 201.774647,92.483 C201.774647,91.305 201.48648,90.2188333 200.910147,89.2245 C200.333814,88.2301667 199.545314,87.4416667 198.544647,86.859 C197.54398,86.2763333 196.454647,85.985 195.276647,85.985 C194.098647,85.985 193.009314,86.2763333 192.008647,86.859 C191.020647,87.4416667 190.235314,88.2301667 189.652647,89.2245 C189.06998,90.2188333 188.778647,91.305 188.778647,92.483 C188.778647,93.661 189.06998,94.7503333 189.652647,95.751 C190.235314,96.7516667 191.023814,97.5401667 192.018147,98.1165 C193.01248,98.6928333 194.098647,98.981 195.276647,98.981 Z M195.276647,96.454 C194.744647,96.454 194.23798,96.3526667 193.756647,96.15 C193.275314,95.9473333 192.847814,95.6623333 192.474147,95.295 C192.10048,94.9276667 191.812314,94.497 191.609647,94.003 C191.305647,93.2683333 191.232814,92.5051667 191.391147,91.7135 C191.54948,90.9218333 191.91048,90.2441667 192.474147,89.6805 C193.037814,89.1168333 193.71548,88.7558333 194.507147,88.5975 C195.298814,88.4391667 196.065147,88.5151667 196.806147,88.8255 C197.547147,89.1358333 198.139314,89.6235 198.582647,90.2885 C199.02598,90.9535 199.247647,91.685 199.247647,92.483 C199.247647,93.585 198.861314,94.5223333 198.088647,95.295 C197.31598,96.0676667 196.378647,96.454 195.276647,96.454 Z M210.934324,100.634 C211.282657,100.634 211.580324,100.5105 211.827324,100.2635 C212.074324,100.0165 212.197824,99.7156667 212.197824,99.361 L212.197824,99.361 L212.197824,87.239 C212.197824,86.8843333 212.074324,86.5835 211.827324,86.3365 C211.580324,86.0895 211.285824,85.966 210.943824,85.966 L210.943824,85.966 L210.316824,85.966 C210.152157,85.966 209.99699,85.9945 209.851324,86.0515 C209.705657,86.1085 209.575824,86.1908333 209.461824,86.2985 C209.347824,86.4061667 209.252824,86.5296667 209.176824,86.669 L209.176824,86.669 L205.642824,93.68 L205.642824,87.258 C205.642824,86.9033333 205.519324,86.6025 205.272324,86.3555 C205.025324,86.1085 204.727657,85.985 204.379324,85.985 C204.03099,85.985 203.733324,86.1085 203.486324,86.3555 C203.239324,86.6025 203.115824,86.9033333 203.115824,87.258 L203.115824,87.258 L203.115824,97.727 C203.115824,98.0816667 203.239324,98.3825 203.486324,98.6295 C203.733324,98.8765 204.034157,99 204.388824,99 L204.388824,99 L205.015824,99 C205.25649,99 205.478157,98.9366667 205.680824,98.81 C205.88349,98.6833333 206.041824,98.5123333 206.155824,98.297 L206.155824,98.297 L209.670824,91.305 L209.670824,99.361 C209.670824,99.7156667 209.794324,100.0165 210.041324,100.2635 C210.288324,100.5105 210.58599,100.634 210.934324,100.634 Z M221.3575,100.634 C221.705833,100.634 222.0035,100.5105 222.2505,100.2635 C222.4975,100.0165 222.621,99.7156667 222.621,99.361 L222.621,99.361 L222.621,87.239 C222.621,86.8843333 222.4975,86.5835 222.2505,86.3365 C222.0035,86.0895 221.709,85.966 221.367,85.966 L221.367,85.966 L220.74,85.966 C220.575333,85.966 220.420167,85.9945 220.2745,86.0515 C220.128833,86.1085 219.999,86.1908333 219.885,86.2985 C219.771,86.4061667 219.676,86.5296667 219.6,86.669 L219.6,86.669 L216.066,93.68 L216.066,87.258 C216.066,86.9033333 215.9425,86.6025 215.6955,86.3555 C215.4485,86.1085 215.150833,85.985 214.8025,85.985 C214.454167,85.985 214.1565,86.1085 213.9095,86.3555 C213.6625,86.6025 213.539,86.9033333 213.539,87.258 L213.539,87.258 L213.539,97.727 C213.539,98.0816667 213.6625,98.3825 213.9095,98.6295 C214.1565,98.8765 214.457333,99 214.812,99 L214.812,99 L215.439,99 C215.679667,99 215.901333,98.9366667 216.104,98.81 C216.306667,98.6833333 216.465,98.5123333 216.579,98.297 L216.579,98.297 L220.094,91.305 L220.094,99.361 C220.094,99.7156667 220.2175,100.0165 220.4645,100.2635 C220.7115,100.5105 221.009167,100.634 221.3575,100.634 Z M230.460176,98.981 C231.638176,98.981 232.72751,98.6928333 233.728176,98.1165 C234.728843,97.5401667 235.517343,96.7516667 236.093676,95.751 C236.67001,94.7503333 236.958176,93.661 236.958176,92.483 C236.958176,91.305 236.67001,90.2188333 236.093676,89.2245 C235.517343,88.2301667 234.728843,87.4416667 233.728176,86.859 C232.72751,86.2763333 231.638176,85.985 230.460176,85.985 C229.282176,85.985 228.192843,86.2763333 227.192176,86.859 C226.204176,87.4416667 225.418843,88.2301667 224.836176,89.2245 C224.25351,90.2188333 223.962176,91.305 223.962176,92.483 C223.962176,93.661 224.25351,94.7503333 224.836176,95.751 C225.418843,96.7516667 226.207343,97.5401667 227.201676,98.1165 C228.19601,98.6928333 229.282176,98.981 230.460176,98.981 Z M230.460176,96.454 C229.928176,96.454 229.42151,96.3526667 228.940176,96.15 C228.458843,95.9473333 228.031343,95.6623333 227.657676,95.295 C227.28401,94.9276667 226.995843,94.497 226.793176,94.003 C226.489176,93.2683333 226.416343,92.5051667 226.574676,91.7135 C226.73301,90.9218333 227.09401,90.2441667 227.657676,89.6805 C228.221343,89.1168333 228.89901,88.7558333 229.690676,88.5975 C230.482343,88.4391667 231.248676,88.5151667 231.989676,88.8255 C232.730676,89.1358333 233.322843,89.6235 233.766176,90.2885 C234.20951,90.9535 234.431176,91.685 234.431176,92.483 C234.431176,93.585 234.044843,94.5223333 233.272176,95.295 C232.49951,96.0676667 231.562176,96.454 230.460176,96.454 Z M246.564353,100.634 C246.80502,100.634 247.026686,100.570667 247.229353,100.444 C247.43202,100.317333 247.590353,100.146333 247.704353,99.931 C247.932353,99.4623333 247.88802,99.019 247.571353,98.601 L247.571353,98.601 L244.778353,94.877 C245.335686,94.6363333 245.82652,94.2975 246.250853,93.8605 C246.675186,93.4235 246.998186,92.9231667 247.219853,92.3595 C247.44152,91.7958333 247.552353,91.21 247.552353,90.602 C247.539686,89.3226667 247.067853,88.2333333 246.136853,87.334 C245.205853,86.4346667 244.094353,85.985 242.802353,85.985 L242.802353,85.985 L239.572353,85.985 C239.217686,85.985 238.916853,86.1085 238.669853,86.3555 C238.422853,86.6025 238.299353,86.9033333 238.299353,87.258 L238.299353,87.258 L238.299353,97.727 C238.299353,98.0816667 238.422853,98.3825 238.669853,98.6295 C238.916853,98.8765 239.21452,99 239.562853,99 C239.911186,99 240.208853,98.8765 240.455853,98.6295 C240.702853,98.3825 240.826353,98.0816667 240.826353,97.727 L240.826353,97.727 L240.826353,95.276 L241.909353,95.276 L245.557353,100.121 C245.810686,100.463 246.146353,100.634 246.564353,100.634 Z M242.897353,92.749 L240.826353,92.749 L240.826353,88.512 L242.897353,88.512 C243.277353,88.512 243.63202,88.607 243.961353,88.797 C244.290686,88.987 244.550353,89.2435 244.740353,89.5665 C244.930353,89.8895 245.025353,90.2473333 245.025353,90.64 C245.025353,91.2226667 244.816353,91.7198333 244.398353,92.1315 C243.980353,92.5431667 243.48002,92.749 242.897353,92.749 L242.897353,92.749 Z" id="CONNOR"></path>
        </g>
    </g>
</svg>