<?xml version="1.0" encoding="UTF-8"?>
<svg width="63px" height="14px" viewBox="0 0 63 14" version="1.1" xmlns="http://www.w3.org/2000/svg" xmlns:xlink="http://www.w3.org/1999/xlink">
    <title>RONDA</title>
    <g id="Page-1" stroke="none" stroke-width="1" fill="none" fill-rule="evenodd">
        <g id="Artboard-Copy-8" transform="translate(-58.000000, -86.000000)" fill="#FFFFFF" fill-rule="nonzero">
            <path d="M68.728,99.119 C69.119,99.119 69.68,99.085 70.088,99 L70.088,98.643 C69.374,98.643 68.745,98.15 68.031,97.13 L65.294,93.169 C66.892,92.659 68.167,91.571 68.167,89.701 C68.167,87.61 66.467,86.624 63.407,86.624 L58.46,86.624 L58.46,86.981 C59.667,87.083 60.007,87.219 60.007,88.222 L60.007,97.402 C60.007,98.405 59.667,98.541 58.46,98.643 L58.46,99 L63.22,99 L63.22,98.643 C62.081,98.541 61.741,98.405 61.741,97.402 L61.741,93.492 L62.948,93.492 C63.441,93.492 63.662,93.611 63.866,93.917 L66.399,97.793 C67.079,98.847 67.691,99.119 68.728,99.119 Z M63.22,92.914 C62.863,92.914 62.132,92.863 61.741,92.778 L61.741,87.236 L62.88,87.236 C65.124,87.236 66.331,88.171 66.331,89.956 C66.331,91.656 65.311,92.914 63.22,92.914 Z M76.082,99.204 C79.754,99.204 82.219,96.637 82.219,92.727 C82.219,88.766 79.805,86.42 76.218,86.42 C72.546,86.42 70.064,88.987 70.064,92.897 C70.064,96.858 72.478,99.204 76.082,99.204 Z M76.252,98.609 C73.685,98.609 72.002,96.365 72.002,92.676 C72.002,89.157 73.481,87.015 76.031,87.015 C78.598,87.015 80.298,89.259 80.298,92.948 C80.298,96.467 78.802,98.609 76.252,98.609 Z M87.329,99 L87.329,98.643 C86.071,98.541 85.646,98.116 85.646,97.062 L85.646,88.868 L93.058,99 L93.993,99 L93.993,88.562 C93.993,87.508 94.299,87.083 95.455,86.981 L95.455,86.624 L91.494,86.624 L91.494,86.981 C92.769,87.083 93.177,87.508 93.177,88.562 L93.177,96.314 L86.156,86.624 L83.215,86.624 L83.215,86.981 C84.371,87.083 84.847,87.559 84.847,88.562 L84.847,97.062 C84.847,98.116 84.473,98.541 83.215,98.643 L83.215,99 L87.329,99 Z M101.381,99 C105.716,99 108.249,96.671 108.249,92.676 C108.249,88.749 105.716,86.624 101.67,86.624 L96.247,86.624 L96.247,86.981 C97.454,87.083 97.794,87.219 97.794,88.222 L97.794,97.402 C97.794,98.405 97.454,98.541 96.247,98.643 L96.247,99 L101.381,99 Z M101.585,98.388 C100.599,98.388 99.953,98.337 99.528,98.235 L99.528,87.236 L101.313,87.236 C104.492,87.236 106.311,89.259 106.311,92.829 C106.311,96.501 104.73,98.388 101.585,98.388 Z M112.135,99 L112.135,98.643 C110.707,98.524 110.163,98.082 110.588,97.011 L111.336,95.09 L116.402,95.09 L117.252,97.3 C117.609,98.235 117.354,98.524 115.926,98.643 L115.926,99 L120.584,99 L120.584,98.643 C119.683,98.524 119.445,98.116 119.122,97.3 L114.923,86.624 L113.835,86.624 L109.653,97.232 C109.33,98.065 109.041,98.524 108.14,98.643 L108.14,99 L112.135,99 Z M116.147,94.461 L111.574,94.461 L113.869,88.579 L116.147,94.461 Z" id="RONDA"></path>
        </g>
    </g>
</svg>