<?xml version="1.0" encoding="UTF-8"?>
<svg width="46px" height="17px" viewBox="0 0 46 17" version="1.1" xmlns="http://www.w3.org/2000/svg" xmlns:xlink="http://www.w3.org/1999/xlink">
    <title>WAND</title>
    <g id="Page-1" stroke="none" stroke-width="1" fill="none" fill-rule="evenodd">
        <g id="Artboard-Copy-8" transform="translate(-542.000000, -30.000000)" fill="#FFFFFF" fill-rule="nonzero">
            <path d="M549.007812,47 C549.820312,47 550.511719,46.7148438 551.082031,46.1445312 C551.652344,45.5742188 551.9375,44.8828125 551.9375,44.0703125 L551.9375,44.0703125 L551.9375,31.765625 C551.9375,31.4453125 551.822266,31.1699219 551.591797,30.9394531 C551.361328,30.7089844 551.085938,30.59375 550.765625,30.59375 C550.445312,30.59375 550.169922,30.7089844 549.939453,30.9394531 C549.708984,31.1699219 549.59375,31.4453125 549.59375,31.765625 L549.59375,31.765625 L549.59375,44.0703125 C549.59375,44.234375 549.537109,44.3730469 549.423828,44.4863281 C549.310547,44.5996094 549.171875,44.65625 549.007812,44.65625 C548.84375,44.65625 548.705078,44.5996094 548.591797,44.4863281 C548.478516,44.3730469 548.421875,44.234375 548.421875,44.0703125 L548.421875,44.0703125 L548.421875,35.28125 C548.421875,34.9609375 548.306641,34.6855469 548.076172,34.4550781 C547.845703,34.2246094 547.570312,34.109375 547.25,34.109375 C546.929688,34.109375 546.654297,34.2246094 546.423828,34.4550781 C546.193359,34.6855469 546.078125,34.9609375 546.078125,35.28125 L546.078125,35.28125 L546.078125,44.0703125 C546.078125,44.234375 546.021484,44.3730469 545.908203,44.4863281 C545.794922,44.5996094 545.65625,44.65625 545.492188,44.65625 C545.328125,44.65625 545.189453,44.5996094 545.076172,44.4863281 C544.962891,44.3730469 544.90625,44.234375 544.90625,44.0703125 L544.90625,44.0703125 L544.90625,31.765625 C544.90625,31.4453125 544.791016,31.1699219 544.560547,30.9394531 C544.330078,30.7089844 544.054688,30.59375 543.734375,30.59375 C543.414062,30.59375 543.138672,30.7089844 542.908203,30.9394531 C542.677734,31.1699219 542.5625,31.4453125 542.5625,31.765625 L542.5625,31.765625 L542.5625,44.0703125 C542.5625,44.8828125 542.847656,45.5742188 543.417969,46.1445312 C543.988281,46.7148438 544.679688,47 545.492188,47 C546.15625,47 546.742188,46.8085938 547.25,46.4257812 C547.757812,46.8085938 548.34375,47 549.007812,47 Z M562.115234,46.8242188 C562.392578,46.9960938 562.6875,47.046875 563,46.9765625 C563.304688,46.8984375 563.542969,46.7207031 563.714844,46.4433594 C563.886719,46.1660156 563.9375,45.8710938 563.867188,45.5585938 L563.867188,45.5585938 L560.609375,31.5429688 C560.53125,31.2304688 560.353516,30.9882812 560.076172,30.8164062 C559.798828,30.6445312 559.503906,30.5820312 559.191406,30.6289062 L559.191406,30.6289062 L558.746094,30.6289062 C558.433594,30.5820312 558.138672,30.6445312 557.861328,30.8164062 C557.583984,30.9882812 557.40625,31.2304688 557.328125,31.5429688 L557.328125,31.5429688 L554.070312,45.5585938 C554,45.8710938 554.050781,46.1660156 554.222656,46.4433594 C554.394531,46.7207031 554.632812,46.8984375 554.9375,46.9765625 C555.25,47.046875 555.544922,46.9960938 555.822266,46.8242188 C556.099609,46.6523438 556.277344,46.4101562 556.355469,46.0976562 L556.355469,46.0976562 L556.695312,44.65625 L561.242188,44.65625 L561.582031,46.0976562 C561.660156,46.4101562 561.837891,46.6523438 562.115234,46.8242188 Z M560.703125,42.3125 L557.234375,42.3125 L558.96875,34.859375 L560.703125,42.3125 Z M574.203125,47 C574.523438,47 574.798828,46.8847656 575.029297,46.6542969 C575.259766,46.4238281 575.375,46.1484375 575.375,45.828125 L575.375,45.828125 L575.375,31.765625 C575.375,31.4453125 575.259766,31.1699219 575.029297,30.9394531 C574.798828,30.7089844 574.523438,30.59375 574.203125,30.59375 C573.882812,30.59375 573.607422,30.7089844 573.376953,30.9394531 C573.146484,31.1699219 573.03125,31.4453125 573.03125,31.765625 L573.03125,31.765625 L573.03125,40.859375 L568.226562,31.25 C568.171875,31.140625 568.097656,31.0351562 568.003906,30.9335938 C567.769531,30.7070312 567.492188,30.59375 567.171875,30.59375 C566.851562,30.59375 566.576172,30.7089844 566.345703,30.9394531 C566.115234,31.1699219 566,31.4453125 566,31.765625 L566,31.765625 L566,45.828125 C566,46.1484375 566.115234,46.4238281 566.345703,46.6542969 C566.576172,46.8847656 566.851562,47 567.171875,47 C567.492188,47 567.767578,46.8847656 567.998047,46.6542969 C568.228516,46.4238281 568.34375,46.1484375 568.34375,45.828125 L568.34375,45.828125 L568.34375,36.734375 L573.148438,46.34375 C573.203125,46.453125 573.28125,46.5546875 573.382812,46.6484375 C573.609375,46.8828125 573.882812,47 574.203125,47 Z M582.40625,47 C583.703125,47 584.808594,46.5429688 585.722656,45.6289062 C586.636719,44.7148438 587.09375,43.609375 587.09375,42.3125 L587.09375,42.3125 L587.09375,35.28125 C587.09375,33.984375 586.636719,32.8789062 585.722656,31.9648438 C584.808594,31.0507812 583.703125,30.59375 582.40625,30.59375 L582.40625,30.59375 L578.890625,30.59375 C578.570312,30.59375 578.294922,30.7089844 578.064453,30.9394531 C577.833984,31.1699219 577.71875,31.4453125 577.71875,31.765625 L577.71875,31.765625 L577.71875,45.828125 C577.71875,46.1484375 577.833984,46.4238281 578.064453,46.6542969 C578.294922,46.8847656 578.570312,47 578.890625,47 L578.890625,47 L582.40625,47 Z M582.40625,44.65625 L580.0625,44.65625 L580.0625,32.9375 L582.40625,32.9375 C583.054688,32.9375 583.607422,33.1660156 584.064453,33.6230469 C584.521484,34.0800781 584.75,34.6328125 584.75,35.28125 L584.75,35.28125 L584.75,42.3125 C584.75,42.9609375 584.521484,43.5136719 584.064453,43.9707031 C583.607422,44.4277344 583.054688,44.65625 582.40625,44.65625 L582.40625,44.65625 Z" id="WAND"></path>
        </g>
    </g>
</svg>