<?xml version="1.0" encoding="UTF-8"?>
<svg width="56px" height="12px" viewBox="0 0 56 12" version="1.1" xmlns="http://www.w3.org/2000/svg" xmlns:xlink="http://www.w3.org/1999/xlink">
    <title>BRONX</title>
    <g id="Page-1" stroke="none" stroke-width="1" fill="none" fill-rule="evenodd">
        <g id="Artboard-Copy-8" transform="translate(-362.000000, -33.000000)" fill="#FFFFFF" fill-rule="nonzero">
            <path d="M370.037842,44 C370.43335,44 370.792236,43.9145508 371.114502,43.7436523 C371.436768,43.5727539 371.712646,43.3457031 371.942139,43.0625 C372.171631,42.7792969 372.348633,42.4606934 372.473145,42.1066895 C372.597656,41.7526855 372.659912,41.3901367 372.659912,41.019043 C372.659912,40.550293 372.570801,40.1230469 372.392578,39.7373047 C372.214355,39.3515625 371.971436,39.0256348 371.663818,38.7595215 C371.356201,38.4934082 371.00708,38.2944336 370.616455,38.1625977 C370.928955,37.9135742 371.171875,37.6120605 371.345215,37.2580566 C371.518555,36.9040527 371.605225,36.5268555 371.605225,36.1264648 C371.605225,35.6479492 371.486816,35.2097168 371.25,34.8117676 C371.013184,34.4138184 370.695801,34.0964355 370.297852,33.8596191 C369.956752,33.6566336 369.586057,33.5406419 369.185766,33.511644 L368.983154,33.5043945 L362.845459,33.5043945 L362.845459,33.5043945 C362.845459,33.7094727 362.88208,33.8815918 362.955322,34.020752 C363.028564,34.1599121 363.109131,34.2905273 363.197021,34.4125977 C363.280029,34.5200195 363.354492,34.6335449 363.42041,34.7531738 C363.486328,34.8728027 363.52417,35.0131836 363.533936,35.1743164 L363.533936,42.3374023 C363.52417,42.4985352 363.486328,42.638916 363.42041,42.7585449 C363.354492,42.8781738 363.280029,42.9916992 363.197021,43.0991211 C363.109131,43.2163086 363.028564,43.3444824 362.955322,43.4836426 C362.88208,43.6228027 362.845459,43.7949219 362.845459,44 L370.037842,44 L370.037842,44 Z M367.606201,37.7451172 L366.126709,37.5107422 L366.126709,34.5151367 L367.606201,34.5151367 C367.89917,34.5151367 368.168945,34.5883789 368.415527,34.7348633 C368.662109,34.8813477 368.857422,35.0766602 369.001465,35.3208008 C369.145508,35.5649414 369.217529,35.8334961 369.217529,36.1264648 C369.217529,36.4243164 369.144287,36.7062988 368.997803,36.9724121 C368.851318,37.2385254 368.656006,37.4448242 368.411865,37.5913086 C368.167725,37.737793 367.89917,37.7890625 367.606201,37.7451172 Z M368.052979,42.8574219 L366.126709,42.8574219 L366.134033,38.3676758 C366.387939,38.4165039 366.671143,38.4909668 366.983643,38.5910645 C367.296143,38.6911621 367.609863,38.8168945 367.924805,38.9682617 C368.239746,39.1196289 368.527832,39.2966309 368.789062,39.4992676 C369.050293,39.7019043 369.262695,39.9301758 369.42627,40.184082 C369.589844,40.4379883 369.671631,40.7163086 369.671631,41.019043 C369.671631,41.355957 369.598389,41.6635742 369.451904,41.9418945 C369.30542,42.2202148 369.108887,42.4423828 368.862305,42.6083984 C368.615723,42.7744141 368.345947,42.8574219 368.052979,42.8574219 Z M379.628662,44 C379.628662,43.7949219 379.665283,43.6228027 379.738525,43.4836426 C379.811768,43.3444824 379.894775,43.2163086 379.987549,43.0991211 C380.070557,42.9916992 380.143799,42.8769531 380.207275,42.7548828 C380.270752,42.6328125 380.307373,42.4912109 380.317139,42.3300781 L380.317139,38.2504883 C379.794678,38.3383789 379.393066,38.5178223 379.112305,38.7888184 C378.831543,39.0598145 378.624023,39.3857422 378.489746,39.7666016 C378.355469,40.1474609 378.244385,40.550293 378.156494,40.9750977 C378.088135,41.2729492 378.012451,41.5683594 377.929443,41.8613281 C377.846436,42.1542969 377.735352,42.4289551 377.596191,42.6853027 C377.457031,42.9416504 377.273926,43.1687012 377.046875,43.3664551 C376.819824,43.564209 376.530518,43.7192383 376.178955,43.831543 C375.827393,43.9438477 375.392822,44 374.875244,44 L372.24585,44 L372.24585,44 C372.807373,43.8144531 373.274902,43.5581055 373.648438,43.230957 C374.021973,42.9038086 374.336914,42.536377 374.593262,42.1286621 C374.849609,41.7209473 375.082764,41.3071289 375.292725,40.887207 C375.502686,40.4672852 375.724854,40.0717773 375.959229,39.7006836 C376.193604,39.3295898 376.476807,39.012207 376.808838,38.7485352 L376.779541,38.7485352 C376.296143,38.8071289 375.856689,38.7180176 375.461182,38.4812012 C375.065674,38.2443848 374.748291,37.9123535 374.509033,37.4851074 C374.303955,37.1188965 374.186768,36.7338518 374.157471,36.3299735 L374.150146,36.1264648 C374.150146,35.6430664 374.268555,35.2036133 374.505371,34.8081055 C374.742188,34.4125977 375.05957,34.0964355 375.45752,33.8596191 C375.798619,33.6566336 376.171108,33.5406419 376.574986,33.511644 L376.779541,33.5043945 L383.605713,33.5043945 L383.605713,33.5043945 C383.605713,33.7143555 383.569092,33.888916 383.49585,34.0280762 C383.422607,34.1672363 383.3396,34.2954102 383.246826,34.4125977 C383.163818,34.5200195 383.090576,34.6323242 383.0271,34.7495117 C382.963623,34.8666992 382.927002,35.0058594 382.917236,35.1669922 L382.917236,42.3300781 C382.927002,42.4960938 382.964844,42.6401367 383.030762,42.762207 C383.09668,42.8842773 383.171143,43.0014648 383.25415,43.1137695 C383.346924,43.230957 383.428711,43.3591309 383.499512,43.498291 C383.570312,43.6374512 383.605713,43.8046875 383.605713,44 L379.628662,44 L379.628662,44 Z M379.096349,37.7451172 L380.649084,37.4155273 L380.649084,34.4418945 C379.711584,34.5102539 379.003576,34.6726074 378.52506,34.9289551 C378.046545,35.1853027 377.746252,35.4831543 377.624181,35.8225098 C377.502111,36.1618652 377.504553,36.4890137 377.631506,36.8039551 C377.758459,37.1188965 377.957433,37.3679199 378.228429,37.5510254 C378.499426,37.7341309 378.788732,37.7988281 379.096349,37.7451172 Z M389.578857,44.1831055 C390.272217,44.1831055 390.924072,44.0427246 391.534424,43.7619629 C392.144775,43.4812012 392.680664,43.0917969 393.14209,42.59375 C393.603516,42.0957031 393.966064,41.5183105 394.229736,40.8615723 C394.493408,40.204834 394.625244,39.5004883 394.625244,38.7485352 L394.625244,38.7485352 L394.617173,38.4291843 C394.584886,37.796312 394.455741,37.1984166 394.229736,36.635498 C393.966064,35.9787598 393.603516,35.4025879 393.14209,34.9069824 C392.680664,34.411377 392.144775,34.0219727 391.534424,33.7387695 C390.924072,33.4555664 390.272217,33.3139648 389.578857,33.3139648 C388.880615,33.3139648 388.226318,33.4555664 387.615967,33.7387695 C387.005615,34.0219727 386.469727,34.411377 386.008301,34.9069824 C385.546875,35.4025879 385.185547,35.9787598 384.924316,36.635498 C384.663086,37.2922363 384.532471,37.996582 384.532471,38.7485352 C384.532471,39.5004883 384.663086,40.204834 384.924316,40.8615723 C385.185547,41.5183105 385.546875,42.0957031 386.008301,42.59375 C386.469727,43.0917969 387.005615,43.4812012 387.615967,43.7619629 C388.226318,44.0427246 388.880615,44.1831055 389.578857,44.1831055 Z M390.529559,43.0267379 C390.135558,43.0877429 389.745416,42.9934625 389.359131,42.7438965 C388.924561,42.4631348 388.529053,42.0310059 388.172607,41.4475098 C387.816162,40.8640137 387.532959,40.1791992 387.322998,39.3930664 C387.122803,38.6020508 387.036133,37.8598633 387.062988,37.1665039 C387.089844,36.4731445 387.2229,35.8896484 387.462158,35.4160156 C387.701416,34.9423828 388.040771,34.6396484 388.480225,34.5078125 C388.919678,34.3955078 389.361572,34.4797363 389.805908,34.760498 C390.250244,35.0412598 390.655518,35.472168 391.021729,36.0532227 C391.387939,36.6342773 391.676025,37.3203125 391.885986,38.1113281 C392.086182,38.9023438 392.167969,39.6445312 392.131348,40.3378906 C392.094727,41.03125 391.951904,41.6147461 391.702881,42.0883789 C391.453857,42.5620117 391.112061,42.8647461 390.67749,42.996582 L390.67749,42.996582 L390.529559,43.0267379 Z M404.381104,44.0073242 L404.659424,44.0073242 L404.659424,44.0073242 L404.659424,35.1743164 L404.659424,35.1743164 C404.674072,35.0131836 404.714355,34.8703613 404.780273,34.7458496 C404.846191,34.6213379 404.920654,34.5029297 405.003662,34.390625 C405.091553,34.2734375 405.172119,34.1464844 405.245361,34.0097656 C405.318604,33.8730469 405.355225,33.7070312 405.355225,33.5117188 L402.960205,33.5117188 L402.960205,33.5117188 C402.960205,33.7216797 402.998047,33.8962402 403.07373,34.0354004 C403.149414,34.1745605 403.233643,34.3027344 403.326416,34.4199219 C403.404541,34.5273438 403.476562,34.6396484 403.54248,34.7568359 C403.608398,34.8740234 403.64624,35.0131836 403.656006,35.1743164 L403.656006,42.190918 L403.656006,42.190918 C402.894287,41.6489258 402.237549,40.9909668 401.685791,40.217041 C401.134033,39.4431152 400.6604,38.6289062 400.264893,37.7744141 C399.948486,37.0908203 399.668018,36.4259766 399.423486,35.7798828 L399.246826,35.2988281 C399.041748,34.7080078 398.826904,34.2856445 398.602295,34.0317383 C398.377686,33.777832 398.051758,33.6240234 397.624512,33.5703125 C397.197266,33.5166016 396.575928,33.4970703 395.760498,33.5117188 L395.064697,33.5117188 L395.064697,33.5117188 C395.064697,33.7167969 395.101318,33.888916 395.174561,34.0280762 C395.247803,34.1672363 395.330811,34.2954102 395.423584,34.4125977 C395.506592,34.5200195 395.581055,34.6335449 395.646973,34.7531738 C395.712891,34.8728027 395.750732,35.0131836 395.760498,35.1743164 L395.760498,42.3374023 C395.750732,42.4985352 395.712891,42.6401367 395.646973,42.762207 C395.581055,42.8842773 395.506592,42.9990234 395.423584,43.1064453 C395.330811,43.2236328 395.247803,43.3518066 395.174561,43.4909668 C395.101318,43.630127 395.064697,43.8022461 395.064697,44.0073242 L397.459717,44.0073242 L397.459717,44.0073242 C397.459717,43.7973633 397.423096,43.6228027 397.349854,43.4836426 C397.276611,43.3444824 397.193604,43.2163086 397.10083,43.0991211 C397.017822,42.9916992 396.94458,42.8781738 396.881104,42.7585449 C396.817627,42.638916 396.778564,42.4985352 396.763916,42.3374023 L396.763916,36.2875977 C396.939697,36.7661133 397.213135,37.3544922 397.584229,38.0527344 C397.955322,38.7509766 398.395996,39.4711914 398.90625,40.2133789 C399.416504,40.9555664 399.968262,41.635498 400.561523,42.2531738 C401.154785,42.8708496 401.759033,43.3408203 402.374268,43.6630859 C402.716064,43.8339844 403.044434,43.9365234 403.359375,43.9707031 C403.674316,44.0048828 404.014893,44.0170898 404.381104,44.0073242 Z M409.610596,44 C409.610596,43.7802734 409.56665,43.5898438 409.47876,43.4287109 C409.390869,43.2675781 409.28833,43.1137695 409.171143,42.9672852 C409.107666,42.8842773 409.046631,42.7963867 408.988037,42.7036133 L411.016846,39.9570312 L412.664795,42.4692383 C412.562256,42.5571289 412.460938,42.6621094 412.36084,42.7841797 C412.260742,42.90625 412.176514,43.0625 412.108154,43.2529297 C412.039795,43.4433594 412.005615,43.6923828 412.005615,44 L417.154541,44 L417.154541,44 C417.154541,43.7216797 417.111816,43.5007324 417.026367,43.3371582 C416.940918,43.173584 416.832275,43.0405273 416.700439,42.9379883 C416.568604,42.8354492 416.427002,42.7426758 416.275635,42.659668 C416.070557,42.5522461 415.887451,42.4179688 415.726318,42.2568359 L412.686768,38.4116211 L415.067139,35.1669922 C415.174561,35.0449219 415.301514,34.9326172 415.447998,34.8300781 C415.594482,34.7275391 415.74585,34.6274414 415.9021,34.5297852 C416.068115,34.4321289 416.223145,34.3308105 416.367188,34.2258301 C416.51123,34.1208496 416.628418,34.0097656 416.71875,33.8925781 C416.809082,33.7753906 416.854248,33.6459961 416.854248,33.5043945 L413.477783,33.5043945 L413.477783,33.5043945 C413.477783,33.7241211 413.521729,33.9133301 413.609619,34.0720215 C413.69751,34.2307129 413.797607,34.3808594 413.909912,34.5224609 C413.973389,34.6103516 414.036865,34.7006836 414.100342,34.793457 L412.012939,37.6425781 L409.991455,34.9765625 C410.006104,34.9667969 410.018311,34.9570312 410.028076,34.9472656 C410.257568,34.8056641 410.460205,34.6311035 410.635986,34.423584 C410.811768,34.2160645 410.906982,33.909668 410.921631,33.5043945 L405.941162,33.5043945 L405.941162,33.5043945 C405.941162,33.777832 405.987549,33.9963379 406.080322,34.1599121 C406.173096,34.3234863 406.291504,34.4541016 406.435547,34.5517578 C406.57959,34.6494141 406.732178,34.7373047 406.893311,34.8154297 C407.113037,34.9130859 407.303467,35.0375977 407.4646,35.1889648 L410.386963,39.1000977 L408.013916,42.3300781 C407.906494,42.4521484 407.77832,42.5668945 407.629395,42.6743164 C407.480469,42.7817383 407.327881,42.8867188 407.171631,42.9892578 C407.005615,43.0917969 406.851807,43.1955566 406.710205,43.3005371 C406.568604,43.4055176 406.452637,43.5153809 406.362305,43.630127 C406.271973,43.744873 406.226807,43.8681641 406.226807,44 L409.610596,44 L409.610596,44 Z" id="BRONX"></path>
        </g>
    </g>
</svg>