<?xml version="1.0" encoding="utf-8"?>
<!DOCTYPE svg PUBLIC "-//W3C//DTD SVG 1.1//EN" "http://www.w3.org/Graphics/SVG/1.1/DTD/svg11.dtd">
<svg version="1.1" xmlns="http://www.w3.org/2000/svg" width="832px" height="222px" viewBox="0 0 832 222" preserveAspectRatio="xMidYMid meet">
 <g fill="#ffffff">
  <path d="M23.9 221 c-9.3 -1.6 -17 -7.5 -20.8 -16 -2 -4.3 -2.1 -6.4 -2.1 -54.5 0 -48.1 0.1 -50.2 2.1 -54.5 2.7 -6 7.4 -10.7 13.4 -13.6 4.4 -2.1 6.5 -2.4 16.8 -2.4 l11.7 0 0 -11.2 0 -11.3 16.7 16.8 16.8 16.7 -16.8 16.7 -16.7 16.8 0 -10.8 0 -10.7 -9.3 0 c-5.9 0 -9.7 0.4 -10.5 1.2 -0.9 0.9 -1.2 10.8 -1.2 38.5 0 35.8 0.1 37.3 1.9 38.3 2.7 1.4 99.5 1.4 102.2 0 1.8 -1 1.9 -2.3 1.9 -19.6 0 -13.9 0.3 -18.6 1.3 -18.8 0.6 -0.2 3.4 -1 6.1 -1.7 2.7 -0.7 7.1 -2.7 9.9 -4.6 2.7 -1.8 5.1 -3.3 5.3 -3.3 0.2 0 0.4 15.2 0.4 33.8 0 33.4 0 33.7 -2.4 38.7 -2.9 6.2 -7.6 10.7 -14.1 13.7 -5 2.3 -5 2.3 -56.5 2.5 -28.3 0 -53.6 -0.2 -56.1 -0.7z m56.6 -11.4 c3.9 -1.7 5.5 -4.2 5.5 -8.9 0 -6.8 -6.7 -11.3 -13.1 -8.7 -3.3 1.4 -5.9 5.5 -5.9 9.4 0 3 4.3 8.3 7.3 8.9 1.2 0.2 2.3 0.5 2.5 0.6 0.1 0 1.8 -0.5 3.7 -1.3z"/>
  <path d="M240.1 216.7 c-3.4 -1.7 -4.9 -4.3 -3.3 -5.9 0.9 -0.9 1.6 -0.7 3.2 1 3.8 4 11.7 2.2 10.8 -2.5 -0.2 -1.2 -1.9 -2 -6 -2.9 -7.1 -1.4 -8.8 -2.7 -8.8 -6.9 0 -4.6 3.8 -7.5 9.6 -7.5 5.7 0 10.7 4.5 7.3 6.5 -0.5 0.4 -1.9 -0.1 -2.9 -1 -1.2 -1.1 -3.1 -1.5 -5.7 -1.3 -3.1 0.2 -3.9 0.7 -4.1 2.5 -0.4 2.5 2.8 4.3 7.2 4.3 5.5 0 9.2 6.1 6.6 11 -1.9 3.5 -9.5 5 -13.9 2.7z"/>
  <path d="M262.3 216.5 c-2.5 -1.1 -3.4 -2.3 -4.3 -5.7 -1.8 -6.4 -0.6 -13.8 2.5 -16.5 3.7 -3.3 10.7 -3.2 14 0.2 2.2 2.1 2.5 3.3 2.5 10 0 8.9 -0.8 10.9 -5.1 12.4 -4.1 1.4 -5.7 1.3 -9.6 -0.4z m9.5 -3.7 c0.7 -0.7 1.2 -4.2 1.2 -8.5 0 -7 -0.1 -7.4 -2.6 -8.3 -3.7 -1.4 -7.4 -0.2 -8.6 2.9 -1.2 3.2 -0.5 11.5 1.2 13.6 1.5 1.8 7.1 2 8.8 0.3z"/>
  <path d="M306.4 216.6 c-3.4 -1.5 -5 -4.4 -3.4 -6 0.6 -0.6 1.7 -0.3 3.3 1.2 3.1 3 9.2 3 10.7 0.1 1.6 -2.9 -0.2 -4.7 -5.8 -5.5 -8.5 -1.2 -11.7 -7 -6.7 -11.9 3.3 -3.4 10.3 -3.5 14.1 -0.2 1.6 1.4 2.4 2.9 2 3.5 -1 1.7 -3.3 1.5 -4 -0.3 -0.4 -1 -2 -1.5 -5 -1.5 -3.6 0 -4.6 0.4 -5.1 2 -0.9 3 -0.1 3.6 6.4 4.9 6.6 1.3 8.4 2.8 8.4 7.2 0 6.1 -8.1 9.6 -14.9 6.5z"/>
  <path d="M380.3 216.6 c-3.9 -1.8 -5.3 -6 -5.3 -16.3 0 -7.4 1 -9.4 3.5 -7.3 1.1 0.9 1.5 3.5 1.5 9.9 0 5.4 0.5 9.2 1.2 9.9 1.6 1.6 7.3 1.5 8.6 -0.1 0.6 -0.7 1.3 -5.6 1.4 -10.8 0.2 -7.6 0.6 -9.4 1.8 -9.4 1.2 0 1.6 1.9 1.8 9.7 0.2 8.8 0.1 9.8 -2 12.2 -2.8 3.3 -8.1 4.2 -12.5 2.2z"/>
  <path d="M471.7 216.5 c-3.6 -2 -4.7 -5.1 -4.7 -12.6 0 -5.4 0.3 -6.4 2.9 -9 4 -3.9 10.9 -4.1 14.6 -0.4 2.2 2.1 2.5 3.3 2.5 9.9 0 6.3 -0.3 7.9 -2.3 10.1 -2.8 3.3 -9 4.2 -13 2z m10.2 -3.9 c0.7 -0.9 1.1 -4.1 0.9 -8.3 -0.3 -6.3 -0.5 -6.9 -3 -8.1 -2.3 -1.1 -3.3 -1.1 -5.5 0 -2.6 1.2 -2.8 1.8 -3.1 7.9 -0.2 5.1 0.1 7.1 1.3 8.3 2 2 7.8 2.1 9.4 0.2z"/>
  <path d="M619.4 217.1 c-3.8 -1.7 -5.4 -5.1 -5.4 -11.8 0 -7.3 1.3 -10.7 4.7 -12.2 5.1 -2.3 12.7 -0.6 13.9 3.1 0.8 2.6 -0.3 3.5 -2.4 2 -3.8 -2.7 -6.3 -3.2 -9 -2 -2.5 1.2 -2.7 1.9 -3 8.3 -0.2 5.7 0 7.2 1.4 8.2 2.7 2 7.1 1.6 9.3 -0.8 2 -2.1 4.1 -1.9 4.1 0.5 0 3.7 -8.8 6.7 -13.6 4.7z"/>
  <path d="M641.4 217 c-4 -1.6 -5.4 -4.9 -5.4 -12.8 0 -6.4 0.3 -7.6 2.5 -9.7 3.7 -3.7 10.6 -3.5 14.6 0.4 2.6 2.6 2.9 3.6 2.9 9 0 7.6 -1.2 10.6 -4.9 12.6 -3.3 1.7 -6.5 1.8 -9.7 0.5z m9.1 -4.6 c1.2 -1.2 1.5 -3.2 1.3 -8.3 -0.3 -6.1 -0.5 -6.7 -3 -7.9 -2.3 -1.1 -3.3 -1.1 -5.5 0 -2.6 1.2 -2.8 1.8 -3.1 8.1 -0.2 4.2 0.2 7.4 0.9 8.3 1.6 1.9 7.4 1.8 9.4 -0.2z"/>
  <path d="M745.4 217.1 c-3.8 -1.7 -5.4 -5.1 -5.4 -11.8 0 -9.7 2.7 -13.3 10 -13.3 7.3 0 10 3.6 10 13.5 0 5.2 -0.4 6.9 -2.3 9 -2.4 2.9 -8.6 4.2 -12.3 2.6z m9.1 -4.7 c1.2 -1.2 1.5 -3.2 1.3 -8.3 -0.3 -6.1 -0.5 -6.7 -3 -7.9 -2.3 -1.1 -3.3 -1.1 -5.5 0 -2.6 1.2 -2.8 1.8 -3.1 7.9 -0.3 7.6 1 9.9 5.8 9.9 1.6 0 3.6 -0.7 4.5 -1.6z"/>
  <path d="M206.4 215.7 c-0.2 -0.7 -0.3 -6.2 -0.2 -12.3 l0.3 -10.9 7.3 0 c6.5 0 7.6 0.3 9.3 2.4 2.5 3.1 2.4 7.6 -0.2 10.2 l-2.2 2.2 2.2 4.4 c2.6 5.3 2.6 5.3 0.1 5.3 -1.5 0 -2.6 -1.3 -4 -4.5 -1.8 -4.1 -2.2 -4.5 -5.5 -4.5 -3.5 0 -3.5 0 -3.5 4.5 0 3.4 -0.4 4.5 -1.5 4.5 -0.9 0 -1.8 -0.6 -2.1 -1.3z m14 -13.9 c1.9 -3 -0.4 -5.3 -5.8 -5.6 l-4.6 -0.3 0 4.1 0 4.1 4.6 -0.3 c3.1 -0.2 5.1 -0.9 5.8 -2z"/>
  <path d="M228.4 215.7 c-0.2 -0.7 -0.3 -6.2 -0.2 -12.3 0.2 -8.9 0.6 -10.9 1.8 -10.9 1.2 0 1.5 2.2 1.8 12.3 0.2 10.5 0 12.2 -1.3 12.2 -0.9 0 -1.8 -0.6 -2.1 -1.3z"/>
  <path d="M281.2 204.8 l0.3 -12.3 6.1 -0.3 c4.9 -0.2 6.5 0.1 8.7 1.8 3.4 2.7 3.8 8.7 0.7 11.5 -1.9 1.7 -1.9 1.8 0.6 6.6 l2.4 4.9 -2.3 0 c-1.7 0 -2.8 -1.1 -4.5 -4.5 -1.8 -3.8 -2.6 -4.5 -5.1 -4.5 -2.8 0 -3 0.3 -3.3 4.2 -0.2 3.2 -0.8 4.4 -2.1 4.6 -1.6 0.3 -1.7 -0.6 -1.5 -12z m12.6 -1.7 c0.8 -0.5 1.2 -2.1 1 -3.7 -0.3 -2.7 -0.6 -2.9 -5 -3.2 l-4.8 -0.3 0 4 c0 4.1 0 4.1 3.8 4.1 2 0 4.3 -0.4 5 -0.9z"/>
  <path d="M323 216.5 c0 -1.7 8.4 -22.3 9.6 -23.5 2.4 -2.5 3.6 -0.4 12 22.3 0.5 1.3 0.1 1.7 -1.5 1.7 -1.4 0 -2.5 -0.9 -3.1 -2.5 -0.9 -2.2 -1.5 -2.5 -6.4 -2.5 -4.9 0 -5.4 0.2 -6 2.5 -0.4 1.6 -1.3 2.5 -2.6 2.5 -1.1 0 -2 -0.2 -2 -0.5z m13.6 -12.2 c-0.8 -2.1 -1.7 -4.7 -2.1 -5.8 -0.5 -1.6 -1 -0.9 -2.6 3.5 -1 3 -1.9 5.6 -1.9 5.7 0 0.2 1.8 0.3 4 0.3 l4 0 -1.4 -3.7z"/>
  <path d="M352.7 216.3 c-1.1 -1 -0.8 -23.1 0.2 -23.7 0.5 -0.4 1.5 -0.4 2.3 -0.1 1.4 0.6 11.8 15.9 11.8 17.5 0 0.5 0.3 1 0.8 1 0.4 0 0.7 -4.2 0.7 -9.2 0 -7.6 0.3 -9.3 1.5 -9.3 1.2 0 1.5 2 1.5 12 0 15.8 -1.1 16.2 -9.5 3.5 l-6 -9.2 0 9.1 c0 6.9 -0.3 9.1 -1.3 9.1 -0.8 0 -1.7 -0.3 -2 -0.7z"/>
  <path d="M399.2 204.8 c0.4 -14.7 1.4 -15.6 6.8 -6 1.9 3.4 4 6.3 4.5 6.4 0.6 0 2.5 -2.6 4.3 -5.8 6.1 -10.7 7.2 -9.8 7.2 5.7 0 9.9 -0.3 11.9 -1.5 11.9 -1.2 0 -1.5 -1.7 -1.5 -9.2 l-0.1 -9.3 -2.9 5.6 c-1.5 3 -3.5 6.1 -4.3 6.7 -1.7 1.5 -2.5 0.7 -6.7 -6.9 l-3 -5.4 0 9.3 c0 7.6 -0.3 9.2 -1.5 9.2 -1.3 0 -1.5 -1.8 -1.3 -12.2z"/>
  <path d="M426.4 215.7 c-0.2 -0.7 -0.3 -6.2 -0.2 -12.3 l0.3 -10.9 8 0 c6.4 0 8 0.3 8 1.5 0 1.1 -1.5 1.6 -6.2 1.8 l-6.3 0.3 0 3.4 c0 3.4 0 3.4 5.2 3.7 7.4 0.4 7.7 2.8 0.4 2.8 l-5.6 0 0 4 0 4 6.6 0 c4.8 0 6.5 0.3 6.2 1.3 -0.7 1.8 -15.7 2.2 -16.4 0.4z"/>
  <path d="M446.2 204.8 l0.3 -12.3 6.1 -0.3 c4.9 -0.2 6.5 0.1 8.7 1.8 3.4 2.7 3.8 8.7 0.7 11.5 -1.9 1.7 -1.9 1.8 0.6 6.6 l2.4 4.9 -2.3 0 c-1.7 0 -2.8 -1.1 -4.5 -4.5 -1.8 -3.8 -2.6 -4.5 -5.1 -4.5 -2.8 0 -3 0.3 -3.3 4.2 -0.2 3.2 -0.8 4.4 -2.1 4.6 -1.6 0.3 -1.7 -0.6 -1.5 -12z m12.6 -1.7 c0.8 -0.5 1.2 -2.1 1 -3.7 -0.3 -2.7 -0.6 -2.9 -5 -3.2 l-4.8 -0.3 0 4 c0 4.1 0 4.1 3.8 4.1 2 0 4.3 -0.4 5 -0.9z"/>
  <path d="M502.7 216.3 c-0.4 -0.3 -0.7 -4.8 -0.7 -9.9 l0 -9.3 -2.9 1.7 c-3.1 1.8 -4.7 1.3 -3.8 -1.2 0.7 -1.9 8.4 -5.9 9.7 -5.1 0.6 0.4 1 6 1 12.6 0 9.2 -0.3 11.9 -1.3 11.9 -0.8 0 -1.7 -0.3 -2 -0.7z"/>
  <path d="M516.4 215.7 c-0.2 -0.7 -0.3 -6.2 -0.2 -12.3 l0.3 -10.9 5.4 -0.3 c6.5 -0.4 10.4 1.1 12 4.4 1.6 3.6 1.4 5.8 -1 8.8 -1.8 2.2 -2.8 2.6 -7.5 2.6 l-5.4 0 0 4.5 c0 3.4 -0.4 4.5 -1.5 4.5 -0.9 0 -1.8 -0.6 -2.1 -1.3z m13 -12.3 c1.9 -1.8 2 -2.8 0.6 -5.5 -0.8 -1.4 -2.1 -1.9 -5.5 -1.9 l-4.5 0 0 4.5 0 4.5 3.9 0 c2.3 0 4.6 -0.7 5.5 -1.6z"/>
  <path d="M538.2 204.8 l0.3 -12.3 7.5 0 c6 0 7.5 0.3 7.5 1.5 0 1.1 -1.4 1.6 -5.7 1.8 l-5.8 0.3 0 3.4 0 3.5 5 0 c3.8 0 5 0.4 5 1.5 0 1.1 -1.2 1.5 -5 1.5 l-5 0 0 4 0 4 6 0 c4.7 0 6 0.3 6 1.5 0 1.2 -1.6 1.5 -8 1.5 l-8.1 0 0.3 -12.2z"/>
  <path d="M557.2 204.8 l0.3 -12.3 5.4 -0.3 c6.5 -0.4 10.4 1.1 12 4.4 1.6 3.6 1.4 4.9 -1.3 8.1 l-2.5 2.9 2.5 4.3 c2.9 5.2 2.9 5.1 0.5 5.1 -1.3 0 -2.8 -1.5 -4.3 -4.2 -1.9 -3.5 -2.9 -4.4 -5.6 -4.6 -3.2 -0.3 -3.2 -0.3 -3.2 4.2 0 4 -0.3 4.6 -2 4.6 -2 0 -2 -0.5 -1.8 -12.2z m13.3 -4.8 c0 -3.5 0 -3.5 -4.7 -3.8 l-4.8 -0.3 0 4.1 0 4.1 4.8 -0.3 c4.7 -0.3 4.7 -0.3 4.7 -3.8z"/>
  <path d="M585.2 204.8 l0.3 -12.3 6.6 0 c5.2 0 7.2 0.4 8.8 1.9 2.8 2.5 2.8 8.2 0 11.2 l-2 2.2 2 3.3 c2.6 4.2 2.6 5.9 0.3 5.9 -1.1 0 -2.6 -1.6 -4 -4.5 -1.8 -3.8 -2.6 -4.5 -5.1 -4.5 -2.8 0 -3 0.3 -3.3 4.2 -0.2 3.2 -0.8 4.4 -2.1 4.6 -1.6 0.3 -1.7 -0.6 -1.5 -12z m12.8 -2.2 c0.6 -0.8 1 -2.5 0.8 -3.8 -0.3 -2 -1 -2.3 -5 -2.6 l-4.8 -0.3 0 4 c0 4.1 0 4.1 3.9 4.1 2.1 0 4.4 -0.6 5.1 -1.4z"/>
  <path d="M607.2 204.8 c0.3 -10.1 0.6 -12.3 1.8 -12.3 1.2 0 1.5 2 1.5 12 0 10.7 -0.2 12 -1.8 12.3 -1.6 0.3 -1.7 -0.6 -1.5 -12z"/>
  <path d="M659.7 216.3 c-1.1 -1 -0.8 -23.1 0.2 -23.7 2.3 -1.4 4.1 0.6 11.8 13.3 l3.2 5.4 0.3 -9.4 c0.2 -7.6 0.6 -9.4 1.8 -9.4 1.3 0 1.5 2 1.5 12 0 11.1 -0.1 12 -1.9 12 -1.6 0 -8.4 -8.8 -13.1 -16.9 -0.7 -1.2 -0.9 1.1 -0.7 7.8 0.3 7.8 0.1 9.6 -1 9.6 -0.8 0 -1.8 -0.3 -2.1 -0.7z"/>
  <path d="M683.2 204.8 l0.3 -12.3 4 -0.3 c10.5 -0.9 15 3.6 14.3 14.1 -0.6 8.4 -3.3 10.7 -12.4 10.7 l-6.5 0 0.3 -12.2z m13.5 6.6 c0.7 -1 1.3 -4 1.3 -6.8 0 -6.3 -1.9 -8.6 -7.2 -8.6 l-3.8 0 0 9.1 0 9.2 4.2 -0.6 c2.3 -0.3 4.8 -1.4 5.5 -2.3z"/>
  <path d="M705.2 204.8 c0.3 -10.1 0.6 -12.3 1.8 -12.3 1.2 0 1.5 2 1.5 12 0 10.7 -0.2 12 -1.8 12.3 -1.6 0.3 -1.7 -0.6 -1.5 -12z"/>
  <path d="M712 215.4 c0 -0.9 2.7 -5.3 6 -9.9 3.3 -4.6 6 -8.6 6 -8.9 0 -0.3 -2.6 -0.6 -5.7 -0.8 -4.4 -0.2 -5.8 -0.7 -5.8 -1.8 0 -1.2 1.6 -1.5 8.4 -1.5 5.3 0 8.6 0.4 8.8 1.1 0.2 0.6 -2.6 5.2 -6.2 10.2 -3.6 5 -6.5 9.3 -6.5 9.7 0 0.3 3 0.5 6.6 0.5 4.8 0 6.5 0.3 6.2 1.3 -0.3 0.8 -3.3 1.3 -9.1 1.5 -7.5 0.2 -8.7 0.1 -8.7 -1.4z"/>
  <path d="M733.2 204.8 c0.3 -10.1 0.6 -12.3 1.8 -12.3 1.2 0 1.5 2 1.5 12 0 10.7 -0.2 12 -1.8 12.3 -1.6 0.3 -1.7 -0.6 -1.5 -12z"/>
  <path d="M763.4 215.7 c-0.2 -0.7 -0.3 -6.2 -0.2 -12.3 0.4 -14.2 1.4 -14.5 9.1 -2.9 3.1 4.6 5.7 8.9 5.7 9.5 0 0.5 0.3 1 0.8 1 0.4 0 0.7 -4.2 0.7 -9.2 0 -7.6 0.3 -9.3 1.5 -9.3 1.2 0 1.5 2 1.5 12 0 15.8 -1.1 16.2 -9.5 3.5 l-6 -9.2 0 9.1 c0 7.5 -0.3 9.1 -1.5 9.1 -0.9 0 -1.8 -0.6 -2.1 -1.3z"/>
  <path d="M786 216.3 c-0.1 -2.4 8.7 -23.3 9.9 -23.8 2.3 -0.9 2.6 -0.4 9.6 18.3 2.4 6 2.4 6.2 0.4 6.2 -1.1 0 -2.4 -1.1 -3.1 -2.5 -1 -2.2 -1.7 -2.5 -6.4 -2.5 -4.9 0 -5.4 0.2 -6 2.5 -0.4 1.6 -1.3 2.5 -2.5 2.5 -1 0 -1.9 -0.3 -1.9 -0.7z m14 -9.1 c0 -0.5 -0.7 -3 -1.6 -5.7 l-1.7 -4.8 -1.8 4.9 c-1.1 2.7 -1.9 5.2 -1.9 5.7 0 0.4 1.6 0.7 3.5 0.7 1.9 0 3.5 -0.4 3.5 -0.8z"/>
  <path d="M813 206.6 l0 -10.6 -3.6 0 c-2.8 0 -3.5 -0.3 -3.2 -1.7 0.3 -1.6 1.5 -1.8 8.8 -1.8 7.3 0 8.5 0.2 8.8 1.8 0.3 1.4 -0.4 1.7 -3.2 1.7 l-3.5 0 -0.3 10.2 c-0.3 8.9 -0.5 10.3 -2 10.6 -1.6 0.3 -1.8 -0.7 -1.8 -10.2z"/>
  <path d="M827.2 204.8 c0.3 -10.1 0.6 -12.3 1.8 -12.3 1.2 0 1.5 2 1.5 12 0 10.7 -0.2 12 -1.8 12.3 -1.6 0.3 -1.7 -0.6 -1.5 -12z"/>
  <path d="M421.5 172 c-14.4 -2.9 -20.9 -11 -20.8 -26 0 -13.4 5 -20.6 16.8 -24.3 6 -1.9 9.1 -2.2 22.3 -2.1 l15.2 0.2 0 -5.2 c0 -9.9 -4.9 -15.4 -14.6 -16.3 -8.7 -0.8 -14.1 1 -19 6.3 -4.8 5.1 -6.6 5.4 -13.4 1.9 -5.4 -2.8 -6.1 -4.5 -3.6 -9.3 2.2 -4.2 8.6 -9.9 13.6 -12.1 6.8 -2.9 16.5 -4.4 24.7 -3.7 16.9 1.5 26.2 8.5 29.8 22.3 1.8 6.9 2.2 58.1 0.5 61.4 -2.7 4.9 -16.1 8 -34.8 7.8 -7 -0.1 -14.5 -0.5 -16.7 -0.9z m31.8 -16.1 c1.4 -0.8 1.7 -2.4 1.7 -10.3 0 -11.1 0.8 -10.6 -15.3 -10.6 -16 0 -19.7 2.1 -19.7 11.3 0 5.8 2.7 9.3 8.3 10.6 4.7 1.1 22.3 0.4 25 -1z"/>
  <path d="M583.3 171.6 c-6.5 -1.6 -12.4 -5.4 -15.1 -9.8 -4.3 -6.9 -5.2 -13.7 -5.2 -38 l0 -22.8 -7.9 0 c-9 0 -9.1 -0.1 -9.1 -8.5 0 -8.4 0.1 -8.5 9.1 -8.5 l7.9 0 0 -9.5 c0 -9.5 0 -9.6 2.8 -10.6 3.7 -1.5 14.1 -0.7 15.3 1.2 0.5 0.8 0.9 5.3 0.9 10.1 l0 8.7 11.8 0.3 11.7 0.3 0 8 0 8 -11.7 0.3 -11.8 0.3 0.1 21.2 c0 13.7 0.4 22.4 1.2 24.6 1.8 5.2 5.6 7.4 13.5 7.9 3.7 0.2 7.3 0.9 8 1.4 1.6 1.4 1.6 14 0 15.6 -1.6 1.6 -14.7 1.4 -21.5 -0.2z"/>
  <path d="M639 171.5 c-8 -2.2 -15.7 -7.9 -19.3 -14.3 -4.2 -7.6 -3.4 -9.6 5 -12.2 6.2 -1.9 6.7 -1.9 8.5 -0.4 1 1 1.8 2.2 1.8 2.9 0 1.7 5.1 6.2 8.3 7.4 4.1 1.6 19.1 1.4 23.2 -0.3 4 -1.7 5.5 -4.2 5.5 -9 0 -6.6 -3.9 -8.6 -21 -10.6 -22.5 -2.7 -31.4 -9.3 -32.7 -24.2 -0.8 -8.7 1.1 -14.3 7.1 -20.3 7 -7 13.4 -9 28.1 -8.9 8.7 0.1 12.2 0.5 16.6 2.3 7.5 2.9 13.3 7.2 16.4 12.2 3.7 5.8 3.1 7.9 -3.5 11.1 -7.4 3.7 -9.2 3.6 -12.1 -0.9 -3.6 -5.4 -8.9 -7.7 -17.9 -7.8 -8 0 -13.5 1.6 -15 4.6 -1.8 3.3 -1.2 8.4 1.3 10.8 2.4 2.2 3.6 2.5 24.2 5.6 13.3 2 19.9 5.3 24 11.9 2.7 4.5 3 5.7 3 13.5 0 6.9 -0.5 9.4 -2.2 12.7 -2.8 5.2 -7.2 9 -14.3 12.3 -4.8 2.2 -7.1 2.5 -17.5 2.8 -8.4 0.2 -13.6 -0.2 -17.5 -1.2z"/>
  <path d="M808 171.4 c-6.9 -1.8 -12.1 -5.3 -14.8 -9.6 -4.3 -6.9 -5.2 -13.7 -5.2 -38 l0 -22.8 -7.9 0 c-9 0 -9.1 -0.1 -9.1 -8.5 0 -8.4 0.1 -8.5 9.1 -8.5 l7.9 0 0 -9.5 c0 -9.5 0 -9.6 2.8 -10.6 3.7 -1.5 14.1 -0.7 15.3 1.2 0.5 0.8 0.9 5.3 0.9 10.1 l0 8.7 11.8 0.3 11.7 0.3 0 8 0 8 -11.7 0.3 -11.8 0.3 0.1 21.2 c0 13.7 0.4 22.4 1.2 24.6 1.8 5.2 5.6 7.4 13.5 7.9 3.7 0.2 7.3 0.9 8 1.4 0.7 0.7 1.2 3.7 1.2 8.3 0 5.7 -0.3 7.4 -1.6 7.9 -2.9 1.1 -15.8 0.5 -21.4 -1z"/>
  <path d="M705.6 169.9 c-2.4 -1.8 -2.6 -2.7 -2.6 -8.9 0 -9.7 1.6 -11.5 10.4 -11.5 5.4 0 6.9 0.4 8.7 2.1 4.4 4.5 3.4 17 -1.7 19.3 -4.2 1.9 -11.8 1.4 -14.8 -1z"/>
  <path d="M208.6 169.4 c-1.4 -1.3 -1.6 -6.6 -1.6 -42.3 0 -33.9 0.2 -41.1 1.4 -42 0.9 -0.8 4.3 -1.1 9.3 -0.9 l7.8 0.3 0.3 41.9 c0.1 30.1 -0.1 42.3 -0.9 43.2 -1.7 2.1 -14.3 1.9 -16.3 -0.2z"/>
  <path d="M301.6 169.4 c-1.4 -1.4 -1.6 -8 -1.6 -58.4 l0 -56.9 2.2 -1.5 c1.9 -1.3 6.2 -1.6 26.8 -1.6 13.6 0 27.3 0.5 30.6 1.1 12.6 2.3 22 9.5 27.1 20.6 3.5 7.5 4.3 21.2 1.9 29.9 -3.3 11.4 -10.3 19.1 -21.7 23.7 -4.8 1.9 -7.8 2.2 -25.6 2.5 l-20.3 0.4 0 19.3 c0 23.2 0.3 22.5 -10.5 22.5 -5.4 0 -7.8 -0.4 -8.9 -1.6z m53.7 -60.5 c5 -1.3 10.3 -6.1 11.7 -10.5 0.7 -2 1 -6.6 0.8 -10.4 -0.3 -5.4 -0.9 -7.4 -3 -10.2 -4.7 -6.1 -7.4 -6.8 -26.7 -6.8 l-17.1 0 0 19.5 0 19.5 15.3 0 c8.3 0 16.9 -0.5 19 -1.1z"/>
  <path d="M491.6 169.4 c-1.4 -1.3 -1.6 -6.3 -1.6 -39.2 0 -41.9 -0.1 -41 6.6 -43.8 9.2 -3.8 36.9 -6.9 39.9 -4.4 2.3 1.9 2.1 14.6 -0.2 15.8 -1 0.5 -6.8 1.2 -13 1.4 -7.1 0.3 -11.7 0.9 -12.7 1.7 -1.4 1.2 -1.6 5.6 -1.6 34.5 0 24.5 -0.3 33.5 -1.2 34.4 -1.8 1.8 -14.3 1.6 -16.2 -0.4z"/>
  <path d="M742 170 c-1.3 -0.8 -1.5 -6.7 -1.8 -40.8 -0.2 -25.3 0.1 -40.8 0.7 -42.5 1 -2.6 1.3 -2.7 9 -2.7 7 0 8.2 0.3 9.1 2 0.7 1.3 1 15.2 0.8 42.5 -0.3 34.8 -0.5 40.7 -1.8 41.5 -1.9 1.3 -14.1 1.3 -16 0z"/>
  <path d="M92.2 134.8 l-16.2 -16.3 16.5 -16.5 16.5 -16.5 0 11.3 0 11.2 8.6 0 c13.7 0 12.4 4.3 12.4 -41.8 0 -29.6 -0.3 -40.1 -1.2 -41 -1.7 -1.7 -101.9 -1.7 -103.6 0 -0.9 0.9 -1.2 7.2 -1.2 22 0 20 -0.1 20.8 -2 20.8 -3.2 0 -12.5 3.9 -16.9 7 l-4.1 3 0 -28.3 0 -28.3 2.6 -5.2 c1.4 -2.9 4.4 -6.7 6.6 -8.6 7.7 -6.7 7.2 -6.6 67.2 -6.5 38.8 0 55 0.4 57.3 1.2 5.6 2.1 12 7.4 15 12.4 l2.8 4.8 0.3 44.7 c0.3 44.1 0.2 44.8 -1.9 49.8 -2.9 6.7 -10.4 13.5 -17.2 15.5 -3 0.9 -9 1.5 -14.8 1.5 l-9.8 0 -0.3 10 -0.3 10 -16.3 -16.2z"/>
  <path d="M238 133.1 c-0.5 -1.1 -1 -4.4 -1 -7.5 0 -8.7 -0.4 -8.6 25.4 -8.6 15.9 0 22.5 0.3 23.4 1.2 0.7 0.7 1.2 4 1.2 7.8 0 3.8 -0.5 7.1 -1.2 7.8 -0.9 0.9 -7.6 1.2 -24 1.2 -21.4 0 -22.8 -0.1 -23.8 -1.9z"/>
  <path d="M208.1 69.4 c-3.2 -4 -2.9 -12.6 0.4 -15.9 3.3 -3.3 11.9 -3.6 15.9 -0.4 2.3 1.8 2.6 2.7 2.6 8.5 0 5.1 -0.4 6.8 -2 8.4 -1.6 1.6 -3.3 2 -8.4 2 -5.8 0 -6.7 -0.3 -8.5 -2.6z"/>
  <path d="M741.9 70.1 c-2.1 -1.7 -2.4 -2.8 -2.4 -8.6 0 -5.8 0.3 -6.9 2.4 -8.6 2.6 -2.1 10.1 -2.6 14.4 -1 4.8 1.9 6.1 13.8 2 18.3 -2.3 2.6 -13.2 2.5 -16.4 -0.1z"/>
 </g>
</svg>