<?xml version="1.0" encoding="UTF-8"?>
<svg width="62px" height="16px" viewBox="0 0 62 16" version="1.1" xmlns="http://www.w3.org/2000/svg" xmlns:xlink="http://www.w3.org/1999/xlink">
    <title>Group 2</title>
    <g id="Page-1" stroke="none" stroke-width="1" fill="none" fill-rule="evenodd">
        <g id="Artboard-Copy-8" transform="translate(-181.000000, -30.000000)" fill="#FFFFFF">
            <g id="Group-2" transform="translate(181.260010, 30.019043)">
                <path d="M30.2109375,13.980957 L30.2109375,12.2739258 L28.5317383,12.2739258 L28.5317383,7.08789062 C29.5955404,6.24674479 30.5541992,5.82617188 31.4077148,5.82617188 C31.8097331,5.82617188 32.098877,5.95914714 32.2751465,6.22509766 C32.451416,6.49104818 32.5395508,6.93017578 32.5395508,7.54248047 L32.5395508,7.54248047 L32.5395508,13.980957 L36.0927734,13.980957 L36.0927734,12.2739258 L34.4599609,12.2739258 L34.4599609,7.421875 C34.4599609,6.28385417 34.2512207,5.44580078 33.8337402,4.90771484 C33.4162598,4.36962891 32.7714844,4.10058594 31.8994141,4.10058594 C30.8479818,4.10058594 29.7254232,4.53662109 28.5317383,5.40869141 L28.5317383,5.40869141 L28.5317383,4.23046875 L24.9228516,4.23046875 L24.9228516,5.94677734 L26.6391602,5.94677734 L26.6391602,12.2739258 L24.9228516,12.2739258 L24.9228516,13.980957 L30.2109375,13.980957 Z M41.9467773,14.1479492 C43.3012695,14.1479492 44.4671224,13.6160482 45.4443359,12.5522461 L45.4443359,12.5522461 L45.4443359,13.980957 L49.1088867,13.980957 L49.1088867,12.2739258 L47.3461914,12.2739258 L47.3461914,0 L43.5610352,0 L43.5610352,1.68847656 L45.4443359,1.68847656 L45.4443359,5.54785156 C44.9124349,5.00358073 44.3635254,4.60465495 43.7976074,4.35107422 C43.2316895,4.09749349 42.6333008,3.97070312 42.0024414,3.97070312 C41.1303711,3.97070312 40.3201497,4.20418294 39.5717773,4.67114258 C38.8234049,5.13810221 38.2373861,5.76741536 37.8137207,6.55908203 C37.3900553,7.3507487 37.1782227,8.21663411 37.1782227,9.15673828 C37.1782227,10.0782878 37.3776855,10.9194336 37.7766113,11.6801758 C38.1755371,12.440918 38.7352702,13.0423991 39.4558105,13.4846191 C40.1763509,13.9268392 41.0066732,14.1479492 41.9467773,14.1479492 Z M42.3085938,12.440918 C41.7272135,12.440918 41.2014974,12.2955729 40.7314453,12.0048828 C40.2613932,11.7141927 39.8902995,11.3152669 39.6181641,10.8081055 C39.3460286,10.300944 39.2099609,9.73193359 39.2099609,9.10107422 C39.2099609,8.51350911 39.3429362,7.96150716 39.6088867,7.44506836 C39.8748372,6.92862956 40.2381999,6.51424154 40.6989746,6.2019043 C41.1597493,5.88956706 41.6839193,5.73339844 42.2714844,5.73339844 C42.8776042,5.73339844 43.421875,5.87874349 43.9042969,6.16943359 C44.3867188,6.4601237 44.7639974,6.85595703 45.0361328,7.35693359 C45.3082682,7.85791016 45.4443359,8.41145833 45.4443359,9.01757812 C45.4443359,9.61751302 45.3082682,10.1803385 45.0361328,10.7060547 C44.7639974,11.2317708 44.3898112,11.6523438 43.9135742,11.9677734 C43.4373372,12.2832031 42.9023438,12.440918 42.3085938,12.440918 Z M55.1948242,14.2685547 C56.1411133,14.2685547 57.0039062,14.0397135 57.7832031,13.5820312 C58.5625,13.124349 59.1778971,12.5027669 59.6293945,11.7172852 C60.0808919,10.9318034 60.3066406,10.065918 60.3066406,9.11962891 C60.3066406,8.19189453 60.0839844,7.33528646 59.6386719,6.54980469 C59.1933594,5.76432292 58.5810547,5.13810221 57.8017578,4.67114258 C57.0224609,4.20418294 56.1534831,3.97070312 55.1948242,3.97070312 C54.2052409,3.97070312 53.3208008,4.19181315 52.5415039,4.6340332 C51.762207,5.07625326 51.154541,5.68701172 50.7185059,6.46630859 C50.2824707,7.24560547 50.0644531,8.13004557 50.0644531,9.11962891 C50.0644531,10.065918 50.2824707,10.9318034 50.7185059,11.7172852 C51.154541,12.5027669 51.7652995,13.124349 52.5507812,13.5820312 C53.336263,14.0397135 54.2176107,14.2685547 55.1948242,14.2685547 Z M55.1948242,12.4038086 C54.6258138,12.4038086 54.1000977,12.2553711 53.6176758,11.9584961 C53.1352539,11.6616211 52.7579753,11.2596029 52.4858398,10.7524414 C52.2137044,10.2452799 52.0776367,9.70100911 52.0776367,9.11962891 C52.0776367,8.5382487 52.2137044,7.99397786 52.4858398,7.48681641 C52.7579753,6.97965495 53.1321615,6.57609049 53.6083984,6.27612305 C54.0846354,5.9761556 54.6072591,5.82617188 55.1762695,5.82617188 C55.7576497,5.82617188 56.2864583,5.97924805 56.7626953,6.28540039 C57.2389323,6.59155273 57.610026,6.99511719 57.8759766,7.49609375 C58.1419271,7.99707031 58.2749023,8.5382487 58.2749023,9.11962891 C58.2749023,9.71337891 58.1419271,10.2607422 57.8759766,10.7617188 C57.610026,11.2626953 57.2389323,11.6616211 56.7626953,11.9584961 C56.2864583,12.2553711 55.7638346,12.4038086 55.1948242,12.4038086 Z" id="ndo" fill-rule="nonzero"></path>
                <polygon id="H" fill-rule="nonzero" points="5.34375 13.980957 5.34375 12.2368164 3.69238281 12.2368164 3.69238281 7.44042969 9.76904297 7.44042969 9.76904297 12.2368164 8.13623047 12.2368164 8.13623047 13.980957 13.4892578 13.980957 13.4892578 12.2368164 11.875 12.2368164 11.875 1.74414062 13.4892578 1.74414062 13.4892578 0 8.13623047 0 8.13623047 1.74414062 9.76904297 1.74414062 9.76904297 5.69628906 3.69238281 5.69628906 3.69238281 1.74414062 5.34375 1.74414062 5.34375 0 0 0 0 1.74414062 1.57714844 1.74414062 1.57714844 12.2368164 0 12.2368164 0 13.980957"></polygon>
                <rect id="Rectangle" x="15.7399902" y="11.980957" width="7" height="2"></rect>
                <rect id="Rectangle-Copy" x="15.7399902" y="7.98095703" width="7" height="2"></rect>
                <rect id="Rectangle-Copy-2" x="15.7399902" y="3.98095703" width="7" height="2"></rect>
            </g>
        </g>
    </g>
</svg>