<?xml version="1.0" encoding="UTF-8"?>
<svg width="52px" height="20px" viewBox="0 0 52 20" version="1.1" xmlns="http://www.w3.org/2000/svg" xmlns:xlink="http://www.w3.org/1999/xlink">
    <title>Group 6</title>
    <g id="Page-1" stroke="none" stroke-width="1" fill="none" fill-rule="evenodd">
        <g id="Artboard-Copy-8" transform="translate(-455.000000, -80.000000)" fill="#FFFFFF" fill-rule="nonzero">
            <g id="Group-6" transform="translate(455.985300, 80.000000)">
                <path d="M3.2802,19.538 C3.5462,19.538 3.7142,19.454 3.7842,19.286 C3.8262,19.174 3.9802,18.677 4.2462,17.795 C4.4142,17.179 4.6802,16.332 5.0442,15.254 C5.2262,14.736 5.3872,14.26 5.5272,13.826 C6.2832,11.46 7.0742,9.423 7.9002,7.715 C7.9702,7.547 8.0122,7.435 8.0262,7.379 C8.0262,7.337 8.0437,7.309 8.0787,7.295 C8.1137,7.281 8.2362,7.253 8.4462,7.211 C10.5042,6.777 11.8482,6.553 12.4782,6.539 C12.7582,6.525 12.9367,6.5075 13.0137,6.4865 C13.0907,6.4655 13.1572,6.42 13.2132,6.35 C13.2972,6.238 13.3532,6.042 13.3812,5.762 C13.4372,5.202 13.3392,4.607 13.0872,3.977 C12.8912,3.501 12.6812,3.221 12.4572,3.137 C12.4152,3.123 12.2542,3.1195 11.9742,3.1265 C11.6942,3.1335 11.4632,3.144 11.2812,3.158 C10.8332,3.214 9.9617,3.3715 8.6667,3.6305 C7.3717,3.8895 6.2202,4.145 5.2122,4.397 C2.8742,4.957 1.2852,5.496 0.4452,6.014 C0.2492,6.14 0.1232,6.2555 0.0672,6.3605 C0.0112,6.4655 -0.0098,6.637 0.0042,6.875 C0.0322,7.169 0.1162,7.498 0.2562,7.862 C0.3682,8.114 0.4907,8.345 0.6237,8.555 C0.7567,8.765 0.8967,8.933 1.0437,9.059 C1.1907,9.185 1.3272,9.255 1.4532,9.269 C1.5372,9.283 1.6982,9.213 1.9362,9.059 C2.2862,8.863 2.6642,8.695 3.0702,8.555 C3.9382,8.247 4.3862,8.114 4.4142,8.156 C4.4142,8.156 4.3512,8.317 4.2252,8.639 C3.7352,9.843 3.1472,11.467 2.4612,13.511 C2.0972,14.603 1.7892,15.562 1.5372,16.388 C1.3552,17.032 1.2432,17.41 1.2012,17.522 C1.1452,17.704 1.1382,17.865 1.1802,18.005 C1.2922,18.313 1.5232,18.6105 1.8732,18.8975 C2.2232,19.1845 2.5942,19.391 2.9862,19.517 C3.0422,19.531 3.1402,19.538 3.2802,19.538 Z M16.9512,19.727 C17.2172,19.783 17.4272,19.79 17.5812,19.748 C17.8192,19.678 17.9382,19.503 17.9382,19.223 C17.9382,19.111 17.9102,19.006 17.8542,18.908 L17.8542,18.908 L17.7702,18.761 L17.7702,17.837 C17.7422,15.849 17.8682,13.791 18.1482,11.663 C18.2742,10.613 18.4982,9.381 18.8202,7.967 L18.8202,7.967 L18.9042,7.505 L18.8622,7.358 C18.8062,7.148 18.6592,6.917 18.4212,6.665 C17.9172,6.175 17.3852,5.888 16.8252,5.804 C16.7132,5.79 16.6222,5.762 16.5522,5.72 C16.3422,5.636 16.1812,5.587 16.0692,5.573 C15.9292,5.559 15.8277,5.573 15.7647,5.615 C15.7017,5.657 15.5652,5.804 15.3552,6.056 C14.6972,6.77 14.0252,7.54 13.3392,8.366 C12.6532,9.192 12.0197,9.9865 11.4387,10.7495 C10.8577,11.5125 10.3922,12.167 10.0422,12.713 C9.7482,13.175 9.4472,13.651 9.1392,14.141 C8.0052,16.017 7.3262,17.179 7.1022,17.627 C7.0182,17.781 7.0042,17.942 7.0602,18.11 C7.1722,18.474 7.4697,18.831 7.9527,19.181 C8.4357,19.531 8.8662,19.706 9.2442,19.706 C9.5102,19.706 9.6712,19.608 9.7272,19.412 C9.7552,19.3 10.3152,18.327 11.4072,16.493 L11.4072,16.493 L11.6382,16.115 L11.8482,16.052 C12.4502,15.87 13.0732,15.709 13.7172,15.569 C14.3752,15.429 14.7672,15.359 14.8932,15.359 C14.9072,15.359 14.9142,15.716 14.9142,16.43 C14.9142,17.354 14.9422,17.942 14.9982,18.194 C15.0542,18.446 15.2082,18.691 15.4602,18.929 C15.8942,19.349 16.3912,19.615 16.9512,19.727 Z M13.0872,13.868 C13.0872,13.84 13.2622,13.595 13.6122,13.133 C13.9622,12.671 14.3122,12.216 14.6622,11.768 C15.0122,11.32 15.1942,11.096 15.2082,11.096 C15.2082,11.11 15.1942,11.271 15.1662,11.579 C15.1382,11.887 15.1032,12.272 15.0612,12.734 C15.0332,13.196 15.0122,13.4305 14.9982,13.4375 C14.9842,13.4445 14.8862,13.462 14.7042,13.49 C14.5222,13.518 14.2422,13.574 13.8642,13.658 C13.4862,13.77 13.2622,13.833 13.1922,13.847 C13.1222,13.861 13.0872,13.868 13.0872,13.868 Z M24.4692,19.538 C24.7352,19.538 24.9032,19.454 24.9732,19.286 C25.0152,19.174 25.1692,18.677 25.4352,17.795 C25.6032,17.179 25.8692,16.332 26.2332,15.254 C26.4152,14.736 26.5762,14.26 26.7162,13.826 C27.4722,11.46 28.2632,9.423 29.0892,7.715 C29.1592,7.547 29.2012,7.435 29.2152,7.379 C29.2152,7.337 29.2327,7.309 29.2677,7.295 C29.3027,7.281 29.4252,7.253 29.6352,7.211 C31.6932,6.777 33.0372,6.553 33.6672,6.539 C33.9472,6.525 34.1257,6.5075 34.2027,6.4865 C34.2797,6.4655 34.3462,6.42 34.4022,6.35 C34.4862,6.238 34.5422,6.042 34.5702,5.762 C34.6262,5.202 34.5282,4.607 34.2762,3.977 C34.0802,3.501 33.8702,3.221 33.6462,3.137 C33.6042,3.123 33.4432,3.1195 33.1632,3.1265 C32.8832,3.1335 32.6522,3.144 32.4702,3.158 C32.0222,3.214 31.1507,3.3715 29.8557,3.6305 C28.5607,3.8895 27.4092,4.145 26.4012,4.397 C24.0632,4.957 22.4742,5.496 21.6342,6.014 C21.4382,6.14 21.3122,6.2555 21.2562,6.3605 C21.2002,6.4655 21.1792,6.637 21.1932,6.875 C21.2212,7.169 21.3052,7.498 21.4452,7.862 C21.5572,8.114 21.6797,8.345 21.8127,8.555 C21.9457,8.765 22.0857,8.933 22.2327,9.059 C22.3797,9.185 22.5162,9.255 22.6422,9.269 C22.7262,9.283 22.8872,9.213 23.1252,9.059 C23.4752,8.863 23.8532,8.695 24.2592,8.555 C25.1272,8.247 25.5752,8.114 25.6032,8.156 C25.6032,8.156 25.5402,8.317 25.4142,8.639 C24.9242,9.843 24.3362,11.467 23.6502,13.511 C23.2862,14.603 22.9782,15.562 22.7262,16.388 C22.5442,17.032 22.4322,17.41 22.3902,17.522 C22.3342,17.704 22.3272,17.865 22.3692,18.005 C22.4812,18.313 22.7122,18.6105 23.0622,18.8975 C23.4122,19.1845 23.7832,19.391 24.1752,19.517 C24.2312,19.531 24.3292,19.538 24.4692,19.538 Z M31.4622,19.769 C31.5742,19.825 31.7632,19.818 32.0292,19.748 C33.0932,19.468 35.0672,19.244 37.9512,19.076 C38.4832,19.034 38.8822,19.006 39.1482,18.992 C39.4002,18.964 39.6382,18.943 39.8622,18.929 C40.0862,18.915 40.2542,18.8905 40.3662,18.8555 C40.4782,18.8205 40.5902,18.796 40.7022,18.782 C40.9262,18.754 41.0732,18.691 41.1432,18.593 C41.2832,18.411 41.3497,18.1415 41.3427,17.7845 C41.3357,17.4275 41.2622,17.102 41.1222,16.808 C40.9962,16.528 40.7932,16.36 40.5132,16.304 C40.4292,16.276 40.3032,16.234 40.1352,16.178 C39.9252,16.122 39.6662,16.08 39.3582,16.052 C38.9102,16.024 38.3362,16.052 37.6362,16.136 C36.4742,16.276 35.2702,16.479 34.0242,16.745 C33.6882,16.815 33.5167,16.8465 33.5097,16.8395 C33.5027,16.8325 33.6322,16.4825 33.8982,15.7895 C34.1642,15.0965 34.3742,14.561 34.5282,14.183 L34.5282,14.183 L34.8012,13.532 L35.0952,13.49 C35.4312,13.448 36.0962,13.371 37.0902,13.259 C37.7902,13.189 38.3082,13.105 38.6442,13.007 C38.7982,12.965 38.9697,12.9195 39.1587,12.8705 C39.3477,12.8215 39.4632,12.783 39.5052,12.755 C39.6032,12.671 39.6522,12.503 39.6522,12.251 C39.6522,11.999 39.5997,11.7435 39.4947,11.4845 C39.3897,11.2255 39.2602,11.012 39.1062,10.844 C38.9942,10.732 38.8892,10.6655 38.7912,10.6445 C38.6932,10.6235 38.4482,10.613 38.0562,10.613 C37.4962,10.613 36.9362,10.683 36.3762,10.823 C36.0962,10.893 35.9562,10.928 35.9562,10.928 C35.9142,10.886 36.2362,10.193 36.9222,8.849 C37.1742,8.359 37.3212,8.107 37.3632,8.093 C37.4332,8.079 37.8182,8.0685 38.5182,8.0615 C38.6932,8.05975 38.858575,8.05865625 39.014325,8.05821875 L39.4527,8.058875 C39.7257,8.060625 39.9602,8.065 40.1562,8.072 C40.6742,8.086 41.0872,8.079 41.3952,8.051 C42.0112,8.009 42.3682,7.953 42.4662,7.883 C42.6622,7.743 42.7357,7.4245 42.6867,6.9275 C42.6377,6.4305 42.5012,6.056 42.2772,5.804 C42.1652,5.692 42.0357,5.6185 41.8887,5.5835 C41.7417,5.5485 41.4372,5.51 40.9752,5.468 C40.6252,5.454 40.3032,5.454 40.0092,5.468 C38.9452,5.524 37.9442,5.615 37.0062,5.741 C36.7612,5.776 36.581825,5.80142969 36.468075,5.81728906 L36.363075,5.83172656 L36.363075,5.83172656 L36.3342,5.8355 C36.2782,5.8425 36.2082,5.818 36.1242,5.762 C35.9002,5.664 35.6972,5.608 35.5152,5.594 C35.2772,5.58 35.1162,5.65 35.0322,5.804 C34.9342,5.958 34.8712,6.049 34.8432,6.077 C34.8152,6.105 34.7382,6.133 34.6122,6.161 C34.4442,6.189 34.2132,6.238 33.9192,6.308 C32.9532,6.546 32.4142,6.791 32.3022,7.043 C32.2322,7.183 32.2357,7.386 32.3127,7.652 C32.3897,7.918 32.5122,8.142 32.6802,8.324 C32.8342,8.478 33.0022,8.534 33.1842,8.492 C33.4922,8.422 33.6532,8.394 33.6672,8.408 C33.6672,8.422 33.6532,8.457 33.6252,8.513 C33.4012,8.947 33.0092,9.794 32.4492,11.054 C31.5952,13.014 30.8812,14.799 30.3072,16.409 C30.1112,16.969 29.9292,17.452 29.7612,17.858 C29.6352,18.138 29.6072,18.348 29.6772,18.488 C29.7612,18.642 29.9222,18.8065 30.1602,18.9815 C30.3982,19.1565 30.6502,19.293 30.9162,19.391 C31.0282,19.433 31.1297,19.4995 31.2207,19.5905 C31.3117,19.6815 31.3922,19.741 31.4622,19.769 Z" id="TATE"></path>
                <path d="M47.0147,0 C48.6715542,0 50.0147,1.34314575 50.0147,3 C50.0147,4.65685425 48.6715542,6 47.0147,6 C45.3578458,6 44.0147,4.65685425 44.0147,3 C44.0147,1.34314575 45.3578458,0 47.0147,0 Z M47.0147,0.8 C45.7996736,0.8 44.8147,1.78497355 44.8147,3 C44.8147,4.21502645 45.7996736,5.2 47.0147,5.2 C48.2297264,5.2 49.2147,4.21502645 49.2147,3 C49.2147,1.78497355 48.2297264,0.8 47.0147,0.8 Z" id="Oval"></path>
                <path d="M47.0695524,1.84882812 C46.7448018,1.84882812 46.4729165,1.95960637 46.2676685,2.17951487 C46.0638908,2.39784816 45.9645392,2.6966914 45.9645392,3.06597852 C45.9645392,3.41842008 46.0641958,3.70758333 46.267006,3.92279946 C46.4708411,4.13910321 46.7348409,4.24882813 47.0458057,4.24882813 C47.2949158,4.24882813 47.5087069,4.18488289 47.6805693,4.0544466 C47.8195779,3.94894493 47.9246999,3.80177415 47.9962574,3.61726736 L48.1022886,3.29524103 L47.3242751,3.04855382 L47.2756888,3.25996976 C47.2517864,3.36397758 47.21712,3.43103726 47.1773336,3.46614288 C47.139528,3.49950079 47.0974278,3.51505504 47.0418479,3.51505504 C46.9593401,3.51505504 46.9009922,3.48857405 46.8514191,3.43007788 C46.7999357,3.36932742 46.7669139,3.23856108 46.7669139,3.03695477 C46.7669139,2.8502185 46.7995519,2.72834842 46.8518928,2.6680146 C46.902605,2.60955813 46.9635461,2.58260121 47.0497635,2.58260121 C47.1094171,2.58260121 47.1533623,2.59706698 47.1893364,2.62584621 C47.2161964,2.64733425 47.2356941,2.67404669 47.2494892,2.70911451 L47.321168,2.94531849 L48.0933627,2.76083512 L48.0363458,2.56013577 C47.9831027,2.37271987 47.8996065,2.22242675 47.7830516,2.11286512 C47.5969785,1.93675866 47.3553078,1.84882812 47.0695524,1.84882812 Z" id="C"></path>
            </g>
        </g>
    </g>
</svg>