<?xml version="1.0" encoding="UTF-8"?>
<svg width="216px" height="65px" viewBox="0 0 216 65" version="1.1" xmlns="http://www.w3.org/2000/svg" xmlns:xlink="http://www.w3.org/1999/xlink">
    <title>Musk-logo</title>
    <g id="Page-1" stroke="none" stroke-width="1" fill="none" fill-rule="evenodd">
        <g id="Musk-logo" fill="#363636" fill-rule="nonzero">
            <path d="M42.645572,61.8795127 C42.6484991,61.7950248 42.7070565,61.7139556 42.7324312,61.6289799 C44.8975608,54.4167774 47.6775352,46.0666792 50.4184712,39.0405442 C52.5426117,33.5947642 54.4671717,28.0708457 56.4663909,22.5767182 C57.1632139,20.6618319 57.7990413,18.724969 58.5017199,16.8125244 C58.5739394,16.6152239 58.665678,16.1087873 58.7759596,15.5037019 C58.8608664,15.0377999 59.5459782,15.0949386 59.5469544,15.5681656 L59.545154,18.7900444 C59.5346669,23.3905558 59.4957983,29.9685714 59.4567363,36.5907042 L59.441168,39.2373275 C59.4025555,45.8368536 59.3675081,52.2227122 59.3642138,56.4615163 L59.3646565,58.0379455 C59.3669263,59.4906995 59.3748779,60.5586791 59.3903154,61.1181477 C59.4073948,61.7344675 59.4927891,62.360554 59.645036,62.9568496 C59.7836194,63.4984482 60.1735089,63.8774207 60.7761535,63.9218617 C61.30609,63.9609316 61.8384675,63.9848607 62.3693801,63.9858377 C65.2942821,63.9907211 67.7307244,63.9960936 70.6551377,63.9716753 C70.9786632,63.9692336 71.3002365,63.7797474 71.5339744,63.7055155 C71.8248047,63.1311951 71.9253274,62.5793405 71.9599736,62.0392066 C71.9821594,61.6927355 71.9944756,60.2173878 72,57.9373748 L72,52.4005246 C71.9813361,37.0695629 71.8306019,8.30426329 71.8150458,1.4641296 C71.8140697,1.20090064 71.8662826,0.892740076 71.7501455,0.685672836 C71.5944827,0.408280108 71.3695275,0.236374913 71.0904084,0.0825385202 C70.8815564,-0.0327157815 70.536072,0.0087957814 70.2730561,0.0102605172 C65.5768171,0.03418966 61.8560343,-0.0185534076 57.1597953,0.0102605172 C55.6529392,0.0195395067 54.3290715,-0.0165994948 52.8261201,0.0659358517 C51.6915853,0.127957909 51.6627947,0.623650779 51.2846164,1.86117223 C50.5092295,4.40068029 49.5210874,6.87621237 48.7583879,9.41913907 C47.6394689,13.1502628 37.9659208,39.8155838 36.6259513,44.2318852 C36.4829759,44.7026706 36.2101998,45.1343875 35.8725247,45.8493574 C35.3694252,44.6997411 34.922932,43.8353317 34.6047747,42.9259921 C33.3175056,39.2481007 32.071227,32.6253578 30.8064041,28.9396521 C28.0766905,20.9865965 22.2385989,4.81872119 20.7317428,0.885413602 C20.5263067,0.349187523 20.0154006,-0.00146016449 19.4415452,-4.54287893e-06 C17.5446641,0.00567506488 13.1691873,0.0720794191 8.92198449,0.0838598187 L6.63371845,0.0841748792 C4.76354565,0.0787674527 3.01780473,0.0577405835 1.64131817,0.0102605172 C0.841045344,-0.0175764512 0.145198494,1.13692327 0.175452644,1.98277465 C0.213514722,3.04448448 0.377960217,4.10619431 0.349658398,5.16399632 C0.294516914,7.19950947 0.0588266937,9.23160397 0.0456505532,11.2656524 C0.00173287807,18.0964408 -0.0241292253,24.9282062 0.0324758093,31.7585054 C0.0866411282,38.3197153 0.293053363,44.8799483 0.351610729,51.441646 C0.380401329,54.6282402 0.0793233777,62.04751 0.0895710214,62.3131821 C0.118849006,63.0906619 0.0432136306,63.9013512 0.768827247,63.9863269 L11.5442149,63.9863269 L11.5442149,63.9863269 C12.6948515,63.9697228 12.7397454,63.5897734 12.7739028,62.3673913 C12.7763425,62.2785078 12.769022,62.1901135 12.769022,62.1012314 L12.7622135,58.096096 L12.7622135,58.096096 L12.7471323,49.8933479 C12.7434648,48.5368707 12.73889,47.1963951 12.7329122,45.8879381 C12.7255917,44.2919547 12.6553231,42.6959713 12.6182372,41.0995002 C12.5299145,37.2897503 12.5621195,15.3791686 12.5011225,14.2647157 C13.4443721,14.7608964 13.506344,15.641422 13.7517931,16.3593214 C15.0712687,20.2144893 16.3595139,24.08089 17.5999383,27.9619423 C19.4332485,33.7007423 21.0977183,39.4961931 23.0579007,45.1900628 C24.8453408,50.3823793 27.7419397,56.6432429 29.1658413,61.958628 C29.3668853,62.7092477 29.576226,63.520914 30.4516468,63.9863282 C33.3653251,63.5082164 39.4137322,63.9863282 40.2691465,63.9863282 C42.1205136,63.9863269 41.8296833,64.3037664 42.645572,61.8795127 Z M94.9407926,65 C96.4635381,65 97.9762893,64.782566 99.4408871,64.338484 C102.786204,63.3240998 105.303824,60.577614 107.475281,58.4677679 C107.630645,58.3166698 107.771472,58.274288 107.843248,58.3019282 C107.925018,58.3314114 107.949549,58.4742179 107.956818,58.5341038 C108.029503,59.1633727 108.233929,60.2809469 108.431994,60.8862617 C108.587358,61.3579824 108.820859,61.7090091 108.908081,62.1512479 C109.14249,63.3425275 109.792109,63.8068774 111.137686,63.7737094 C111.461133,63.7626539 111.992641,63.7801594 112.301551,63.8004288 C113.577168,63.8815063 114.148651,63.8621578 115.258003,63.799508 C115.734997,63.77279 116.254693,63.7838455 116.755309,63.7939802 C117.174155,63.8031941 117.589367,63.8105649 117.986408,63.7995094 C119.586381,63.7525221 119.845321,62.915033 119.947989,61.6251705 C119.989783,61.108304 120.006137,60.5914376 119.99796,60.0883906 C119.963434,58.0937108 119.920732,56.1008727 119.878938,54.1080346 C119.808074,50.7718979 119.735389,47.3215158 119.701773,43.9273349 C119.656345,39.4690171 119.644533,35.453859 119.630905,31.2037614 C119.624545,29.3159548 119.620002,27.3977442 119.610007,25.3993783 L119.610007,25.1229792 C119.610007,24.6770556 119.610007,24.2154696 119.559128,23.7612544 C119.461912,22.9062599 118.795937,22.2235537 117.938257,22.1019374 C117.397664,22.0254668 116.84526,22.0190168 116.374626,22.0263876 C115.565099,22.0365223 114.791006,22.0291515 114.021456,22.0217807 C113.125616,22.0144099 112.198886,22.0070391 111.240355,22.0245446 C111.0859,22.0273085 110.85876,22.0208585 110.604363,22.0144085 C110.098295,22.0005891 109.524084,21.9858475 109.221534,22.0263862 C107.977716,22.1940691 107.915025,23.2388574 107.859603,24.1611086 C107.849608,24.3278692 107.856877,24.4964729 107.864146,24.6650765 C107.867779,24.7701081 107.87323,24.8760605 107.872322,24.982013 C107.865962,26.4800957 107.862328,27.9265842 107.857785,29.3463547 C107.845973,33.6167217 107.833254,37.651227 107.773288,42.1574544 C107.738763,44.7638975 107.396235,48.4980495 104.830462,50.8336227 C101.327056,54.0241903 96.3236177,54.3577115 92.37956,51.66282 C88.3546404,48.9126482 88.5427129,44.2129423 88.7244249,39.6670984 C88.7634923,38.7098361 88.8025597,37.7203267 88.798926,36.78057 C88.7907493,34.8089235 88.775304,32.8381978 88.7598586,30.865629 L88.7226074,25.2538052 L88.7226074,25.2538052 C88.7216993,25.0446628 88.7216993,24.9258118 88.6917167,24.8493412 C88.6898992,24.8078816 88.6889911,24.7452318 88.6889911,24.649414 C88.68354,22.8712461 88.3946187,22.0245432 86.7655719,22.0245432 C86.1604708,22.0245432 85.4345311,22.0328348 84.6904206,22.0411265 C83.6946386,22.0531042 82.6679659,22.0641597 81.8593484,22.0577097 C81.5786038,22.0549459 81.2978592,22.047575 81.0171146,22.0411251 C80.5083206,22.0300695 79.9822652,22.0180918 79.463477,22.0300695 C77.6754323,22.074293 77.1975304,22.5414082 77.1412001,24.2993068 C77.1375665,24.4071023 77.1402921,24.513977 77.1430176,24.6208516 C77.1439257,24.6945583 77.1457432,24.7691859 77.1448351,24.8428926 C77.1275723,27.3268 77.1075839,29.6439454 77.0885035,31.9159466 C77.0539778,35.9624296 77.0203615,39.8605783 76.9996384,44.2829643 C76.9767511,49.2636763 78.0652051,56.0197924 82.9995924,60.3039788 C86.5302552,63.3701663 90.7723205,65 94.9407926,65 Z M148.14318,65 C151.046214,65 155.674599,64.8898427 159.433371,63.8497712 C162.266095,63.065817 164.664936,61.6099007 166.764963,59.3975685 C170.320206,55.6549639 171.034401,49.843233 168.462561,45.5782976 C165.958256,41.4226034 162.619491,38.9899565 158.258465,38.1426614 C155.117676,37.5331228 151.868647,37.2632365 148.726932,37.0025305 L147.885996,36.9327645 C146.493687,36.8161807 145.079176,36.7601839 143.709995,36.7060234 C142.07438,36.6408462 140.150125,37.0098745 138.818875,35.8431214 C137.42009,34.6167001 137.157356,32.623765 138.839227,31.6231675 C142.046626,29.7174416 147.594583,30.0203753 149.407823,30.3012769 C151.7012,30.6574536 154.560753,32.088584 156.509986,33.5573519 C156.986423,33.9153635 157.481364,34.244918 158.005908,34.5937506 L158.098421,34.6552551 C158.610013,34.9958263 159.278876,35.0068416 159.80342,34.6855486 C160.224351,34.4257601 160.700788,34.1310879 161.137446,33.8125488 C163.226372,32.2850302 164.928596,31.0117925 166.492978,29.8055669 C166.753863,29.6036116 166.919459,29.2914989 166.946287,28.9481739 C166.974041,28.5947511 166.855626,28.2495911 166.62157,28.0017368 C166.24412,27.6042514 165.665918,27.0231699 165.003531,26.5531646 C161.760977,24.2536246 158.054012,22.6627651 153.673558,21.6897058 C149.806548,20.8295591 145.842399,20.9654197 142.006842,21.097609 L141.586837,21.1122971 C138.69583,21.2114391 135.698435,21.9256274 132.426279,23.2980071 C127.778465,25.2459607 125.210326,28.5249851 124.794021,33.0442 C124.790321,33.0818375 124.78292,33.1185562 124.77737,33.1561937 C124.768118,33.2066829 124.760717,33.257172 124.756091,33.3076612 C124.503533,36.1231055 125.16407,38.5429007 126.720126,40.4981983 C128.483409,42.7160382 130.705552,44.2701776 133.323648,45.119309 C136.600431,46.18233 139.369321,46.7276103 142.036448,46.8359312 C143.793255,46.9075336 145.579666,47.0030029 147.307793,47.0966372 C148.763936,47.1746661 150.221003,47.2526949 151.678071,47.3178721 C153.331264,47.3922283 154.85679,47.8760041 156.343462,48.7967379 C157.314841,49.3989325 157.813481,50.3719918 157.713568,51.4662237 C157.610879,52.5824877 156.89576,53.5876754 155.931783,53.9658827 C150.593829,56.0643849 146.348444,55.9606528 142.510111,55.0105429 C139.797653,54.338581 136.281264,52.5604542 134.917633,50.8860583 L134.471493,50.3892018 L134.471493,50.3892018 L134.004537,49.9267696 C133.749204,49.6789152 133.485543,49.4227995 133.250563,49.1529131 C132.729719,48.5543898 131.967417,48.4222005 131.2597,48.8105056 C130.906302,49.0041994 130.861897,49.0363293 130.613039,49.2153351 C130.411363,49.3612936 130.067217,49.6100668 129.290115,50.1369877 C128.34464,50.7786562 127.416743,51.4790754 126.548053,52.1427745 C126.376905,52.2731275 126.201132,52.4007266 126.024434,52.5301621 C125.560948,52.8679781 125.08081,53.2177282 124.661729,53.6271479 C123.83097,54.4395607 123.779163,55.45301 124.524812,56.3397789 C125.035479,56.9465637 125.564649,57.4569603 126.098445,57.859036 C127.132731,58.6374826 128.241027,59.4554031 129.419633,60.1549034 C134.988868,63.4633025 140.482244,64.899023 147.23286,64.9935749 C147.512247,64.9972462 147.816612,65 148.14318,65 Z M180.184402,64 C180.994308,64 181.791387,63.9954017 182.607706,63.9880446 C184.287986,63.9733305 185.307698,63.8243541 185.313195,61.8996109 C185.41031,60.5155975 185.40298,58.8207568 185.397483,57.3576569 L185.395651,56.9217612 C185.391987,55.3345147 185.406646,53.769338 185.419472,52.246464 C185.476275,51.919083 186.313667,50.9259039 186.619671,50.6536987 C187.012713,50.302407 187.421332,49.9115727 187.846441,49.5032656 C188.921123,48.4723821 190.13415,47.3109141 191.4617,46.475908 C192.891862,48.3638674 194.153446,50.6104741 195.373803,52.7853513 C196.285405,54.4103021 197.147533,55.9460507 198.059135,57.3107517 L198.748105,58.3425543 C199.744913,59.8360015 200.531914,60.8898753 201.648741,62.617822 C202.277243,63.5907696 202.982704,63.9880418 204.083956,63.9880418 L209.012105,63.9852831 C210.856382,63.9825244 212.612705,63.9806848 214.475305,63.9871227 L214.485383,63.9871227 C215.107471,63.9871227 215.603126,63.7379078 215.846831,63.3020121 C216.087788,62.867956 216.042894,62.3207883 215.723146,61.8012092 C215.517922,61.4673959 215.282462,61.1528894 215.053416,60.8494178 C214.961798,60.7261904 214.869264,60.6038821 214.777646,60.477896 C212.169272,56.947513 209.880647,53.5596698 207.667149,50.1598713 C205.468309,46.7821439 203.195259,43.2903844 200.603378,39.7765537 C200.540161,39.6901102 200.471447,39.6064253 200.402733,39.5209022 C200.099477,39.1484599 199.836533,38.8256773 199.930899,38.2647146 C199.991368,38.2003421 200.0555,38.1304523 200.124214,38.0559641 C200.29554,37.8674437 200.490687,37.6522553 200.70141,37.451781 C202.730755,35.509565 204.940588,33.6685052 207.077128,31.8881401 C209.211835,30.1105337 211.41892,28.2722327 213.453763,26.3272579 C213.978735,25.823312 214.402012,25.396613 214.78406,24.9883059 C214.983787,24.7758762 215.134041,24.5202247 215.264139,24.2792873 C215.46295,23.9252369 215.47028,23.4672715 215.284295,23.0819546 C215.112052,22.7251455 214.807879,22.4897255 214.450568,22.4345483 C213.9146,22.3499444 213.367639,22.3297129 212.838085,22.3104004 L212.57056,22.3012038 C212.184846,22.2828118 211.797301,22.2809722 211.409756,22.2791326 C210.652989,22.2754548 209.871485,22.271777 209.137623,22.1393529 C207.626836,21.8607112 206.109637,21.9333597 204.642829,22.0041701 C204.002416,22.0345174 203.342765,22.0657838 202.694107,22.0676234 C202.015215,22.0731409 201.420611,22.3425859 200.871817,22.8934329 C199.312473,24.4668858 197.530497,25.8702102 195.808073,27.2284747 C194.282628,28.4304057 192.704961,29.674638 191.276632,31.0375008 C189.812572,32.4353078 187.381938,34.5310985 185.608207,36.0622487 L185.290292,36.3372126 C185.284795,36.0585709 185.281131,35.7854466 185.277467,35.5114032 C185.267388,34.7913484 185.25731,34.0666952 185.232573,33.2059401 C185.227076,33.073516 185.216998,32.9410919 185.203256,32.8095884 L185.206309,32.4508306 C185.207835,32.2070904 185.209359,31.8696665 185.210879,31.4514208 L185.213912,30.5109778 C185.214417,30.3375472 185.214921,30.1560892 185.215424,29.96708 L185.218432,28.7462229 C185.219931,28.0942986 185.221422,27.3829891 185.222901,26.6251563 L185.225846,25.0512704 C185.226334,24.7798878 185.22682,24.5042888 185.227305,24.2249496 L185.230198,22.5078433 C185.230676,22.215449 185.231154,21.9202672 185.231629,21.6227743 L185.234459,19.8138955 C185.234927,19.5090639 185.235393,19.2028739 185.235857,18.8958021 L185.238616,17.0465983 C185.239982,16.1205156 185.241328,15.19507 185.242651,14.2831234 L185.245744,12.4127929 C185.246245,12.1070334 185.246739,11.8046093 185.247227,11.5060522 L185.25007,9.76536791 C185.250531,9.48440562 185.250986,9.20837361 185.251434,8.9378035 L185.254056,7.38417824 C185.254482,7.13758207 185.254902,6.89751099 185.255317,6.66449661 L185.257747,5.35534338 C185.258142,5.15268216 185.258533,4.95814084 185.258919,4.77225101 L185.262283,3.34718615 C185.262645,3.21798971 185.263004,3.09903956 185.263359,2.99086732 L185.266473,2.32267369 L185.266473,2.32267369 C185.276551,0.806236184 184.739667,0.187339003 183.286601,0.0365230086 C183.05664,0.010774039 182.801025,0.0199707009 182.552739,0.0282468548 C182.399736,0.0337642906 182.248567,0.0383626216 182.110224,0.0346847988 C180.252204,-0.0158940355 178.593912,-0.0112957045 176.890728,0.0493988966 C176.505015,0.0650320993 176.153201,0.0604337683 175.831621,0.0585941553 C174.865047,0.0466387754 174.168748,0.0411213395 173.677673,0.536791109 C173.175605,1.04073703 172.980458,2.01828298 173.00153,3.91268028 C173.015272,4.88746751 173.247982,31.4825903 173.253479,32.6495757 C173.221412,33.9388694 173.247981,35.1821826 173.274549,36.3850328 C173.295621,37.334071 173.314862,38.2316099 173.306616,39.1291489 C173.291041,40.384416 173.313946,41.8971743 173.33685,43.3621125 C173.363419,45.0532753 173.390905,46.8032932 173.359755,48.2314475 C173.316694,50.2582675 173.33685,52.2289912 173.357922,54.1353424 C173.386324,56.7378392 173.411977,59.0681308 173.283712,61.5345256 C173.256226,61.781901 173.254393,62.0504269 173.278213,62.3824062 C173.389988,63.804124 174.259446,63.9356276 175.385435,63.9586178 C177.163746,63.9871255 178.695605,64 180.184402,64 Z" id="Musk-Copy"></path>
        </g>
    </g>
</svg>