<?xml version="1.0" encoding="UTF-8"?>
<svg width="74px" height="23px" viewBox="0 0 74 23" version="1.1" xmlns="http://www.w3.org/2000/svg" xmlns:xlink="http://www.w3.org/1999/xlink">
    <title>Group 3</title>
    <g id="Page-1" stroke="none" stroke-width="1" fill="none" fill-rule="evenodd">
        <g id="Artboard-Copy-8" transform="translate(-49.000000, -20.000000)" fill="#FFFFFF">
            <g id="Group" transform="translate(49.500000, 20.000000)">
                <path d="M6.78860363,18.2743898 C7.51034374,18.2743898 8.66103371,18.2467899 9.59552383,17.9861999 C10.2997837,17.78978 10.8961735,17.425 11.4182735,16.8706999 C12.3021633,15.9329898 12.4797233,14.4768598 11.8403233,13.4082797 C11.2177134,12.3670699 10.3876435,11.7575699 9.30342355,11.54528 C8.52257362,11.39256 7.71481373,11.32494 6.93373357,11.2596201 L6.72466366,11.2421402 C6.37851359,11.2129301 6.02684374,11.1989001 5.68644367,11.1853302 C5.27980384,11.169 4.80140377,11.2614601 4.47043379,10.9691299 C4.1226739,10.6618499 4.05735398,10.1625198 4.47549381,9.91181992 C5.27290377,9.43434004 6.6522138,9.51024011 7.10301394,9.58062006 C7.67318379,9.66986017 8.38411387,10.0284301 8.86872404,10.3964301 C8.9871739,10.4861299 9.11022404,10.5686999 9.240634,10.6560999 L9.263634,10.6715099 C9.39082397,10.75684 9.55711387,10.7595999 9.68752383,10.6790999 C9.7921739,10.6140099 9.91062376,10.5401797 10.0191838,10.4603697 C10.5385238,10.0776497 10.9617237,9.75863983 11.3506538,9.45641985 C11.4155139,9.40581992 11.4566838,9.32762006 11.4633536,9.24159993 C11.4702537,9.15304979 11.4408137,9.06656992 11.3826238,9.00446999 C11.2887837,8.90487994 11.1450337,8.7592899 10.9803536,8.64153001 C10.1742036,8.06537994 9.25259339,7.6667899 8.16354325,7.42298976 C7.20214318,7.20747987 6.21659304,7.24151978 5.26301289,7.27463983 L5.15859304,7.27831992 C4.43984304,7.30315996 3.69464318,7.48209993 2.88113329,7.82594986 C1.72561317,8.31400989 1.08713329,9.13556992 0.983633294,10.2678598 L0.979493462,10.2959198 L0.979493462,10.2959198 C0.977193322,10.3085699 0.97535328,10.32122 0.97420321,10.3338701 C0.911413308,11.03928 1.07563329,11.64556 1.46249346,12.1354601 C1.90087341,12.6911402 2.4533335,13.08053 3.10423357,13.29328 C3.91889353,13.5596201 4.60728336,13.6962401 5.27037341,13.7233799 C5.70714353,13.7413199 6.15127348,13.7652398 6.58091331,13.7886999 C6.94293343,13.80825 7.30518343,13.8278001 7.66743343,13.8441303 C8.07844332,13.8627602 8.45771345,13.9839703 8.82732362,14.2146603 C9.06882362,14.3655403 9.1927936,14.6093404 9.16795356,14.8835004 C9.14242355,15.1631804 8.96463364,15.4150304 8.72497369,15.5097903 C7.39787376,16.0355703 6.34240377,16.0095802 5.38813364,15.77153 C4.71377348,15.6031698 3.8395436,15.15766 3.50052348,14.7381398 C3.43037341,14.6511999 3.35056338,14.5732299 3.27351324,14.4977899 C3.21003336,14.43569 3.14448322,14.3715201 3.08606338,14.3039001 C2.95657327,14.15394 2.76705314,14.1208199 2.59110328,14.2181098 C2.50324311,14.2666398 2.49220321,14.27469 2.43033315,14.3195399 C2.38019332,14.3561098 2.29463329,14.41844 2.10143343,14.5504601 C1.86637341,14.7112302 1.63568343,14.8867203 1.41971345,15.0530102 C1.37716331,15.0856702 1.33346345,15.1176402 1.28953336,15.1500703 C1.17430349,15.2347101 1.05493343,15.32234 0.950743462,15.4249202 C0.744203561,15.6284703 0.731323617,15.8823902 0.916703561,16.1045703 C1.04366366,16.2566003 1.17522369,16.3844802 1.30793379,16.4852203 C1.56507362,16.6802602 1.84061352,16.8851903 2.13363364,17.0604502 C3.51823357,17.8893701 4.88397369,18.24909 6.56228371,18.27278 C6.63174381,18.2736999 6.70741366,18.2743898 6.78860363,18.2743898 Z M13.3754995,18.0000004 C13.4244896,18.0000004 13.5590398,17.9983902 13.7363699,17.9963203 C14.0356766,17.9926402 14.4694055,17.987529 14.8158707,17.9864386 L15.1250373,17.9868903 C15.1689802,17.9872563 15.2084465,17.9877844 15.2424098,17.9885 C15.3222198,17.9901102 15.3946697,17.9924103 15.4604497,17.9947104 C15.7647396,18.0048305 15.9319497,18.0108104 16.0382096,17.9080004 C16.1449296,17.8047558 16.1609671,17.6151903 16.163052,17.2527204 L16.1637898,15.8846903 L16.1637898,15.8846903 C16.1649398,14.9412302 16.1658597,14.0502101 16.1568897,13.0464901 C16.1527499,12.5676299 16.2068,12.1264901 16.3181199,11.7354901 C16.6311499,10.6354001 17.5428699,10.0461402 18.8170698,10.1162903 C21.0823399,10.2425604 21.0984398,11.8672804 21.1140797,13.4386405 L21.1147696,13.4933806 C21.1274197,14.7507906 21.1347799,15.5097906 21.1379999,16.7876705 L21.1370797,16.9691409 L21.1370797,16.9691409 C21.1359296,17.1087511 21.1347795,17.2527309 21.1421397,17.3953309 C21.1598498,17.7470007 21.1474299,17.9947108 21.5876499,17.9947108 L23.7142297,17.9947108 L23.7142297,17.9947108 C24.0097799,17.993791 24.16549,17.8268111 24.1765299,17.4983711 C24.1848099,17.260321 24.1739999,17.051941 24.1668699,16.818721 L24.1618099,16.6540399 C24.1543732,16.3873166 24.1506677,15.8761033 24.1497221,15.2821922 L24.1496606,14.6667075 L24.1496606,14.6667075 L24.1512233,14.0320447 C24.1542938,13.1890218 24.1611199,12.3907344 24.1693999,12.02069 C24.1866499,11.2589301 24.0424398,10.4359901 23.7836898,9.81959004 C23.5030899,9.15052013 23.0053699,8.57321999 22.3448099,8.14956003 C21.4521799,7.57731992 20.34427,7.27303001 19.13999,7.26912006 C18.93414,7.2714202 18.7200101,7.28154025 18.5203703,7.30730014 C17.9702103,7.37883015 17.4515602,7.55524011 16.9793703,7.83215996 C16.7010701,7.99568997 16.4940701,8.14749011 16.32824,8.30964018 C16.2261199,8.40969032 16.1394098,8.51526024 16.0704098,8.62290007 L16.05477,8.64659004 C16.0409698,8.66752013 16.0278597,8.68776024 16.0156697,8.70685028 C16.0198095,8.62083015 16.0260196,8.53412006 16.0299296,8.47937994 C16.0336097,8.42762994 16.0363696,8.38899011 16.0363696,8.3745 C16.0375196,6.9767899 16.0414296,5.60138983 16.0474095,4.50175989 C16.0478696,4.43689972 16.0568395,4.37180968 16.0662696,4.30303955 C16.0752396,4.23817938 16.0844395,4.17101942 16.0860496,4.10293927 L16.0936397,3.78622917 C16.1046796,3.36141914 16.1159497,2.92234923 16.1074398,2.48994916 C16.1009999,2.16564902 15.9324098,1.99199895 15.5917799,1.95887889 L15.57039,1.95680898 C15.50599,1.95013913 15.4397499,1.94369916 15.37374,1.95680933 C14.9933201,2.03339937 14.6202601,1.99889937 14.2258102,1.96232945 L14.1883201,1.95887959 C14.0155902,1.94277966 13.8442403,1.96301978 13.6784102,1.98233969 C13.6091803,1.99038983 13.5413304,1.99843997 13.4760104,2.00327013 L13.4511704,2.00511017 L13.4346104,2.02397034 C13.2115104,2.27743044 13.2064504,2.54837041 13.2016203,2.81080049 L13.1963304,3.06288065 C13.1825302,3.71999081 13.1685002,4.39941066 13.1645902,5.0682507 C13.1599903,5.87555084 13.1576902,6.68308086 13.1556203,7.49061087 C13.1533201,8.31815077 13.15102,9.14569067 13.14642,9.97323058 C13.1455002,10.1059407 13.1015701,12.1998605 13.1162901,12.4024905 C13.13492,12.6598605 13.15424,12.9257405 13.1551598,13.1865604 C13.1569999,13.6185004 13.11721,14.5874905 13.0822499,15.4424004 C13.0465998,16.3078905 13.0160097,17.0372207 13.0263597,17.2147807 C13.0291196,17.2635406 13.0291196,17.3120706 13.0293494,17.3606006 C13.0295793,17.4231607 13.0295793,17.4877906 13.0355592,17.5524205 C13.0576393,17.7948404 13.1871294,17.9703305 13.3754995,18.0000004 Z M30.9966359,18.2743902 C32.9254159,18.2743902 34.7329858,17.47606 35.8549258,16.0866299 C36.6477358,15.1047599 37.0819759,13.8645999 37.0465561,12.6840099 C37.0040056,11.2720399 36.3540257,9.8225798 35.3082157,8.80666985 C34.2787358,7.80708969 32.5397058,7.17596964 30.8901458,7.20080968 C27.6650858,7.24795975 25.2183456,9.38120975 24.9402757,12.3886896 C24.8006656,13.8977196 25.3075854,15.4410198 26.2625455,16.4164499 C27.3433156,17.52022 29.1442157,18.23644 30.8512757,18.27278 C30.8998057,18.2739301 30.9481059,18.2743902 30.9966359,18.2743902 Z M30.9685759,15.6721698 C30.255346,15.64825 29.515436,15.3823701 28.938596,14.94284 C28.2529661,14.42028 27.874156,13.6139001 27.8992259,12.7307002 C27.9254459,11.7971303 28.3978658,10.9307203 29.1630759,10.4132203 C29.685406,10.0599403 30.3310162,9.87870021 30.9646663,9.87870021 C31.4476663,9.87870021 31.9237662,9.98404025 32.3327062,10.1986303 C33.0657161,10.5831903 33.6349661,11.2301804 33.8557662,11.9298404 C33.9341963,12.1780102 33.9857164,12.4369901 34.0133163,12.7215 C34.0951963,13.5630699 33.5383661,14.42672 33.0367362,14.9108701 C32.499686,15.4285999 31.765066,15.69816 30.9685759,15.6721698 Z M43.0145482,22.2428114 C43.2185581,22.2428114 43.4310782,22.2331515 43.6755683,22.2145215 C44.2547082,22.1705914 44.9233183,22.1055014 45.5325885,21.8872313 C45.8237685,21.7828114 46.2826185,21.5852415 46.6184186,21.3713414 C46.7729786,21.2726716 46.9282286,21.1629615 47.0800288,21.0454315 C47.6403088,20.6121116 48.061669,20.0504516 48.3680291,19.3287115 C48.632759,18.7054114 48.7604091,17.9526215 48.7581395,17.0588414 L48.7569582,16.4422101 C48.7558081,15.7273701 48.7544281,14.9879202 48.7468381,14.2606603 C48.744538,14.0557302 48.7443081,13.8503404 48.7440782,13.6449506 C48.7431584,13.0370607 48.7424684,12.4084707 48.6881884,11.7936808 C48.6263183,11.0949407 48.6329882,10.3840106 48.6394281,9.6965406 C48.642878,9.3170406 48.6465581,8.92466066 48.6387382,8.53826059 C48.6366683,8.43913065 48.6497784,8.34023058 48.6633483,8.23535063 C48.6757682,8.14105049 48.6886481,8.04376059 48.6893381,7.94624046 C48.6904882,7.82825035 48.6548381,7.72659039 48.5865281,7.65230049 C48.5168381,7.57663065 48.4197781,7.53615077 48.3059281,7.5350007 C47.6805581,7.52994067 47.027128,7.54259074 46.3067678,7.54259074 C45.8099677,7.54259074 45.8660878,8.99458086 45.8649377,8.99757097 C45.8649377,8.99757097 44.4352576,6.63110098 41.1324575,7.53776094 C39.7450973,7.91864088 38.6880171,8.85014088 38.1169271,10.0277408 C37.0531771,12.220791 37.3406771,14.9925208 38.8004871,16.6179308 C39.7759172,17.7037609 40.9939974,18.3197009 42.4089575,18.3197009 C43.7986174,18.3197009 45.1220373,18.0207009 45.9019673,16.6913008 C45.9093275,17.0625208 45.7283176,18.1412207 45.6445976,18.3875508 C45.3193777,19.3432009 44.3285376,19.6330011 43.7666478,19.720631 C43.0186877,19.8377009 42.4738176,19.7664008 41.7854278,19.6044809 C41.1034779,19.443941 40.6933879,19.1286109 40.2149878,18.6380208 C39.9976379,18.4149209 39.8640079,18.3332708 39.5836379,18.5520007 C39.3938879,18.6994308 39.3120079,18.7836109 39.225068,18.8726208 C39.1500881,18.9496709 39.072348,19.0292511 38.9147979,19.1601211 C38.8154377,19.2424612 38.6990577,19.3570011 38.5863579,19.4680911 C38.5028678,19.5502013 38.4214479,19.6304714 38.351068,19.6934915 C38.2215779,19.8096416 38.1971979,19.9950215 38.2931079,20.1344015 C38.3347378,20.1948916 38.3786679,20.2496317 38.4237481,20.2977016 C39.4718582,21.4060717 40.4827082,21.9435816 41.912848,22.1524216 C42.3362781,22.2140614 42.6631082,22.2428114 43.0145482,22.2428114 Z M43.1277092,15.7395618 C42.9519892,15.7340417 42.7822491,15.7177115 42.6230892,15.6910314 C41.2161792,15.4545914 40.2515591,14.0610215 40.4272791,12.5186416 C40.580229,11.1761317 41.6557089,10.1572316 42.9846488,10.0958217 C43.0331788,10.0935215 43.0812488,10.0923715 43.1293187,10.0923715 C43.8630185,10.0923715 44.5290987,10.3529615 45.0169288,10.8341215 C45.5090138,11.3190381 45.7861893,11.9844632 45.808772,12.7246332 L45.8085888,12.9321815 C45.8338889,13.7670816 45.5470789,14.5596617 44.6802089,15.2728916 C44.277479,15.6038616 43.5771291,15.7556617 43.1277092,15.7395618 Z M54.4642644,18.2732391 C54.8497443,18.2732391 55.2326942,18.218959 55.603454,18.1080989 C56.4503142,17.854869 57.0876444,17.1692391 57.6373442,16.6425392 C57.6766744,16.6048192 57.7123244,16.5942391 57.7304943,16.6011391 C57.7511942,16.6084993 57.7574042,16.6441494 57.7592443,16.6590992 C57.7776444,16.8161893 57.8293944,17.0951794 57.8795342,17.2462896 C57.9188643,17.3640494 57.9779745,17.4516794 58.0000547,17.5620795 C58.0593947,17.8594693 58.2238446,17.9753891 58.5644745,17.9671091 C58.6463545,17.9643492 58.7809046,17.9687193 58.8591045,17.9737793 C59.1820243,17.9940194 59.3266942,17.9891893 59.6075243,17.9735494 C59.7282743,17.9668796 59.8598343,17.9696395 59.9865642,17.9721695 C60.0925942,17.9744696 60.1977044,17.9763097 60.2982143,17.9735498 C60.7032443,17.9618199 60.7687944,17.75275 60.7947845,17.43075 C60.8053647,17.30172 60.8095045,17.17269 60.8074346,17.0471098 C60.7986945,16.54916 60.7878845,16.0516698 60.7773043,15.5541797 C60.7593654,14.7213499 60.7409653,13.86 60.7324554,13.0126801 C60.7209554,11.8997101 60.7179653,10.8973701 60.7145155,9.83637994 C60.7129053,9.36510982 60.7117552,8.88624965 60.7092252,8.38737959 L60.7092252,8.31837959 C60.7092252,8.20705968 60.7092252,8.0918298 60.6963453,7.97843997 C60.6717351,7.765 60.5031451,7.59456992 60.286025,7.56420975 C60.1491751,7.54511971 60.009335,7.54350954 59.8901952,7.54534958 C59.6852651,7.54787959 59.489305,7.54603955 59.294495,7.54419951 C59.067715,7.54235947 58.833115,7.54051942 58.590465,7.54488948 C58.551365,7.54557945 58.493865,7.54396928 58.429465,7.54235912 C58.3013548,7.53890926 58.1559946,7.53522917 58.0794046,7.54534923 C57.7645345,7.5872094 57.7486645,7.84802931 57.7346345,8.07825919 C57.7321045,8.11988913 57.7339445,8.16197917 57.7357845,8.20406921 C57.7367044,8.2302892 57.7380843,8.25673906 57.7378545,8.28318892 C57.7362443,8.65716879 57.7353244,9.01826872 57.7341744,9.37269881 C57.7311843,10.4387489 57.7279643,11.4459188 57.7127842,12.5708489 C57.7040441,13.2215187 57.617334,14.1537087 56.9678139,14.7367588 C56.0809339,15.5332489 54.8143237,15.6165088 53.8158937,14.9437588 C52.7969936,14.2572087 52.8446038,13.0839788 52.8906038,11.9491589 C52.9004936,11.7101889 52.9103834,11.4631688 52.9094636,11.2285689 C52.9073937,10.736369 52.9034837,10.244399 52.8995737,9.75196893 C52.8958937,9.28506886 52.8922136,8.81816879 52.8901437,8.35103885 C52.8899138,8.29882875 52.8899138,8.26915891 52.8823237,8.25006886 C52.8818636,8.23971893 52.8816338,8.2240791 52.8816338,8.20015926 C52.8802538,7.75625919 52.807114,7.54488913 52.3947242,7.54488913 C52.2415441,7.54488913 52.057774,7.54695905 51.8694039,7.54902896 C51.6173237,7.55201907 51.3574237,7.55477896 51.1527238,7.55316879 C51.0816539,7.55247882 51.010584,7.55063878 50.9395141,7.54902861 C50.8107139,7.54626872 50.6775441,7.54327861 50.5462139,7.54626872 C50.0935741,7.55730862 49.9725942,7.67391879 49.9583343,8.11275883 C49.9574145,8.13966879 49.9581045,8.16634888 49.9587944,8.19302896 C49.9590243,8.21142903 49.9594844,8.23005898 49.9592545,8.24845905 C49.9548845,8.8685392 49.9498244,9.44698906 49.9449943,10.0141691 C49.9362542,11.0243291 49.9277443,11.997459 49.9225898,13.101459 C49.9167044,14.344839 50.1922443,16.031429 51.4413742,17.100929 C52.3351542,17.866369 53.4090243,18.2732391 54.4642644,18.2732391 Z M64.5035261,17.9979283 C64.9251161,17.9942482 65.1813361,17.9569884 65.182716,17.4753683 C65.1900762,17.3677285 65.1949064,17.2501985 65.1985864,17.1264583 C65.2064064,16.8345883 65.2050264,16.5351282 65.2036465,16.2756882 L65.2034166,16.222328 C65.2022665,15.767618 65.2070967,15.3915678 65.2116966,15.0279379 C65.2176765,14.576678 65.2231966,14.1502581 65.2179067,13.5975682 C65.2149166,13.2320982 65.2091666,12.8668581 65.2011164,12.512428 L65.2047965,12.5050678 L65.2022665,12.4864379 C65.2073265,11.3520777 66.1705667,10.1710276 67.1844067,10.0562574 C68.0505868,9.95827756 68.7185066,10.1130675 69.1656267,10.5169474 C69.6067665,10.9150773 69.8259565,11.5478072 69.8169865,12.3981172 C69.8146864,12.6547973 69.8151465,12.9112472 69.8158364,13.1676971 C69.8165264,13.4264471 69.8172164,13.6851971 69.8146864,13.943487 C69.8142263,13.985899 69.8138767,14.0423778 69.8136173,14.1105718 L69.8130892,14.3479484 C69.8129401,14.481858 69.8129484,14.6368362 69.8130457,14.8049464 L69.8135363,15.340737 C69.8137203,15.490973 69.8139042,15.6442634 69.8140477,15.7965234 L69.8140991,16.6650402 C69.8137385,16.9286386 69.8128921,17.155437 69.8112362,17.3127571 C69.808936,17.5641469 69.8314759,17.755737 69.9478559,17.8730371 C70.0322658,17.958137 70.157846,17.9979269 70.3427658,17.9979269 C70.5746059,17.9979269 70.8140359,17.9974668 71.0550758,17.9967769 C71.5412958,17.9956268 72.0337259,17.9944767 72.4831458,17.9979266 C72.6455257,17.9979266 72.7915758,17.8518764 72.802156,17.6798365 C72.809746,17.5749566 72.807906,17.4689266 72.806066,17.3665766 L72.8053767,17.2725099 C72.8026168,17.0356098 72.7987068,16.8440198 72.7950268,16.6347196 C72.7885868,16.2690198 72.7826069,15.9233298 72.7832969,15.5104799 C72.7842167,15.0727899 72.7906567,14.6346398 72.7968668,14.19672 C72.8095169,13.31053 72.822627,12.3939799 72.7892771,11.4921497 C72.7522471,10.5001596 72.3663071,9.47596964 71.730127,8.68131956 C71.6546871,8.58724965 71.572347,8.49593962 71.4854071,8.41037959 C70.8756772,7.80938948 69.977067,7.4147094 68.954947,7.29901942 C68.208597,7.21483934 66.8083569,7.18677931 65.8207369,7.94554944 C65.699757,8.03915961 65.1806468,8.85726978 64.8448467,9.33267973 C64.8205905,9.21283203 64.7974489,9.07497901 64.7759675,8.93231797 L64.7353798,8.64449554 C64.6846453,8.26261222 64.6483025,7.90910362 64.6366963,7.83422987 C64.6061062,7.63711971 64.3804763,7.58950954 64.1879664,7.5699594 C64.1297764,7.5637493 64.0651465,7.56581921 64.0028163,7.56788913 C63.9646362,7.56926907 63.9271461,7.57041914 63.8926461,7.56972917 L63.8096161,7.56742903 C63.483246,7.55845905 63.4834759,7.55822917 63.1713657,7.56972917 L63.0683258,7.57317903 C62.9705758,7.57708899 62.881566,7.57593892 62.8008361,7.57547882 C62.5151761,7.57248871 62.3088661,7.57064867 62.194096,7.78891879 C62.1188859,7.92898871 62.0882958,8.15346858 62.0919759,8.53940855 C62.093816,8.6615385 62.107156,8.96145834 62.1214159,9.27908829 C62.137746,9.64133829 62.1545359,10.0157783 62.1552259,10.1517083 C62.1469459,10.4748584 62.153846,10.7865085 62.1605158,11.0880385 C62.1655758,11.3249386 62.1706359,11.5482687 62.168566,11.7720586 C62.1644261,12.0862387 62.170406,12.4648189 62.176156,12.8312087 C62.1828258,13.2541787 62.1894957,13.6916388 62.1816758,14.0485989 C62.1708657,14.5559788 62.1761556,15.0488687 62.1814456,15.5256586 C62.1883456,16.1763284 62.1950155,16.7676586 62.1628156,17.3842885 C62.1559155,17.4459283 62.1554554,17.5153884 62.1614353,17.5963485 C62.1892655,17.9519287 62.4075356,17.9848185 62.6904357,17.9905685 C63.0252582,17.995916 63.3252789,17.9990641 63.6119416,18.0003039 L63.8949459,18.0009184 C64.0982658,18.0009184 64.298596,17.9997684 64.5035261,17.9979283 Z" id="shogun" fill-rule="nonzero"></path>
                <rect id="Rectangle" x="50.5" y="21" width="22" height="2"></rect>
            </g>
        </g>
    </g>
</svg>