<?xml version="1.0" encoding="UTF-8"?>
<svg width="42px" height="24px" viewBox="0 0 42 24" version="1.1" xmlns="http://www.w3.org/2000/svg" xmlns:xlink="http://www.w3.org/1999/xlink">
    <title>Group 5</title>
    <g id="Page-1" stroke="none" stroke-width="1" fill="none" fill-rule="evenodd">
        <g id="Artboard-Copy-8" transform="translate(-368.000000, -80.000000)" fill="#FFFFFF" fill-rule="nonzero">
            <g id="Group-5" transform="translate(368.000000, 80.000000)">
                <path d="M3.9043454,18.9967593 C4.05007965,18.9967593 4.17099091,18.8854568 4.1838028,18.7405234 L4.8572226,11.0198166 L5.5306424,18.7405234 C5.54345428,18.8854568 5.66436554,18.9967593 5.81009979,18.9967593 L7.57412354,18.9967593 C7.71985779,18.9967593 7.84076904,18.8854568 7.85358093,18.7405234 L9.0250592,5.30095245 C9.03947235,5.13760193 8.91055389,4.99667236 8.74640289,4.99667236 L7.95127075,4.99667236 C7.8055365,4.99667236 7.68462524,5.10797485 7.67181335,5.25290833 L6.59802429,17.5626392 C6.59642303,17.5818567 6.56759644,17.5818567 6.56599518,17.5626392 L5.49140594,5.25290833 C5.47939484,5.10797485 5.3576828,4.99667236 5.21274933,4.99667236 L4.50169464,4.99667236 C4.35676117,4.99667236 4.23504913,5.10797485 4.22303802,5.25290833 L3.14764832,17.5730487 C3.14604706,17.5922662 3.11722046,17.5922662 3.1156192,17.5730487 L2.04102997,5.25290833 C2.02821808,5.10797485 1.90730682,4.99667236 1.76157257,4.99667236 L0.970444336,4.99667236 C0.806293335,4.99667236 0.677374573,5.13760223 0.690987244,5.30095245 L1.86406708,18.7405234 C1.87687897,18.8854568 1.99779022,18.9967593 2.14352448,18.9967593 L3.9043454,18.9967593 Z M13.7044617,18.9967596 C13.8590039,18.9967596 13.9847198,18.8710437 13.9847198,18.7165015 L13.9847198,18.1087421 C13.9847198,17.9541998 13.8590039,17.8284839 13.7044617,17.8284839 L12.7876178,17.8284839 C12.6330756,17.8284839 12.5073596,17.7027679 12.5073596,17.5482257 L12.5073596,12.8575079 C12.5073596,12.7029657 12.6330756,12.5772498 12.7876178,12.5772498 L13.7044617,12.5772498 C13.8590039,12.5772498 13.9847198,12.4515338 13.9847198,12.2969916 L13.9847198,11.6892322 C13.9847198,11.5346899 13.8590039,11.408974 13.7044617,11.408974 L12.7876178,11.408974 C12.6330756,11.408974 12.5073596,11.2832581 12.5073596,11.1287158 L12.5073596,6.44520477 C12.5073596,6.29066254 12.6330756,6.16494659 12.7876178,6.16494659 L13.7044617,6.16494659 C13.8590039,6.16494659 13.9847198,6.03923065 13.9847198,5.88468842 L13.9847198,5.27693054 C13.9847198,5.12238831 13.8590039,4.99667236 13.7044617,4.99667236 L11.3102579,4.99667236 C11.1557156,4.99667236 11.0299997,5.12238831 11.0299997,5.27693054 L11.0299997,18.7165015 C11.0299997,18.8710437 11.1557156,18.9967596 11.3102579,18.9967596 L13.7044617,18.9967596 Z M17.1871017,18.9967603 C17.341644,18.9967603 17.4673599,18.871044 17.4673599,18.7165018 L17.4673599,12.8575089 C17.4673599,12.7029666 17.5930759,12.5772507 17.7476181,12.5772507 L18.2248572,12.5772507 C18.6228235,12.5772507 18.9455206,12.8999478 18.9455206,13.2979141 L18.9455206,18.7165021 C18.9455206,18.8710443 19.0712366,18.9967603 19.2257788,18.9967603 L20.1426227,18.9967603 C20.2971649,18.9967603 20.4228809,18.8710443 20.4228809,18.7165021 L20.4228809,13.4108182 C20.4228809,12.8567081 20.1978735,12.3554468 19.8335382,11.9927127 C20.1970728,11.6307794 20.4228809,11.1295181 20.4228809,10.575408 L20.4228809,6.99851532 C20.4228809,5.89269745 19.5268555,4.99667267 18.4210376,4.99667267 L16.2702579,4.99667267 C16.1157156,4.99667267 15.9899997,5.12238861 15.9899997,5.27693085 L15.9899997,18.7165018 C15.9899997,18.871044 16.1157156,18.9967603 16.2702579,18.9967603 L17.1871017,18.9967603 Z M18.2248569,11.4089752 L17.7476178,11.4089752 C17.5930756,11.4089752 17.4673596,11.2832593 17.4673596,11.128717 L17.4673596,6.44520599 C17.4673596,6.29066376 17.5930756,6.16494781 17.7476178,6.16494781 L18.2248569,6.16494781 C18.6228232,6.16494781 18.9455203,6.48764496 18.9455203,6.88561127 L18.9455203,10.6883118 C18.9455203,11.0862781 18.6228232,11.4089752 18.2248569,11.4089752 Z M24.8602371,18.9967596 C25.966055,18.9967596 26.8620798,18.1007349 26.8620798,16.994917 L26.8620798,6.99851562 C26.8620798,5.89269775 25.966055,4.99667297 24.8602371,4.99667297 L22.7102582,4.99667297 C22.5549152,4.99667297 22.43,5.12238892 22.43,5.27693115 L22.43,18.7165015 C22.43,18.8710437 22.5557159,18.9967596 22.7102582,18.9967596 L24.8602371,18.9967596 Z M24.6640567,17.8284845 L24.1876181,17.8284845 C24.0330759,17.8284845 23.9073599,17.7027686 23.9073599,17.5482263 L23.9073599,6.44520599 C23.9073599,6.29066376 24.0330759,6.16494781 24.1876181,6.16494781 L24.6640567,6.16494781 C25.062023,6.16494781 25.3847202,6.48764496 25.3847202,6.88561127 L25.3847202,17.1078207 C25.3847202,17.505787 25.062023,17.8284845 24.6640567,17.8284845 Z M31.301037,18.9967593 C32.4068549,18.9967593 33.3028796,18.1007346 33.3028796,16.9949167 L33.3028796,5.27693054 C33.3028796,5.12238831 33.1771637,4.99667236 33.0226215,4.99667236 L32.1057776,4.99667236 C31.9512354,4.99667236 31.8255194,5.12238831 31.8255194,5.27693054 L31.8255206,17.1078207 C31.8255206,17.505787 31.5028235,17.8284842 31.1048572,17.8284842 L31.0680231,17.8284842 C30.6700568,17.8284842 30.3473596,17.505787 30.3473596,17.1078207 L30.3473596,5.27693054 C30.3473596,5.12238831 30.2216437,4.99667236 30.0671014,4.99667236 L29.1502576,4.99667236 C28.9957153,4.99667236 28.8699994,5.12238831 28.8699994,5.27693054 L28.8699994,16.9949167 C28.8699994,18.1007346 29.7660242,18.9967593 30.871842,18.9967593 L31.301037,18.9967593 Z M36.3189285,18.9975607 C36.4734708,18.9975607 36.5991867,18.8718448 36.5991867,18.7173026 L36.5991867,10.4913309 L37.5961044,17.5874628 C37.615322,17.7259903 37.7338312,17.8284845 37.8739603,17.8284845 L38.7339517,17.8284845 C38.87328,17.8284845 38.9917892,17.7251895 39.0118076,17.5874628 L40.0167325,10.4344785 L40.0167325,18.7165018 C40.0167325,18.871044 40.1424484,18.9967599 40.2969907,18.9967599 L41.0176541,18.9967599 C41.1721964,18.9967599 41.2979123,18.871044 41.2979123,18.7165018 L41.2979123,5.27773163 C41.2979123,5.12318939 41.1729974,4.99747345 41.0176544,4.99747345 L40.0968069,4.99747345 C39.9574786,4.99747345 39.8389694,5.10076843 39.8197519,5.23849518 L38.3528012,15.6753021 C38.3447937,15.730553 38.2655206,15.730553 38.2575131,15.6753021 L36.7913635,5.23849518 C36.7713452,5.10076843 36.652836,4.99747345 36.5135077,4.99747345 L35.5902579,4.99747345 C35.4357156,4.99747345 35.3099997,5.12318939 35.3099997,5.27773163 L35.3099997,18.7173026 C35.3099997,18.8718448 35.4357156,18.9975607 35.5902579,18.9975607 L36.3189285,18.9975607 Z" id="WERDUM"></path>
                <polygon id="Line-3" points="42 0 42 1 0 1 0 0"></polygon>
                <polygon id="Line-3-Copy" points="42 23 42 24 0 24 0 23"></polygon>
            </g>
        </g>
    </g>
</svg>