<?xml version="1.0" encoding="UTF-8"?>
<svg width="70px" height="16px" viewBox="0 0 70 16" version="1.1" xmlns="http://www.w3.org/2000/svg" xmlns:xlink="http://www.w3.org/1999/xlink">
    <title>Group 7</title>
    <g id="Page-1" stroke="none" stroke-width="1" fill="none" fill-rule="evenodd">
        <g id="Artboard-Copy-8" transform="translate(-539.000000, -83.000000)" fill="#FFFFFF">
            <g id="Group-7" transform="translate(539.835000, 83.000000)">
                <path d="M5.07,15 C6.915,15 8.175,13.74 8.175,11.91 C8.175,10.95 7.485,10.095 6.75,9.735 C6.675,9.705 6.675,9.615 6.75,9.585 C7.38,9.27 7.92,8.355 7.92,7.53 C7.92,5.85 6.765,4.44 5.07,4.44 L0.075,4.44 C0.03,4.44 -3.41060513e-13,4.47 -3.41060513e-13,4.515 L-3.41060513e-13,14.925 C-3.41060513e-13,14.97 0.03,15 0.075,15 L5.07,15 Z M4.815,8.82 L1.86,8.82 C1.815,8.82 1.8,8.79 1.8,8.745 L1.8,6.15 C1.8,6.12 1.815,6.09 1.86,6.09 L4.92,6.09 C5.715,6.09 6.15,6.795 6.15,7.53 C6.15,8.25 5.46,8.79 4.815,8.82 Z M4.815,13.35 L1.875,13.35 C1.83,13.35 1.8,13.32 1.8,13.275 L1.8,10.545 C1.8,10.515 1.8,10.47 1.86,10.47 L4.92,10.47 C5.715,10.47 6.375,11.175 6.375,11.91 C6.375,12.645 5.61,13.35 4.815,13.35 Z M16.935,15 C16.98,15 17.01,14.97 17.01,14.925 L17.01,13.425 C17.01,13.38 16.98,13.35 16.935,13.35 L11.4,13.35 C11.355,13.35 11.325,13.32 11.325,13.275 L11.325,10.545 C11.325,10.5 11.355,10.47 11.4,10.47 L16.185,10.47 C16.23,10.47 16.26,10.44 16.26,10.395 L16.26,8.895 C16.26,8.85 16.23,8.82 16.185,8.82 L11.4,8.82 C11.355,8.82 11.325,8.79 11.325,8.745 L11.325,6.165 C11.325,6.12 11.355,6.09 11.4,6.09 L16.935,6.09 C16.98,6.09 17.01,6.06 17.01,6.015 L17.01,4.515 C17.01,4.47 16.98,4.44 16.935,4.44 L9.6,4.44 C9.555,4.44 9.525,4.47 9.525,4.515 L9.525,14.925 C9.525,14.97 9.555,15 9.6,15 L16.935,15 Z M25.44,15 C25.485,15 25.515,14.97 25.515,14.925 L25.515,13.425 C25.515,13.38 25.485,13.35 25.44,13.35 L20.34,13.35 C20.295,13.35 20.28,13.335 20.28,13.29 L20.28,4.515 C20.28,4.47 20.25,4.44 20.205,4.44 L18.555,4.44 C18.51,4.44 18.48,4.47 18.48,4.515 L18.48,14.925 C18.48,14.97 18.51,15 18.555,15 L25.44,15 Z M28.335,15 C28.38,15 28.41,14.97 28.41,14.925 L28.41,10.53 C28.41,10.5 28.425,10.47 28.47,10.47 L33.27,10.47 C33.315,10.47 33.345,10.44 33.345,10.395 L33.345,8.895 C33.345,8.85 33.315,8.82 33.27,8.82 L28.47,8.82 C28.425,8.82 28.41,8.805 28.41,8.76 L28.41,6.15 C28.41,6.105 28.425,6.09 28.47,6.09 L34.02,6.09 C34.065,6.09 34.095,6.06 34.095,6.015 L34.095,4.515 C34.095,4.47 34.065,4.44 34.02,4.44 L26.685,4.44 C26.64,4.44 26.61,4.47 26.61,4.515 L26.61,14.925 C26.61,14.97 26.64,15 26.685,15 L28.335,15 Z M39.465,15.15 C42.63,15.15 44.22,12.9 44.22,9.72 C44.22,6.54 42.63,4.29 39.465,4.29 C36.3,4.29 34.71,6.54 34.71,9.72 C34.71,12.9 36.3,15.15 39.465,15.15 Z M39.465,13.5 C37.605,13.5 36.585,12.075 36.585,9.72 C36.585,7.365 37.605,5.94 39.465,5.94 C41.325,5.94 42.345,7.365 42.345,9.72 C42.345,12.075 41.325,13.5 39.465,13.5 Z M47.43,15 C47.475,15 47.505,14.97 47.505,14.925 L47.505,11.01 C47.505,10.965 47.52,10.95 47.565,10.95 L49.875,10.95 C49.92,10.95 49.965,10.965 49.995,11.025 L51.735,14.955 C51.75,14.97 51.78,15 51.81,15 L53.535,15 C53.595,15 53.64,14.955 53.61,14.895 L51.705,10.605 C51.69,10.575 51.69,10.56 51.705,10.545 C52.665,10.005 53.34,8.955 53.34,7.695 C53.34,5.865 51.87,4.44 50.175,4.44 L45.78,4.44 C45.735,4.44 45.705,4.47 45.705,4.515 L45.705,14.925 C45.705,14.97 45.735,15 45.78,15 L47.43,15 Z M50.085,9.3 L47.58,9.3 C47.535,9.3 47.505,9.27 47.505,9.225 L47.505,6.15 C47.505,6.12 47.52,6.09 47.565,6.09 L50.025,6.09 C50.82,6.09 51.555,6.81 51.555,7.695 C51.555,8.565 50.85,9.3 50.085,9.3 Z M58.425,15 C58.47,15 58.5,14.97 58.5,14.925 L58.5,6.165 C58.5,6.12 58.53,6.09 58.575,6.09 L61.35,6.09 C61.395,6.09 61.425,6.06 61.425,6.015 L61.425,4.515 C61.425,4.47 61.395,4.44 61.35,4.44 L53.85,4.44 C53.805,4.44 53.775,4.47 53.775,4.515 L53.775,6.015 C53.775,6.06 53.805,6.09 53.85,6.09 L56.625,6.09 C56.67,6.09 56.7,6.12 56.7,6.165 L56.7,14.925 C56.7,14.97 56.73,15 56.775,15 L58.425,15 Z" id="BELFORT" fill-rule="nonzero"></path>
                <polygon id="Path" points="65.3743023 5 65.6068605 2.6744186 64.0952326 4.47674419 63.6882558 4.06976744 65.4905814 2.55813953 63.165 2.79069767 63.165 2.20930233 65.4905814 2.44186047 63.6882558 0.930232558 64.0952326 0.523255814 65.6068605 2.3255814 65.3743023 0 65.9556977 0 65.7231395 2.3255814 67.2347674 0.523255814 67.6417442 0.930232558 65.8394186 2.44186047 68.165 2.20930233 68.165 2.79069767 65.8394186 2.55813953 67.6417442 4.06976744 67.2347674 4.47674419 65.7231395 2.6744186 65.9556977 5"></polygon>
            </g>
        </g>
    </g>
</svg>