<?xml version="1.0" encoding="UTF-8"?>
<svg width="41px" height="22px" viewBox="0 0 41 22" version="1.1" xmlns="http://www.w3.org/2000/svg" xmlns:xlink="http://www.w3.org/1999/xlink">
    <title>Group 4</title>
    <g id="Page-1" stroke="none" stroke-width="1" fill="none" fill-rule="evenodd">
        <g id="Artboard-Copy-8" transform="translate(-280.000000, -26.000000)" fill="#FFFFFF">
            <g id="Group-4" transform="translate(280.000000, 26.703125)">
                <path d="M9.44140625,5.41796875 C9.71223958,5.41796875 9.95442708,5.40690104 10.1679687,5.38476562 C10.3815104,5.36263021 10.577474,5.33072917 10.7558594,5.2890625 C10.9342448,5.24739583 11.1002604,5.1953125 11.2539062,5.1328125 C11.4075521,5.0703125 11.5598958,4.99869792 11.7109375,4.91796875 L11.7109375,4.91796875 L11.7109375,2.640625 L9.859375,2.640625 L9.859375,2.94921875 L10.8398437,2.94921875 L10.8398437,4.765625 C10.6940104,4.88020833 10.5299479,4.96809896 10.3476562,5.02929688 C10.1653646,5.09049479 9.9609375,5.12109375 9.734375,5.12109375 C9.421875,5.12109375 9.12890625,5.06575521 8.85546875,4.95507812 C8.58203125,4.84440104 8.34440104,4.68619792 8.14257812,4.48046875 C7.94075521,4.27473958 7.78190104,4.02539062 7.66601562,3.73242188 C7.55013021,3.43945313 7.4921875,3.11067708 7.4921875,2.74609375 C7.4921875,2.38411458 7.54557292,2.05664062 7.65234375,1.76367188 C7.75911458,1.47070312 7.90820312,1.22070312 8.09960937,1.01367188 C8.29101562,0.806640625 8.51888021,0.647786458 8.78320312,0.537109375 C9.04752604,0.426432292 9.3359375,0.37109375 9.6484375,0.37109375 C9.99479167,0.37109375 10.3014323,0.468098958 10.5683594,0.662109375 C10.8352865,0.856119792 11.078125,1.16276042 11.296875,1.58203125 L11.296875,1.58203125 L11.671875,1.33203125 C11.5651042,1.15755208 11.4375,0.990234375 11.2890625,0.830078125 C11.140625,0.669921875 10.9707031,0.528645833 10.7792969,0.40625 C10.5878906,0.283854167 10.375651,0.185546875 10.1425781,0.111328125 C9.90950521,0.037109375 9.65625,0 9.3828125,0 C9.09635417,0 8.82552083,0.0338541667 8.5703125,0.1015625 C8.31510417,0.169270833 8.07942708,0.264322917 7.86328125,0.38671875 C7.64713542,0.509114583 7.453125,0.654947917 7.28125,0.82421875 C7.109375,0.993489583 6.96354167,1.18033854 6.84375,1.38476562 C6.72395833,1.58919271 6.63216146,1.80664062 6.56835937,2.03710938 C6.50455729,2.26757812 6.47265625,2.50390625 6.47265625,2.74609375 C6.47265625,2.98828125 6.50651042,3.22330729 6.57421875,3.45117188 C6.64192708,3.67903646 6.73763021,3.89192708 6.86132812,4.08984375 C6.98502604,4.28776042 7.13541667,4.46809896 7.3125,4.63085938 C7.48958333,4.79361979 7.68815104,4.93359375 7.90820312,5.05078125 C8.12825521,5.16796875 8.3671875,5.25846354 8.625,5.32226562 C8.8828125,5.38606771 9.15494792,5.41796875 9.44140625,5.41796875 Z M16.8830492,5.296875 L16.8830492,4.9609375 L14.1525805,4.9609375 L14.1525805,2.640625 L15.9807055,2.640625 L15.9807055,2.3046875 L14.1525805,2.3046875 L14.1525805,0.453125 L16.8830492,0.453125 L16.8830492,0.1171875 L13.2814867,0.1171875 L13.2814867,5.296875 L16.8830492,5.296875 Z M20.773911,5.41796875 C21.0421402,5.41796875 21.2986506,5.38541667 21.5434422,5.3203125 C21.7882339,5.25520833 22.0167495,5.16276042 22.2289891,5.04296875 C22.4412287,4.92317708 22.633286,4.77994792 22.805161,4.61328125 C22.977036,4.44661458 23.1248224,4.26171875 23.2485204,4.05859375 C23.3722183,3.85546875 23.4672704,3.63802083 23.5336766,3.40625 C23.6000829,3.17447917 23.633286,2.93229167 23.633286,2.6796875 C23.633286,2.43229167 23.6000829,2.19401042 23.5336766,1.96484375 C23.4672704,1.73567708 23.3722183,1.52213542 23.2485204,1.32421875 C23.1248224,1.12630208 22.977036,0.945963542 22.805161,0.783203125 C22.633286,0.620442708 22.4412287,0.481119792 22.2289891,0.365234375 C22.0167495,0.249348958 21.7882339,0.159505208 21.5434422,0.095703125 C21.2986506,0.0319010417 21.0421402,0 20.773911,0 C20.508286,0 20.2524266,0.0319010417 20.0063329,0.095703125 C19.7602391,0.159505208 19.5317235,0.249348958 19.320786,0.365234375 C19.1098485,0.481119792 18.9177912,0.620442708 18.7446141,0.783203125 C18.571437,0.945963542 18.4236506,1.12630208 18.3012547,1.32421875 C18.1788589,1.52213542 18.0844579,1.73567708 18.0180516,1.96484375 C17.9516454,2.19401042 17.9184422,2.43229167 17.9184422,2.6796875 C17.9184422,3.05729167 17.9920099,3.41210938 18.1391454,3.74414063 C18.2862808,4.07617188 18.4881037,4.36653646 18.7446141,4.61523438 C19.0011245,4.86393229 19.3032079,5.05989583 19.6508641,5.203125 C19.9985204,5.34635417 20.3728693,5.41796875 20.773911,5.41796875 Z M20.773911,5.16015625 C20.4718277,5.16015625 20.2068537,5.09830729 19.9789891,4.97460938 C19.7511245,4.85091146 19.5597183,4.67838542 19.4047704,4.45703125 C19.2498224,4.23567708 19.133286,3.97395833 19.055161,3.671875 C18.977036,3.36979167 18.9379735,3.0390625 18.9379735,2.6796875 C18.9379735,2.32291667 18.977036,1.99609375 19.055161,1.69921875 C19.133286,1.40234375 19.2498224,1.14648438 19.4047704,0.931640625 C19.5597183,0.716796875 19.7511245,0.550130208 19.9789891,0.431640625 C20.2068537,0.313151042 20.4718277,0.25390625 20.773911,0.25390625 C21.070786,0.25390625 21.3331558,0.313151042 21.5610204,0.431640625 C21.7888849,0.550130208 21.9809422,0.716796875 22.1371922,0.931640625 C22.2934422,1.14648438 22.4112808,1.40234375 22.4907079,1.69921875 C22.5701349,1.99609375 22.6098485,2.32291667 22.6098485,2.6796875 C22.6098485,3.0390625 22.5701349,3.36979167 22.4907079,3.671875 C22.4112808,3.97395833 22.2934422,4.23567708 22.1371922,4.45703125 C21.9809422,4.67838542 21.7888849,4.85091146 21.5610204,4.97460938 C21.3331558,5.09830729 21.070786,5.16015625 20.773911,5.16015625 Z M25.918679,5.296875 L25.918679,2.86328125 L26.528054,2.86328125 L28.3288352,5.296875 L29.340554,5.296875 L27.4538352,2.78515625 C27.6413352,2.73828125 27.8132102,2.67382812 27.9694602,2.59179688 C28.1257102,2.50976562 28.2591738,2.41210938 28.3698509,2.29882812 C28.4805279,2.18554688 28.5664654,2.05859375 28.6276634,1.91796875 C28.6888613,1.77734375 28.7194602,1.62630208 28.7194602,1.46484375 C28.7194602,1.26953125 28.6797467,1.08919271 28.6003196,0.923828125 C28.5208925,0.758463542 28.403054,0.615885417 28.246804,0.49609375 C28.090554,0.376302083 27.8952415,0.283203125 27.6608665,0.216796875 C27.4264915,0.150390625 27.1543561,0.1171875 26.8444602,0.1171875 L26.8444602,0.1171875 L25.0475852,0.1171875 L25.0475852,5.296875 L25.918679,5.296875 Z M26.4225852,2.6015625 L25.918679,2.6015625 L25.918679,0.44140625 L26.684304,0.44140625 C26.8431581,0.44140625 26.9896425,0.467447917 27.1237571,0.51953125 C27.2578717,0.571614583 27.3737571,0.643880208 27.4714134,0.736328125 C27.5690696,0.828776042 27.6445904,0.940104167 27.6979759,1.0703125 C27.7513613,1.20052083 27.778054,1.34375 27.778054,1.5 C27.778054,1.66927083 27.7441998,1.82161458 27.6764915,1.95703125 C27.6087831,2.09244792 27.5143821,2.20768229 27.3932884,2.30273438 C27.2721946,2.39778646 27.1289654,2.47135417 26.9636009,2.5234375 C26.7982363,2.57552083 26.6178977,2.6015625 26.4225852,2.6015625 L26.4225852,2.6015625 Z M33.0282907,5.41796875 C33.2991241,5.41796875 33.5413116,5.40690104 33.7548532,5.38476562 C33.9683949,5.36263021 34.1643584,5.33072917 34.3427438,5.2890625 C34.5211293,5.24739583 34.6871449,5.1953125 34.8407907,5.1328125 C34.9944366,5.0703125 35.1467803,4.99869792 35.297822,4.91796875 L35.297822,4.91796875 L35.297822,2.640625 L33.4462595,2.640625 L33.4462595,2.94921875 L34.4267282,2.94921875 L34.4267282,4.765625 C34.2808949,4.88020833 34.1168324,4.96809896 33.9345407,5.02929688 C33.7522491,5.09049479 33.547822,5.12109375 33.3212595,5.12109375 C33.0087595,5.12109375 32.7157907,5.06575521 32.4423532,4.95507812 C32.1689157,4.84440104 31.9312855,4.68619792 31.7294626,4.48046875 C31.5276397,4.27473958 31.3687855,4.02539062 31.2529001,3.73242188 C31.1370147,3.43945313 31.079072,3.11067708 31.079072,2.74609375 C31.079072,2.38411458 31.1324574,2.05664062 31.2392282,1.76367188 C31.3459991,1.47070312 31.4950876,1.22070312 31.6864938,1.01367188 C31.8779001,0.806640625 32.1057647,0.647786458 32.3700876,0.537109375 C32.6344105,0.426432292 32.922822,0.37109375 33.235322,0.37109375 C33.5816761,0.37109375 33.8883168,0.468098958 34.1552438,0.662109375 C34.4221709,0.856119792 34.6650095,1.16276042 34.8837595,1.58203125 L34.8837595,1.58203125 L35.2587595,1.33203125 C35.1519886,1.15755208 35.0243845,0.990234375 34.875947,0.830078125 C34.7275095,0.669921875 34.5575876,0.528645833 34.3661813,0.40625 C34.1747751,0.283854167 33.9625355,0.185546875 33.7294626,0.111328125 C33.4963897,0.037109375 33.2431345,0 32.969697,0 C32.6832386,0 32.4124053,0.0338541667 32.157197,0.1015625 C31.9019886,0.169270833 31.6663116,0.264322917 31.4501657,0.38671875 C31.2340199,0.509114583 31.0400095,0.654947917 30.8681345,0.82421875 C30.6962595,0.993489583 30.5504261,1.18033854 30.4306345,1.38476562 C30.3108428,1.58919271 30.2190459,1.80664062 30.1552438,2.03710938 C30.0914418,2.26757812 30.0595407,2.50390625 30.0595407,2.74609375 C30.0595407,2.98828125 30.0933949,3.22330729 30.1611032,3.45117188 C30.2288116,3.67903646 30.3245147,3.89192708 30.4482126,4.08984375 C30.5719105,4.28776042 30.7223011,4.46809896 30.8993845,4.63085938 C31.0764678,4.79361979 31.2750355,4.93359375 31.4950876,5.05078125 C31.7151397,5.16796875 31.954072,5.25846354 32.2118845,5.32226562 C32.469697,5.38606771 32.7418324,5.41796875 33.0282907,5.41796875 Z M40.4699337,5.296875 L40.4699337,4.9609375 L37.739465,4.9609375 L37.739465,2.640625 L39.56759,2.640625 L39.56759,2.3046875 L37.739465,2.3046875 L37.739465,0.453125 L40.4699337,0.453125 L40.4699337,0.1171875 L36.8683712,0.1171875 L36.8683712,5.296875 L40.4699337,5.296875 Z M8.3359375,12.4179688 C8.64322917,12.4179688 8.91276042,12.3789062 9.14453125,12.3007812 C9.37630208,12.2226562 9.5703125,12.1165365 9.7265625,11.9824219 C9.8828125,11.8483073 10,11.6907552 10.078125,11.5097656 C10.15625,11.328776 10.1953125,11.1354167 10.1953125,10.9296875 C10.1953125,10.7473958 10.1536458,10.5826823 10.0703125,10.4355469 C9.98697917,10.2884115 9.87630208,10.1529948 9.73828125,10.0292969 C9.60026042,9.90559896 9.44335937,9.79166667 9.26757812,9.6875 C9.09179687,9.58333333 8.91276042,9.48307292 8.73046875,9.38671875 C8.54817708,9.29036458 8.36914062,9.1953125 8.19335937,9.1015625 C8.01757812,9.0078125 7.86067708,8.91080729 7.72265625,8.81054688 C7.58463542,8.71028646 7.47395833,8.60351562 7.390625,8.49023438 C7.30729167,8.37695312 7.265625,8.25260417 7.265625,8.1171875 C7.265625,8.02083333 7.28580729,7.92643229 7.32617187,7.83398438 C7.36653646,7.74153646 7.42773437,7.65820312 7.50976562,7.58398438 C7.59179687,7.50976562 7.69401042,7.44986979 7.81640625,7.40429688 C7.93880208,7.35872396 8.08203125,7.3359375 8.24609375,7.3359375 C8.43098958,7.3359375 8.59700521,7.36132812 8.74414062,7.41210938 C8.89127604,7.46289062 9.02083333,7.53515625 9.1328125,7.62890625 C9.24479167,7.72265625 9.34114583,7.83528646 9.421875,7.96679688 C9.50260417,8.09830729 9.56901042,8.24348958 9.62109375,8.40234375 L9.62109375,8.40234375 L10.0664062,8.19921875 C10.0039062,8.00390625 9.921875,7.83203125 9.8203125,7.68359375 C9.71875,7.53515625 9.59505208,7.41015625 9.44921875,7.30859375 C9.30338542,7.20703125 9.13411458,7.13020833 8.94140625,7.078125 C8.74869792,7.02604167 8.52994792,7 8.28515625,7 C8.01432292,7 7.77408854,7.03515625 7.56445312,7.10546875 C7.35481771,7.17578125 7.17838542,7.27278646 7.03515625,7.39648438 C6.89192708,7.52018229 6.78320312,7.66666667 6.70898437,7.8359375 C6.63476562,8.00520833 6.59765625,8.18880208 6.59765625,8.38671875 C6.59765625,8.58463542 6.63867187,8.75976562 6.72070312,8.91210938 C6.80273437,9.06445312 6.91015625,9.20247396 7.04296875,9.32617188 C7.17578125,9.44986979 7.32747396,9.56184896 7.49804687,9.66210938 C7.66861979,9.76236979 7.84244792,9.85807292 8.01953125,9.94921875 C8.19661458,10.0403646 8.37044271,10.1315104 8.54101562,10.2226562 C8.71158854,10.3138021 8.86328125,10.4108073 8.99609375,10.5136719 C9.12890625,10.6165365 9.23632812,10.7298177 9.31835937,10.8535156 C9.40039062,10.9772135 9.44140625,11.1184896 9.44140625,11.2773438 C9.44140625,11.4101562 9.41145833,11.5266927 9.3515625,11.6269531 C9.29166667,11.7272135 9.21223958,11.811849 9.11328125,11.8808594 C9.01432292,11.9498698 8.90234375,12.0019531 8.77734375,12.0371094 C8.65234375,12.0722656 8.52604167,12.0898438 8.3984375,12.0898438 C8.22916667,12.0898438 8.06966146,12.0651042 7.91992187,12.015625 C7.77018229,11.9661458 7.63411458,11.8951823 7.51171875,11.8027344 C7.38932292,11.7102865 7.28190104,11.5976562 7.18945312,11.4648438 C7.09700521,11.3320312 7.0234375,11.1809896 6.96875,11.0117188 L6.96875,11.0117188 L6.50390625,11.203125 C6.57161458,11.3958333 6.65885417,11.5670573 6.765625,11.7167969 C6.87239583,11.8665365 7.00065104,11.9934896 7.15039062,12.0976562 C7.30013021,12.2018229 7.47265625,12.28125 7.66796875,12.3359375 C7.86328125,12.390625 8.0859375,12.4179688 8.3359375,12.4179688 Z M11.3986742,12.296875 L12.2150805,10.5703125 L14.4377367,10.5703125 L15.2267992,12.296875 L16.113518,12.296875 L13.676018,7 L13.457268,7 L10.9611742,12.296875 L11.3986742,12.296875 Z M14.2775805,10.234375 L12.3674242,10.234375 L13.3361742,8.18359375 L14.2775805,10.234375 Z M17.945786,12.296875 L17.945786,7.1171875 L17.0746922,7.1171875 L17.0746922,12.296875 L17.945786,12.296875 Z M23.903054,12.4179688 L23.903054,7.1171875 L23.5202415,7.1171875 L23.5202415,10.90625 L23.481179,10.90625 L20.0866477,7.1171875 L19.5983665,7.1171875 L19.5983665,12.296875 L19.9928977,12.296875 L19.9928977,8.20703125 L20.0241477,8.20703125 L23.699929,12.4179688 L23.903054,12.4179688 Z M27.7470407,12.296875 L27.7470407,7.453125 L29.6220407,7.453125 L29.6220407,7.1171875 L25.000947,7.1171875 L25.000947,7.453125 L26.875947,7.453125 L26.875947,12.296875 L27.7470407,12.296875 Z M7.57421875,19.296875 L7.57421875,16.9023438 C7.62369792,16.9127604 7.6875,16.9231771 7.765625,16.9335938 C7.84375,16.9440104 7.92838542,16.953125 8.01953125,16.9609375 C8.11067708,16.96875 8.20572917,16.9746094 8.3046875,16.9785156 C8.40364583,16.9824219 8.49869792,16.984375 8.58984375,16.984375 C8.80078125,16.984375 9.0078125,16.9563802 9.2109375,16.9003906 C9.4140625,16.844401 9.59570312,16.7591146 9.75585937,16.6445312 C9.91601562,16.5299479 10.0449219,16.3854167 10.1425781,16.2109375 C10.2402344,16.0364583 10.2890625,15.8320312 10.2890625,15.5976562 C10.2890625,15.3606771 10.2389323,15.1503906 10.1386719,14.9667969 C10.0384115,14.7832031 9.90039062,14.6282552 9.72460937,14.5019531 C9.54882812,14.375651 9.34244792,14.2799479 9.10546875,14.2148438 C8.86848958,14.1497396 8.61458333,14.1171875 8.34375,14.1171875 L8.34375,14.1171875 L6.703125,14.1171875 L6.703125,19.296875 L7.57421875,19.296875 Z M8.234375,16.7265625 C8.1171875,16.7265625 8.00260417,16.7154948 7.890625,16.6933594 C7.77864583,16.671224 7.67317708,16.6432292 7.57421875,16.609375 L7.57421875,16.609375 L7.57421875,14.5 L8.19140625,14.5 C8.35286458,14.5 8.50455729,14.5273438 8.64648437,14.5820312 C8.78841146,14.6367188 8.91210937,14.7141927 9.01757812,14.8144531 C9.12304687,14.9147135 9.20572917,15.0351562 9.265625,15.1757812 C9.32552083,15.3164062 9.35546875,15.4739583 9.35546875,15.6484375 C9.35546875,15.796875 9.33268229,15.936849 9.28710937,16.0683594 C9.24153646,16.1998698 9.171875,16.3144531 9.078125,16.4121094 C8.984375,16.5097656 8.8671875,16.5865885 8.7265625,16.6425781 C8.5859375,16.6985677 8.421875,16.7265625 8.234375,16.7265625 Z M12.441643,19.296875 L12.441643,14.1171875 L11.5705492,14.1171875 L11.5705492,19.296875 L12.441643,19.296875 Z M17.695786,19.296875 L17.695786,18.9609375 L14.9653172,18.9609375 L14.9653172,16.640625 L16.7934422,16.640625 L16.7934422,16.3046875 L14.9653172,16.3046875 L14.9653172,14.453125 L17.695786,14.453125 L17.695786,14.1171875 L14.0942235,14.1171875 L14.0942235,19.296875 L17.695786,19.296875 Z M19.8327415,19.296875 L19.8327415,16.8632812 L20.4421165,16.8632812 L22.2428977,19.296875 L23.2546165,19.296875 L21.3678977,16.7851562 C21.5553977,16.7382812 21.7272727,16.6738281 21.8835227,16.5917969 C22.0397727,16.5097656 22.1732363,16.4121094 22.2839134,16.2988281 C22.3945904,16.1855469 22.4805279,16.0585938 22.5417259,15.9179688 C22.6029238,15.7773438 22.6335227,15.6263021 22.6335227,15.4648438 C22.6335227,15.2695312 22.5938092,15.0891927 22.5143821,14.9238281 C22.434955,14.7584635 22.3171165,14.6158854 22.1608665,14.4960938 C22.0046165,14.3763021 21.809304,14.2832031 21.574929,14.2167969 C21.340554,14.1503906 21.0684186,14.1171875 20.7585227,14.1171875 L20.7585227,14.1171875 L18.9616477,14.1171875 L18.9616477,19.296875 L19.8327415,19.296875 Z M20.3366477,16.6015625 L19.8327415,16.6015625 L19.8327415,14.4414062 L20.5983665,14.4414062 C20.7572206,14.4414062 20.903705,14.4674479 21.0378196,14.5195312 C21.1719342,14.5716146 21.2878196,14.6438802 21.3854759,14.7363281 C21.4831321,14.828776 21.5586529,14.9401042 21.6120384,15.0703125 C21.6654238,15.2005208 21.6921165,15.34375 21.6921165,15.5 C21.6921165,15.6692708 21.6582623,15.8216146 21.590554,15.9570312 C21.5228456,16.0924479 21.4284446,16.2076823 21.3073509,16.3027344 C21.1862571,16.3977865 21.0430279,16.4713542 20.8776634,16.5234375 C20.7122988,16.5755208 20.5319602,16.6015625 20.3366477,16.6015625 L20.3366477,16.6015625 Z M25.0751657,19.296875 L25.0751657,16.8632812 L25.6845407,16.8632812 L27.485322,19.296875 L28.4970407,19.296875 L26.610322,16.7851562 C26.797822,16.7382812 26.969697,16.6738281 27.125947,16.5917969 C27.282197,16.5097656 27.4156605,16.4121094 27.5263376,16.2988281 C27.6370147,16.1855469 27.7229522,16.0585938 27.7841501,15.9179688 C27.845348,15.7773438 27.875947,15.6263021 27.875947,15.4648438 C27.875947,15.2695312 27.8362334,15.0891927 27.7568063,14.9238281 C27.6773793,14.7584635 27.5595407,14.6158854 27.4032907,14.4960938 C27.2470407,14.3763021 27.0517282,14.2832031 26.8173532,14.2167969 C26.5829782,14.1503906 26.3108428,14.1171875 26.000947,14.1171875 L26.000947,14.1171875 L24.204072,14.1171875 L24.204072,19.296875 L25.0751657,19.296875 Z M25.579072,16.6015625 L25.0751657,16.6015625 L25.0751657,14.4414062 L25.8407907,14.4414062 C25.9996449,14.4414062 26.1461293,14.4674479 26.2802438,14.5195312 C26.4143584,14.5716146 26.5302438,14.6438802 26.6279001,14.7363281 C26.7255563,14.828776 26.8010772,14.9401042 26.8544626,15.0703125 C26.907848,15.2005208 26.9345407,15.34375 26.9345407,15.5 C26.9345407,15.6692708 26.9006866,15.8216146 26.8329782,15.9570312 C26.7652699,16.0924479 26.6708688,16.2076823 26.5497751,16.3027344 C26.4286813,16.3977865 26.2854522,16.4713542 26.1200876,16.5234375 C25.954723,16.5755208 25.7743845,16.6015625 25.579072,16.6015625 L25.579072,16.6015625 Z M33.0480587,19.296875 L33.0480587,18.9609375 L30.31759,18.9609375 L30.31759,16.640625 L32.145715,16.640625 L32.145715,16.3046875 L30.31759,16.3046875 L30.31759,14.453125 L33.0480587,14.453125 L33.0480587,14.1171875 L29.4464962,14.1171875 L29.4464962,19.296875 L33.0480587,19.296875 Z" id="GEORGESAINTPIERRE" fill-rule="nonzero"></path>
                <rect id="Rectangle" x="0" y="0.296875" width="2" height="20"></rect>
            </g>
        </g>
    </g>
</svg>