<?xml version="1.0" encoding="UTF-8"?>
<svg width="54px" height="13px" viewBox="0 0 54 13" version="1.1" xmlns="http://www.w3.org/2000/svg" xmlns:xlink="http://www.w3.org/1999/xlink">
    <title>PENN</title>
    <g id="Page-1" stroke="none" stroke-width="1" fill="none" fill-rule="evenodd">
        <g id="Artboard-Copy-8" transform="translate(-453.000000, -32.000000)" fill="#FFFFFF" fill-rule="nonzero">
            <path d="M458.9005,44 L458.9005,43.601 L458.4065,43.601 C458.077167,43.601 457.795333,43.4838333 457.561,43.2495 C457.326667,43.0151667 457.2095,42.7333333 457.2095,42.404 L457.2095,42.404 L457.2095,38.224 L462.7385,38.224 C463.055167,38.2366667 463.371833,38.1606667 463.6885,37.996 C464.005167,37.8313333 464.283833,37.6033333 464.5245,37.312 C464.765167,37.0206667 464.952,36.6691667 465.085,36.2575 C465.218,35.8458333 465.2655,35.3993333 465.2275,34.918 C465.202167,34.5253333 465.110333,34.177 464.952,33.873 C464.793667,33.569 464.591,33.3093333 464.344,33.094 C464.097,32.8786667 463.8215,32.7013333 463.5175,32.562 C463.2135,32.4226667 462.896833,32.3276667 462.5675,32.277 C462.364833,32.239 462.155833,32.22 461.9405,32.22 L461.9405,32.22 L453.8275,32.22 L453.8275,32.619 L454.3405,32.619 C454.669833,32.619 454.951667,32.7361667 455.186,32.9705 C455.420333,33.2048333 455.5375,33.4866667 455.5375,33.816 L455.5375,33.816 L455.5375,42.404 C455.5375,42.7333333 455.420333,43.0151667 455.186,43.2495 C454.951667,43.4838333 454.669833,43.601 454.3405,43.601 L454.3405,43.601 L453.8275,43.601 L453.8275,44 L458.9005,44 Z M461.5605,37.825 L457.2095,37.825 L457.2095,32.619 C457.260167,32.6316667 457.412167,32.6348333 457.6655,32.6285 C457.918833,32.6221667 458.219667,32.619 458.568,32.619 L458.568,32.619 L459.689,32.619 C460.088,32.619 460.455333,32.6221667 460.791,32.6285 C461.126667,32.6348333 461.411667,32.6475 461.646,32.6665 C461.880333,32.6855 462.010167,32.714 462.0355,32.752 C462.326833,32.866 462.580167,33.037 462.7955,33.265 C463.010833,33.493 463.185,33.7431667 463.318,34.0155 C463.451,34.2878333 463.539667,34.576 463.584,34.88 C463.628333,35.184 463.625167,35.4753333 463.5745,35.754 C463.5365,35.982 463.473167,36.21 463.3845,36.438 C463.295833,36.666 463.185,36.8718333 463.052,37.0555 C462.919,37.2391667 462.7575,37.3975 462.5675,37.5305 C462.3775,37.6635 462.155833,37.749 461.9025,37.787 C461.839167,37.7996667 461.782167,37.8091667 461.7315,37.8155 C461.680833,37.8218333 461.623833,37.8186667 461.5605,37.806 L461.5605,37.806 L461.5605,37.825 Z M475.8485,44.019 C475.873833,43.9683333 475.953,43.8036667 476.086,43.525 C476.219,43.2463333 476.364667,42.9423333 476.523,42.613 C476.681333,42.2836667 476.830167,41.9733333 476.9695,41.682 C477.108833,41.3906667 477.1975,41.2133333 477.2355,41.15 L477.2355,41.15 L475.0505,41.986 L474.2525,43.62 L469.5025,43.62 L469.5025,38.167 L471.5355,38.167 L471.708611,38.1801944 C471.990093,38.2136204 472.236389,38.3042222 472.4475,38.452 C472.700833,38.6293333 472.909833,38.8478333 473.0745,39.1075 C473.239167,39.3671667 473.362667,39.6458333 473.445,39.9435 C473.527333,40.2411667 473.5685,40.5166667 473.5685,40.77 L473.5685,40.77 L473.9675,40.77 L473.9675,35.241 L473.5685,35.241 C473.5685,35.4943333 473.527333,35.7698333 473.445,36.0675 C473.362667,36.3651667 473.239167,36.6438333 473.0745,36.9035 C472.909833,37.1631667 472.700833,37.3816667 472.4475,37.559 C472.194167,37.7363333 471.890167,37.8313333 471.5355,37.844 L471.5355,37.844 L469.5025,37.844 L469.5025,32.638 L474.2525,32.638 L475.0505,34.291 L477.2355,35.127 C477.1975,35.0636667 477.108833,34.8863333 476.9695,34.595 C476.830167,34.3036667 476.681333,33.9901667 476.523,33.6545 C476.364667,33.3188333 476.219,33.0116667 476.086,32.733 C475.953,32.4543333 475.873833,32.2896667 475.8485,32.239 L475.8485,32.239 L466.1205,32.239 L466.1205,32.638 L466.6335,32.638 C466.962833,32.638 467.244667,32.7551667 467.479,32.9895 C467.713333,33.2238333 467.8305,33.5056667 467.8305,33.835 L467.8305,33.835 L467.8305,42.423 C467.8305,42.7523333 467.713333,43.0341667 467.479,43.2685 C467.244667,43.5028333 466.962833,43.62 466.6335,43.62 L466.6335,43.62 L466.1205,43.62 L466.1205,44.019 L475.8485,44.019 Z M482.3845,44 L482.3845,43.601 L481.7955,43.601 C481.466167,43.601 481.1875,43.4838333 480.9595,43.2495 C480.7315,43.0151667 480.6175,42.7333333 480.6175,42.404 L480.6175,42.404 L480.6175,33.816 L489.4905,44 L490.9915,43.259 L490.1555,42.271 L490.1555,33.816 C490.1555,33.4866667 490.272667,33.2048333 490.507,32.9705 C490.741333,32.7361667 491.023167,32.619 491.3525,32.619 L491.3525,32.619 L491.9415,32.619 L491.9415,32.22 L487.7805,32.22 L487.7805,32.619 L488.5785,32.619 C488.907833,32.619 489.1865,32.7361667 489.4145,32.9705 C489.6425,33.2048333 489.7565,33.4866667 489.7565,33.816 L489.7565,33.816 L489.7565,41.815 L481.8715,32.619 L481.5295,32.22 L478.2425,32.22 L478.2425,32.619 C478.419833,32.619 478.590833,32.6158333 478.7555,32.6095 C478.920167,32.6031667 479.0785,32.6158333 479.2305,32.6475 C479.3825,32.6791667 479.528167,32.733 479.6675,32.809 C479.806833,32.885 479.927167,33.0116667 480.0285,33.189 L480.0285,33.189 L480.09006,33.30528 C480.16302,33.46336 480.1995,33.6336 480.1995,33.816 L480.1995,33.816 L480.1995,42.404 C480.1995,42.7333333 480.0855,43.0151667 479.8575,43.2495 C479.6295,43.4838333 479.350833,43.601 479.0215,43.601 L479.0215,43.601 L478.2425,43.601 L478.2425,44 L482.3845,44 Z M496.9195,44 L496.9195,43.601 L496.3305,43.601 C496.001167,43.601 495.7225,43.4838333 495.4945,43.2495 C495.2665,43.0151667 495.1525,42.7333333 495.1525,42.404 L495.1525,42.404 L495.1525,33.816 L504.0255,44 L505.5265,43.259 L504.6905,42.271 L504.6905,33.816 C504.6905,33.4866667 504.807667,33.2048333 505.042,32.9705 C505.276333,32.7361667 505.558167,32.619 505.8875,32.619 L505.8875,32.619 L506.4765,32.619 L506.4765,32.22 L502.3155,32.22 L502.3155,32.619 L503.1135,32.619 C503.442833,32.619 503.7215,32.7361667 503.9495,32.9705 C504.1775,33.2048333 504.2915,33.4866667 504.2915,33.816 L504.2915,33.816 L504.2915,41.815 L496.4065,32.619 L496.0645,32.22 L492.7775,32.22 L492.7775,32.619 C492.954833,32.619 493.125833,32.6158333 493.2905,32.6095 C493.455167,32.6031667 493.6135,32.6158333 493.7655,32.6475 C493.9175,32.6791667 494.063167,32.733 494.2025,32.809 C494.341833,32.885 494.462167,33.0116667 494.5635,33.189 L494.5635,33.189 L494.62506,33.30528 C494.69802,33.46336 494.7345,33.6336 494.7345,33.816 L494.7345,33.816 L494.7345,42.404 C494.7345,42.7333333 494.6205,43.0151667 494.3925,43.2495 C494.1645,43.4838333 493.885833,43.601 493.5565,43.601 L493.5565,43.601 L492.7775,43.601 L492.7775,44 L496.9195,44 Z" id="PENN"></path>
        </g>
    </g>
</svg>