<?xml version="1.0" encoding="UTF-8"?>
<svg width="51px" height="14px" viewBox="0 0 51 14" version="1.1" xmlns="http://www.w3.org/2000/svg" xmlns:xlink="http://www.w3.org/1999/xlink">
    <title>ALDO</title>
    <g id="Page-1" stroke="none" stroke-width="1" fill="none" fill-rule="evenodd">
        <g id="Artboard-Copy-8" transform="translate(-277.000000, -86.000000)" fill="#FFFFFF" fill-rule="nonzero">
            <path d="M280.464,99 C280.74,99 280.878,98.898 280.878,98.694 L280.878,98.694 L280.878,98.64 C280.878,98.52 280.797,98.397 280.635,98.271 C280.473,98.145 280.332,98.001 280.212,97.839 C280.092,97.677 280.074,97.488 280.158,97.272 L280.158,97.272 L280.68,95.832 L285.702,95.832 L286.242,97.272 C286.326,97.488 286.308,97.677 286.188,97.839 C286.068,98.001 285.927,98.145 285.765,98.271 C285.603,98.397 285.522,98.52 285.522,98.64 L285.522,98.64 L285.522,98.694 C285.522,98.898 285.654,99 285.918,99 L285.918,99 L289.86,99 C290.124,99 290.256,98.898 290.256,98.694 L290.256,98.694 L290.256,98.64 C290.256,98.496 290.121,98.304 289.851,98.064 C289.581,97.824 289.386,97.56 289.266,97.272 L289.266,97.272 L284.964,86.994 C284.736,86.478 284.37,86.22 283.866,86.22 L283.866,86.22 L281.994,86.22 C281.754,86.22 281.634,86.316 281.634,86.508 L281.634,86.508 L281.634,86.58 C281.634,86.652 281.763,86.856 282.021,87.192 C282.279,87.528 282.36,87.822 282.264,88.074 L282.264,88.074 L278.682,97.272 C278.562,97.572 278.37,97.839 278.106,98.073 C277.842,98.307 277.71,98.496 277.71,98.64 L277.71,98.64 L277.71,98.694 C277.71,98.898 277.842,99 278.106,99 L278.106,99 L280.464,99 Z M285.27,94.662 L281.112,94.662 L283.164,89.064 L285.27,94.662 Z M299.706,99 C300.006,99 300.192,98.826 300.264,98.478 L300.264,98.478 L300.732,95.958 C300.792,95.694 300.69,95.562 300.426,95.562 L300.426,95.562 L300.21,95.562 C300.042,95.562 299.871,95.685 299.697,95.931 C299.523,96.177 299.367,96.444 299.229,96.732 C299.091,97.02 298.896,97.287 298.644,97.533 C298.392,97.779 298.116,97.902 297.816,97.902 L297.816,97.902 L295.224,97.902 C294.972,97.902 294.783,97.806 294.657,97.614 C294.531,97.422 294.468,97.182 294.468,96.894 L294.468,96.894 L294.468,87.948 C294.468,87.66 294.597,87.393 294.855,87.147 C295.113,86.901 295.242,86.712 295.242,86.58 L295.242,86.58 L295.242,86.508 C295.242,86.316 295.098,86.22 294.81,86.22 L294.81,86.22 L291.426,86.22 C291.162,86.22 291.03,86.316 291.03,86.508 L291.03,86.508 L291.03,86.58 C291.03,86.712 291.144,86.901 291.372,87.147 C291.6,87.393 291.714,87.66 291.714,87.948 L291.714,87.948 L291.714,97.272 C291.714,97.548 291.6,97.815 291.372,98.073 C291.144,98.331 291.03,98.52 291.03,98.64 L291.03,98.64 L291.03,98.694 C291.03,98.898 291.162,99 291.426,99 L291.426,99 L299.706,99 Z M307.122,99 C309.186,99 310.857,98.418 312.135,97.254 C313.413,96.09 314.052,94.548 314.052,92.628 C314.052,90.756 313.344,89.22 311.928,88.02 C310.512,86.82 308.628,86.22 306.276,86.22 L306.276,86.22 L302.172,86.22 C301.896,86.22 301.758,86.316 301.758,86.508 L301.758,86.508 L301.758,86.58 C301.758,86.7 301.875,86.889 302.109,87.147 C302.343,87.405 302.46,87.672 302.46,87.948 L302.46,87.948 L302.46,97.272 C302.46,97.548 302.343,97.815 302.109,98.073 C301.875,98.331 301.758,98.52 301.758,98.64 L301.758,98.64 L301.758,98.694 C301.758,98.898 301.896,99 302.172,99 L302.172,99 L307.122,99 Z M307.392,97.902 L306.474,97.902 C306.054,97.902 305.727,97.767 305.493,97.497 C305.259,97.227 305.142,96.846 305.142,96.354 L305.142,96.354 L305.142,88.074 C305.142,87.57 305.382,87.318 305.862,87.318 L305.862,87.318 L306.204,87.318 C307.62,87.318 308.811,87.948 309.777,89.208 C310.743,90.468 311.226,91.992 311.226,93.78 C311.226,95.064 310.869,96.072 310.155,96.804 C309.441,97.536 308.52,97.902 307.392,97.902 L307.392,97.902 Z M321.522,99.18 C323.298,99.18 324.783,98.568 325.977,97.344 C327.171,96.12 327.768,94.566 327.768,92.682 C327.768,90.81 327.168,89.235 325.968,87.957 C324.768,86.679 323.268,86.04 321.468,86.04 C319.596,86.04 318.075,86.655 316.905,87.885 C315.735,89.115 315.15,90.702 315.15,92.646 C315.15,94.482 315.762,96.03 316.986,97.29 C318.21,98.55 319.722,99.18 321.522,99.18 Z M322.278,98.01 C321.462,98.01 320.706,97.641 320.01,96.903 C319.314,96.165 318.771,95.22 318.381,94.068 C317.991,92.916 317.796,91.728 317.796,90.504 C317.796,89.508 318.039,88.71 318.525,88.11 C319.011,87.51 319.668,87.21 320.496,87.21 C321.312,87.21 322.074,87.594 322.782,88.362 C323.49,89.13 324.042,90.093 324.438,91.251 C324.834,92.409 325.032,93.576 325.032,94.752 C325.032,95.7 324.78,96.48 324.276,97.092 C323.772,97.704 323.106,98.01 322.278,98.01 Z" id="ALDO"></path>
        </g>
    </g>
</svg>