<?xml version="1.0" encoding="utf-8"?>
<!DOCTYPE svg PUBLIC "-//W3C//DTD SVG 1.1//EN" "http://www.w3.org/Graphics/SVG/1.1/DTD/svg11.dtd">
<svg version="1.1" xmlns="http://www.w3.org/2000/svg" width="1450px" height="400px" viewBox="0 0 1450 400" preserveAspectRatio="xMidYMid meet">
 <g fill="#ffffff" stroke="#ffffff" stroke-width="0.5">
  <path d="M48 199.50 l0 -149.50 149.25 0.10 149.25 0.15 0 149.25 0.05 149.25 -149.30 0.15 -149.25 0.10 0 -149.50z m292 0 l0 -142 -141.75 0 -141.75 0 0 142 0 142 141.75 0 141.75 0 0 -142z"/>
  <path d="M66.50 325.80 c0 -3.40 0.15 -6.90 0.30 -7.75 0.30 -1.35 0.50 -1.55 2 -1.55 1.65 0 1.70 0.05 1.70 2.15 0 1.15 0.35 4.15 0.75 6.60 1.15 7 1.25 6.75 -2 6.75 l-2.75 0 0 -6.20z"/>
  <path d="M80.55 324.65 c-1.30 -8.35 -9.85 -59.60 -11.75 -70.65 -2.35 -13.40 -3.05 -29.25 -1.55 -35.60 2.45 -10.65 6.70 -18.05 15 -26 3.05 -2.95 3.75 -3.40 5.35 -3.40 2.15 0 1.95 -0.60 3.65 9.25 0.75 4.15 1.75 9.85 2.25 12.75 0.55 2.90 1.30 7.15 1.70 9.50 0.75 4.20 2.50 13.95 4.05 22.75 0.45 2.50 1.25 7 1.75 10 0.55 3.05 1.65 9.20 2.45 13.75 0.80 4.55 2.05 11.65 2.75 15.75 0.75 4.15 1.75 9.85 2.30 12.75 0.50 2.90 1.65 9.30 2.50 14.25 0.85 4.95 2 11.30 2.55 14.15 0.50 2.85 0.95 5.80 0.95 6.65 l0 1.45 -16.40 0 -16.40 0 -1.15 -7.35z"/>
  <path d="M124.30 331.15 c-0.25 -0.90 -1 -5.10 -2.55 -13.90 -0.45 -2.45 -1.15 -6.40 -1.55 -8.75 -0.40 -2.35 -1.30 -7.50 -2 -11.50 -1.40 -7.95 -2.15 -12.10 -5.20 -29.25 -2.60 -14.65 -3.65 -20.45 -5.50 -31 -0.80 -4.65 -2.15 -12.30 -3 -17 -1.70 -9.60 -2.95 -16.75 -4.50 -25.50 -0.60 -3.30 -1.25 -7 -1.50 -8.25 -0.20 -1.25 -0.80 -4.55 -1.25 -7.35 -0.50 -2.85 -1.05 -5.15 -1.25 -5.15 -0.90 0 -9.55 4.65 -12.35 6.60 -3.85 2.70 -11.75 10 -12.65 11.65 -0.55 1 -1.05 1.25 -2.60 1.25 l-1.90 0 0 -62.75 0 -62.75 23.95 0 23.90 0 0.35 1.90 c0.30 1.75 2.70 17.75 4.80 32.10 0.55 3.70 1.25 8.10 1.50 9.75 0.30 1.65 1.10 6.85 1.75 11.50 0.70 4.70 1.95 13.10 2.80 18.75 0.85 5.65 1.70 11.55 1.90 13.10 0.20 1.60 0.45 3 0.60 3.10 0.15 0.15 2.35 0.40 4.95 0.55 16.15 1.05 30.35 6 42.55 14.85 1.85 1.30 3.50 2.40 3.70 2.40 0.45 0 0.35 -1 -1.75 -14.75 -0.85 -5.75 -1.80 -11.85 -2 -13.50 -0.25 -1.65 -1.10 -7.60 -2 -13.25 -0.85 -5.65 -1.75 -11.70 -2 -13.50 -0.25 -1.80 -0.95 -6.30 -1.50 -10 -1.95 -12.85 -4.10 -27.25 -4.55 -30.50 -0.25 -1.80 -0.65 -4.60 -0.95 -6.25 -0.25 -1.65 -0.50 -3.75 -0.50 -4.60 l0 -1.65 83.25 0 83.25 0 0 53.50 0 53.50 -1.70 0 c-1.40 0 -2 -0.40 -3.45 -2.15 -3.10 -3.80 -6.95 -7.60 -11.20 -11.05 l-4.10 -3.30 -1.10 2.10 c-0.60 1.20 -1.70 3.30 -2.45 4.65 -1.25 2.30 -11.70 21.95 -17.65 33.25 -1.35 2.60 -3.20 6.10 -4.10 7.75 -0.90 1.65 -3.15 5.95 -5 9.50 -1.85 3.60 -3.55 6.75 -3.75 7 -0.20 0.30 -2.20 4.10 -4.50 8.50 -2.25 4.40 -4.30 8.25 -4.50 8.50 -0.20 0.30 -2.10 3.90 -4.25 8 -2.15 4.15 -4.40 8.40 -5 9.50 -0.60 1.10 -2.60 4.80 -4.40 8.25 -1.80 3.45 -4.75 9.05 -6.55 12.50 -1.85 3.45 -3.20 6.50 -3.10 6.75 0.20 0.55 9.60 3.70 13.85 4.70 1.25 0.30 4.90 0.80 8.10 1.10 16.85 1.80 35.60 -4.05 49.75 -15.40 3.15 -2.55 11.10 -10.55 11.10 -11.25 0 -0.20 0.90 -0.40 2 -0.40 l2 0 0 34.50 0 34.50 -102.95 0 c-97.65 0 -103 -0.05 -103.25 -0.85z m17.90 -25.20 c5.30 -1.05 9.50 -2.40 13.70 -4.25 1.45 -0.65 2.70 -1.20 2.85 -1.20 0.50 0 9.35 -5.35 11.75 -7.15 4.25 -3.15 13.45 -12.65 16.40 -16.95 5.10 -7.50 9.40 -17.45 11.35 -26.40 1.10 -5.10 1.55 -17 0.80 -21.85 -2.20 -14.35 -7.50 -26.05 -17.10 -37.40 -9.50 -11.30 -22.65 -19.25 -38.35 -23.10 -4.80 -1.20 -6.35 -1.35 -14.60 -1.35 -9.55 -0.05 -10.20 0.05 -19.35 2.55 -3.40 0.95 -4.65 1.50 -4.65 2.10 0 0.75 0.90 6 5.50 31.55 1.10 5.90 2.55 14.15 3.25 18.25 1.40 7.75 2.60 14.50 4.30 24 0.55 3.05 1.65 9.20 2.45 13.75 1.65 9.30 2.55 14.35 5.75 32.20 1.25 6.90 2.40 13.35 2.55 14.30 0.15 0.95 0.40 1.95 0.55 2.20 0.40 0.60 6.85 -0.05 12.85 -1.25z m99.80 -40.05 c1.20 -2.30 2.75 -5.25 3.50 -6.65 0.75 -1.35 10.65 -20.05 22 -41.50 11.35 -21.45 21.55 -40.80 22.75 -43 1.15 -2.20 3.25 -6.15 4.60 -8.75 1.40 -2.60 3.55 -6.65 4.75 -9 1.25 -2.35 3.35 -6.25 4.65 -8.65 1.30 -2.40 2.30 -4.50 2.20 -4.55 -0.10 -0.10 -2.75 -1 -5.85 -2 -9.90 -3.20 -11.85 -3.50 -22.60 -3.50 -10.15 0 -13.30 0.50 -22.25 3.45 -9.45 3.15 -19.70 9.65 -27.50 17.50 -11.35 11.35 -17.90 24.10 -20.55 40.20 -3.75 22.80 7.30 50.45 26.55 66.40 2.75 2.25 5.15 4.15 5.30 4.15 0.20 0 1.30 -1.85 2.45 -4.10z m-41.20 -73.90 c1.10 -5.85 4.35 -15.45 6.85 -20.25 9.50 -18.35 25.20 -31.25 46.70 -38.40 3.85 -1.30 7.35 -2.35 7.80 -2.35 1.40 0 1.40 -0.85 0.10 -3.85 -2.50 -5.60 -8.55 -13.95 -14.40 -19.80 -8.55 -8.55 -17.25 -14 -28.05 -17.60 -12.60 -4.25 -23.70 -4.75 -38.85 -1.75 -2.80 0.55 -5.20 1.10 -5.30 1.20 -0.20 0.15 2.30 18.05 3.10 22.55 0.30 1.50 3.95 26.25 4.75 32 0.25 1.65 1.15 7.75 2 13.50 0.90 5.80 1.80 11.85 2 13.50 1.85 13.20 2.15 14.50 3.55 16.25 1.95 2.55 6.10 9.35 7.25 11.95 l0.95 2.20 0.40 -2.45 c0.20 -1.35 0.75 -4.35 1.15 -6.70z"/>
  <path d="M135.55 290.15 c-0.60 -3.80 -1.55 -9.15 -2.05 -11.90 -1.10 -5.85 -2.45 -13.25 -4.50 -25 -0.85 -4.65 -1.95 -10.95 -2.50 -14 -0.55 -3 -1.70 -9.30 -2.50 -14 -1.50 -8.35 -3.05 -17.10 -3.95 -22 -0.25 -1.35 -0.95 -5.30 -1.55 -8.75 -0.60 -3.45 -1.40 -7.85 -1.80 -9.85 -0.40 -2 -0.70 -4.60 -0.70 -5.80 l0 -2.20 3.45 -0.60 c4.30 -0.70 14.15 -0.70 18.55 -0.05 8.70 1.35 16.25 4.05 23.50 8.40 2.05 1.25 3.85 2.40 4 2.55 0.15 0.15 1.85 1.60 3.85 3.20 5.10 4.15 11.15 11.85 14.50 18.60 3.85 7.65 5.65 15.25 6 25.55 0.55 14.35 -2.60 25.90 -10.25 37.45 -2.80 4.20 -11.25 12.80 -15.20 15.35 -8.65 5.75 -19.45 9.85 -25.90 9.90 l-1.80 0 -1.15 -6.85z"/>
  <path d="M234 254.15 c0 -0.25 -0.75 -1.20 -1.65 -2.15 -3.60 -3.80 -8.55 -12 -11.10 -18.30 -3.20 -7.95 -4.75 -15.80 -4.75 -24.60 0 -17.25 5.95 -32 17.80 -43.85 8.40 -8.45 18.30 -13.85 30.20 -16.50 5.15 -1.15 17.45 -1.55 23.05 -0.75 l4.45 0.65 0 1.95 c0 2.10 -0.65 3.55 -6.65 14.80 -2.15 3.90 -3.85 7.20 -3.85 7.30 0 0.10 -0.85 1.75 -1.90 3.65 -1.05 1.85 -3.50 6.45 -5.45 10.15 -1.95 3.70 -5.15 9.75 -7.10 13.40 -1.95 3.65 -3.55 6.70 -3.55 6.80 0 0.10 -0.85 1.75 -1.90 3.65 -1.10 1.85 -3.30 6 -4.95 9.15 -4 7.65 -8.50 16.15 -11.65 22 -1.40 2.60 -3.50 6.60 -4.65 8.90 l-2.05 4.10 -2.15 0 c-1.20 0 -2.15 -0.15 -2.15 -0.35z"/>
  <path d="M196.05 164.15 c-0.30 -1.90 -1.35 -8.70 -2.30 -15.15 -0.90 -6.45 -2.40 -16.35 -3.25 -22 -0.85 -5.65 -1.75 -11.80 -2 -13.75 -0.25 -1.90 -0.80 -5.50 -1.25 -8 -0.95 -5.95 -0.95 -8.55 0 -8.95 0.45 -0.15 3.55 -0.45 6.90 -0.60 21.30 -1.15 39.30 6.70 52.50 22.85 1.45 1.80 1.85 2.75 1.85 4.30 0 2 -0.05 2.05 -2.60 2.90 -3.10 1 -9.20 4 -13.80 6.85 -7.10 4.35 -14.25 10.65 -20.40 18 -3.80 4.55 -11.20 15.35 -11.20 16.30 0 0.35 -0.80 0.60 -1.90 0.60 l-1.95 0 -0.60 -3.35z"/>
  <path d="M263.60 280.50 c-5.90 -0.65 -6.10 -0.75 -6.10 -2.85 0 -1.35 1.35 -4.35 5.20 -11.60 2.85 -5.40 6.20 -11.70 7.40 -14.05 1.25 -2.35 4.10 -7.70 6.35 -11.90 2.20 -4.20 4.05 -7.70 4.05 -7.85 0 -0.10 0.75 -1.50 1.65 -3.10 0.95 -1.60 3.45 -6.25 5.60 -10.40 2.15 -4.10 4.05 -7.70 4.25 -8 0.20 -0.25 2.20 -4.10 4.50 -8.50 2.25 -4.40 4.30 -8.20 4.50 -8.50 0.20 -0.25 2.15 -4 4.40 -8.25 6.65 -12.80 6.10 -12 8.10 -11.95 1.50 0 2.05 0.40 4.20 3 5.05 6.25 9.35 13.60 11.35 19.40 0.85 2.45 0.95 4.50 0.95 22.95 l0 20.25 -1.80 4.55 c-6.25 15.55 -19.50 28.15 -35.50 33.75 -7.90 2.75 -20.30 4.10 -29.10 3.05z"/>
  <path d="M156.75 154 c-6.80 -2.35 -14.45 -4 -18.30 -4 -1.05 0 -2 -0.15 -2.15 -0.40 -0.10 -0.20 -0.45 -2.05 -0.75 -4.10 -0.30 -2.05 -1 -6.80 -1.55 -10.50 -1.45 -9.65 -2 -13.35 -2.50 -16.75 -0.50 -3.45 -2.80 -18.90 -5.05 -33.50 -0.85 -5.50 -1.65 -11.65 -1.80 -13.60 l-0.30 -3.65 15.35 0 15.30 0 -0.05 2.60 c-0.05 1.45 0.20 4.25 0.45 6.15 0.85 5.30 2.45 15.85 4.15 27.25 0.85 5.65 2.20 14.55 2.95 19.75 3.55 23.45 4.50 30.25 4.50 31.70 0 1.45 -0.15 1.55 -1.60 1.50 -0.90 -0.05 -4.80 -1.15 -8.65 -2.45z"/>
  <path d="M402.20 343.30 c-10.20 -1.95 -18.05 -11 -20.75 -24.05 -1.05 -5.05 -0.75 -16.75 0.55 -21.90 3.60 -14.50 11.45 -24.30 23.20 -28.95 3.80 -1.50 4.45 -1.60 10.45 -1.60 l6.35 0 0 -4.55 c0 -4.10 -0.55 -13.85 -1.25 -21.60 l-0.30 -3.15 12.25 0 12.20 0 0.30 1.15 c0.15 0.65 0.30 21.05 0.35 45.35 0.05 40.70 0.30 52.45 1.20 56.50 l0.35 1.50 -11 0 c-11.75 0 -11.70 0 -12.35 -2.65 -0.40 -1.60 -0.90 -1.65 -2.65 -0.40 -5.60 3.90 -12.60 5.50 -18.90 4.35z m15.15 -18.80 c1.05 -0.65 1.75 -1.55 2.10 -2.85 0.35 -1.15 0.55 -8.60 0.55 -19.25 0 -16.75 -0.05 -17.45 -1 -18.40 -0.55 -0.55 -1.15 -1 -1.40 -1 -0.95 0 -4.20 2.70 -5.45 4.65 -3.70 5.50 -4.90 10.60 -4.85 20.35 0 6.25 0.15 7.65 1.15 10.10 1.30 3.35 2.65 5.15 4.75 6.45 1.95 1.20 2.20 1.15 4.15 -0.05z"/>
  <path d="M557.75 343.20 c-4.80 -0.75 -13.65 -3.15 -17.10 -4.70 l-2.15 -0.95 0 -12.55 0 -12.60 1.90 1.55 c6.10 5.15 12.25 8.80 18.60 11.10 2.65 0.95 4.25 1.15 8.75 1.15 6.10 0 7.90 -0.55 11 -3.25 2.65 -2.30 3.45 -4.20 3.45 -7.95 0 -6.10 -2.45 -8.40 -15.65 -14.85 -13.65 -6.60 -18.90 -10.45 -23.10 -16.80 -2.95 -4.55 -3.70 -7.50 -3.65 -15.10 0.05 -5.85 0.15 -6.85 1.40 -10 3.35 -8.60 8.65 -14.15 17.60 -18.30 6.70 -3.20 11.25 -4.10 19.70 -4.10 6.95 0 10.90 0.50 17.75 2.25 l2.50 0.65 0.15 11.40 c0.05 6.25 0 11.35 -0.20 11.35 -0.15 0 -1.65 -1 -3.35 -2.20 -6.25 -4.40 -13.95 -7.30 -19.40 -7.30 -3.10 0 -7.40 1.60 -9.05 3.40 -3 3.15 -3.60 6.30 -1.95 9.95 1.60 3.45 3.80 4.80 20.75 12.85 7.50 3.60 12.85 7.20 15.50 10.50 7.80 9.60 9 23.55 3.05 35.55 -7.30 14.85 -25.40 22.20 -46.50 18.95z"/>
  <path d="M644 343.25 c-4.90 -0.80 -10.45 -3.15 -14.55 -6.20 -7.80 -5.75 -12.45 -14.75 -14 -26.95 -1.50 -12.25 2.40 -25.25 10 -33.25 4 -4.15 7.50 -6.40 13.20 -8.50 3.75 -1.35 4.70 -1.50 10.60 -1.55 7.20 -0.05 10.65 0.75 16.50 3.85 6.55 3.45 13.30 11.95 15.75 19.85 2.90 9.15 2.75 20.75 -0.30 30 -5.35 16 -20.80 25.45 -37.20 22.75z m7 -17.25 c1.55 -1.55 2.95 -4.70 3.80 -8.60 1.05 -4.75 1.20 -18.75 0.25 -23.65 -1.15 -5.90 -3.50 -10.25 -5.55 -10.25 -0.45 0 -1.30 0.50 -1.85 1.15 -3.20 3.45 -4.30 8.90 -4.35 20.85 0 8.05 0.15 9.75 1.10 13.15 1.45 5.15 3.35 8.10 5.25 8.30 0.20 0.05 0.80 -0.40 1.35 -0.95z"/>
  <path d="M786.20 343.25 c-10.10 -2.25 -17.05 -9.90 -20.15 -22.20 -1.20 -4.80 -1.45 -16 -0.50 -21.35 3.55 -20.10 19 -34.20 36.10 -33 l4.35 0.35 0 -6.95 c0 -6.05 -0.25 -10.05 -1.25 -20.25 l-0.20 -2.35 12.35 0.10 12.35 0.15 0.30 4.50 c0.15 2.50 0.35 24.30 0.35 48.50 0.05 25.80 0.30 45.35 0.60 47.25 0.25 1.80 0.50 3.40 0.50 3.65 0 0.20 -4.90 0.35 -10.90 0.35 -11.15 0 -12.10 -0.15 -12.10 -1.95 -0.05 -2.15 -0.80 -2.25 -3.80 -0.40 -1.65 0.95 -3.75 2.05 -4.70 2.45 -3.80 1.60 -9.35 2.05 -13.30 1.15z m15.75 -18.90 c1.90 -1.60 2.05 -3.35 2.05 -21.60 0 -16.85 -0.05 -17.80 -0.95 -18.70 -3 -3 -8.75 4.25 -10.85 13.70 -1.10 4.90 -1.20 14.35 -0.25 18.25 1.10 4.30 2.80 7.05 5.30 8.60 1.55 0.95 3.35 0.85 4.70 -0.25z"/>
  <path d="M961.75 343.65 c-17.50 -1.85 -29.45 -14.95 -31.15 -34.15 -1.55 -17.70 5.85 -33 19.10 -39.45 5.55 -2.70 8.50 -3.30 15.30 -3.25 6.60 0.05 9.75 0.80 14.80 3.35 9.80 5.05 16 13.90 18.25 26 0.75 4 0.75 14.20 -0.05 18.30 -2.45 13.30 -11.45 24.05 -23.25 27.70 -3.95 1.25 -9.50 1.85 -13 1.50z m6.30 -20.65 c2.05 -4.05 2.70 -8.20 2.70 -17.75 0 -9.65 -0.70 -14.35 -2.75 -18.35 -2.30 -4.55 -4.70 -4.40 -7 0.35 -1.75 3.60 -2.60 9.35 -2.60 17.75 0 8.75 0.85 14.20 2.85 18.30 2.25 4.55 4.35 4.45 6.80 -0.30z"/>
  <path d="M457.95 341.80 c-0.10 -0.15 0 -2 0.20 -4.15 0.70 -6.65 1 -52.75 0.40 -59.40 -0.30 -3.30 -0.60 -6.90 -0.65 -8 l-0.15 -2 12.50 0 12.50 0 -0.15 25.25 c-0.15 22.75 0.35 40.55 1.20 46.40 l0.35 2.10 -13 0 c-7.15 0 -13.10 -0.10 -13.20 -0.20z"/>
  <path d="M692.30 337.65 c0.60 -5.70 0.60 -59.60 0 -65.25 l-0.40 -4.40 10.20 0 c7.40 0 10.45 0.15 11 0.65 0.45 0.30 1.05 1.50 1.40 2.60 0.30 1.10 0.65 2.30 0.80 2.65 0.10 0.40 1.20 -0.20 3.05 -1.70 3.80 -3.10 7.40 -4.70 12 -5.35 6.85 -0.95 12.75 0.70 17.45 4.80 2.50 2.20 5.45 7.75 6.20 11.70 0.25 1.40 0.50 12.20 0.55 24 0.10 20.40 0.45 29.65 1.20 33.10 l0.35 1.55 -13.20 -0.10 -13.15 -0.15 0.20 -4 c0.10 -2.20 0.25 -4.55 0.40 -5.25 0.10 -0.70 0.30 -10.10 0.50 -20.90 0.30 -20.15 0.15 -22.55 -1.70 -25.40 -1 -1.55 -3.30 -2.40 -5.70 -2.05 -2.45 0.30 -4.20 1.40 -5.50 3.50 -0.95 1.55 -1 2.25 -0.75 25.60 0.15 13.20 0.40 25.05 0.60 26.40 l0.30 2.35 -13.10 0 -13.10 0 0.40 -4.35z"/>
  <path d="M841.25 338.15 c0.20 -2.15 0.45 -4.05 0.55 -4.25 0.10 -0.15 0.20 -12 0.20 -26.25 0 -25.85 -0.05 -26.65 -1.80 -37.70 l-0.30 -1.85 11.30 0 c7.60 0 11.50 0.20 11.95 0.60 0.70 0.55 1.85 4.95 1.85 7.10 0 0.65 0.20 1.20 0.40 1.20 0.20 0 2.05 -1.65 4.10 -3.65 4.95 -4.85 8.35 -6.45 13.50 -6.55 l3.75 -0.05 0.15 9.75 0.10 9.80 -3.20 -0.20 c-8.30 -0.55 -13.30 4.10 -15.85 14.70 -1 4.20 -1.05 5.30 -0.75 20.95 0.15 9.10 0.40 17.35 0.60 18.40 l0.30 1.85 -13.60 0 -13.60 0 0.35 -3.85z"/>
  <path d="M894.80 339.40 c0.10 -1.45 0.45 -5.40 0.70 -8.75 0.70 -8.80 0.60 -44.30 -0.20 -53.90 -0.40 -4.40 -0.60 -8.15 -0.45 -8.40 0.10 -0.20 5.80 -0.35 12.60 -0.30 l12.35 0.05 -0.10 27.80 c-0.05 25.85 0.30 39.65 1.10 44.25 l0.35 1.85 -13.30 0 -13.30 0 0.25 -2.60z"/>
  <path d="M1051.35 341.65 c-0.20 -0.15 -0.35 -13.75 -0.35 -30.15 l0 -29.85 1.90 -0.35 c1 -0.15 80 -0.30 175.50 -0.30 l173.60 0 0 30.50 0 30.50 -175.15 0 c-96.35 0 -175.35 -0.15 -175.50 -0.35z m278.30 -18.60 c1.90 -1.15 3.85 -4 3.85 -5.55 0 -1.40 -1.95 -4.40 -3.05 -4.75 -1.60 -0.50 -1.30 -3.80 0.55 -5.75 2.35 -2.50 1.85 -4.95 -1.35 -7.10 -1.60 -1.05 -2.80 -1.25 -1.45 -0.25 1.45 1.05 1.60 5.20 0.35 7.25 -0.90 1.40 -1.30 1.60 -3.20 1.60 -3.75 0 -5.80 -2.90 -5.15 -7.05 l0.35 -2.05 -1.45 1.05 c-0.80 0.55 -1.80 1.75 -2.25 2.65 -0.85 1.80 -0.40 3.30 1.60 5.10 1.70 1.55 1.40 3.75 -0.90 5.95 -1.05 1 -2.10 2.40 -2.25 3.10 -0.50 1.95 0.95 4.40 3.35 5.75 3.75 2.15 7.60 2.15 11 0.05z m-245.40 -4.65 l0 -6.15 3.90 -0.15 c3.45 -0.15 3.85 -0.25 3.85 -1.10 0 -0.90 -0.35 -1 -3.70 -1 l-3.65 0 -0.35 -1.55 c-0.15 -0.85 -0.30 -2.55 -0.30 -3.70 0 -1.15 0.15 -2.85 0.30 -3.70 l0.35 -1.55 5.15 0 c4.85 0 5.20 -0.05 5.20 -1 0 -0.95 -0.35 -1 -7.60 -1 l-7.65 0 0.15 13.50 0.15 13.50 2.10 0 2.10 0 0 -6.10z m24.55 5 c2.30 -1.80 2.65 -2.25 3.70 -4.50 1.30 -2.85 1.25 -4.60 -0.25 -7.75 -1.80 -3.95 -5.20 -5.75 -8.80 -4.70 -5.25 1.60 -7.75 8.20 -5.05 13.40 2.20 4.20 7.30 5.95 10.40 3.55z m14.20 -6.30 c0 -5.85 0.15 -7.60 0.80 -8.50 0.70 -1.05 0.70 -1.10 -0.25 -1.10 -0.60 0 -1.05 -0.20 -1.05 -0.50 0 -0.25 -0.75 -0.50 -1.60 -0.50 l-1.65 0 0 9 0 9 1.90 0 1.85 0 0 -7.40z m10.95 0.05 c-0.20 -6.75 -0.30 -7.55 -1.35 -9 -1.35 -1.90 -2.85 -2.40 -4.85 -1.65 l-1.40 0.55 1.70 0.85 1.70 0.85 0.15 7.90 0.15 7.85 2 0 2.05 0 -0.15 -7.35z m13.30 6.85 c0.15 -0.25 1.30 -0.50 2.55 -0.50 1.20 0 2.20 0.25 2.20 0.50 0 0.30 0.80 0.50 1.80 0.50 l1.85 0 -0.35 -1.85 c-0.15 -1.05 -0.30 -7.15 -0.30 -13.50 l0 -11.65 -1.75 0 -1.70 0 -0.15 4.15 -0.15 4.10 -2.60 0.25 c-3 0.30 -4.80 1.45 -6.80 4.40 -3.15 4.65 -2.20 11.10 1.90 13.50 1.25 0.70 3.10 0.75 3.50 0.10z m20.25 0 c0.65 -0.40 0.60 -0.50 -0.20 -0.50 -1.90 0 -2.80 -1.45 -2.80 -4.40 0 -2.40 0.20 -2.85 1.65 -4.25 l1.60 -1.50 -2.55 1.35 c-2.60 1.40 -4.20 3.40 -4.20 5.30 0 0.60 0.75 1.85 1.70 2.80 1.70 1.70 3.35 2.15 4.80 1.20z m7.90 -5.85 c-0.15 -3.55 -0.50 -7 -0.80 -7.75 -0.30 -0.70 -1.35 -1.90 -2.35 -2.70 -1.55 -1.15 -2.40 -1.40 -5.80 -1.60 -3.15 -0.20 -3.95 -0.10 -3.95 0.50 0 0.55 0.70 0.65 3.40 0.50 4.10 -0.25 5.10 0.45 5.10 3.40 0 1.65 -0.20 2 -1.35 2.40 l-1.40 0.50 1.65 0.05 1.60 0.05 0 4.50 c0 4.25 -0.05 4.55 -1.10 5 -1.05 0.40 -1 0.45 0.50 0.45 0.85 0.05 1.60 0.30 1.60 0.55 0 0.30 0.70 0.50 1.55 0.50 l1.60 0 -0.25 -6.35z m14.60 5.85 c0 -0.25 -0.45 -0.50 -1 -0.50 -1.65 0 -2 -1.65 -2 -8.95 l0 -7.05 1.50 0 c0.85 0 1.50 -0.20 1.50 -0.50 0 -0.25 -0.65 -0.50 -1.50 -0.50 l-1.50 0 0 -3.25 0 -3.25 -2 0 -2 0 0 3.25 c0 2.90 -0.10 3.25 -1 3.25 -0.55 0 -1 0.25 -1 0.50 0 0.30 0.45 0.50 1 0.50 0.95 0 1 0.35 1 5.40 0 2.95 0.15 6.20 0.30 7.20 0.45 2.65 2.35 4.40 4.75 4.40 1.10 0 1.95 -0.20 1.95 -0.50z m11.50 0 c0.65 -0.40 0.60 -0.50 -0.20 -0.50 -1.90 0 -2.80 -1.45 -2.80 -4.40 0 -2.40 0.20 -2.85 1.65 -4.20 l1.60 -1.55 -2.05 1.05 c-2.60 1.30 -4.70 3.75 -4.70 5.45 0 0.75 0.65 1.90 1.70 2.95 1.70 1.70 3.35 2.15 4.80 1.20z m8 -4.20 c0 -5.60 -0.70 -9.60 -1.90 -10.95 -1.50 -1.70 -4.65 -2.85 -7.95 -2.85 -2.25 0 -3.15 0.20 -3.15 0.65 0 0.45 0.85 0.60 3.40 0.45 4.10 -0.25 5.10 0.45 5.10 3.40 0 1.65 -0.20 2 -1.35 2.40 l-1.40 0.50 1.65 0.05 1.60 0.05 0 4.50 c0 4.25 -0.05 4.55 -1.10 5 -1.05 0.40 -1 0.45 0.50 0.45 0.85 0.05 1.60 0.30 1.60 0.55 0 0.30 0.70 0.50 1.50 0.50 l1.50 0 0 -4.70z m22.50 -2.90 c0 -6.35 0.15 -7.70 0.85 -8.50 0.75 -0.85 0.75 -0.90 -0.25 -0.90 -0.55 0 -1.20 -0.20 -1.35 -0.50 -0.15 -0.25 -0.95 -0.50 -1.80 -0.50 l-1.45 0 0 9 0 9 2 0 2 0 0 -7.60z m10.55 0 c-0.15 -6.60 -0.30 -7.85 -1.15 -9 -1.20 -1.70 -2.75 -2.15 -4.65 -1.35 -1.40 0.60 -1.45 0.65 -0.40 0.80 2.30 0.40 2.65 1.80 2.65 9.75 l0 7.40 1.90 0 1.85 0 -0.20 -7.60z m17.45 7.10 c0.55 -0.35 0.25 -0.50 -1.15 -0.50 -3.55 0 -5.30 -1.60 -5.35 -4.85 0 -1.80 0.15 -2.15 1.40 -2.55 1.30 -0.50 1.30 -0.50 -0.60 -0.55 l-1.90 -0.05 0.20 -3.45 c0.25 -4.30 0.80 -5.05 3.95 -5.05 2.25 0 2.55 0.15 3 1.40 0.30 0.75 0.45 2.40 0.35 3.65 l-0.15 2.30 1.70 -0.55 c2.25 -0.70 2.40 -1.40 0.80 -4.05 -2.50 -4.30 -6.55 -4.85 -10.20 -1.35 -2.75 2.60 -3.80 6.20 -2.75 9.50 0.85 2.75 1.90 4.10 4.25 5.55 1.80 1.10 5.15 1.40 6.45 0.55z m13.50 -13 l0 -13.50 -2 0 -2 0 0 13.50 0 13.50 2 0 2 0 0 -13.50z m31.50 13.05 l-1.25 -0.35 -0.15 -12.15 -0.10 -12.15 -1.15 0.30 c-0.60 0.15 -2.65 0.75 -4.60 1.25 l-3.50 1 2.65 0 2.60 0.05 -0.10 10.85 -0.15 10.90 -1.50 0.30 c-0.80 0.20 0.75 0.35 3.50 0.35 2.75 0 4.45 -0.15 3.75 -0.35z m42.50 -0.45 c0 -0.95 4.45 -14.45 6.70 -20.25 0.70 -1.85 1.30 -3.60 1.30 -3.85 0 -0.30 -3.10 -0.50 -8 -0.50 l-8 0 0 1.25 0 1.25 6.25 0 6.25 0 0 1.70 c0 1.90 -1.20 4.75 -6 14.45 l-3.45 6.85 2.45 0 c2.05 0 2.50 -0.15 2.50 -0.90z m27.90 0.55 l-1.40 -0.20 0 -12.25 c0 -6.70 -0.15 -12.20 -0.35 -12.20 -0.25 0 -2.20 0.55 -4.40 1.25 l-4 1.20 2.40 0 2.35 0.05 -0.10 10.85 -0.15 10.90 -1.50 0.30 c-0.80 0.20 0.75 0.30 3.50 0.30 2.75 0 4.40 -0.10 3.65 -0.20z m-49.25 -25.50 c-0.65 -0.10 -1.75 -0.10 -2.50 0 -0.80 0.10 -0.25 0.20 1.10 0.20 1.40 0 2 -0.10 1.40 -0.20z"/>
  <path d="M1319.75 322.75 c-1 -0.95 -1.25 -1.70 -1.25 -3.85 0 -2.25 0.25 -2.95 1.55 -4.55 2.20 -2.65 4.15 -2.60 7.20 0.30 1.95 1.90 2.25 2.45 2.25 4.25 0 2.60 -0.85 4.45 -2.20 4.80 -0.55 0.15 -2.25 0.30 -3.70 0.30 -2.15 0 -2.90 -0.25 -3.85 -1.25z"/>
  <path d="M1102.25 321.80 c-1 -2.35 -1 -10.70 -0.05 -13.05 0.70 -1.65 0.90 -1.75 3.05 -1.75 2.15 0 2.35 0.10 3.05 1.75 0.85 2.10 0.90 10.20 0.05 12.75 -0.55 1.65 -0.75 1.75 -3 1.90 -2.30 0.15 -2.40 0.10 -3.10 -1.60z"/>
  <path d="M1145.10 322.40 c-2.30 -2.85 -1.60 -13.35 1.05 -15 1.25 -0.80 4.30 -0.45 4.85 0.55 0.75 1.40 0.65 13.70 -0.10 14.45 -0.80 0.80 -5.15 0.75 -5.80 0z"/>
  <path d="M465.80 262 c-5.10 -2 -8 -6.45 -8 -12.25 0 -6.15 3.45 -10.80 9.40 -12.50 10.20 -2.95 19.30 6.50 16.20 16.85 -0.80 2.75 -4.15 6.30 -7.15 7.70 -3.10 1.45 -7 1.55 -10.45 0.20z"/>
  <path d="M904 262.55 c-3.45 -1.05 -6.55 -3.65 -8.30 -7.05 -0.70 -1.30 -0.95 -2.80 -0.95 -5.75 0 -3.45 0.20 -4.35 1.35 -6.35 2.60 -4.40 6.75 -6.70 11.95 -6.60 9.15 0.15 15.10 8.75 12.10 17.50 -1.05 3.15 -5.10 7.25 -7.95 8.10 -2.25 0.65 -6.25 0.75 -8.20 0.15z"/>
  <path d="M949.35 194.65 c-0.45 -0.15 -0.75 -0.40 -0.65 -0.55 1.40 -2.30 1.50 -92.20 0.10 -100.30 -0.05 -0.50 21.85 -0.60 22.65 -0.10 0.30 0.20 0.55 0.75 0.55 1.25 0 0.45 0.30 1.30 0.70 1.80 0.65 0.85 0.75 0.85 2.40 -0.40 8.85 -6.80 21.70 -6.15 29.60 1.45 6.55 6.35 9.85 15.30 9.90 26.95 0 14.25 -4.35 25.95 -12.85 34.50 -4.80 4.80 -10.25 7.80 -16.25 8.95 -3.85 0.70 -4.95 0.70 -9.30 0.10 l-2.55 -0.35 0.15 10.40 c0.10 5.70 0.30 11.75 0.45 13.45 l0.30 3 -12.15 0.05 c-6.70 0 -12.55 -0.10 -13.05 -0.20z m31.55 -44.15 c3.70 -2.65 6.20 -8.50 7.15 -16.80 0.75 -6.45 -0.05 -13.40 -2.05 -17.55 -2.55 -5.40 -5.90 -6.85 -8.85 -3.85 -1.45 1.45 -1.65 3.70 -1.65 20.35 0 14.70 0.10 17.30 0.80 18.25 1 1.50 2.15 1.40 4.60 -0.40z"/>
  <path d="M644.50 168.25 c-14.45 -2.20 -25.05 -11.75 -28.55 -25.85 -1.50 -6.05 -1.20 -15.85 0.75 -21.90 4.60 -14.20 14.95 -23.70 30.05 -27.55 3.80 -0.95 5.85 -1.15 13 -1.15 4.70 0 8.80 0.15 9.15 0.35 0.45 0.30 0.60 2.90 0.60 10.15 0 5.35 -0.15 9.70 -0.35 9.70 -0.25 0 -1.40 -0.70 -2.65 -1.50 -6.60 -4.40 -14.15 -4.65 -19.40 -0.65 -6.60 5 -9 19.25 -5.25 31.40 3.50 11.40 13.45 15.05 24.45 9 l3.05 -1.65 3.15 4.30 c1.70 2.35 3.20 4.55 3.35 4.85 0.10 0.35 -0.95 1.55 -2.40 2.70 -8.40 6.70 -18.40 9.40 -28.95 7.80z"/>
  <path d="M899.20 168.20 c-14.20 -2.40 -24.55 -13 -27.75 -28.45 -1 -4.90 -0.75 -16.25 0.45 -21.10 2.75 -10.70 8.80 -18.95 17.15 -23.15 6.15 -3.10 8.65 -3.70 15.95 -3.65 5.95 0 7.20 0.15 10.40 1.30 14.65 5.15 23.60 18.95 23.60 36.45 0 12.60 -3.40 21.80 -10.80 29.25 -7.85 7.90 -18 11.20 -29 9.35z m7.45 -17.60 c1.65 -1.75 3.15 -5.80 3.90 -10.70 0.75 -4.85 0.30 -20.25 -0.70 -23.75 -0.90 -3.10 -2.75 -6.60 -3.95 -7.35 -2.05 -1.25 -4.60 2 -6.15 7.95 -1.90 7.10 -1.40 23.60 0.85 29.60 0.90 2.50 3.30 5.65 4.25 5.65 0.25 0 1.05 -0.65 1.80 -1.40z"/>
  <path d="M1051.25 168.30 c-7.95 -1.35 -14 -4.55 -19.25 -10.15 -6.60 -7.05 -10 -16.45 -10 -27.60 0 -10.90 3 -20.25 8.65 -27.10 4.35 -5.20 10.95 -9.40 17.35 -11 4 -1 13.50 -0.85 17.25 0.25 12.15 3.55 20.45 12.55 23.80 25.80 1.40 5.50 1.55 16.90 0.25 22.20 -3.25 13.45 -11.35 22.75 -23.05 26.45 -2.05 0.70 -10.30 2 -11.25 1.80 -0.15 -0.05 -1.80 -0.35 -3.75 -0.65z m6.55 -17.55 c3.05 -3.05 4.70 -10.35 4.70 -20.80 0 -12.15 -2.80 -21.45 -6.40 -21.45 -1.40 0 -3.35 2.90 -4.65 7 -0.85 2.55 -1.10 5 -1.30 11.55 -0.40 12.30 1 20.25 4.20 23.55 1.65 1.70 1.85 1.70 3.45 0.15z"/>
  <path d="M1289.25 168.45 c-12.05 -1.55 -20.90 -7.90 -26.30 -18.90 -5.25 -10.70 -5.20 -26.55 0.05 -37.90 4.35 -9.45 11.75 -16.10 21.10 -19 1.85 -0.60 4.60 -0.85 8.90 -0.85 5.65 -0.05 6.60 0.10 10 1.35 4.20 1.55 8.45 4.50 11.25 7.85 4.05 4.80 7.30 13.75 7.95 22 l0.30 3.75 -2.85 1.10 c-5 1.90 -24.20 8.95 -29 10.70 -3.15 1.10 -4.65 1.90 -4.65 2.45 0 1.50 2.60 6.30 4.40 8.15 2.85 3 5.20 3.95 9.40 4 3.05 0 4.15 -0.30 7.05 -1.60 1.85 -0.90 4.20 -2.40 5.25 -3.40 1 -0.95 2.05 -1.70 2.35 -1.60 0.80 0.30 7.55 8.55 7.55 9.25 0 1 -5 5.20 -9 7.50 -5.40 3.20 -10.50 4.70 -18.50 5.40 -0.95 0.10 -3.30 0 -5.25 -0.25z m-0.90 -45.75 c6.25 -2.35 7.65 -3.15 8.20 -4.55 1.30 -3.50 -2 -10.65 -4.90 -10.65 -1.40 0 -4.90 4.25 -5.80 7 -0.95 2.80 -1.75 9.50 -1.20 9.50 0.20 0 1.85 -0.60 3.70 -1.30z"/>
  <path d="M483.85 167.30 c-6.55 -1.90 -11.25 -5.70 -14.10 -11.25 -4.45 -8.85 -2.50 -19.75 4.80 -27.05 4.90 -4.90 9.85 -7.55 21.10 -11.30 4.35 -1.40 8.05 -2.75 8.20 -2.90 0.70 -0.70 -1.10 -4.65 -2.90 -6.40 -4.40 -4.20 -12.75 -3.35 -22.55 2.35 -2.15 1.25 -4 2.25 -4.15 2.25 -0.45 0 -0.25 -19.20 0.20 -19.90 0.60 -0.95 12.80 -1.75 20.30 -1.40 20.15 1.10 30.50 7.90 33.50 22.20 0.55 2.85 0.75 7.20 0.75 19 0 10.70 0.25 16.85 0.75 20.35 0.65 4.55 2.05 10.70 3 12.90 0.35 0.80 -0.30 0.85 -11.55 0.75 l-11.95 -0.15 -1 -1.85 c-1.15 -2.15 -1.35 -2.25 -3.15 -0.95 -0.75 0.50 -2.90 1.55 -4.85 2.30 -2.95 1.20 -4.35 1.45 -8.75 1.60 -3.35 0.05 -6.10 -0.15 -7.65 -0.55z m18 -17.05 l2.15 -1.30 0 -8.45 c0 -4.70 -0.15 -8.50 -0.35 -8.50 -1.05 0 -5.65 3.15 -7.15 4.80 -2 2.30 -3.45 5.45 -3.50 7.40 0 2.90 3.40 7.05 5.95 7.25 0.40 0.05 1.70 -0.50 2.90 -1.20z"/>
  <path d="M693.50 167.30 c-4 -1.10 -6.70 -2.60 -9.50 -5.15 -4.70 -4.30 -7 -9.70 -7 -16.55 0 -6.70 2.80 -12.55 8.60 -17.85 4.40 -4 9.50 -6.65 19.40 -9.95 4.50 -1.50 8.30 -3 8.40 -3.25 0.30 -0.95 -0.95 -4 -2.25 -5.60 -3.85 -4.55 -12.85 -4.05 -22.35 1.25 -1.80 1 -3.40 2.05 -3.55 2.30 -1 1.60 -1.25 -0.35 -1.25 -9.70 l0 -10.20 3.40 -0.40 c5.90 -0.70 21.90 -0.45 26.35 0.45 12.75 2.50 19.70 7.80 23.15 17.50 1.25 3.55 1.25 4 1.60 23.10 0.40 20.25 0.65 22.95 2.95 30.25 0.60 1.80 1.05 3.30 1.05 3.40 0 0.05 -5.30 0.10 -11.75 0.10 l-11.75 0 -1 -1.60 c-0.55 -0.90 -1.05 -1.85 -1.15 -2.15 -0.10 -0.25 -1.80 0.40 -3.85 1.45 -2 1.05 -4.80 2.25 -6.20 2.60 -3.15 0.85 -10.25 0.85 -13.30 0z m17.15 -16.60 c3.40 -1.75 3.35 -1.50 3.35 -10.80 l0 -8.40 -2.50 1.25 c-1.40 0.70 -3.40 2.10 -4.50 3.05 -2.15 1.95 -4.50 6.20 -4.50 8.15 0 1.95 1.85 5.20 3.60 6.45 1.95 1.30 2.45 1.35 4.55 0.30z"/>
  <path d="M1151.55 167.20 c-8.65 -2.30 -14.65 -9.10 -16 -18 -1.30 -8.45 2.70 -17.55 10.05 -23 4.55 -3.35 9.60 -5.70 18.55 -8.65 4.30 -1.45 7.85 -2.80 7.85 -3 0 -0.90 -1.25 -3.90 -2.10 -5.20 -3.20 -4.60 -12 -4.65 -20.85 -0.10 -1.80 0.95 -3.95 2.15 -4.80 2.70 -0.80 0.60 -1.65 1.05 -1.85 1.05 -0.25 0 -0.40 -4.60 -0.40 -10.20 l0 -10.15 2.65 -0.30 c12.55 -1.45 28.25 -0.50 34.60 2.15 9.45 3.85 14.10 8.80 16.50 17.50 0.75 2.75 0.95 6.25 1.25 22.50 0.30 16.90 0.50 19.80 1.40 23.85 0.60 2.50 1.40 5.40 1.80 6.40 0.45 1.05 0.80 1.95 0.80 2.05 0 0.10 -5.30 0.20 -11.75 0.20 l-11.75 0 -1.30 -2 c-0.75 -1.10 -1.40 -2 -1.50 -2 -0.15 0 -1.45 0.70 -2.95 1.55 -5.90 3.35 -13.85 4.35 -20.20 2.65z m18.30 -16.95 l2.15 -1.30 0 -8.50 0 -8.50 -1.10 0.35 c-3.15 0.95 -8.20 5.75 -9.35 8.85 -1.30 3.35 -0.10 7.10 2.90 9.15 2.25 1.50 2.70 1.50 5.40 -0.05z"/>
  <path d="M384 164.65 c0 -1.30 0.25 -4.30 0.50 -6.65 0.45 -4 0.75 -83.15 0.30 -83.90 -0.10 -0.20 -0.35 -2.90 -0.55 -6.05 l-0.35 -5.65 25.65 0.25 c24.60 0.20 25.85 0.25 29.45 1.30 5.25 1.55 9.25 3.85 12.55 7.10 7.15 7.15 8.90 18.20 4.40 27.40 -1.95 4 -7.10 9.35 -10.60 11 -1.30 0.65 -2.35 1.25 -2.25 1.35 0.10 0.05 2 1.05 4.15 2.15 9 4.50 14.10 12.50 14.65 22.85 0.45 9.15 -3.40 17.65 -10.70 23.70 -7.75 6.40 -13.35 7.35 -45.05 7.45 l-22.15 0.10 0 -2.40z m35.95 -15.15 c7.10 -1.35 11.65 -6.35 11.70 -12.75 0.05 -5.35 -2.65 -9.70 -7.50 -12.15 -2.55 -1.35 -7.65 -2.30 -9.90 -1.90 l-1.75 0.35 0 13.20 0 13.20 1.65 0.20 c0.85 0.10 1.95 0.25 2.40 0.25 0.45 0.05 2 -0.10 3.40 -0.40z m0.25 -47.60 c9.65 -2.75 11.95 -14.70 3.85 -20.05 -2.30 -1.55 -6.35 -2.45 -9.30 -2 l-2.25 0.30 0 11.15 0 11.20 2.80 0 c1.55 0 3.75 -0.25 4.90 -0.60z"/>
  <path d="M541.70 165.15 c0.95 -6.55 1.40 -23.25 1.10 -41.40 -0.15 -11 -0.40 -21.25 -0.55 -22.75 -0.10 -1.50 -0.35 -3.80 -0.45 -5.10 -0.25 -2.20 -0.15 -2.40 0.85 -2.40 0.60 0 5.25 -0.05 10.35 -0.10 5.10 -0.05 9.55 0.05 9.85 0.25 0.35 0.20 0.85 1.25 1.15 2.25 0.95 3.45 1.15 3.50 4.10 1.25 5.60 -4.30 10.80 -5.95 17.30 -5.50 7.80 0.55 13.85 4.90 16.90 12.20 l1.40 3.40 0.35 25 c0.20 13.75 0.45 25.80 0.65 26.75 0.15 0.95 0.40 3.15 0.50 4.90 l0.30 3.10 -13.30 0 -13.30 0 0.35 -1.35 c0.25 -0.80 0.50 -12.80 0.60 -26.75 0.25 -27.65 0.25 -27.30 -2.60 -29.20 -1.65 -1.05 -5.80 -0.70 -7.65 0.65 -3.05 2.20 -3.10 2.60 -3.10 22.65 0.05 17.20 0.50 29.65 1.25 32.65 l0.35 1.35 -13.35 0 -13.35 0 0.30 -1.85z"/>
  <path d="M794.95 166.80 c-0.15 -0.15 0 -2.55 0.25 -5.40 0.65 -6.45 0.70 -84.35 0.10 -92.85 l-0.45 -6.15 24.45 0.20 c23.40 0.25 24.65 0.30 28.70 1.40 6.45 1.70 10.20 3.75 14.25 7.75 6.30 6.25 8.45 12.15 8.45 23.25 0 6 -0.15 7.20 -1.40 10.70 -4.70 13.80 -15.95 19.80 -38.70 20.70 l-8.85 0.35 0.10 16.75 c0.10 9.20 0.30 18.25 0.55 20.15 l0.40 3.35 -13.80 0 c-7.60 0 -13.95 -0.10 -14.05 -0.20z m34.30 -58.85 c9.15 -1.70 14.15 -9.15 11.45 -17.05 -0.90 -2.75 -4.15 -6.20 -6.95 -7.45 -2.35 -1.05 -8.45 -2.20 -9.50 -1.75 -0.65 0.25 -0.75 2.25 -0.75 13.55 l0 13.25 1.40 0 c0.80 0 2.75 -0.25 4.35 -0.55z"/>
  <path d="M1099.90 166.75 c-0.10 -0.15 0.10 -3 0.45 -6.35 0.55 -4.85 0.65 -15.10 0.45 -48.65 -0.15 -23.35 -0.40 -44 -0.55 -45.85 l-0.35 -3.40 12.30 0 12.30 0 0 36.15 c0 39 0.30 55.65 1.05 62.35 0.25 2.35 0.45 4.65 0.45 5.15 0 0.80 -0.95 0.85 -12.90 0.85 -7.10 0 -13.05 -0.10 -13.20 -0.25z"/>
  <path d="M1209.95 166.80 c-0.10 -0.15 -0.05 -1.90 0.20 -3.90 0.25 -2 0.55 -14.35 0.70 -27.40 0.25 -24.05 -0.10 -31.90 -1.65 -38.70 -0.35 -1.65 -0.55 -3.10 -0.45 -3.25 0.20 -0.40 23.15 -0.30 23.55 0.05 0.10 0.15 0.60 2.15 1.05 4.50 l0.85 4.20 3.55 -3.55 c4.80 -4.85 8.90 -6.85 14.20 -6.95 l3.80 -0.05 0.15 9.80 0.10 9.80 -3.60 -0.20 c-8 -0.50 -12.85 3.85 -15.45 13.75 -0.80 3 -1.10 5.95 -1.25 13.50 -0.20 8.65 0.40 22.70 1.15 27 l0.25 1.60 -13.45 0 c-7.40 0 -13.60 -0.10 -13.70 -0.20z"/>
 </g>
 <g fill="#000000">
  <path d="M55 199.50 l0 -143.50 143.25 0 143.25 0 0 143.50 0 143.50 -143.25 0 -143.25 0 0 -143.50z m14.70 127.15 c-0.35 -2.15 -0.70 -5 -0.70 -6.40 -0.15 -4.55 -0.90 -0.45 -0.95 5.15 -0.05 5 -0.05 5.10 1.10 5.10 l1.15 0 -0.60 -3.85z m43.10 2.75 c-0.40 -1.85 -1.65 -8.60 -3.30 -18.15 -0.85 -4.95 -2 -11.35 -2.50 -14.25 -0.55 -2.90 -1.55 -8.60 -2.30 -12.75 -0.70 -4.10 -1.95 -11.20 -2.75 -15.75 -0.80 -4.55 -1.90 -10.70 -2.45 -13.75 -0.50 -3 -1.30 -7.50 -1.75 -10 -1.55 -8.80 -3.30 -18.55 -4.05 -22.75 -0.40 -2.35 -1.15 -6.60 -1.70 -9.50 -0.50 -2.90 -1.50 -8.60 -2.25 -12.75 -1.45 -8.35 -1.65 -9.25 -2.15 -9.25 -0.55 0 -7.15 6.50 -9.15 9 -4.90 6.15 -7.85 12.35 -9.70 20.40 -1.40 6 -0.75 19.40 1.55 32.60 1.90 11.05 10.45 62.30 11.75 70.65 l1.15 7.35 14.90 0 14.90 0 -0.20 -1.10z m216.20 -31.90 c0 -21.65 -0.15 -33 -0.50 -33 -0.25 0 -0.50 0.20 -0.50 0.40 0 0.70 -7.95 8.70 -11.10 11.25 -16.75 13.45 -39.35 18.80 -60.65 14.30 -2.15 -0.45 -15.15 -4.40 -15.70 -4.80 -0.20 -0.15 5.85 -12.10 8 -15.70 0.80 -1.40 1.45 -2.60 1.45 -2.70 0 -0.10 1.85 -3.65 4.05 -7.85 2.25 -4.20 5.65 -10.70 7.60 -14.40 1.90 -3.70 3.65 -6.95 3.85 -7.25 0.20 -0.25 2.25 -4.10 4.50 -8.50 2.30 -4.40 4.30 -8.20 4.50 -8.50 0.20 -0.25 1.90 -3.40 3.75 -7 1.85 -3.55 4.10 -7.85 5 -9.50 0.90 -1.65 2.85 -5.35 4.40 -8.25 1.50 -2.90 5.60 -10.65 9.10 -17.25 3.50 -6.60 7.75 -14.60 9.40 -17.75 1.65 -3.15 3.10 -5.85 3.15 -5.95 0.25 -0.30 9.75 7.50 12.45 10.20 1.40 1.35 3.55 3.75 4.85 5.25 l2.40 2.75 0 -52.10 0 -52.15 -81.75 0 c-44.95 0 -81.75 0.05 -81.75 0.15 0 0.05 0.25 1.45 0.50 3.10 0.30 1.65 0.70 4.45 0.95 6.25 0.45 3.25 2.60 17.65 4.55 30.50 0.55 3.70 1.25 8.20 1.50 10 0.25 1.80 1.15 7.85 2 13.50 0.90 5.65 1.75 11.60 2 13.25 0.45 3.20 3 20.30 4.25 28.45 1.05 6.80 1.05 6.65 -1.10 5 -1.05 -0.75 -2 -1.55 -2.15 -1.70 -0.15 -0.15 -1.80 -1.40 -3.75 -2.80 -12.70 -9.10 -28.25 -14.45 -42.70 -14.80 l-5.05 -0.10 -0.20 -1.55 c-0.15 -0.80 -0.45 -3.05 -0.75 -5 -0.65 -4.15 -2.65 -17.75 -4.30 -29.25 -0.70 -4.55 -1.45 -9.60 -1.75 -11.25 -0.25 -1.65 -0.95 -6.05 -1.50 -9.75 -2.10 -14.35 -4.50 -30.35 -4.80 -32.10 l-0.35 -1.90 -22.40 0 -22.45 0 0 61.25 c0 33.70 0.20 61.25 0.40 61.25 0.25 0 0.75 -0.55 1.10 -1.25 0.90 -1.65 8.75 -8.90 12.65 -11.70 3 -2.10 14.90 -8.15 15.30 -7.75 0.10 0.10 0.60 2.50 1.10 5.30 0.50 2.85 1.25 7.10 1.65 9.55 0.45 2.40 1.15 6.30 1.55 8.75 1 5.55 2.35 13.10 4.25 23.85 0.85 4.70 2.20 12.35 3 17 1.85 10.55 2.90 16.35 5.50 31 3.05 17.15 3.80 21.30 5.20 29.25 0.70 4 1.60 9.15 2 11.50 0.40 2.35 1.10 6.30 1.55 8.75 1.55 8.80 2.30 13 2.55 13.90 0.25 0.80 5.55 0.85 101.75 0.85 l101.45 0 0 -33z m-45.30 -19.55 c7.65 -1.65 14.40 -4.40 20.05 -8.15 10.55 -7 18.50 -16.60 22.95 -27.60 l1.80 -4.55 0 -18.75 c0 -16.95 -0.10 -19 -0.95 -21.45 -1.25 -3.70 -4 -9.05 -6.70 -13.05 -2.30 -3.45 -6.90 -9.35 -7.35 -9.35 -0.30 -0.05 -1.45 2 -6.60 11.95 -2.25 4.25 -4.20 8 -4.40 8.25 -0.20 0.30 -2.25 4.10 -4.50 8.50 -2.30 4.40 -4.30 8.25 -4.50 8.50 -0.20 0.30 -2.10 3.90 -4.25 8 -2.15 4.15 -4.65 8.80 -5.60 10.40 -0.90 1.60 -1.65 3 -1.65 3.10 0 0.15 -1.85 3.65 -4.05 7.85 -2.25 4.20 -5.10 9.55 -6.35 11.90 -1.20 2.35 -4.60 8.70 -7.50 14.20 -4.05 7.70 -5.10 10 -4.55 10.30 0.35 0.25 2.15 0.60 3.95 0.75 1.80 0.15 3.70 0.40 4.25 0.50 2.20 0.40 11.75 -0.35 15.95 -1.30z m-119.75 -133.50 c-0.85 -5.60 -2.15 -14.45 -2.95 -19.70 -0.75 -5.20 -2.10 -14.10 -2.95 -19.75 -1.90 -12.70 -3.40 -22.60 -4.20 -27.50 -0.30 -2.05 -0.60 -4.80 -0.60 -6.10 l0 -2.40 -13.70 0 -13.70 0 0.30 2.10 c0.45 3 3.05 20.25 4.85 32.40 0.85 5.65 1.75 11.60 2 13.25 0.50 3.40 1.05 7.10 2.50 16.75 0.55 3.70 1.25 8.45 1.55 10.50 0.30 2.05 0.65 3.90 0.75 4.10 0.15 0.25 1.10 0.40 2.15 0.40 3.80 0 11.50 1.65 18.30 3.95 3.85 1.30 7.05 2.30 7.10 2.30 0.05 -0.05 -0.55 -4.65 -1.40 -10.30z"/>
  <path d="M127.85 308.70 c-0.15 -0.25 -0.40 -1.25 -0.55 -2.20 -0.15 -0.95 -1.30 -7.40 -2.55 -14.30 -3.25 -18.25 -4.15 -23.30 -5.25 -29.70 -1 -5.65 -1.45 -8.25 -3.50 -19.25 -0.55 -3 -1.65 -9.20 -2.45 -13.75 -3.30 -18.45 -6.75 -37.85 -8.60 -48.05 -1.05 -5.95 -1.95 -11.20 -1.95 -11.65 0 -1 1.15 -1.45 8.75 -3.45 5.85 -1.55 6.25 -1.60 17 -1.55 10.25 0 11.40 0.10 16.35 1.35 15.75 3.90 28.85 11.80 38.35 23.10 9.55 11.35 14.95 23.05 17.10 37.35 0.75 5.10 0.30 19.90 -0.80 24.90 -2 9.05 -6.25 18.95 -11.35 26.40 -2.95 4.30 -12.15 13.80 -16.40 16.95 -2.40 1.80 -11.25 7.15 -11.75 7.15 -0.15 0 -1.40 0.55 -2.85 1.20 -4.25 1.90 -8.40 3.20 -13.95 4.30 -5.75 1.20 -15.15 1.90 -15.60 1.20z m16.65 -14.50 c19.15 -5.15 35.20 -20.55 41.15 -39.45 5.40 -17.15 2.80 -36.25 -6.80 -50.50 -3.65 -5.40 -7.35 -9.65 -11 -12.60 -2 -1.60 -3.70 -3.05 -3.85 -3.20 -0.65 -0.75 -8.15 -5 -11.25 -6.30 -10.45 -4.50 -22.05 -6.20 -31.80 -4.60 -3.90 0.65 -3.75 0.40 -2.75 5.60 0.40 2 1.20 6.40 1.80 9.85 0.60 3.45 1.30 7.40 1.55 8.75 0.90 4.90 2.45 13.65 3.95 22 0.80 4.70 1.95 11 2.50 14 0.55 3.05 1.65 9.35 2.50 14 2.05 11.75 3.40 19.15 4.50 25 0.50 2.75 1.45 8.10 2.05 11.90 l1.15 6.85 1.80 -0.30 c0.95 -0.15 3 -0.60 4.50 -1z"/>
  <path d="M234.05 268.40 c-13.35 -10.70 -22.60 -25.65 -26.90 -43.40 -1.75 -7.20 -2.15 -19.50 -0.90 -27.10 2.60 -16.05 9.15 -28.80 20.50 -40.15 7.80 -7.85 18.05 -14.35 27.50 -17.50 9.20 -3.05 11.95 -3.45 23.50 -3.50 8.60 0 11.85 0.20 14.85 0.85 5.70 1.30 16.40 4.85 16.40 5.50 0 0.30 -1.20 2.85 -2.70 5.60 -3.75 7.10 -7.05 13.30 -9.80 18.55 -1.30 2.50 -3.50 6.65 -4.90 9.25 -6.20 11.75 -43 81.25 -45.25 85.50 -4.40 8.35 -5.90 11 -6.25 11 -0.20 0 -2.90 -2.05 -6.05 -4.60z m4.80 -19.50 c1.15 -2.30 3.25 -6.30 4.65 -8.90 3.15 -5.85 7.65 -14.35 11.65 -22 1.65 -3.15 3.85 -7.30 4.95 -9.15 1.05 -1.90 1.90 -3.55 1.90 -3.65 0 -0.10 1.60 -3.15 3.55 -6.80 1.95 -3.65 5.15 -9.70 7.10 -13.40 1.95 -3.70 4.40 -8.30 5.45 -10.15 1.05 -1.90 1.90 -3.55 1.90 -3.65 0 -0.10 1.70 -3.40 3.85 -7.30 4.70 -8.80 6.65 -12.70 6.65 -13.30 0 -0.90 -8.80 -1.75 -14.85 -1.45 -15.60 0.75 -28.95 6.65 -39.85 17.60 -9.50 9.50 -14.85 20.10 -17.05 33.60 -1.65 10.35 -0.30 21.15 4 31.85 2.55 6.30 7.50 14.50 11.10 18.30 0.90 0.95 1.65 1.90 1.65 2.15 0 0.20 0.30 0.35 0.65 0.35 0.35 0 1.55 -1.85 2.70 -4.10z"/>
  <path d="M197.60 202.15 c-2.95 -5.95 -5.60 -10.45 -8.10 -13.65 -1.35 -1.75 -1.65 -3.15 -3.50 -16.25 -0.20 -1.65 -1.10 -7.70 -2 -13.50 -0.85 -5.75 -1.75 -11.85 -2 -13.50 -0.40 -3 -3.10 -21.15 -6 -40.75 -2.35 -15.90 -2.40 -16.25 -2.05 -16.60 0.50 -0.55 10.10 -2.35 15.80 -3 6 -0.65 16.95 -0.25 22.45 0.85 5.45 1.05 13.35 3.75 18.40 6.30 14.05 7.05 27 20.45 33.70 34.90 1.20 2.55 2.20 4.75 2.20 4.80 0 0.10 -0.85 0.30 -1.85 0.50 -7.45 1.30 -22.95 7.90 -30.25 12.80 -16.75 11.25 -27.75 27.60 -31.90 47.50 -1.20 5.80 -2.10 13.60 -1.70 14.65 0.15 0.45 0.15 0.80 0 0.80 -0.15 0 -1.60 -2.65 -3.20 -5.85z m1.40 -36.75 c0 -0.95 7.40 -11.75 11.20 -16.30 6.15 -7.35 13.30 -13.65 20.40 -18 4.60 -2.85 10.70 -5.85 13.80 -6.85 1.45 -0.50 2.60 -1.10 2.60 -1.40 0 -0.25 -0.85 -1.55 -1.85 -2.80 -10.75 -13.15 -24.35 -20.65 -40.90 -22.55 -5 -0.60 -14.45 -0.30 -15.70 0.50 -0.55 0.30 -0.45 1.65 0.35 6.80 0.55 3.55 1.15 7.45 1.35 8.70 0.20 1.25 1 6.75 1.80 12.25 0.85 5.50 2.30 15.30 3.20 21.75 2.30 15.45 2.85 18.50 3.35 18.50 0.20 0 0.40 -0.25 0.40 -0.60z"/>
  <path d="M647.45 328.25 c-1.80 -1 -3.25 -3.60 -4.55 -8.20 -1 -3.40 -1.10 -5 -1.10 -14.55 0 -14.10 1.30 -20.05 5 -22.95 4 -3.15 8 0.85 9.75 9.70 1 5.10 0.85 21.85 -0.25 26.70 -1.10 4.90 -3.05 8.50 -5.15 9.40 -1.95 0.80 -2.05 0.80 -3.70 -0.10z"/>
  <path d="M962.35 328.10 c-1.85 -1.10 -3.65 -4.95 -4.65 -9.85 -1.10 -5.45 -1.10 -20.95 0 -26.45 1.70 -8.45 4.90 -11.80 9.20 -9.60 1.70 0.90 3.70 4.85 4.65 9.30 0.95 4.40 0.95 23.05 0 27.25 -0.95 4.20 -3 8.25 -4.80 9.35 -1.80 1.10 -2.55 1.10 -4.40 0z"/>
  <path d="M411.70 326.05 c-2.10 -1.30 -3.45 -3.10 -4.80 -6.45 -1 -2.55 -1.10 -3.75 -1.15 -11.60 0 -8.35 0.35 -11.40 1.85 -15.75 1.45 -4.25 3.80 -7.80 6.30 -9.50 3.45 -2.35 7.55 -1.20 7.60 2.15 0.20 12.10 -0.15 36.80 -0.55 38.25 -0.90 3.50 -5.80 5 -9.25 2.90z"/>
  <path d="M795.75 326.10 c-2.50 -1.55 -4.20 -4.30 -5.30 -8.60 -1.10 -4.40 -0.90 -16.70 0.45 -22.05 2.05 -8.35 5.75 -13.30 10.25 -13.80 1.80 -0.20 2.45 -0.05 3.30 0.80 1.05 1.05 1.05 1.35 1.05 20.45 0 17.40 -0.10 19.50 -0.90 21.10 -0.45 0.95 -1.40 2 -2.10 2.35 -1.80 0.90 -5 0.80 -6.75 -0.25z"/>
  <path d="M1103.05 326.15 c-2.20 -0.45 -5 -2.60 -6.15 -4.75 -0.90 -1.70 -1.15 -2.95 -1.15 -6.15 0 -7.10 3.35 -10.75 9.85 -10.75 3.85 0 6.30 1.55 8.05 4.95 2.90 5.80 1.25 12.50 -3.90 15.80 -1.15 0.75 -4.90 1.25 -6.70 0.90z m3.80 -6.15 c1.35 -4.05 0.35 -11.50 -1.60 -11.50 -1.20 0 -2.25 3.10 -2.25 6.75 0 5.90 2.40 8.90 3.85 4.75z"/>
  <path d="M1143.40 325.80 c-2.45 -0.90 -3.70 -2.40 -4.70 -5.75 -1.50 -5 0.45 -11.30 4.45 -14.25 0.80 -0.60 2.50 -1.15 4 -1.30 l2.60 -0.25 -0.05 -4.15 -0.05 -4.15 3.40 0.15 3.40 0.15 0.15 14.90 0.20 14.85 -3.10 0 c-2.05 0 -3.20 -0.20 -3.35 -0.60 -0.15 -0.50 -0.45 -0.50 -1.20 -0.10 -1.65 1 -3.85 1.20 -5.75 0.50z m6 -4.90 c0.85 -0.85 0.80 -10.40 -0.05 -11.60 -1.30 -1.80 -2.85 0.05 -3.85 4.50 -0.55 2.30 0 5.75 1.10 7.10 0.65 0.75 2 0.80 2.80 0z"/>
  <path d="M1185.65 326.15 c-1.70 -0.35 -3.50 -2.45 -3.85 -4.55 -0.15 -1 -0.30 -4.25 -0.30 -7.20 0 -5 -0.05 -5.35 -1 -5.50 -0.60 -0.10 -1.05 -0.30 -1 -0.50 0 -0.25 0 -1.05 0 -1.90 0 -1.15 0.20 -1.50 1 -1.50 0.90 0 1 -0.35 1 -3.25 l0 -3.25 3.50 0 3.50 0 0 3.20 0 3.25 1.60 0.15 c1.45 0.15 1.60 0.30 1.60 1.90 0 1.60 -0.15 1.75 -1.60 1.90 l-1.60 0.15 0 5.65 c0 5.90 0.35 7.05 2.25 7.40 0.80 0.15 0.95 0.50 0.85 1.90 -0.10 0.95 -0.25 1.80 -0.25 1.80 -0.35 0.25 -4.80 0.55 -5.70 0.35z"/>
  <path d="M1254.65 326 c-3.60 -0.85 -5.80 -3.05 -6.95 -6.95 -1.40 -4.70 0.10 -10.20 3.55 -12.85 2.35 -1.80 7.15 -2.30 9.65 -1 2.25 1.15 4.20 4.70 4 7.35 l-0.15 2.10 -4.85 1.75 c-2.70 0.95 -4.90 2 -4.90 2.30 0 0.95 1.90 2.75 3.25 3.10 0.80 0.20 1.85 -0.05 3.10 -0.80 l1.85 -1.10 0.90 1.10 c1.35 1.65 1.10 2.35 -1.20 3.65 -2.40 1.40 -5.85 1.95 -8.25 1.35z m2.10 -12.70 c1.85 -0.80 2.05 -1.40 1.25 -3.50 -0.55 -1.45 -2.05 -1.70 -3 -0.55 -0.85 1 -1.30 4.75 -0.55 4.75 0.30 0 1.35 -0.35 2.30 -0.70z"/>
  <path d="M1321 326.05 c-7.60 -1.60 -10.10 -8.75 -4.80 -13.60 l1.80 -1.60 -1.50 -1.70 c-4.85 -5.50 -0.35 -12.15 8.15 -12.15 3.85 0 6.30 0.85 8.10 2.80 1.05 1.10 1.25 1.85 1.25 4.20 0 2.50 -0.20 3.10 -1.50 4.50 -1.75 1.90 -1.85 2.30 -0.55 2.75 1.55 0.50 3.20 3.70 3.20 6.25 0 4.70 -3.80 8.20 -9.40 8.70 -1.65 0.10 -3.80 0.05 -4.75 -0.15z m4.85 -3.85 c0.60 -0.15 1.35 -0.95 1.65 -1.70 0.75 -1.75 0.20 -2.85 -2.35 -5 l-1.90 -1.55 -1.60 1.85 c-1.95 2.25 -2.10 3.80 -0.40 5.45 1.20 1.25 2.50 1.50 4.60 0.95z m1.25 -17 c1.65 -2.85 -0.45 -5.35 -3.80 -4.50 -1.55 0.40 -2 2.15 -0.95 3.80 1.90 2.90 3.35 3.10 4.75 0.70z"/>
  <path d="M1078.25 311 l0 -15 9.15 0 9.10 0 0 2.65 0 2.65 -5.20 -0.20 -5.20 -0.20 -0.35 2 c-0.15 1.10 -0.15 2.80 0.05 3.80 l0.30 1.85 3.60 -0.10 3.55 -0.10 0.15 2.70 0.15 2.70 -3.90 0 -3.90 0 0.10 6.15 0.15 6.10 -3.90 0 -3.85 0 0 -15z"/>
  <path d="M1117.65 321.90 c0.20 -2.30 0.25 -7 0.10 -10.50 l-0.30 -6.40 3.25 0 c1.80 0 3.30 0.25 3.40 0.55 0.10 0.30 0.70 0.25 1.65 -0.25 0.85 -0.45 2.60 -0.80 3.90 -0.80 2.05 0 2.65 0.25 3.85 1.50 1.70 1.80 1.95 3.35 2.05 12.50 l0.05 7.25 -3.65 0.15 -3.70 0.15 0.15 -7.70 c0.20 -7.60 0.15 -7.75 -1 -8.55 -1.10 -0.80 -1.20 -0.75 -2.10 0.30 -0.80 1.05 -0.90 1.90 -0.70 8.55 l0.20 7.35 -3.80 0 -3.80 0 0.45 -4.10z"/>
  <path d="M1161.80 324.95 c-1.55 -1.20 -2.80 -3.45 -2.80 -5 0 -0.65 0.45 -2.05 1 -3.20 1.05 -2.20 3.65 -3.95 7.65 -5.25 2.05 -0.65 2.25 -1.05 1 -2.25 -1 -1.05 -4.80 -0.70 -6.15 0.50 -1.30 1.20 -1.50 0.95 -1.50 -2.30 l0 -3.05 5.40 0.15 c5.05 0.20 5.55 0.30 7.30 1.65 1 0.75 2.10 2 2.40 2.70 0.25 0.75 0.65 4.50 0.90 8.35 0.20 3.85 0.50 7.40 0.75 7.90 0.30 0.75 0 0.85 -3.15 0.85 -2.35 0 -3.60 -0.20 -3.70 -0.60 -0.20 -0.50 -0.50 -0.50 -1.60 0 -2.20 1 -5.95 0.75 -7.50 -0.45z m8.10 -6.90 c0.10 -1.65 -0.05 -3.05 -0.30 -3.05 -1 0 -3.60 2.95 -3.60 4.05 0 1.70 1.35 2.95 2.65 2.50 0.95 -0.35 1.10 -0.85 1.25 -3.50z"/>
  <path d="M1195.25 324.35 c-2.05 -2.05 -2.55 -3.85 -1.80 -6.35 0.75 -2.50 3.25 -4.65 7.05 -6.05 1.65 -0.60 3 -1.25 3 -1.50 0 -0.20 -0.40 -0.75 -0.85 -1.20 -1 -1.05 -4.80 -0.70 -6.15 0.50 -1.30 1.20 -1.50 0.95 -1.50 -2.25 l0 -3 4.50 0 c6.10 0 9.40 1.40 10.60 4.50 0.30 0.70 0.65 4.40 0.90 8.25 0.20 3.85 0.50 7.40 0.75 7.90 0.30 0.75 0 0.85 -3.15 0.85 -2.35 0 -3.60 -0.20 -3.70 -0.60 -0.20 -0.50 -0.50 -0.50 -1.60 0 -0.75 0.30 -2.50 0.60 -3.85 0.60 -2.20 0 -2.75 -0.20 -4.20 -1.65z m8.65 -6.30 c0.10 -1.65 -0.05 -3.05 -0.30 -3.05 -1 0 -3.60 2.95 -3.60 4.05 0 1.70 1.35 2.95 2.65 2.50 0.95 -0.35 1.10 -0.85 1.25 -3.50z"/>
  <path d="M1226.50 325.90 c0 -0.10 -0.05 -4.80 -0.15 -10.55 l-0.10 -10.35 3.05 0 c1.65 0 3.25 0.25 3.50 0.50 0.35 0.35 1 0.30 2 -0.25 0.80 -0.40 2.55 -0.75 3.85 -0.75 2.10 0 2.65 0.25 3.90 1.55 1.40 1.50 1.45 1.70 1.45 6.95 0 2.95 0.15 7.05 0.30 9.15 l0.35 3.85 -3.70 0 -3.70 0 0.15 -7.40 c0.20 -6.80 0.10 -7.45 -0.80 -8.60 -1 -1.25 -1 -1.25 -2.10 -0.25 -1.05 0.95 -1.10 1.30 -0.90 8.60 l0.15 7.65 -3.60 0 c-2 0 -3.65 -0.05 -3.65 -0.10z"/>
  <path d="M1267.75 311 l0 -15 3.65 0 3.60 0 0 15 0 15 -3.60 0 -3.65 0 0 -15z"/>
  <path d="M1295.10 324.15 c0.15 -1.65 0.30 -1.90 1.40 -1.90 l1.25 0 0.15 -9.35 0.10 -9.40 -2.50 0 -2.50 0 0 -1.75 c0 -1.35 0.20 -1.75 0.90 -1.75 0.45 0 3.10 -0.70 5.85 -1.50 2.75 -0.80 5.05 -1.50 5.10 -1.50 0.10 0 0.20 5.70 0.25 12.65 0.15 12.55 0.15 12.60 1.20 12.50 0.90 -0.10 1.15 0.20 1.30 1.65 0.10 0.95 0.10 1.85 -0.05 1.95 -0.10 0.15 -3 0.25 -6.40 0.25 l-6.20 0 0.15 -1.85z"/>
  <path d="M1339.50 325.70 c0 -0.15 0.95 -2.05 2.15 -4.15 2.75 -4.95 8.85 -17.60 8.85 -18.40 0 -0.40 -10.60 0.15 -11.60 0.55 -0.80 0.35 -0.90 0.05 -0.90 -2.90 l0 -3.30 9.50 0 9.50 0 0 2 c0 1.10 -0.60 3.50 -1.30 5.35 -2.25 5.80 -6.70 19.30 -6.70 20.25 0 0.80 -0.50 0.90 -4.75 0.90 -2.60 0 -4.75 -0.15 -4.75 -0.30z"/>
  <path d="M1365.40 325.65 c-0.10 -0.25 -0.10 -1.05 0.05 -1.90 0.25 -1.20 0.55 -1.50 1.55 -1.50 l1.25 0 0.15 -9.35 0.10 -9.40 -2.25 0 c-2.20 0 -2.25 -0.05 -2.25 -1.65 l0 -1.60 4.90 -1.40 c2.65 -0.80 5.25 -1.55 5.75 -1.70 0.80 -0.25 0.85 0.55 0.85 12.55 l0 12.85 1.15 -0.15 c0.95 -0.15 1.10 0.10 1.25 1.75 l0.15 1.85 -6.25 0 c-3.45 0 -6.30 -0.15 -6.40 -0.35z"/>
  <path d="M902.70 153.05 c-2.30 -1.40 -4.15 -5.60 -5.05 -11.40 -0.95 -6.35 -0.65 -21.95 0.55 -26.40 1.75 -6.40 4.15 -9.15 7.50 -8.55 2.45 0.45 4.20 2.90 5.70 8.05 0.95 3.35 1.40 21.70 0.65 26.70 -1.50 9.55 -5.20 14.15 -9.35 11.60z"/>
  <path d="M976.15 153.50 c-0.60 -0.25 -1.30 -0.90 -1.60 -1.45 -0.75 -1.35 -0.75 -37.45 -0.05 -39.35 0.65 -1.65 2.25 -3.10 3.85 -3.50 1.75 -0.45 4.70 0.15 6.15 1.20 6.85 5.05 7.30 28.75 0.80 38.65 -2.25 3.35 -6.60 5.50 -9.15 4.45z"/>
  <path d="M1054.75 153.50 c-2.70 -1.10 -4.80 -5.50 -5.75 -11.85 -0.65 -4.45 -0.65 -19.55 0 -23.55 1.15 -7.05 3.50 -11 6.80 -11.45 1.75 -0.20 2.25 -0.05 3.45 1.15 3.25 3.25 4.75 10.25 4.75 22.15 0 12.90 -1.95 20.80 -5.70 23.10 -1.70 1.05 -2.05 1.10 -3.55 0.45z"/>
  <path d="M495.40 152.15 c-0.75 -0.35 -1.95 -1.65 -2.65 -2.85 -2.60 -4.45 -1.15 -11 3.35 -15.05 1.90 -1.75 7.45 -4.75 8.80 -4.75 0.45 0 0.60 2.45 0.60 10.50 l0 10.45 -2.15 1.30 c-2.50 1.40 -5.75 1.60 -7.95 0.40z"/>
  <path d="M704.60 151.90 c-3.65 -2.60 -4.70 -8.50 -2.30 -13.25 1.60 -3.25 4.40 -5.80 8.40 -7.70 5.10 -2.40 4.80 -3 4.80 8.70 0 9.10 -0.10 10.30 -0.85 10.95 -3 2.60 -7.35 3.15 -10.05 1.30z"/>
  <path d="M1162.95 151.80 c-1 -0.70 -2.20 -2 -2.65 -2.95 -1 -2.20 -1.05 -7.25 -0.05 -9.65 1.50 -3.60 7.45 -8.35 11.95 -9.50 l1.30 -0.30 0 10.50 0 10.55 -2.15 1.30 c-2.90 1.65 -6 1.70 -8.40 0.05z"/>
  <path d="M412.65 151.15 l-1.65 -0.20 0 -14.65 0 -14.70 1.15 -0.30 c1.75 -0.45 6.10 -0.35 8.95 0.25 5.35 1.15 9.10 3.90 10.95 8.10 1.60 3.60 1.65 10.60 0.05 13.65 -3.30 6.40 -9.85 9.05 -19.45 7.85z"/>
  <path d="M1283.15 121.15 c0.30 -6.90 1.40 -10.20 4.20 -13 1.85 -1.85 2.40 -2.15 4.30 -2.15 2.60 0 4.05 0.95 5.40 3.60 1.20 2.35 1.80 8.05 1 10.05 -0.35 0.85 -1.30 1.70 -2.65 2.30 -3.30 1.50 -11.35 4.55 -11.95 4.55 -0.40 0 -0.50 -1.60 -0.30 -5.35z"/>
  <path d="M822.10 95.15 l0.15 -14.90 2.25 -0.15 c2.80 -0.20 8.15 0.70 10.75 1.85 2.80 1.25 6.05 4.70 6.95 7.45 0.45 1.25 0.80 3.90 0.80 5.90 0 9.40 -6.50 14.70 -18.10 14.70 l-2.90 0 0.10 -14.85z"/>
  <path d="M411 91.30 l0 -12.70 3.25 -0.35 c6.35 -0.70 11.70 1.25 14.45 5.20 3.10 4.50 2.60 12.25 -1.05 16.30 -2.70 3.05 -6.20 4.25 -12.35 4.25 l-4.30 0 0 -12.70z"/>
 </g>
</svg>